<?xml version="1.0" encoding="utf-8" standalone="no"?>
<!DOCTYPE svg PUBLIC "-//W3C//DTD SVG 1.1//EN"
  "http://www.w3.org/Graphics/SVG/1.1/DTD/svg11.dtd">
<svg xmlns:xlink="http://www.w3.org/1999/xlink" width="576pt" height="324pt" viewBox="0 0 576 324" xmlns="http://www.w3.org/2000/svg" version="1.1">
 <metadata>
  <rdf:RDF xmlns:dc="http://purl.org/dc/elements/1.1/" xmlns:cc="http://creativecommons.org/ns#" xmlns:rdf="http://www.w3.org/1999/02/22-rdf-syntax-ns#">
   <cc:Work>
    <dc:type rdf:resource="http://purl.org/dc/dcmitype/StillImage"/>
    <dc:date>2022-12-02T18:23:48.693280</dc:date>
    <dc:format>image/svg+xml</dc:format>
    <dc:creator>
     <cc:Agent>
      <dc:title>Matplotlib v3.5.3, https://matplotlib.org/</dc:title>
     </cc:Agent>
    </dc:creator>
   </cc:Work>
  </rdf:RDF>
 </metadata>
 <defs>
  <style type="text/css">*{stroke-linejoin: round; stroke-linecap: butt}</style>
 </defs>
 <g id="figure_1">
  <g id="patch_1">
   <path d="M 0 324 
L 576 324 
L 576 0 
L 0 0 
z
" style="fill: #ffffff"/>
  </g>
  <g id="axes_1">
   <g id="patch_2">
    <path d="M 68.3275 268.845625 
L 560.88 268.845625 
L 560.88 15.12 
L 68.3275 15.12 
z
" style="fill: #ffffff"/>
   </g>
   <g id="patch_3">
    <path d="M 285.762274 268.845625 
L 285.762274 15.12 
L 335.685868 15.12 
L 335.685868 268.845625 
z
" clip-path="url(#pba54b76a84)" style="fill: #4d8b31; opacity: 0.3; stroke: #4d8b31; stroke-linejoin: miter"/>
   </g>
   <g id="patch_4">
    <path d="M 422.401435 268.845625 
L 422.401435 15.12 
L 488.396838 15.12 
L 488.396838 268.845625 
z
" clip-path="url(#pba54b76a84)" style="fill: #ec6c5f; opacity: 0.3; stroke: #ec6c5f; stroke-linejoin: miter"/>
   </g>
   <g id="matplotlib.axis_1">
    <g id="xtick_1">
     <g id="line2d_1">
      <defs>
       <path id="m475aa6c9ad" d="M 0 0 
L 0 3.5 
" style="stroke: #000000; stroke-width: 0.8"/>
      </defs>
      <g>
       <use xlink:href="#m475aa6c9ad" x="90.71625" y="268.845625" style="stroke: #000000; stroke-width: 0.8"/>
      </g>
     </g>
     <g id="text_1">
      <!-- $\mathdefault{10^{-1}}$ -->
      <g transform="translate(74.26625 286.483437)scale(0.14 -0.14)">
       <defs>
        <path id="DejaVuSans-31" d="M 794 531 
L 1825 531 
L 1825 4091 
L 703 3866 
L 703 4441 
L 1819 4666 
L 2450 4666 
L 2450 531 
L 3481 531 
L 3481 0 
L 794 0 
L 794 531 
z
" transform="scale(0.015625)"/>
        <path id="DejaVuSans-30" d="M 2034 4250 
Q 1547 4250 1301 3770 
Q 1056 3291 1056 2328 
Q 1056 1369 1301 889 
Q 1547 409 2034 409 
Q 2525 409 2770 889 
Q 3016 1369 3016 2328 
Q 3016 3291 2770 3770 
Q 2525 4250 2034 4250 
z
M 2034 4750 
Q 2819 4750 3233 4129 
Q 3647 3509 3647 2328 
Q 3647 1150 3233 529 
Q 2819 -91 2034 -91 
Q 1250 -91 836 529 
Q 422 1150 422 2328 
Q 422 3509 836 4129 
Q 1250 4750 2034 4750 
z
" transform="scale(0.015625)"/>
        <path id="DejaVuSans-2212" d="M 678 2272 
L 4684 2272 
L 4684 1741 
L 678 1741 
L 678 2272 
z
" transform="scale(0.015625)"/>
       </defs>
       <use xlink:href="#DejaVuSans-31" transform="translate(0 0.684375)"/>
       <use xlink:href="#DejaVuSans-30" transform="translate(63.623047 0.684375)"/>
       <use xlink:href="#DejaVuSans-2212" transform="translate(128.203125 38.965625)scale(0.7)"/>
       <use xlink:href="#DejaVuSans-31" transform="translate(186.855469 38.965625)scale(0.7)"/>
      </g>
     </g>
    </g>
    <g id="xtick_2">
     <g id="line2d_2">
      <g>
       <use xlink:href="#m475aa6c9ad" x="256.558843" y="268.845625" style="stroke: #000000; stroke-width: 0.8"/>
      </g>
     </g>
     <g id="text_2">
      <!-- $\mathdefault{10^{0}}$ -->
      <g transform="translate(244.238843 286.483437)scale(0.14 -0.14)">
       <use xlink:href="#DejaVuSans-31" transform="translate(0 0.765625)"/>
       <use xlink:href="#DejaVuSans-30" transform="translate(63.623047 0.765625)"/>
       <use xlink:href="#DejaVuSans-30" transform="translate(128.203125 39.046875)scale(0.7)"/>
      </g>
     </g>
    </g>
    <g id="xtick_3">
     <g id="line2d_3">
      <g>
       <use xlink:href="#m475aa6c9ad" x="422.401435" y="268.845625" style="stroke: #000000; stroke-width: 0.8"/>
      </g>
     </g>
     <g id="text_3">
      <!-- $\mathdefault{10^{1}}$ -->
      <g transform="translate(410.081435 286.483437)scale(0.14 -0.14)">
       <use xlink:href="#DejaVuSans-31" transform="translate(0 0.684375)"/>
       <use xlink:href="#DejaVuSans-30" transform="translate(63.623047 0.684375)"/>
       <use xlink:href="#DejaVuSans-31" transform="translate(128.203125 38.965625)scale(0.7)"/>
      </g>
     </g>
    </g>
    <g id="xtick_4">
     <g id="line2d_4">
      <defs>
       <path id="m2133d7c07a" d="M 0 0 
L 0 2 
" style="stroke: #000000; stroke-width: 0.6"/>
      </defs>
      <g>
       <use xlink:href="#m2133d7c07a" x="74.644442" y="268.845625" style="stroke: #000000; stroke-width: 0.6"/>
      </g>
     </g>
    </g>
    <g id="xtick_5">
     <g id="line2d_5">
      <g>
       <use xlink:href="#m2133d7c07a" x="83.127709" y="268.845625" style="stroke: #000000; stroke-width: 0.6"/>
      </g>
     </g>
    </g>
    <g id="xtick_6">
     <g id="line2d_6">
      <g>
       <use xlink:href="#m2133d7c07a" x="140.639845" y="268.845625" style="stroke: #000000; stroke-width: 0.6"/>
      </g>
     </g>
    </g>
    <g id="xtick_7">
     <g id="line2d_7">
      <g>
       <use xlink:href="#m2133d7c07a" x="169.843276" y="268.845625" style="stroke: #000000; stroke-width: 0.6"/>
      </g>
     </g>
    </g>
    <g id="xtick_8">
     <g id="line2d_8">
      <g>
       <use xlink:href="#m2133d7c07a" x="190.56344" y="268.845625" style="stroke: #000000; stroke-width: 0.6"/>
      </g>
     </g>
    </g>
    <g id="xtick_9">
     <g id="line2d_9">
      <g>
       <use xlink:href="#m2133d7c07a" x="206.635248" y="268.845625" style="stroke: #000000; stroke-width: 0.6"/>
      </g>
     </g>
    </g>
    <g id="xtick_10">
     <g id="line2d_10">
      <g>
       <use xlink:href="#m2133d7c07a" x="219.766871" y="268.845625" style="stroke: #000000; stroke-width: 0.6"/>
      </g>
     </g>
    </g>
    <g id="xtick_11">
     <g id="line2d_11">
      <g>
       <use xlink:href="#m2133d7c07a" x="230.8695" y="268.845625" style="stroke: #000000; stroke-width: 0.6"/>
      </g>
     </g>
    </g>
    <g id="xtick_12">
     <g id="line2d_12">
      <g>
       <use xlink:href="#m2133d7c07a" x="240.487035" y="268.845625" style="stroke: #000000; stroke-width: 0.6"/>
      </g>
     </g>
    </g>
    <g id="xtick_13">
     <g id="line2d_13">
      <g>
       <use xlink:href="#m2133d7c07a" x="248.970302" y="268.845625" style="stroke: #000000; stroke-width: 0.6"/>
      </g>
     </g>
    </g>
    <g id="xtick_14">
     <g id="line2d_14">
      <g>
       <use xlink:href="#m2133d7c07a" x="306.482438" y="268.845625" style="stroke: #000000; stroke-width: 0.6"/>
      </g>
     </g>
    </g>
    <g id="xtick_15">
     <g id="line2d_15">
      <g>
       <use xlink:href="#m2133d7c07a" x="335.685868" y="268.845625" style="stroke: #000000; stroke-width: 0.6"/>
      </g>
     </g>
    </g>
    <g id="xtick_16">
     <g id="line2d_16">
      <g>
       <use xlink:href="#m2133d7c07a" x="356.406032" y="268.845625" style="stroke: #000000; stroke-width: 0.6"/>
      </g>
     </g>
    </g>
    <g id="xtick_17">
     <g id="line2d_17">
      <g>
       <use xlink:href="#m2133d7c07a" x="372.47784" y="268.845625" style="stroke: #000000; stroke-width: 0.6"/>
      </g>
     </g>
    </g>
    <g id="xtick_18">
     <g id="line2d_18">
      <g>
       <use xlink:href="#m2133d7c07a" x="385.609463" y="268.845625" style="stroke: #000000; stroke-width: 0.6"/>
      </g>
     </g>
    </g>
    <g id="xtick_19">
     <g id="line2d_19">
      <g>
       <use xlink:href="#m2133d7c07a" x="396.712093" y="268.845625" style="stroke: #000000; stroke-width: 0.6"/>
      </g>
     </g>
    </g>
    <g id="xtick_20">
     <g id="line2d_20">
      <g>
       <use xlink:href="#m2133d7c07a" x="406.329627" y="268.845625" style="stroke: #000000; stroke-width: 0.6"/>
      </g>
     </g>
    </g>
    <g id="xtick_21">
     <g id="line2d_21">
      <g>
       <use xlink:href="#m2133d7c07a" x="414.812894" y="268.845625" style="stroke: #000000; stroke-width: 0.6"/>
      </g>
     </g>
    </g>
    <g id="xtick_22">
     <g id="line2d_22">
      <g>
       <use xlink:href="#m2133d7c07a" x="472.32503" y="268.845625" style="stroke: #000000; stroke-width: 0.6"/>
      </g>
     </g>
    </g>
    <g id="xtick_23">
     <g id="line2d_23">
      <g>
       <use xlink:href="#m2133d7c07a" x="501.528461" y="268.845625" style="stroke: #000000; stroke-width: 0.6"/>
      </g>
     </g>
    </g>
    <g id="xtick_24">
     <g id="line2d_24">
      <g>
       <use xlink:href="#m2133d7c07a" x="522.248625" y="268.845625" style="stroke: #000000; stroke-width: 0.6"/>
      </g>
     </g>
    </g>
    <g id="xtick_25">
     <g id="line2d_25">
      <g>
       <use xlink:href="#m2133d7c07a" x="538.320433" y="268.845625" style="stroke: #000000; stroke-width: 0.6"/>
      </g>
     </g>
    </g>
    <g id="xtick_26">
     <g id="line2d_26">
      <g>
       <use xlink:href="#m2133d7c07a" x="551.452056" y="268.845625" style="stroke: #000000; stroke-width: 0.6"/>
      </g>
     </g>
    </g>
    <g id="text_4">
     <!-- L-lactate concentration (mM) -->
     <g transform="translate(198.35 305.5525)scale(0.16 -0.16)">
      <defs>
       <path id="DejaVuSans-4c" d="M 628 4666 
L 1259 4666 
L 1259 531 
L 3531 531 
L 3531 0 
L 628 0 
L 628 4666 
z
" transform="scale(0.015625)"/>
       <path id="DejaVuSans-2d" d="M 313 2009 
L 1997 2009 
L 1997 1497 
L 313 1497 
L 313 2009 
z
" transform="scale(0.015625)"/>
       <path id="DejaVuSans-6c" d="M 603 4863 
L 1178 4863 
L 1178 0 
L 603 0 
L 603 4863 
z
" transform="scale(0.015625)"/>
       <path id="DejaVuSans-61" d="M 2194 1759 
Q 1497 1759 1228 1600 
Q 959 1441 959 1056 
Q 959 750 1161 570 
Q 1363 391 1709 391 
Q 2188 391 2477 730 
Q 2766 1069 2766 1631 
L 2766 1759 
L 2194 1759 
z
M 3341 1997 
L 3341 0 
L 2766 0 
L 2766 531 
Q 2569 213 2275 61 
Q 1981 -91 1556 -91 
Q 1019 -91 701 211 
Q 384 513 384 1019 
Q 384 1609 779 1909 
Q 1175 2209 1959 2209 
L 2766 2209 
L 2766 2266 
Q 2766 2663 2505 2880 
Q 2244 3097 1772 3097 
Q 1472 3097 1187 3025 
Q 903 2953 641 2809 
L 641 3341 
Q 956 3463 1253 3523 
Q 1550 3584 1831 3584 
Q 2591 3584 2966 3190 
Q 3341 2797 3341 1997 
z
" transform="scale(0.015625)"/>
       <path id="DejaVuSans-63" d="M 3122 3366 
L 3122 2828 
Q 2878 2963 2633 3030 
Q 2388 3097 2138 3097 
Q 1578 3097 1268 2742 
Q 959 2388 959 1747 
Q 959 1106 1268 751 
Q 1578 397 2138 397 
Q 2388 397 2633 464 
Q 2878 531 3122 666 
L 3122 134 
Q 2881 22 2623 -34 
Q 2366 -91 2075 -91 
Q 1284 -91 818 406 
Q 353 903 353 1747 
Q 353 2603 823 3093 
Q 1294 3584 2113 3584 
Q 2378 3584 2631 3529 
Q 2884 3475 3122 3366 
z
" transform="scale(0.015625)"/>
       <path id="DejaVuSans-74" d="M 1172 4494 
L 1172 3500 
L 2356 3500 
L 2356 3053 
L 1172 3053 
L 1172 1153 
Q 1172 725 1289 603 
Q 1406 481 1766 481 
L 2356 481 
L 2356 0 
L 1766 0 
Q 1100 0 847 248 
Q 594 497 594 1153 
L 594 3053 
L 172 3053 
L 172 3500 
L 594 3500 
L 594 4494 
L 1172 4494 
z
" transform="scale(0.015625)"/>
       <path id="DejaVuSans-65" d="M 3597 1894 
L 3597 1613 
L 953 1613 
Q 991 1019 1311 708 
Q 1631 397 2203 397 
Q 2534 397 2845 478 
Q 3156 559 3463 722 
L 3463 178 
Q 3153 47 2828 -22 
Q 2503 -91 2169 -91 
Q 1331 -91 842 396 
Q 353 884 353 1716 
Q 353 2575 817 3079 
Q 1281 3584 2069 3584 
Q 2775 3584 3186 3129 
Q 3597 2675 3597 1894 
z
M 3022 2063 
Q 3016 2534 2758 2815 
Q 2500 3097 2075 3097 
Q 1594 3097 1305 2825 
Q 1016 2553 972 2059 
L 3022 2063 
z
" transform="scale(0.015625)"/>
       <path id="DejaVuSans-20" transform="scale(0.015625)"/>
       <path id="DejaVuSans-6f" d="M 1959 3097 
Q 1497 3097 1228 2736 
Q 959 2375 959 1747 
Q 959 1119 1226 758 
Q 1494 397 1959 397 
Q 2419 397 2687 759 
Q 2956 1122 2956 1747 
Q 2956 2369 2687 2733 
Q 2419 3097 1959 3097 
z
M 1959 3584 
Q 2709 3584 3137 3096 
Q 3566 2609 3566 1747 
Q 3566 888 3137 398 
Q 2709 -91 1959 -91 
Q 1206 -91 779 398 
Q 353 888 353 1747 
Q 353 2609 779 3096 
Q 1206 3584 1959 3584 
z
" transform="scale(0.015625)"/>
       <path id="DejaVuSans-6e" d="M 3513 2113 
L 3513 0 
L 2938 0 
L 2938 2094 
Q 2938 2591 2744 2837 
Q 2550 3084 2163 3084 
Q 1697 3084 1428 2787 
Q 1159 2491 1159 1978 
L 1159 0 
L 581 0 
L 581 3500 
L 1159 3500 
L 1159 2956 
Q 1366 3272 1645 3428 
Q 1925 3584 2291 3584 
Q 2894 3584 3203 3211 
Q 3513 2838 3513 2113 
z
" transform="scale(0.015625)"/>
       <path id="DejaVuSans-72" d="M 2631 2963 
Q 2534 3019 2420 3045 
Q 2306 3072 2169 3072 
Q 1681 3072 1420 2755 
Q 1159 2438 1159 1844 
L 1159 0 
L 581 0 
L 581 3500 
L 1159 3500 
L 1159 2956 
Q 1341 3275 1631 3429 
Q 1922 3584 2338 3584 
Q 2397 3584 2469 3576 
Q 2541 3569 2628 3553 
L 2631 2963 
z
" transform="scale(0.015625)"/>
       <path id="DejaVuSans-69" d="M 603 3500 
L 1178 3500 
L 1178 0 
L 603 0 
L 603 3500 
z
M 603 4863 
L 1178 4863 
L 1178 4134 
L 603 4134 
L 603 4863 
z
" transform="scale(0.015625)"/>
       <path id="DejaVuSans-28" d="M 1984 4856 
Q 1566 4138 1362 3434 
Q 1159 2731 1159 2009 
Q 1159 1288 1364 580 
Q 1569 -128 1984 -844 
L 1484 -844 
Q 1016 -109 783 600 
Q 550 1309 550 2009 
Q 550 2706 781 3412 
Q 1013 4119 1484 4856 
L 1984 4856 
z
" transform="scale(0.015625)"/>
       <path id="DejaVuSans-6d" d="M 3328 2828 
Q 3544 3216 3844 3400 
Q 4144 3584 4550 3584 
Q 5097 3584 5394 3201 
Q 5691 2819 5691 2113 
L 5691 0 
L 5113 0 
L 5113 2094 
Q 5113 2597 4934 2840 
Q 4756 3084 4391 3084 
Q 3944 3084 3684 2787 
Q 3425 2491 3425 1978 
L 3425 0 
L 2847 0 
L 2847 2094 
Q 2847 2600 2669 2842 
Q 2491 3084 2119 3084 
Q 1678 3084 1418 2786 
Q 1159 2488 1159 1978 
L 1159 0 
L 581 0 
L 581 3500 
L 1159 3500 
L 1159 2956 
Q 1356 3278 1631 3431 
Q 1906 3584 2284 3584 
Q 2666 3584 2933 3390 
Q 3200 3197 3328 2828 
z
" transform="scale(0.015625)"/>
       <path id="DejaVuSans-4d" d="M 628 4666 
L 1569 4666 
L 2759 1491 
L 3956 4666 
L 4897 4666 
L 4897 0 
L 4281 0 
L 4281 4097 
L 3078 897 
L 2444 897 
L 1241 4097 
L 1241 0 
L 628 0 
L 628 4666 
z
" transform="scale(0.015625)"/>
       <path id="DejaVuSans-29" d="M 513 4856 
L 1013 4856 
Q 1481 4119 1714 3412 
Q 1947 2706 1947 2009 
Q 1947 1309 1714 600 
Q 1481 -109 1013 -844 
L 513 -844 
Q 928 -128 1133 580 
Q 1338 1288 1338 2009 
Q 1338 2731 1133 3434 
Q 928 4138 513 4856 
z
" transform="scale(0.015625)"/>
      </defs>
      <use xlink:href="#DejaVuSans-4c"/>
      <use xlink:href="#DejaVuSans-2d" x="53.962891"/>
      <use xlink:href="#DejaVuSans-6c" x="90.046875"/>
      <use xlink:href="#DejaVuSans-61" x="117.830078"/>
      <use xlink:href="#DejaVuSans-63" x="179.109375"/>
      <use xlink:href="#DejaVuSans-74" x="234.089844"/>
      <use xlink:href="#DejaVuSans-61" x="273.298828"/>
      <use xlink:href="#DejaVuSans-74" x="334.578125"/>
      <use xlink:href="#DejaVuSans-65" x="373.787109"/>
      <use xlink:href="#DejaVuSans-20" x="435.310547"/>
      <use xlink:href="#DejaVuSans-63" x="467.097656"/>
      <use xlink:href="#DejaVuSans-6f" x="522.078125"/>
      <use xlink:href="#DejaVuSans-6e" x="583.259766"/>
      <use xlink:href="#DejaVuSans-63" x="646.638672"/>
      <use xlink:href="#DejaVuSans-65" x="701.619141"/>
      <use xlink:href="#DejaVuSans-6e" x="763.142578"/>
      <use xlink:href="#DejaVuSans-74" x="826.521484"/>
      <use xlink:href="#DejaVuSans-72" x="865.730469"/>
      <use xlink:href="#DejaVuSans-61" x="906.84375"/>
      <use xlink:href="#DejaVuSans-74" x="968.123047"/>
      <use xlink:href="#DejaVuSans-69" x="1007.332031"/>
      <use xlink:href="#DejaVuSans-6f" x="1035.115234"/>
      <use xlink:href="#DejaVuSans-6e" x="1096.296875"/>
      <use xlink:href="#DejaVuSans-20" x="1159.675781"/>
      <use xlink:href="#DejaVuSans-28" x="1191.462891"/>
      <use xlink:href="#DejaVuSans-6d" x="1230.476562"/>
      <use xlink:href="#DejaVuSans-4d" x="1327.888672"/>
      <use xlink:href="#DejaVuSans-29" x="1414.167969"/>
     </g>
    </g>
   </g>
   <g id="matplotlib.axis_2">
    <g id="ytick_1">
     <g id="line2d_27">
      <defs>
       <path id="m1af4e19924" d="M 0 0 
L -3.5 0 
" style="stroke: #000000; stroke-width: 0.8"/>
      </defs>
      <g>
       <use xlink:href="#m1af4e19924" x="68.3275" y="268.845625" style="stroke: #000000; stroke-width: 0.8"/>
      </g>
     </g>
     <g id="text_5">
      <!-- 0 -->
      <g transform="translate(52.42 274.164531)scale(0.14 -0.14)">
       <use xlink:href="#DejaVuSans-30"/>
      </g>
     </g>
    </g>
    <g id="ytick_2">
     <g id="line2d_28">
      <g>
       <use xlink:href="#m1af4e19924" x="68.3275" y="236.611418" style="stroke: #000000; stroke-width: 0.8"/>
      </g>
     </g>
     <g id="text_6">
      <!-- 100 -->
      <g transform="translate(34.605 241.930324)scale(0.14 -0.14)">
       <use xlink:href="#DejaVuSans-31"/>
       <use xlink:href="#DejaVuSans-30" x="63.623047"/>
       <use xlink:href="#DejaVuSans-30" x="127.246094"/>
      </g>
     </g>
    </g>
    <g id="ytick_3">
     <g id="line2d_29">
      <g>
       <use xlink:href="#m1af4e19924" x="68.3275" y="204.377211" style="stroke: #000000; stroke-width: 0.8"/>
      </g>
     </g>
     <g id="text_7">
      <!-- 200 -->
      <g transform="translate(34.605 209.696117)scale(0.14 -0.14)">
       <defs>
        <path id="DejaVuSans-32" d="M 1228 531 
L 3431 531 
L 3431 0 
L 469 0 
L 469 531 
Q 828 903 1448 1529 
Q 2069 2156 2228 2338 
Q 2531 2678 2651 2914 
Q 2772 3150 2772 3378 
Q 2772 3750 2511 3984 
Q 2250 4219 1831 4219 
Q 1534 4219 1204 4116 
Q 875 4013 500 3803 
L 500 4441 
Q 881 4594 1212 4672 
Q 1544 4750 1819 4750 
Q 2544 4750 2975 4387 
Q 3406 4025 3406 3419 
Q 3406 3131 3298 2873 
Q 3191 2616 2906 2266 
Q 2828 2175 2409 1742 
Q 1991 1309 1228 531 
z
" transform="scale(0.015625)"/>
       </defs>
       <use xlink:href="#DejaVuSans-32"/>
       <use xlink:href="#DejaVuSans-30" x="63.623047"/>
       <use xlink:href="#DejaVuSans-30" x="127.246094"/>
      </g>
     </g>
    </g>
    <g id="ytick_4">
     <g id="line2d_30">
      <g>
       <use xlink:href="#m1af4e19924" x="68.3275" y="172.143003" style="stroke: #000000; stroke-width: 0.8"/>
      </g>
     </g>
     <g id="text_8">
      <!-- 300 -->
      <g transform="translate(34.605 177.46191)scale(0.14 -0.14)">
       <defs>
        <path id="DejaVuSans-33" d="M 2597 2516 
Q 3050 2419 3304 2112 
Q 3559 1806 3559 1356 
Q 3559 666 3084 287 
Q 2609 -91 1734 -91 
Q 1441 -91 1130 -33 
Q 819 25 488 141 
L 488 750 
Q 750 597 1062 519 
Q 1375 441 1716 441 
Q 2309 441 2620 675 
Q 2931 909 2931 1356 
Q 2931 1769 2642 2001 
Q 2353 2234 1838 2234 
L 1294 2234 
L 1294 2753 
L 1863 2753 
Q 2328 2753 2575 2939 
Q 2822 3125 2822 3475 
Q 2822 3834 2567 4026 
Q 2313 4219 1838 4219 
Q 1578 4219 1281 4162 
Q 984 4106 628 3988 
L 628 4550 
Q 988 4650 1302 4700 
Q 1616 4750 1894 4750 
Q 2613 4750 3031 4423 
Q 3450 4097 3450 3541 
Q 3450 3153 3228 2886 
Q 3006 2619 2597 2516 
z
" transform="scale(0.015625)"/>
       </defs>
       <use xlink:href="#DejaVuSans-33"/>
       <use xlink:href="#DejaVuSans-30" x="63.623047"/>
       <use xlink:href="#DejaVuSans-30" x="127.246094"/>
      </g>
     </g>
    </g>
    <g id="ytick_5">
     <g id="line2d_31">
      <g>
       <use xlink:href="#m1af4e19924" x="68.3275" y="139.908796" style="stroke: #000000; stroke-width: 0.8"/>
      </g>
     </g>
     <g id="text_9">
      <!-- 400 -->
      <g transform="translate(34.605 145.227702)scale(0.14 -0.14)">
       <defs>
        <path id="DejaVuSans-34" d="M 2419 4116 
L 825 1625 
L 2419 1625 
L 2419 4116 
z
M 2253 4666 
L 3047 4666 
L 3047 1625 
L 3713 1625 
L 3713 1100 
L 3047 1100 
L 3047 0 
L 2419 0 
L 2419 1100 
L 313 1100 
L 313 1709 
L 2253 4666 
z
" transform="scale(0.015625)"/>
       </defs>
       <use xlink:href="#DejaVuSans-34"/>
       <use xlink:href="#DejaVuSans-30" x="63.623047"/>
       <use xlink:href="#DejaVuSans-30" x="127.246094"/>
      </g>
     </g>
    </g>
    <g id="ytick_6">
     <g id="line2d_32">
      <g>
       <use xlink:href="#m1af4e19924" x="68.3275" y="107.674589" style="stroke: #000000; stroke-width: 0.8"/>
      </g>
     </g>
     <g id="text_10">
      <!-- 500 -->
      <g transform="translate(34.605 112.993495)scale(0.14 -0.14)">
       <defs>
        <path id="DejaVuSans-35" d="M 691 4666 
L 3169 4666 
L 3169 4134 
L 1269 4134 
L 1269 2991 
Q 1406 3038 1543 3061 
Q 1681 3084 1819 3084 
Q 2600 3084 3056 2656 
Q 3513 2228 3513 1497 
Q 3513 744 3044 326 
Q 2575 -91 1722 -91 
Q 1428 -91 1123 -41 
Q 819 9 494 109 
L 494 744 
Q 775 591 1075 516 
Q 1375 441 1709 441 
Q 2250 441 2565 725 
Q 2881 1009 2881 1497 
Q 2881 1984 2565 2268 
Q 2250 2553 1709 2553 
Q 1456 2553 1204 2497 
Q 953 2441 691 2322 
L 691 4666 
z
" transform="scale(0.015625)"/>
       </defs>
       <use xlink:href="#DejaVuSans-35"/>
       <use xlink:href="#DejaVuSans-30" x="63.623047"/>
       <use xlink:href="#DejaVuSans-30" x="127.246094"/>
      </g>
     </g>
    </g>
    <g id="ytick_7">
     <g id="line2d_33">
      <g>
       <use xlink:href="#m1af4e19924" x="68.3275" y="75.440382" style="stroke: #000000; stroke-width: 0.8"/>
      </g>
     </g>
     <g id="text_11">
      <!-- 600 -->
      <g transform="translate(34.605 80.759288)scale(0.14 -0.14)">
       <defs>
        <path id="DejaVuSans-36" d="M 2113 2584 
Q 1688 2584 1439 2293 
Q 1191 2003 1191 1497 
Q 1191 994 1439 701 
Q 1688 409 2113 409 
Q 2538 409 2786 701 
Q 3034 994 3034 1497 
Q 3034 2003 2786 2293 
Q 2538 2584 2113 2584 
z
M 3366 4563 
L 3366 3988 
Q 3128 4100 2886 4159 
Q 2644 4219 2406 4219 
Q 1781 4219 1451 3797 
Q 1122 3375 1075 2522 
Q 1259 2794 1537 2939 
Q 1816 3084 2150 3084 
Q 2853 3084 3261 2657 
Q 3669 2231 3669 1497 
Q 3669 778 3244 343 
Q 2819 -91 2113 -91 
Q 1303 -91 875 529 
Q 447 1150 447 2328 
Q 447 3434 972 4092 
Q 1497 4750 2381 4750 
Q 2619 4750 2861 4703 
Q 3103 4656 3366 4563 
z
" transform="scale(0.015625)"/>
       </defs>
       <use xlink:href="#DejaVuSans-36"/>
       <use xlink:href="#DejaVuSans-30" x="63.623047"/>
       <use xlink:href="#DejaVuSans-30" x="127.246094"/>
      </g>
     </g>
    </g>
    <g id="ytick_8">
     <g id="line2d_34">
      <g>
       <use xlink:href="#m1af4e19924" x="68.3275" y="43.206175" style="stroke: #000000; stroke-width: 0.8"/>
      </g>
     </g>
     <g id="text_12">
      <!-- 700 -->
      <g transform="translate(34.605 48.525081)scale(0.14 -0.14)">
       <defs>
        <path id="DejaVuSans-37" d="M 525 4666 
L 3525 4666 
L 3525 4397 
L 1831 0 
L 1172 0 
L 2766 4134 
L 525 4134 
L 525 4666 
z
" transform="scale(0.015625)"/>
       </defs>
       <use xlink:href="#DejaVuSans-37"/>
       <use xlink:href="#DejaVuSans-30" x="63.623047"/>
       <use xlink:href="#DejaVuSans-30" x="127.246094"/>
      </g>
     </g>
    </g>
    <g id="text_13">
     <!-- Fluorescence/OD600 (a.u.) -->
     <g transform="translate(27.2775 248.947812)rotate(-90)scale(0.16 -0.16)">
      <defs>
       <path id="DejaVuSans-46" d="M 628 4666 
L 3309 4666 
L 3309 4134 
L 1259 4134 
L 1259 2759 
L 3109 2759 
L 3109 2228 
L 1259 2228 
L 1259 0 
L 628 0 
L 628 4666 
z
" transform="scale(0.015625)"/>
       <path id="DejaVuSans-75" d="M 544 1381 
L 544 3500 
L 1119 3500 
L 1119 1403 
Q 1119 906 1312 657 
Q 1506 409 1894 409 
Q 2359 409 2629 706 
Q 2900 1003 2900 1516 
L 2900 3500 
L 3475 3500 
L 3475 0 
L 2900 0 
L 2900 538 
Q 2691 219 2414 64 
Q 2138 -91 1772 -91 
Q 1169 -91 856 284 
Q 544 659 544 1381 
z
M 1991 3584 
L 1991 3584 
z
" transform="scale(0.015625)"/>
       <path id="DejaVuSans-73" d="M 2834 3397 
L 2834 2853 
Q 2591 2978 2328 3040 
Q 2066 3103 1784 3103 
Q 1356 3103 1142 2972 
Q 928 2841 928 2578 
Q 928 2378 1081 2264 
Q 1234 2150 1697 2047 
L 1894 2003 
Q 2506 1872 2764 1633 
Q 3022 1394 3022 966 
Q 3022 478 2636 193 
Q 2250 -91 1575 -91 
Q 1294 -91 989 -36 
Q 684 19 347 128 
L 347 722 
Q 666 556 975 473 
Q 1284 391 1588 391 
Q 1994 391 2212 530 
Q 2431 669 2431 922 
Q 2431 1156 2273 1281 
Q 2116 1406 1581 1522 
L 1381 1569 
Q 847 1681 609 1914 
Q 372 2147 372 2553 
Q 372 3047 722 3315 
Q 1072 3584 1716 3584 
Q 2034 3584 2315 3537 
Q 2597 3491 2834 3397 
z
" transform="scale(0.015625)"/>
       <path id="DejaVuSans-2f" d="M 1625 4666 
L 2156 4666 
L 531 -594 
L 0 -594 
L 1625 4666 
z
" transform="scale(0.015625)"/>
       <path id="DejaVuSans-4f" d="M 2522 4238 
Q 1834 4238 1429 3725 
Q 1025 3213 1025 2328 
Q 1025 1447 1429 934 
Q 1834 422 2522 422 
Q 3209 422 3611 934 
Q 4013 1447 4013 2328 
Q 4013 3213 3611 3725 
Q 3209 4238 2522 4238 
z
M 2522 4750 
Q 3503 4750 4090 4092 
Q 4678 3434 4678 2328 
Q 4678 1225 4090 567 
Q 3503 -91 2522 -91 
Q 1538 -91 948 565 
Q 359 1222 359 2328 
Q 359 3434 948 4092 
Q 1538 4750 2522 4750 
z
" transform="scale(0.015625)"/>
       <path id="DejaVuSans-44" d="M 1259 4147 
L 1259 519 
L 2022 519 
Q 2988 519 3436 956 
Q 3884 1394 3884 2338 
Q 3884 3275 3436 3711 
Q 2988 4147 2022 4147 
L 1259 4147 
z
M 628 4666 
L 1925 4666 
Q 3281 4666 3915 4102 
Q 4550 3538 4550 2338 
Q 4550 1131 3912 565 
Q 3275 0 1925 0 
L 628 0 
L 628 4666 
z
" transform="scale(0.015625)"/>
       <path id="DejaVuSans-2e" d="M 684 794 
L 1344 794 
L 1344 0 
L 684 0 
L 684 794 
z
" transform="scale(0.015625)"/>
      </defs>
      <use xlink:href="#DejaVuSans-46"/>
      <use xlink:href="#DejaVuSans-6c" x="57.519531"/>
      <use xlink:href="#DejaVuSans-75" x="85.302734"/>
      <use xlink:href="#DejaVuSans-6f" x="148.681641"/>
      <use xlink:href="#DejaVuSans-72" x="209.863281"/>
      <use xlink:href="#DejaVuSans-65" x="248.726562"/>
      <use xlink:href="#DejaVuSans-73" x="310.25"/>
      <use xlink:href="#DejaVuSans-63" x="362.349609"/>
      <use xlink:href="#DejaVuSans-65" x="417.330078"/>
      <use xlink:href="#DejaVuSans-6e" x="478.853516"/>
      <use xlink:href="#DejaVuSans-63" x="542.232422"/>
      <use xlink:href="#DejaVuSans-65" x="597.212891"/>
      <use xlink:href="#DejaVuSans-2f" x="658.736328"/>
      <use xlink:href="#DejaVuSans-4f" x="692.427734"/>
      <use xlink:href="#DejaVuSans-44" x="771.138672"/>
      <use xlink:href="#DejaVuSans-36" x="848.140625"/>
      <use xlink:href="#DejaVuSans-30" x="911.763672"/>
      <use xlink:href="#DejaVuSans-30" x="975.386719"/>
      <use xlink:href="#DejaVuSans-20" x="1039.009766"/>
      <use xlink:href="#DejaVuSans-28" x="1070.796875"/>
      <use xlink:href="#DejaVuSans-61" x="1109.810547"/>
      <use xlink:href="#DejaVuSans-2e" x="1171.089844"/>
      <use xlink:href="#DejaVuSans-75" x="1202.876953"/>
      <use xlink:href="#DejaVuSans-2e" x="1266.255859"/>
      <use xlink:href="#DejaVuSans-29" x="1298.042969"/>
     </g>
    </g>
   </g>
   <g id="line2d_35">
    <path d="M 90.71625 193.296331 
L 99.854515 193.239852 
L 108.992781 193.167076 
L 118.131046 193.073299 
L 127.269311 192.952484 
L 136.407577 192.796842 
L 145.545842 192.596356 
L 154.684107 192.338143 
L 163.822372 192.005645 
L 172.960638 191.577564 
L 182.098903 191.026569 
L 191.237168 190.317558 
L 200.375434 189.405513 
L 209.513699 188.232737 
L 218.651964 186.725444 
L 227.79023 184.789571 
L 236.928495 182.306136 
L 246.06676 179.126893 
L 255.205026 175.072706 
L 264.343291 169.940248 
L 273.481556 163.527665 
L 282.619821 155.695299 
L 291.758087 146.471858 
L 300.896352 136.17982 
L 310.034617 125.484791 
L 319.172883 115.253677 
L 328.311148 106.249245 
L 337.449413 98.877842 
L 346.587679 93.161664 
L 355.725944 88.880966 
L 364.864209 85.734771 
L 374.002474 83.439181 
L 383.14074 81.76437 
L 392.279005 80.537633 
L 401.41727 79.633751 
L 410.555536 78.963331 
L 419.693801 78.462768 
L 428.832066 78.086701 
L 437.970332 77.802581 
L 447.108597 77.586888 
L 456.246862 77.42245 
L 465.385128 77.296654 
L 474.523393 77.200152 
L 483.661658 77.12594 
L 492.799923 77.068763 
L 501.938189 77.024647 
L 511.076454 76.990565 
L 520.214719 76.964214 
L 529.352985 76.943818 
L 538.49125 76.928029 
" clip-path="url(#pba54b76a84)" style="fill: none; stroke: #fba649; stroke-width: 2; stroke-linecap: square"/>
   </g>
   <g id="line2d_36">
    <defs>
     <path id="m4495daa5b5" d="M 0 3 
C 0.795609 3 1.55874 2.683901 2.12132 2.12132 
C 2.683901 1.55874 3 0.795609 3 0 
C 3 -0.795609 2.683901 -1.55874 2.12132 -2.12132 
C 1.55874 -2.683901 0.795609 -3 0 -3 
C -0.795609 -3 -1.55874 -2.683901 -2.12132 -2.12132 
C -2.683901 -1.55874 -3 -0.795609 -3 0 
C -3 0.795609 -2.683901 1.55874 -2.12132 2.12132 
C -1.55874 2.683901 -0.795609 3 0 3 
z
" style="stroke: #ff0000"/>
    </defs>
    <g clip-path="url(#pba54b76a84)">
     <use xlink:href="#m4495daa5b5" x="214.375476" y="187.477916" style="fill: #ff0000; stroke: #ff0000"/>
     <use xlink:href="#m4495daa5b5" x="301.812718" y="135.11218" style="fill: #ff0000; stroke: #ff0000"/>
     <use xlink:href="#m4495daa5b5" x="377.438769" y="82.746444" style="fill: #ff0000; stroke: #ff0000"/>
    </g>
   </g>
   <g id="line2d_37">
    <path d="M 90.71625 192.22713 
L 99.854515 192.169916 
L 108.992781 192.096193 
L 118.131046 192.001204 
L 127.269311 191.878823 
L 136.407577 191.721173 
L 145.545842 191.518096 
L 154.684107 191.25657 
L 163.822372 190.919809 
L 172.960638 190.486285 
L 182.098903 189.928339 
L 191.237168 189.210475 
L 200.375434 188.287203 
L 209.513699 187.100268 
L 218.651964 185.575256 
L 227.79023 183.617463 
L 236.928495 181.107401 
L 246.06676 177.896726 
L 255.205026 173.807237 
L 264.343291 168.638524 
L 273.481556 162.195201 
L 282.619821 154.348987 
L 291.758087 145.144295 
L 300.896352 134.918247 
L 310.034617 124.339606 
L 319.172883 114.259898 
L 328.311148 105.414117 
L 337.449413 98.183915 
L 346.587679 92.579636 
L 355.725944 88.381297 
L 364.864209 85.29333 
L 374.002474 83.038239 
L 383.14074 81.391576 
L 392.279005 80.184558 
L 401.41727 79.294661 
L 410.555536 78.634294 
L 419.693801 78.141052 
L 428.832066 77.770384 
L 437.970332 77.490283 
L 447.108597 77.277607 
L 456.246862 77.11545 
L 465.385128 76.991392 
L 474.523393 76.896214 
L 483.661658 76.823009 
L 492.799923 76.76662 
L 501.938189 76.7231 
L 511.076454 76.689484 
L 520.214719 76.663492 
L 529.352985 76.643376 
L 538.49125 76.627801 
" clip-path="url(#pba54b76a84)" style="fill: none; stroke: #45c4af; stroke-width: 2; stroke-linecap: square"/>
   </g>
   <g id="line2d_38">
    <g clip-path="url(#pba54b76a84)">
     <use xlink:href="#m4495daa5b5" x="213.70995" y="186.447163" style="fill: #ff0000; stroke: #ff0000"/>
     <use xlink:href="#m4495daa5b5" x="301.321709" y="134.427465" style="fill: #ff0000; stroke: #ff0000"/>
     <use xlink:href="#m4495daa5b5" x="377.16979" y="82.407767" style="fill: #ff0000; stroke: #ff0000"/>
    </g>
   </g>
   <g id="line2d_39">
    <path d="M 90.71625 190.262745 
L 99.854515 190.204212 
L 108.992781 190.128787 
L 118.131046 190.031603 
L 127.269311 189.906411 
L 136.407577 189.745132 
L 145.545842 189.537413 
L 154.684107 189.269918 
L 163.822372 188.925515 
L 172.960638 188.48222 
L 182.098903 187.911792 
L 191.237168 187.178071 
L 200.375434 186.234705 
L 209.513699 185.022476 
L 218.651964 183.46589 
L 227.79023 181.469199 
L 236.928495 178.912149 
L 246.06676 175.646494 
L 255.205026 171.496085 
L 264.343291 166.266363 
L 273.481556 159.77417 
L 282.619821 151.911994 
L 291.758087 142.751857 
L 300.896352 132.65493 
L 310.034617 122.292574 
L 319.172883 112.486753 
L 328.311148 103.923371 
L 337.449413 96.942159 
L 346.587679 91.534284 
L 355.725944 87.480279 
L 364.864209 84.49438 
L 374.002474 82.310372 
L 383.14074 80.713192 
L 392.279005 79.540897 
L 401.41727 78.675672 
L 410.555536 78.033065 
L 419.693801 77.552777 
L 428.832066 77.191665 
L 437.970332 76.918685 
L 447.108597 76.711359 
L 456.246862 76.553255 
L 465.385128 76.432272 
L 474.523393 76.33944 
L 483.661658 76.268048 
L 492.799923 76.213045 
L 501.938189 76.170598 
L 511.076454 76.137799 
L 520.214719 76.112441 
L 529.352985 76.092812 
L 538.49125 76.077619 
" clip-path="url(#pba54b76a84)" style="fill: none; stroke: #ec6c5f; stroke-width: 2; stroke-linecap: square"/>
   </g>
   <g id="line2d_40">
    <g clip-path="url(#pba54b76a84)">
     <use xlink:href="#m4495daa5b5" x="212.514703" y="184.553489" style="fill: #ff0000; stroke: #ff0000"/>
     <use xlink:href="#m4495daa5b5" x="300.441634" y="133.170182" style="fill: #ff0000; stroke: #ff0000"/>
     <use xlink:href="#m4495daa5b5" x="376.693587" y="81.786875" style="fill: #ff0000; stroke: #ff0000"/>
    </g>
   </g>
   <g id="line2d_41">
    <path d="M 90.71625 186.559534 
L 99.854515 186.498611 
L 108.992781 186.420115 
L 118.131046 186.318985 
L 127.269311 186.188706 
L 136.407577 186.020901 
L 145.545842 185.804796 
L 154.684107 185.526553 
L 163.822372 185.168394 
L 172.960638 184.707517 
L 182.098903 184.114696 
L 191.237168 183.352536 
L 200.375434 182.373262 
L 209.513699 181.116007 
L 218.651964 179.50354 
L 227.79023 177.438546 
L 236.928495 174.799955 
L 246.06676 171.440616 
L 255.205026 167.189426 
L 264.343291 161.864236 
L 273.481556 155.305864 
L 282.619821 147.445017 
L 291.758087 138.400891 
L 300.896352 128.570668 
L 310.034617 118.620752 
L 319.172883 109.314658 
L 328.311148 101.252857 
L 337.449413 94.707074 
L 346.587679 89.64007 
L 355.725944 85.835977 
L 364.864209 83.026941 
L 374.002474 80.966394 
L 383.14074 79.455421 
L 392.279005 78.343816 
L 401.41727 77.521831 
L 410.555536 76.910438 
L 419.693801 76.452965 
L 428.832066 76.108721 
L 437.970332 75.848331 
L 447.108597 75.650471 
L 456.246862 75.499541 
L 465.385128 75.384027 
L 474.523393 75.295371 
L 483.661658 75.227177 
L 492.799923 75.17463 
L 501.938189 75.134077 
L 511.076454 75.10274 
L 520.214719 75.078514 
L 529.352985 75.059765 
L 538.49125 75.045242 
" clip-path="url(#pba54b76a84)" style="fill: none; stroke: #4c8b30; stroke-width: 2; stroke-linecap: square"/>
   </g>
   <g id="line2d_42">
    <g clip-path="url(#pba54b76a84)">
     <use xlink:href="#m4495daa5b5" x="210.354409" y="180.98382" style="fill: #ff0000; stroke: #ff0000"/>
     <use xlink:href="#m4495daa5b5" x="298.856547" y="130.802388" style="fill: #ff0000; stroke: #ff0000"/>
     <use xlink:href="#m4495daa5b5" x="375.855349" y="80.620957" style="fill: #ff0000; stroke: #ff0000"/>
    </g>
   </g>
   <g id="line2d_43">
    <path d="M 90.71625 179.249747 
L 99.854515 179.184552 
L 108.992781 179.100558 
L 118.131046 178.992357 
L 127.269311 178.852993 
L 136.407577 178.673527 
L 145.545842 178.442469 
L 154.684107 178.14508 
L 163.822372 177.762462 
L 172.960638 177.270418 
L 182.098903 176.638038 
L 191.237168 175.825911 
L 200.375434 174.78396 
L 209.513699 173.448848 
L 218.651964 171.741021 
L 227.79023 169.561687 
L 236.928495 166.790452 
L 246.06676 163.285422 
L 255.205026 158.889382 
L 264.343291 153.448395 
L 273.481556 146.851715 
L 282.619821 139.09891 
L 291.758087 130.382672 
L 300.896352 121.139956 
L 310.034617 112.000493 
L 319.172883 103.611421 
L 328.311148 96.43183 
L 337.449413 90.633589 
L 346.587679 86.145215 
L 355.725944 82.764129 
L 364.864209 80.255086 
L 374.002474 78.404934 
L 383.14074 77.041703 
L 392.279005 76.034712 
L 401.41727 75.287663 
L 410.555536 74.730621 
L 419.693801 74.31304 
L 428.832066 73.998384 
L 437.970332 73.760145 
L 447.108597 73.578985 
L 456.246862 73.440725 
L 465.385128 73.334862 
L 474.523393 73.253597 
L 483.661658 73.19108 
L 492.799923 73.142901 
L 501.938189 73.105713 
L 511.076454 73.076979 
L 520.214719 73.054757 
L 529.352985 73.03756 
L 538.49125 73.024242 
" clip-path="url(#pba54b76a84)" style="fill: none; stroke: #641978; stroke-width: 2; stroke-linecap: square"/>
   </g>
   <g id="line2d_44">
    <g clip-path="url(#pba54b76a84)">
     <use xlink:href="#m4495daa5b5" x="206.418383" y="173.938472" style="fill: #ff0000; stroke: #ff0000"/>
     <use xlink:href="#m4495daa5b5" x="295.986508" y="126.136995" style="fill: #ff0000; stroke: #ff0000"/>
     <use xlink:href="#m4495daa5b5" x="374.406318" y="78.335517" style="fill: #ff0000; stroke: #ff0000"/>
    </g>
   </g>
   <g id="line2d_45">
    <path d="M 90.71625 163.637165 
L 99.854515 163.565093 
L 108.992781 163.472263 
L 118.131046 163.35272 
L 127.269311 163.198817 
L 136.407577 163.000741 
L 145.545842 162.745912 
L 154.684107 162.418242 
L 163.822372 161.997195 
L 172.960638 161.456625 
L 182.098903 160.763371 
L 191.237168 159.87559 
L 200.375434 158.740829 
L 209.513699 157.293969 
L 218.651964 155.455325 
L 227.79023 153.129447 
L 236.928495 150.205916 
L 246.06676 146.564378 
L 255.205026 142.087449 
L 264.343291 136.686289 
L 273.481556 130.342241 
L 282.619821 123.15985 
L 291.758087 115.409185 
L 300.896352 107.518302 
L 310.034617 99.987666 
L 319.172883 93.252547 
L 328.311148 87.571595 
L 337.449413 83.002032 
L 346.587679 79.451732 
L 355.725944 76.755597 
L 364.864209 74.735278 
L 374.002474 73.231216 
L 383.14074 72.113676 
L 392.279005 71.282533 
L 401.41727 70.662699 
L 410.555536 70.19873 
L 419.693801 69.849968 
L 428.832066 69.586669 
L 437.970332 69.387062 
L 447.108597 69.235158 
L 456.246862 69.119156 
L 465.385128 69.030314 
L 474.523393 68.962104 
L 483.661658 68.909615 
L 492.799923 68.869159 
L 501.938189 68.837931 
L 511.076454 68.813806 
L 520.214719 68.795151 
L 529.352985 68.78071 
L 538.49125 68.769528 
" clip-path="url(#pba54b76a84)" style="fill: none; stroke: #ddcc77; stroke-width: 2; stroke-linecap: square"/>
   </g>
   <g id="line2d_46">
    <g clip-path="url(#pba54b76a84)">
     <use xlink:href="#m4495daa5b5" x="199.266209" y="158.893784" style="fill: #ff0000; stroke: #ff0000"/>
     <use xlink:href="#m4495daa5b5" x="290.838801" y="116.203347" style="fill: #ff0000; stroke: #ff0000"/>
     <use xlink:href="#m4495daa5b5" x="372.069557" y="73.51291" style="fill: #ff0000; stroke: #ff0000"/>
    </g>
   </g>
   <g id="line2d_47">
    <path d="M 90.71625 126.923899 
L 99.854515 126.85031 
L 108.992781 126.755606 
L 118.131046 126.633776 
L 127.269311 126.477139 
L 136.407577 126.275894 
L 145.545842 126.017571 
L 154.684107 125.686369 
L 163.822372 125.262375 
L 172.960638 124.720654 
L 182.098903 124.030258 
L 191.237168 123.15326 
L 200.375434 122.04394 
L 209.513699 120.648438 
L 218.651964 118.905467 
L 227.79023 116.748726 
L 236.928495 114.112322 
L 246.06676 110.940446 
L 255.205026 107.202267 
L 264.343291 102.911529 
L 273.481556 98.146779 
L 282.619821 93.063255 
L 291.758087 87.884658 
L 300.896352 82.868447 
L 310.034617 78.252644 
L 319.172883 74.206832 
L 328.311148 70.809085 
L 337.449413 68.053964 
L 346.587679 65.879476 
L 355.725944 64.196718 
L 364.864209 62.91215 
L 374.002474 61.940273 
L 383.14074 61.208882 
L 392.279005 60.659894 
L 401.41727 60.248002 
L 410.555536 59.938632 
L 419.693801 59.70573 
L 428.832066 59.529874 
L 437.970332 59.396644 
L 447.108597 59.295367 
L 456.246862 59.218122 
L 465.385128 59.159038 
L 474.523393 59.11373 
L 483.661658 59.078899 
L 492.799923 59.05208 
L 501.938189 59.031397 
L 511.076454 59.015416 
L 520.214719 59.003075 
L 529.352985 58.993523 
L 538.49125 58.986128 
" clip-path="url(#pba54b76a84)" style="fill: none; stroke: #cc79a7; stroke-width: 2; stroke-linecap: square"/>
   </g>
   <g id="line2d_48">
    <g clip-path="url(#pba54b76a84)">
     <use xlink:href="#m4495daa5b5" x="187.604124" y="123.527011" style="fill: #ff0000; stroke: #ff0000"/>
     <use xlink:href="#m4495daa5b5" x="282.811012" y="92.955014" style="fill: #ff0000; stroke: #ff0000"/>
     <use xlink:href="#m4495daa5b5" x="369.514825" y="62.383017" style="fill: #ff0000; stroke: #ff0000"/>
    </g>
   </g>
   <g id="line2d_49">
    <path d="M 90.71625 57.630034 
L 99.854515 57.607928 
L 108.992781 57.579509 
L 118.131046 57.543003 
L 127.269311 57.496152 
L 136.407577 57.4361 
L 145.545842 57.359246 
L 154.684107 57.261085 
L 163.822372 57.136036 
L 172.960638 56.977253 
L 182.098903 56.776473 
L 191.237168 56.523933 
L 200.375434 56.2084 
L 209.513699 55.817456 
L 218.651964 55.338113 
L 227.79023 54.75793 
L 236.928495 54.066699 
L 246.06676 53.258711 
L 255.205026 52.335369 
L 264.343291 51.307647 
L 273.481556 50.197552 
L 282.619821 49.037731 
L 291.758087 47.868667 
L 300.896352 46.733677 
L 310.034617 45.672927 
L 319.172883 44.718079 
L 328.311148 43.88909 
L 337.449413 43.193586 
L 346.587679 42.628477 
L 355.725944 42.182774 
L 364.864209 41.840754 
L 374.002474 41.584748 
L 383.14074 41.397301 
L 392.279005 41.262611 
L 401.41727 41.167279 
L 410.555536 41.100555 
L 419.693801 41.054178 
L 428.832066 41.022033 
L 437.970332 40.999734 
L 447.108597 40.984192 
L 456.246862 40.973289 
L 465.385128 40.965567 
L 474.523393 40.960049 
L 483.661658 40.956055 
L 492.799923 40.953142 
L 501.938189 40.950996 
L 511.076454 40.949401 
L 520.214719 40.948198 
L 529.352985 40.947296 
L 538.49125 40.946613 
" clip-path="url(#pba54b76a84)" style="fill: none; stroke: #fee2c3; stroke-width: 2; stroke-linecap: square"/>
   </g>
   <g id="line2d_50">
    <g clip-path="url(#pba54b76a84)">
     <use xlink:href="#m4495daa5b5" x="181.30316" y="56.795863" style="fill: #ff0000; stroke: #ff0000"/>
     <use xlink:href="#m4495daa5b5" x="280.663206" y="49.288324" style="fill: #ff0000; stroke: #ff0000"/>
     <use xlink:href="#m4495daa5b5" x="366.771537" y="41.780784" style="fill: #ff0000; stroke: #ff0000"/>
    </g>
   </g>
   <g id="line2d_51">
    <path d="M 90.71625 23.604587 
L 99.854515 23.606816 
L 108.992781 23.609688 
L 118.131046 23.613388 
L 127.269311 23.618152 
L 136.407577 23.624289 
L 145.545842 23.632188 
L 154.684107 23.642359 
L 163.822372 23.655432 
L 172.960638 23.672252 
L 182.098903 23.693855 
L 191.237168 23.721584 
L 200.375434 23.757133 
L 209.513699 23.802621 
L 218.651964 23.860698 
L 227.79023 23.93464 
L 236.928495 24.02841 
L 246.06676 24.146707 
L 255.205026 24.294915 
L 264.343291 24.478959 
L 273.481556 24.704909 
L 282.619821 24.978354 
L 291.758087 25.303503 
L 300.896352 25.682123 
L 310.034617 26.112488 
L 319.172883 26.588687 
L 328.311148 27.100561 
L 337.449413 27.634428 
L 346.587679 28.174496 
L 355.725944 28.704639 
L 364.864209 29.210148 
L 374.002474 29.67909 
L 383.14074 30.1031 
L 392.279005 30.477588 
L 401.41727 30.801405 
L 410.555536 31.076233 
L 419.693801 31.30572 
L 428.832066 31.494709 
L 437.970332 31.648545 
L 447.108597 31.772567 
L 456.246862 31.871767 
L 465.385128 31.950606 
L 474.523393 32.012951 
L 483.661658 32.06205 
L 492.799923 32.100592 
L 501.938189 32.130767 
L 511.076454 32.15434 
L 520.214719 32.172743 
L 529.352985 32.187078 
L 538.49125 32.198238 
" clip-path="url(#pba54b76a84)" style="fill: none; stroke: #882255; stroke-width: 2; stroke-linecap: square"/>
   </g>
   <g id="line2d_52">
    <g clip-path="url(#pba54b76a84)">
     <use xlink:href="#m4495daa5b5" x="446.779023" y="31.768556" style="fill: #ff0000; stroke: #ff0000"/>
     <use xlink:href="#m4495daa5b5" x="341.963117" y="27.901413" style="fill: #ff0000; stroke: #ff0000"/>
     <use xlink:href="#m4495daa5b5" x="237.434285" y="24.03427" style="fill: #ff0000; stroke: #ff0000"/>
    </g>
   </g>
   <g id="line2d_53">
    <path d="M 285.762274 268.845625 
L 285.762274 15.12 
" clip-path="url(#pba54b76a84)" style="fill: none; stroke-dasharray: 6,6; stroke-dashoffset: 2; stroke: #4d8b31; stroke-width: 2"/>
   </g>
   <g id="line2d_54">
    <path d="M 335.685868 268.845625 
L 335.685868 15.12 
" clip-path="url(#pba54b76a84)" style="fill: none; stroke-dasharray: 6,6; stroke-dashoffset: 2; stroke: #4d8b31; stroke-width: 2"/>
   </g>
   <g id="line2d_55">
    <path d="M 422.401435 268.845625 
L 422.401435 15.12 
" clip-path="url(#pba54b76a84)" style="fill: none; stroke-dasharray: 6,6; stroke-dashoffset: 2; stroke: #ec6c5f; stroke-width: 2"/>
   </g>
   <g id="line2d_56">
    <path d="M 488.396838 268.845625 
L 488.396838 15.12 
" clip-path="url(#pba54b76a84)" style="fill: none; stroke-dasharray: 6,6; stroke-dashoffset: 2; stroke: #ec6c5f; stroke-width: 2"/>
   </g>
   <g id="patch_5">
    <path d="M 68.3275 268.845625 
L 68.3275 15.12 
" style="fill: none; stroke: #000000; stroke-width: 0.8; stroke-linejoin: miter; stroke-linecap: square"/>
   </g>
   <g id="patch_6">
    <path d="M 560.88 268.845625 
L 560.88 15.12 
" style="fill: none; stroke: #000000; stroke-width: 0.8; stroke-linejoin: miter; stroke-linecap: square"/>
   </g>
   <g id="patch_7">
    <path d="M 68.3275 268.845625 
L 560.88 268.845625 
" style="fill: none; stroke: #000000; stroke-width: 0.8; stroke-linejoin: miter; stroke-linecap: square"/>
   </g>
   <g id="patch_8">
    <path d="M 68.3275 15.12 
L 560.88 15.12 
" style="fill: none; stroke: #000000; stroke-width: 0.8; stroke-linejoin: miter; stroke-linecap: square"/>
   </g>
   <g id="legend_1">
    <g id="patch_9">
     <path d="M 456.314688 263.345625 
L 553.18 263.345625 
Q 555.38 263.345625 555.38 261.145625 
L 555.38 84.640312 
Q 555.38 82.440312 553.18 82.440312 
L 456.314688 82.440312 
Q 454.114688 82.440312 454.114688 84.640312 
L 454.114688 261.145625 
Q 454.114688 263.345625 456.314688 263.345625 
z
" style="fill: #ffffff; opacity: 0.8; stroke: #cccccc; stroke-linejoin: miter"/>
    </g>
    <g id="line2d_57">
     <path d="M 458.514688 91.348594 
L 469.514688 91.348594 
L 480.514688 91.348594 
" style="fill: none; stroke: #fba649; stroke-width: 2; stroke-linecap: square"/>
    </g>
    <g id="text_14">
     <!-- Factor 0.1 -->
     <g transform="translate(489.314688 95.198594)scale(0.11 -0.11)">
      <use xlink:href="#DejaVuSans-46"/>
      <use xlink:href="#DejaVuSans-61" x="48.394531"/>
      <use xlink:href="#DejaVuSans-63" x="109.673828"/>
      <use xlink:href="#DejaVuSans-74" x="164.654297"/>
      <use xlink:href="#DejaVuSans-6f" x="203.863281"/>
      <use xlink:href="#DejaVuSans-72" x="265.044922"/>
      <use xlink:href="#DejaVuSans-20" x="306.158203"/>
      <use xlink:href="#DejaVuSans-30" x="337.945312"/>
      <use xlink:href="#DejaVuSans-2e" x="401.568359"/>
      <use xlink:href="#DejaVuSans-31" x="433.355469"/>
     </g>
    </g>
    <g id="line2d_58">
     <path d="M 458.514688 107.494531 
L 469.514688 107.494531 
L 480.514688 107.494531 
" style="fill: none; stroke: #45c4af; stroke-width: 2; stroke-linecap: square"/>
    </g>
    <g id="text_15">
     <!-- Factor 0.18 -->
     <g transform="translate(489.314688 111.344531)scale(0.11 -0.11)">
      <defs>
       <path id="DejaVuSans-38" d="M 2034 2216 
Q 1584 2216 1326 1975 
Q 1069 1734 1069 1313 
Q 1069 891 1326 650 
Q 1584 409 2034 409 
Q 2484 409 2743 651 
Q 3003 894 3003 1313 
Q 3003 1734 2745 1975 
Q 2488 2216 2034 2216 
z
M 1403 2484 
Q 997 2584 770 2862 
Q 544 3141 544 3541 
Q 544 4100 942 4425 
Q 1341 4750 2034 4750 
Q 2731 4750 3128 4425 
Q 3525 4100 3525 3541 
Q 3525 3141 3298 2862 
Q 3072 2584 2669 2484 
Q 3125 2378 3379 2068 
Q 3634 1759 3634 1313 
Q 3634 634 3220 271 
Q 2806 -91 2034 -91 
Q 1263 -91 848 271 
Q 434 634 434 1313 
Q 434 1759 690 2068 
Q 947 2378 1403 2484 
z
M 1172 3481 
Q 1172 3119 1398 2916 
Q 1625 2713 2034 2713 
Q 2441 2713 2670 2916 
Q 2900 3119 2900 3481 
Q 2900 3844 2670 4047 
Q 2441 4250 2034 4250 
Q 1625 4250 1398 4047 
Q 1172 3844 1172 3481 
z
" transform="scale(0.015625)"/>
      </defs>
      <use xlink:href="#DejaVuSans-46"/>
      <use xlink:href="#DejaVuSans-61" x="48.394531"/>
      <use xlink:href="#DejaVuSans-63" x="109.673828"/>
      <use xlink:href="#DejaVuSans-74" x="164.654297"/>
      <use xlink:href="#DejaVuSans-6f" x="203.863281"/>
      <use xlink:href="#DejaVuSans-72" x="265.044922"/>
      <use xlink:href="#DejaVuSans-20" x="306.158203"/>
      <use xlink:href="#DejaVuSans-30" x="337.945312"/>
      <use xlink:href="#DejaVuSans-2e" x="401.568359"/>
      <use xlink:href="#DejaVuSans-31" x="433.355469"/>
      <use xlink:href="#DejaVuSans-38" x="496.978516"/>
     </g>
    </g>
    <g id="line2d_59">
     <path d="M 458.514688 123.640469 
L 469.514688 123.640469 
L 480.514688 123.640469 
" style="fill: none; stroke: #ec6c5f; stroke-width: 2; stroke-linecap: square"/>
    </g>
    <g id="text_16">
     <!-- Factor 0.32 -->
     <g transform="translate(489.314688 127.490469)scale(0.11 -0.11)">
      <use xlink:href="#DejaVuSans-46"/>
      <use xlink:href="#DejaVuSans-61" x="48.394531"/>
      <use xlink:href="#DejaVuSans-63" x="109.673828"/>
      <use xlink:href="#DejaVuSans-74" x="164.654297"/>
      <use xlink:href="#DejaVuSans-6f" x="203.863281"/>
      <use xlink:href="#DejaVuSans-72" x="265.044922"/>
      <use xlink:href="#DejaVuSans-20" x="306.158203"/>
      <use xlink:href="#DejaVuSans-30" x="337.945312"/>
      <use xlink:href="#DejaVuSans-2e" x="401.568359"/>
      <use xlink:href="#DejaVuSans-33" x="433.355469"/>
      <use xlink:href="#DejaVuSans-32" x="496.978516"/>
     </g>
    </g>
    <g id="line2d_60">
     <path d="M 458.514688 139.786406 
L 469.514688 139.786406 
L 480.514688 139.786406 
" style="fill: none; stroke: #4c8b30; stroke-width: 2; stroke-linecap: square"/>
    </g>
    <g id="text_17">
     <!-- Factor 0.56 -->
     <g transform="translate(489.314688 143.636406)scale(0.11 -0.11)">
      <use xlink:href="#DejaVuSans-46"/>
      <use xlink:href="#DejaVuSans-61" x="48.394531"/>
      <use xlink:href="#DejaVuSans-63" x="109.673828"/>
      <use xlink:href="#DejaVuSans-74" x="164.654297"/>
      <use xlink:href="#DejaVuSans-6f" x="203.863281"/>
      <use xlink:href="#DejaVuSans-72" x="265.044922"/>
      <use xlink:href="#DejaVuSans-20" x="306.158203"/>
      <use xlink:href="#DejaVuSans-30" x="337.945312"/>
      <use xlink:href="#DejaVuSans-2e" x="401.568359"/>
      <use xlink:href="#DejaVuSans-35" x="433.355469"/>
      <use xlink:href="#DejaVuSans-36" x="496.978516"/>
     </g>
    </g>
    <g id="line2d_61">
     <path d="M 458.514688 155.932344 
L 469.514688 155.932344 
L 480.514688 155.932344 
" style="fill: none; stroke: #641978; stroke-width: 2; stroke-linecap: square"/>
    </g>
    <g id="text_18">
     <!-- Original -->
     <g transform="translate(489.314688 159.782344)scale(0.11 -0.11)">
      <defs>
       <path id="DejaVuSans-67" d="M 2906 1791 
Q 2906 2416 2648 2759 
Q 2391 3103 1925 3103 
Q 1463 3103 1205 2759 
Q 947 2416 947 1791 
Q 947 1169 1205 825 
Q 1463 481 1925 481 
Q 2391 481 2648 825 
Q 2906 1169 2906 1791 
z
M 3481 434 
Q 3481 -459 3084 -895 
Q 2688 -1331 1869 -1331 
Q 1566 -1331 1297 -1286 
Q 1028 -1241 775 -1147 
L 775 -588 
Q 1028 -725 1275 -790 
Q 1522 -856 1778 -856 
Q 2344 -856 2625 -561 
Q 2906 -266 2906 331 
L 2906 616 
Q 2728 306 2450 153 
Q 2172 0 1784 0 
Q 1141 0 747 490 
Q 353 981 353 1791 
Q 353 2603 747 3093 
Q 1141 3584 1784 3584 
Q 2172 3584 2450 3431 
Q 2728 3278 2906 2969 
L 2906 3500 
L 3481 3500 
L 3481 434 
z
" transform="scale(0.015625)"/>
      </defs>
      <use xlink:href="#DejaVuSans-4f"/>
      <use xlink:href="#DejaVuSans-72" x="78.710938"/>
      <use xlink:href="#DejaVuSans-69" x="119.824219"/>
      <use xlink:href="#DejaVuSans-67" x="147.607422"/>
      <use xlink:href="#DejaVuSans-69" x="211.083984"/>
      <use xlink:href="#DejaVuSans-6e" x="238.867188"/>
      <use xlink:href="#DejaVuSans-61" x="302.246094"/>
      <use xlink:href="#DejaVuSans-6c" x="363.525391"/>
     </g>
    </g>
    <g id="line2d_62">
     <path d="M 458.514688 172.078281 
L 469.514688 172.078281 
L 480.514688 172.078281 
" style="fill: none; stroke: #ddcc77; stroke-width: 2; stroke-linecap: square"/>
    </g>
    <g id="text_19">
     <!-- Factor 1.78 -->
     <g transform="translate(489.314688 175.928281)scale(0.11 -0.11)">
      <use xlink:href="#DejaVuSans-46"/>
      <use xlink:href="#DejaVuSans-61" x="48.394531"/>
      <use xlink:href="#DejaVuSans-63" x="109.673828"/>
      <use xlink:href="#DejaVuSans-74" x="164.654297"/>
      <use xlink:href="#DejaVuSans-6f" x="203.863281"/>
      <use xlink:href="#DejaVuSans-72" x="265.044922"/>
      <use xlink:href="#DejaVuSans-20" x="306.158203"/>
      <use xlink:href="#DejaVuSans-31" x="337.945312"/>
      <use xlink:href="#DejaVuSans-2e" x="401.568359"/>
      <use xlink:href="#DejaVuSans-37" x="433.355469"/>
      <use xlink:href="#DejaVuSans-38" x="496.978516"/>
     </g>
    </g>
    <g id="line2d_63">
     <path d="M 458.514688 188.224219 
L 469.514688 188.224219 
L 480.514688 188.224219 
" style="fill: none; stroke: #cc79a7; stroke-width: 2; stroke-linecap: square"/>
    </g>
    <g id="text_20">
     <!-- Factor 3.16 -->
     <g transform="translate(489.314688 192.074219)scale(0.11 -0.11)">
      <use xlink:href="#DejaVuSans-46"/>
      <use xlink:href="#DejaVuSans-61" x="48.394531"/>
      <use xlink:href="#DejaVuSans-63" x="109.673828"/>
      <use xlink:href="#DejaVuSans-74" x="164.654297"/>
      <use xlink:href="#DejaVuSans-6f" x="203.863281"/>
      <use xlink:href="#DejaVuSans-72" x="265.044922"/>
      <use xlink:href="#DejaVuSans-20" x="306.158203"/>
      <use xlink:href="#DejaVuSans-33" x="337.945312"/>
      <use xlink:href="#DejaVuSans-2e" x="401.568359"/>
      <use xlink:href="#DejaVuSans-31" x="433.355469"/>
      <use xlink:href="#DejaVuSans-36" x="496.978516"/>
     </g>
    </g>
    <g id="line2d_64">
     <path d="M 458.514688 204.370156 
L 469.514688 204.370156 
L 480.514688 204.370156 
" style="fill: none; stroke: #fee2c3; stroke-width: 2; stroke-linecap: square"/>
    </g>
    <g id="text_21">
     <!-- Factor 5.62 -->
     <g transform="translate(489.314688 208.220156)scale(0.11 -0.11)">
      <use xlink:href="#DejaVuSans-46"/>
      <use xlink:href="#DejaVuSans-61" x="48.394531"/>
      <use xlink:href="#DejaVuSans-63" x="109.673828"/>
      <use xlink:href="#DejaVuSans-74" x="164.654297"/>
      <use xlink:href="#DejaVuSans-6f" x="203.863281"/>
      <use xlink:href="#DejaVuSans-72" x="265.044922"/>
      <use xlink:href="#DejaVuSans-20" x="306.158203"/>
      <use xlink:href="#DejaVuSans-35" x="337.945312"/>
      <use xlink:href="#DejaVuSans-2e" x="401.568359"/>
      <use xlink:href="#DejaVuSans-36" x="433.355469"/>
      <use xlink:href="#DejaVuSans-32" x="496.978516"/>
     </g>
    </g>
    <g id="line2d_65">
     <path d="M 458.514688 220.516094 
L 469.514688 220.516094 
L 480.514688 220.516094 
" style="fill: none; stroke: #882255; stroke-width: 2; stroke-linecap: square"/>
    </g>
    <g id="text_22">
     <!-- Factor 10.0 -->
     <g transform="translate(489.314688 224.366094)scale(0.11 -0.11)">
      <use xlink:href="#DejaVuSans-46"/>
      <use xlink:href="#DejaVuSans-61" x="48.394531"/>
      <use xlink:href="#DejaVuSans-63" x="109.673828"/>
      <use xlink:href="#DejaVuSans-74" x="164.654297"/>
      <use xlink:href="#DejaVuSans-6f" x="203.863281"/>
      <use xlink:href="#DejaVuSans-72" x="265.044922"/>
      <use xlink:href="#DejaVuSans-20" x="306.158203"/>
      <use xlink:href="#DejaVuSans-31" x="337.945312"/>
      <use xlink:href="#DejaVuSans-30" x="401.568359"/>
      <use xlink:href="#DejaVuSans-2e" x="465.191406"/>
      <use xlink:href="#DejaVuSans-30" x="496.978516"/>
     </g>
    </g>
    <g id="patch_10">
     <path d="M 458.514688 240.512031 
L 480.514688 240.512031 
L 480.514688 232.812031 
L 458.514688 232.812031 
z
" style="fill: #4d8b31; opacity: 0.3; stroke: #4d8b31; stroke-linejoin: miter"/>
    </g>
    <g id="text_23">
     <!-- Healthy -->
     <g transform="translate(489.314688 240.512031)scale(0.11 -0.11)">
      <defs>
       <path id="DejaVuSans-48" d="M 628 4666 
L 1259 4666 
L 1259 2753 
L 3553 2753 
L 3553 4666 
L 4184 4666 
L 4184 0 
L 3553 0 
L 3553 2222 
L 1259 2222 
L 1259 0 
L 628 0 
L 628 4666 
z
" transform="scale(0.015625)"/>
       <path id="DejaVuSans-68" d="M 3513 2113 
L 3513 0 
L 2938 0 
L 2938 2094 
Q 2938 2591 2744 2837 
Q 2550 3084 2163 3084 
Q 1697 3084 1428 2787 
Q 1159 2491 1159 1978 
L 1159 0 
L 581 0 
L 581 4863 
L 1159 4863 
L 1159 2956 
Q 1366 3272 1645 3428 
Q 1925 3584 2291 3584 
Q 2894 3584 3203 3211 
Q 3513 2838 3513 2113 
z
" transform="scale(0.015625)"/>
       <path id="DejaVuSans-79" d="M 2059 -325 
Q 1816 -950 1584 -1140 
Q 1353 -1331 966 -1331 
L 506 -1331 
L 506 -850 
L 844 -850 
Q 1081 -850 1212 -737 
Q 1344 -625 1503 -206 
L 1606 56 
L 191 3500 
L 800 3500 
L 1894 763 
L 2988 3500 
L 3597 3500 
L 2059 -325 
z
" transform="scale(0.015625)"/>
      </defs>
      <use xlink:href="#DejaVuSans-48"/>
      <use xlink:href="#DejaVuSans-65" x="75.195312"/>
      <use xlink:href="#DejaVuSans-61" x="136.71875"/>
      <use xlink:href="#DejaVuSans-6c" x="197.998047"/>
      <use xlink:href="#DejaVuSans-74" x="225.78125"/>
      <use xlink:href="#DejaVuSans-68" x="264.990234"/>
      <use xlink:href="#DejaVuSans-79" x="328.369141"/>
     </g>
    </g>
    <g id="patch_11">
     <path d="M 458.514688 256.657969 
L 480.514688 256.657969 
L 480.514688 248.957969 
L 458.514688 248.957969 
z
" style="fill: #ec6c5f; opacity: 0.3; stroke: #ec6c5f; stroke-linejoin: miter"/>
    </g>
    <g id="text_24">
     <!-- Cancer -->
     <g transform="translate(489.314688 256.657969)scale(0.11 -0.11)">
      <defs>
       <path id="DejaVuSans-43" d="M 4122 4306 
L 4122 3641 
Q 3803 3938 3442 4084 
Q 3081 4231 2675 4231 
Q 1875 4231 1450 3742 
Q 1025 3253 1025 2328 
Q 1025 1406 1450 917 
Q 1875 428 2675 428 
Q 3081 428 3442 575 
Q 3803 722 4122 1019 
L 4122 359 
Q 3791 134 3420 21 
Q 3050 -91 2638 -91 
Q 1578 -91 968 557 
Q 359 1206 359 2328 
Q 359 3453 968 4101 
Q 1578 4750 2638 4750 
Q 3056 4750 3426 4639 
Q 3797 4528 4122 4306 
z
" transform="scale(0.015625)"/>
      </defs>
      <use xlink:href="#DejaVuSans-43"/>
      <use xlink:href="#DejaVuSans-61" x="69.824219"/>
      <use xlink:href="#DejaVuSans-6e" x="131.103516"/>
      <use xlink:href="#DejaVuSans-63" x="194.482422"/>
      <use xlink:href="#DejaVuSans-65" x="249.462891"/>
      <use xlink:href="#DejaVuSans-72" x="310.986328"/>
     </g>
    </g>
   </g>
  </g>
 </g>
 <defs>
  <clipPath id="pba54b76a84">
   <rect x="68.3275" y="15.12" width="492.5525" height="253.725625"/>
  </clipPath>
 </defs>
</svg>
