<?xml version="1.0" encoding="utf-8" standalone="no"?>
<!DOCTYPE svg PUBLIC "-//W3C//DTD SVG 1.1//EN"
  "http://www.w3.org/Graphics/SVG/1.1/DTD/svg11.dtd">
<svg xmlns:xlink="http://www.w3.org/1999/xlink" width="576pt" height="324pt" viewBox="0 0 576 324" xmlns="http://www.w3.org/2000/svg" version="1.1">
 <metadata>
  <rdf:RDF xmlns:dc="http://purl.org/dc/elements/1.1/" xmlns:cc="http://creativecommons.org/ns#" xmlns:rdf="http://www.w3.org/1999/02/22-rdf-syntax-ns#">
   <cc:Work>
    <dc:type rdf:resource="http://purl.org/dc/dcmitype/StillImage"/>
    <dc:date>2022-12-02T18:23:53.889989</dc:date>
    <dc:format>image/svg+xml</dc:format>
    <dc:creator>
     <cc:Agent>
      <dc:title>Matplotlib v3.5.3, https://matplotlib.org/</dc:title>
     </cc:Agent>
    </dc:creator>
   </cc:Work>
  </rdf:RDF>
 </metadata>
 <defs>
  <style type="text/css">*{stroke-linejoin: round; stroke-linecap: butt}</style>
 </defs>
 <g id="figure_1">
  <g id="patch_1">
   <path d="M 0 324 
L 576 324 
L 576 0 
L 0 0 
z
" style="fill: #ffffff"/>
  </g>
  <g id="axes_1">
   <g id="patch_2">
    <path d="M 68.3275 268.845625 
L 560.88 268.845625 
L 560.88 15.12 
L 68.3275 15.12 
z
" style="fill: #ffffff"/>
   </g>
   <g id="patch_3">
    <path d="M 285.762274 268.845625 
L 285.762274 15.12 
L 335.685868 15.12 
L 335.685868 268.845625 
z
" clip-path="url(#pf696129c1c)" style="fill: #4d8b31; opacity: 0.3; stroke: #4d8b31; stroke-linejoin: miter"/>
   </g>
   <g id="patch_4">
    <path d="M 422.401435 268.845625 
L 422.401435 15.12 
L 488.396838 15.12 
L 488.396838 268.845625 
z
" clip-path="url(#pf696129c1c)" style="fill: #ec6c5f; opacity: 0.3; stroke: #ec6c5f; stroke-linejoin: miter"/>
   </g>
   <g id="matplotlib.axis_1">
    <g id="xtick_1">
     <g id="line2d_1">
      <defs>
       <path id="mf02b4ace08" d="M 0 0 
L 0 3.5 
" style="stroke: #000000; stroke-width: 0.8"/>
      </defs>
      <g>
       <use xlink:href="#mf02b4ace08" x="90.71625" y="268.845625" style="stroke: #000000; stroke-width: 0.8"/>
      </g>
     </g>
     <g id="text_1">
      <!-- $\mathdefault{10^{-1}}$ -->
      <g transform="translate(74.26625 286.483437)scale(0.14 -0.14)">
       <defs>
        <path id="DejaVuSans-31" d="M 794 531 
L 1825 531 
L 1825 4091 
L 703 3866 
L 703 4441 
L 1819 4666 
L 2450 4666 
L 2450 531 
L 3481 531 
L 3481 0 
L 794 0 
L 794 531 
z
" transform="scale(0.015625)"/>
        <path id="DejaVuSans-30" d="M 2034 4250 
Q 1547 4250 1301 3770 
Q 1056 3291 1056 2328 
Q 1056 1369 1301 889 
Q 1547 409 2034 409 
Q 2525 409 2770 889 
Q 3016 1369 3016 2328 
Q 3016 3291 2770 3770 
Q 2525 4250 2034 4250 
z
M 2034 4750 
Q 2819 4750 3233 4129 
Q 3647 3509 3647 2328 
Q 3647 1150 3233 529 
Q 2819 -91 2034 -91 
Q 1250 -91 836 529 
Q 422 1150 422 2328 
Q 422 3509 836 4129 
Q 1250 4750 2034 4750 
z
" transform="scale(0.015625)"/>
        <path id="DejaVuSans-2212" d="M 678 2272 
L 4684 2272 
L 4684 1741 
L 678 1741 
L 678 2272 
z
" transform="scale(0.015625)"/>
       </defs>
       <use xlink:href="#DejaVuSans-31" transform="translate(0 0.684375)"/>
       <use xlink:href="#DejaVuSans-30" transform="translate(63.623047 0.684375)"/>
       <use xlink:href="#DejaVuSans-2212" transform="translate(128.203125 38.965625)scale(0.7)"/>
       <use xlink:href="#DejaVuSans-31" transform="translate(186.855469 38.965625)scale(0.7)"/>
      </g>
     </g>
    </g>
    <g id="xtick_2">
     <g id="line2d_2">
      <g>
       <use xlink:href="#mf02b4ace08" x="256.558843" y="268.845625" style="stroke: #000000; stroke-width: 0.8"/>
      </g>
     </g>
     <g id="text_2">
      <!-- $\mathdefault{10^{0}}$ -->
      <g transform="translate(244.238843 286.483437)scale(0.14 -0.14)">
       <use xlink:href="#DejaVuSans-31" transform="translate(0 0.765625)"/>
       <use xlink:href="#DejaVuSans-30" transform="translate(63.623047 0.765625)"/>
       <use xlink:href="#DejaVuSans-30" transform="translate(128.203125 39.046875)scale(0.7)"/>
      </g>
     </g>
    </g>
    <g id="xtick_3">
     <g id="line2d_3">
      <g>
       <use xlink:href="#mf02b4ace08" x="422.401435" y="268.845625" style="stroke: #000000; stroke-width: 0.8"/>
      </g>
     </g>
     <g id="text_3">
      <!-- $\mathdefault{10^{1}}$ -->
      <g transform="translate(410.081435 286.483437)scale(0.14 -0.14)">
       <use xlink:href="#DejaVuSans-31" transform="translate(0 0.684375)"/>
       <use xlink:href="#DejaVuSans-30" transform="translate(63.623047 0.684375)"/>
       <use xlink:href="#DejaVuSans-31" transform="translate(128.203125 38.965625)scale(0.7)"/>
      </g>
     </g>
    </g>
    <g id="xtick_4">
     <g id="line2d_4">
      <defs>
       <path id="m8e00bd98aa" d="M 0 0 
L 0 2 
" style="stroke: #000000; stroke-width: 0.6"/>
      </defs>
      <g>
       <use xlink:href="#m8e00bd98aa" x="74.644442" y="268.845625" style="stroke: #000000; stroke-width: 0.6"/>
      </g>
     </g>
    </g>
    <g id="xtick_5">
     <g id="line2d_5">
      <g>
       <use xlink:href="#m8e00bd98aa" x="83.127709" y="268.845625" style="stroke: #000000; stroke-width: 0.6"/>
      </g>
     </g>
    </g>
    <g id="xtick_6">
     <g id="line2d_6">
      <g>
       <use xlink:href="#m8e00bd98aa" x="140.639845" y="268.845625" style="stroke: #000000; stroke-width: 0.6"/>
      </g>
     </g>
    </g>
    <g id="xtick_7">
     <g id="line2d_7">
      <g>
       <use xlink:href="#m8e00bd98aa" x="169.843276" y="268.845625" style="stroke: #000000; stroke-width: 0.6"/>
      </g>
     </g>
    </g>
    <g id="xtick_8">
     <g id="line2d_8">
      <g>
       <use xlink:href="#m8e00bd98aa" x="190.56344" y="268.845625" style="stroke: #000000; stroke-width: 0.6"/>
      </g>
     </g>
    </g>
    <g id="xtick_9">
     <g id="line2d_9">
      <g>
       <use xlink:href="#m8e00bd98aa" x="206.635248" y="268.845625" style="stroke: #000000; stroke-width: 0.6"/>
      </g>
     </g>
    </g>
    <g id="xtick_10">
     <g id="line2d_10">
      <g>
       <use xlink:href="#m8e00bd98aa" x="219.766871" y="268.845625" style="stroke: #000000; stroke-width: 0.6"/>
      </g>
     </g>
    </g>
    <g id="xtick_11">
     <g id="line2d_11">
      <g>
       <use xlink:href="#m8e00bd98aa" x="230.8695" y="268.845625" style="stroke: #000000; stroke-width: 0.6"/>
      </g>
     </g>
    </g>
    <g id="xtick_12">
     <g id="line2d_12">
      <g>
       <use xlink:href="#m8e00bd98aa" x="240.487035" y="268.845625" style="stroke: #000000; stroke-width: 0.6"/>
      </g>
     </g>
    </g>
    <g id="xtick_13">
     <g id="line2d_13">
      <g>
       <use xlink:href="#m8e00bd98aa" x="248.970302" y="268.845625" style="stroke: #000000; stroke-width: 0.6"/>
      </g>
     </g>
    </g>
    <g id="xtick_14">
     <g id="line2d_14">
      <g>
       <use xlink:href="#m8e00bd98aa" x="306.482438" y="268.845625" style="stroke: #000000; stroke-width: 0.6"/>
      </g>
     </g>
    </g>
    <g id="xtick_15">
     <g id="line2d_15">
      <g>
       <use xlink:href="#m8e00bd98aa" x="335.685868" y="268.845625" style="stroke: #000000; stroke-width: 0.6"/>
      </g>
     </g>
    </g>
    <g id="xtick_16">
     <g id="line2d_16">
      <g>
       <use xlink:href="#m8e00bd98aa" x="356.406032" y="268.845625" style="stroke: #000000; stroke-width: 0.6"/>
      </g>
     </g>
    </g>
    <g id="xtick_17">
     <g id="line2d_17">
      <g>
       <use xlink:href="#m8e00bd98aa" x="372.47784" y="268.845625" style="stroke: #000000; stroke-width: 0.6"/>
      </g>
     </g>
    </g>
    <g id="xtick_18">
     <g id="line2d_18">
      <g>
       <use xlink:href="#m8e00bd98aa" x="385.609463" y="268.845625" style="stroke: #000000; stroke-width: 0.6"/>
      </g>
     </g>
    </g>
    <g id="xtick_19">
     <g id="line2d_19">
      <g>
       <use xlink:href="#m8e00bd98aa" x="396.712093" y="268.845625" style="stroke: #000000; stroke-width: 0.6"/>
      </g>
     </g>
    </g>
    <g id="xtick_20">
     <g id="line2d_20">
      <g>
       <use xlink:href="#m8e00bd98aa" x="406.329627" y="268.845625" style="stroke: #000000; stroke-width: 0.6"/>
      </g>
     </g>
    </g>
    <g id="xtick_21">
     <g id="line2d_21">
      <g>
       <use xlink:href="#m8e00bd98aa" x="414.812894" y="268.845625" style="stroke: #000000; stroke-width: 0.6"/>
      </g>
     </g>
    </g>
    <g id="xtick_22">
     <g id="line2d_22">
      <g>
       <use xlink:href="#m8e00bd98aa" x="472.32503" y="268.845625" style="stroke: #000000; stroke-width: 0.6"/>
      </g>
     </g>
    </g>
    <g id="xtick_23">
     <g id="line2d_23">
      <g>
       <use xlink:href="#m8e00bd98aa" x="501.528461" y="268.845625" style="stroke: #000000; stroke-width: 0.6"/>
      </g>
     </g>
    </g>
    <g id="xtick_24">
     <g id="line2d_24">
      <g>
       <use xlink:href="#m8e00bd98aa" x="522.248625" y="268.845625" style="stroke: #000000; stroke-width: 0.6"/>
      </g>
     </g>
    </g>
    <g id="xtick_25">
     <g id="line2d_25">
      <g>
       <use xlink:href="#m8e00bd98aa" x="538.320433" y="268.845625" style="stroke: #000000; stroke-width: 0.6"/>
      </g>
     </g>
    </g>
    <g id="xtick_26">
     <g id="line2d_26">
      <g>
       <use xlink:href="#m8e00bd98aa" x="551.452056" y="268.845625" style="stroke: #000000; stroke-width: 0.6"/>
      </g>
     </g>
    </g>
    <g id="text_4">
     <!-- L-lactate concentration (mM) -->
     <g transform="translate(198.35 305.5525)scale(0.16 -0.16)">
      <defs>
       <path id="DejaVuSans-4c" d="M 628 4666 
L 1259 4666 
L 1259 531 
L 3531 531 
L 3531 0 
L 628 0 
L 628 4666 
z
" transform="scale(0.015625)"/>
       <path id="DejaVuSans-2d" d="M 313 2009 
L 1997 2009 
L 1997 1497 
L 313 1497 
L 313 2009 
z
" transform="scale(0.015625)"/>
       <path id="DejaVuSans-6c" d="M 603 4863 
L 1178 4863 
L 1178 0 
L 603 0 
L 603 4863 
z
" transform="scale(0.015625)"/>
       <path id="DejaVuSans-61" d="M 2194 1759 
Q 1497 1759 1228 1600 
Q 959 1441 959 1056 
Q 959 750 1161 570 
Q 1363 391 1709 391 
Q 2188 391 2477 730 
Q 2766 1069 2766 1631 
L 2766 1759 
L 2194 1759 
z
M 3341 1997 
L 3341 0 
L 2766 0 
L 2766 531 
Q 2569 213 2275 61 
Q 1981 -91 1556 -91 
Q 1019 -91 701 211 
Q 384 513 384 1019 
Q 384 1609 779 1909 
Q 1175 2209 1959 2209 
L 2766 2209 
L 2766 2266 
Q 2766 2663 2505 2880 
Q 2244 3097 1772 3097 
Q 1472 3097 1187 3025 
Q 903 2953 641 2809 
L 641 3341 
Q 956 3463 1253 3523 
Q 1550 3584 1831 3584 
Q 2591 3584 2966 3190 
Q 3341 2797 3341 1997 
z
" transform="scale(0.015625)"/>
       <path id="DejaVuSans-63" d="M 3122 3366 
L 3122 2828 
Q 2878 2963 2633 3030 
Q 2388 3097 2138 3097 
Q 1578 3097 1268 2742 
Q 959 2388 959 1747 
Q 959 1106 1268 751 
Q 1578 397 2138 397 
Q 2388 397 2633 464 
Q 2878 531 3122 666 
L 3122 134 
Q 2881 22 2623 -34 
Q 2366 -91 2075 -91 
Q 1284 -91 818 406 
Q 353 903 353 1747 
Q 353 2603 823 3093 
Q 1294 3584 2113 3584 
Q 2378 3584 2631 3529 
Q 2884 3475 3122 3366 
z
" transform="scale(0.015625)"/>
       <path id="DejaVuSans-74" d="M 1172 4494 
L 1172 3500 
L 2356 3500 
L 2356 3053 
L 1172 3053 
L 1172 1153 
Q 1172 725 1289 603 
Q 1406 481 1766 481 
L 2356 481 
L 2356 0 
L 1766 0 
Q 1100 0 847 248 
Q 594 497 594 1153 
L 594 3053 
L 172 3053 
L 172 3500 
L 594 3500 
L 594 4494 
L 1172 4494 
z
" transform="scale(0.015625)"/>
       <path id="DejaVuSans-65" d="M 3597 1894 
L 3597 1613 
L 953 1613 
Q 991 1019 1311 708 
Q 1631 397 2203 397 
Q 2534 397 2845 478 
Q 3156 559 3463 722 
L 3463 178 
Q 3153 47 2828 -22 
Q 2503 -91 2169 -91 
Q 1331 -91 842 396 
Q 353 884 353 1716 
Q 353 2575 817 3079 
Q 1281 3584 2069 3584 
Q 2775 3584 3186 3129 
Q 3597 2675 3597 1894 
z
M 3022 2063 
Q 3016 2534 2758 2815 
Q 2500 3097 2075 3097 
Q 1594 3097 1305 2825 
Q 1016 2553 972 2059 
L 3022 2063 
z
" transform="scale(0.015625)"/>
       <path id="DejaVuSans-20" transform="scale(0.015625)"/>
       <path id="DejaVuSans-6f" d="M 1959 3097 
Q 1497 3097 1228 2736 
Q 959 2375 959 1747 
Q 959 1119 1226 758 
Q 1494 397 1959 397 
Q 2419 397 2687 759 
Q 2956 1122 2956 1747 
Q 2956 2369 2687 2733 
Q 2419 3097 1959 3097 
z
M 1959 3584 
Q 2709 3584 3137 3096 
Q 3566 2609 3566 1747 
Q 3566 888 3137 398 
Q 2709 -91 1959 -91 
Q 1206 -91 779 398 
Q 353 888 353 1747 
Q 353 2609 779 3096 
Q 1206 3584 1959 3584 
z
" transform="scale(0.015625)"/>
       <path id="DejaVuSans-6e" d="M 3513 2113 
L 3513 0 
L 2938 0 
L 2938 2094 
Q 2938 2591 2744 2837 
Q 2550 3084 2163 3084 
Q 1697 3084 1428 2787 
Q 1159 2491 1159 1978 
L 1159 0 
L 581 0 
L 581 3500 
L 1159 3500 
L 1159 2956 
Q 1366 3272 1645 3428 
Q 1925 3584 2291 3584 
Q 2894 3584 3203 3211 
Q 3513 2838 3513 2113 
z
" transform="scale(0.015625)"/>
       <path id="DejaVuSans-72" d="M 2631 2963 
Q 2534 3019 2420 3045 
Q 2306 3072 2169 3072 
Q 1681 3072 1420 2755 
Q 1159 2438 1159 1844 
L 1159 0 
L 581 0 
L 581 3500 
L 1159 3500 
L 1159 2956 
Q 1341 3275 1631 3429 
Q 1922 3584 2338 3584 
Q 2397 3584 2469 3576 
Q 2541 3569 2628 3553 
L 2631 2963 
z
" transform="scale(0.015625)"/>
       <path id="DejaVuSans-69" d="M 603 3500 
L 1178 3500 
L 1178 0 
L 603 0 
L 603 3500 
z
M 603 4863 
L 1178 4863 
L 1178 4134 
L 603 4134 
L 603 4863 
z
" transform="scale(0.015625)"/>
       <path id="DejaVuSans-28" d="M 1984 4856 
Q 1566 4138 1362 3434 
Q 1159 2731 1159 2009 
Q 1159 1288 1364 580 
Q 1569 -128 1984 -844 
L 1484 -844 
Q 1016 -109 783 600 
Q 550 1309 550 2009 
Q 550 2706 781 3412 
Q 1013 4119 1484 4856 
L 1984 4856 
z
" transform="scale(0.015625)"/>
       <path id="DejaVuSans-6d" d="M 3328 2828 
Q 3544 3216 3844 3400 
Q 4144 3584 4550 3584 
Q 5097 3584 5394 3201 
Q 5691 2819 5691 2113 
L 5691 0 
L 5113 0 
L 5113 2094 
Q 5113 2597 4934 2840 
Q 4756 3084 4391 3084 
Q 3944 3084 3684 2787 
Q 3425 2491 3425 1978 
L 3425 0 
L 2847 0 
L 2847 2094 
Q 2847 2600 2669 2842 
Q 2491 3084 2119 3084 
Q 1678 3084 1418 2786 
Q 1159 2488 1159 1978 
L 1159 0 
L 581 0 
L 581 3500 
L 1159 3500 
L 1159 2956 
Q 1356 3278 1631 3431 
Q 1906 3584 2284 3584 
Q 2666 3584 2933 3390 
Q 3200 3197 3328 2828 
z
" transform="scale(0.015625)"/>
       <path id="DejaVuSans-4d" d="M 628 4666 
L 1569 4666 
L 2759 1491 
L 3956 4666 
L 4897 4666 
L 4897 0 
L 4281 0 
L 4281 4097 
L 3078 897 
L 2444 897 
L 1241 4097 
L 1241 0 
L 628 0 
L 628 4666 
z
" transform="scale(0.015625)"/>
       <path id="DejaVuSans-29" d="M 513 4856 
L 1013 4856 
Q 1481 4119 1714 3412 
Q 1947 2706 1947 2009 
Q 1947 1309 1714 600 
Q 1481 -109 1013 -844 
L 513 -844 
Q 928 -128 1133 580 
Q 1338 1288 1338 2009 
Q 1338 2731 1133 3434 
Q 928 4138 513 4856 
z
" transform="scale(0.015625)"/>
      </defs>
      <use xlink:href="#DejaVuSans-4c"/>
      <use xlink:href="#DejaVuSans-2d" x="53.962891"/>
      <use xlink:href="#DejaVuSans-6c" x="90.046875"/>
      <use xlink:href="#DejaVuSans-61" x="117.830078"/>
      <use xlink:href="#DejaVuSans-63" x="179.109375"/>
      <use xlink:href="#DejaVuSans-74" x="234.089844"/>
      <use xlink:href="#DejaVuSans-61" x="273.298828"/>
      <use xlink:href="#DejaVuSans-74" x="334.578125"/>
      <use xlink:href="#DejaVuSans-65" x="373.787109"/>
      <use xlink:href="#DejaVuSans-20" x="435.310547"/>
      <use xlink:href="#DejaVuSans-63" x="467.097656"/>
      <use xlink:href="#DejaVuSans-6f" x="522.078125"/>
      <use xlink:href="#DejaVuSans-6e" x="583.259766"/>
      <use xlink:href="#DejaVuSans-63" x="646.638672"/>
      <use xlink:href="#DejaVuSans-65" x="701.619141"/>
      <use xlink:href="#DejaVuSans-6e" x="763.142578"/>
      <use xlink:href="#DejaVuSans-74" x="826.521484"/>
      <use xlink:href="#DejaVuSans-72" x="865.730469"/>
      <use xlink:href="#DejaVuSans-61" x="906.84375"/>
      <use xlink:href="#DejaVuSans-74" x="968.123047"/>
      <use xlink:href="#DejaVuSans-69" x="1007.332031"/>
      <use xlink:href="#DejaVuSans-6f" x="1035.115234"/>
      <use xlink:href="#DejaVuSans-6e" x="1096.296875"/>
      <use xlink:href="#DejaVuSans-20" x="1159.675781"/>
      <use xlink:href="#DejaVuSans-28" x="1191.462891"/>
      <use xlink:href="#DejaVuSans-6d" x="1230.476562"/>
      <use xlink:href="#DejaVuSans-4d" x="1327.888672"/>
      <use xlink:href="#DejaVuSans-29" x="1414.167969"/>
     </g>
    </g>
   </g>
   <g id="matplotlib.axis_2">
    <g id="ytick_1">
     <g id="line2d_27">
      <defs>
       <path id="m8a23c10af8" d="M 0 0 
L -3.5 0 
" style="stroke: #000000; stroke-width: 0.8"/>
      </defs>
      <g>
       <use xlink:href="#m8a23c10af8" x="68.3275" y="268.845625" style="stroke: #000000; stroke-width: 0.8"/>
      </g>
     </g>
     <g id="text_5">
      <!-- 0 -->
      <g transform="translate(52.42 274.164531)scale(0.14 -0.14)">
       <use xlink:href="#DejaVuSans-30"/>
      </g>
     </g>
    </g>
    <g id="ytick_2">
     <g id="line2d_28">
      <g>
       <use xlink:href="#m8a23c10af8" x="68.3275" y="233.662638" style="stroke: #000000; stroke-width: 0.8"/>
      </g>
     </g>
     <g id="text_6">
      <!-- 100 -->
      <g transform="translate(34.605 238.981545)scale(0.14 -0.14)">
       <use xlink:href="#DejaVuSans-31"/>
       <use xlink:href="#DejaVuSans-30" x="63.623047"/>
       <use xlink:href="#DejaVuSans-30" x="127.246094"/>
      </g>
     </g>
    </g>
    <g id="ytick_3">
     <g id="line2d_29">
      <g>
       <use xlink:href="#m8a23c10af8" x="68.3275" y="198.479652" style="stroke: #000000; stroke-width: 0.8"/>
      </g>
     </g>
     <g id="text_7">
      <!-- 200 -->
      <g transform="translate(34.605 203.798558)scale(0.14 -0.14)">
       <defs>
        <path id="DejaVuSans-32" d="M 1228 531 
L 3431 531 
L 3431 0 
L 469 0 
L 469 531 
Q 828 903 1448 1529 
Q 2069 2156 2228 2338 
Q 2531 2678 2651 2914 
Q 2772 3150 2772 3378 
Q 2772 3750 2511 3984 
Q 2250 4219 1831 4219 
Q 1534 4219 1204 4116 
Q 875 4013 500 3803 
L 500 4441 
Q 881 4594 1212 4672 
Q 1544 4750 1819 4750 
Q 2544 4750 2975 4387 
Q 3406 4025 3406 3419 
Q 3406 3131 3298 2873 
Q 3191 2616 2906 2266 
Q 2828 2175 2409 1742 
Q 1991 1309 1228 531 
z
" transform="scale(0.015625)"/>
       </defs>
       <use xlink:href="#DejaVuSans-32"/>
       <use xlink:href="#DejaVuSans-30" x="63.623047"/>
       <use xlink:href="#DejaVuSans-30" x="127.246094"/>
      </g>
     </g>
    </g>
    <g id="ytick_4">
     <g id="line2d_30">
      <g>
       <use xlink:href="#m8a23c10af8" x="68.3275" y="163.296665" style="stroke: #000000; stroke-width: 0.8"/>
      </g>
     </g>
     <g id="text_8">
      <!-- 300 -->
      <g transform="translate(34.605 168.615571)scale(0.14 -0.14)">
       <defs>
        <path id="DejaVuSans-33" d="M 2597 2516 
Q 3050 2419 3304 2112 
Q 3559 1806 3559 1356 
Q 3559 666 3084 287 
Q 2609 -91 1734 -91 
Q 1441 -91 1130 -33 
Q 819 25 488 141 
L 488 750 
Q 750 597 1062 519 
Q 1375 441 1716 441 
Q 2309 441 2620 675 
Q 2931 909 2931 1356 
Q 2931 1769 2642 2001 
Q 2353 2234 1838 2234 
L 1294 2234 
L 1294 2753 
L 1863 2753 
Q 2328 2753 2575 2939 
Q 2822 3125 2822 3475 
Q 2822 3834 2567 4026 
Q 2313 4219 1838 4219 
Q 1578 4219 1281 4162 
Q 984 4106 628 3988 
L 628 4550 
Q 988 4650 1302 4700 
Q 1616 4750 1894 4750 
Q 2613 4750 3031 4423 
Q 3450 4097 3450 3541 
Q 3450 3153 3228 2886 
Q 3006 2619 2597 2516 
z
" transform="scale(0.015625)"/>
       </defs>
       <use xlink:href="#DejaVuSans-33"/>
       <use xlink:href="#DejaVuSans-30" x="63.623047"/>
       <use xlink:href="#DejaVuSans-30" x="127.246094"/>
      </g>
     </g>
    </g>
    <g id="ytick_5">
     <g id="line2d_31">
      <g>
       <use xlink:href="#m8a23c10af8" x="68.3275" y="128.113678" style="stroke: #000000; stroke-width: 0.8"/>
      </g>
     </g>
     <g id="text_9">
      <!-- 400 -->
      <g transform="translate(34.605 133.432585)scale(0.14 -0.14)">
       <defs>
        <path id="DejaVuSans-34" d="M 2419 4116 
L 825 1625 
L 2419 1625 
L 2419 4116 
z
M 2253 4666 
L 3047 4666 
L 3047 1625 
L 3713 1625 
L 3713 1100 
L 3047 1100 
L 3047 0 
L 2419 0 
L 2419 1100 
L 313 1100 
L 313 1709 
L 2253 4666 
z
" transform="scale(0.015625)"/>
       </defs>
       <use xlink:href="#DejaVuSans-34"/>
       <use xlink:href="#DejaVuSans-30" x="63.623047"/>
       <use xlink:href="#DejaVuSans-30" x="127.246094"/>
      </g>
     </g>
    </g>
    <g id="ytick_6">
     <g id="line2d_32">
      <g>
       <use xlink:href="#m8a23c10af8" x="68.3275" y="92.930692" style="stroke: #000000; stroke-width: 0.8"/>
      </g>
     </g>
     <g id="text_10">
      <!-- 500 -->
      <g transform="translate(34.605 98.249598)scale(0.14 -0.14)">
       <defs>
        <path id="DejaVuSans-35" d="M 691 4666 
L 3169 4666 
L 3169 4134 
L 1269 4134 
L 1269 2991 
Q 1406 3038 1543 3061 
Q 1681 3084 1819 3084 
Q 2600 3084 3056 2656 
Q 3513 2228 3513 1497 
Q 3513 744 3044 326 
Q 2575 -91 1722 -91 
Q 1428 -91 1123 -41 
Q 819 9 494 109 
L 494 744 
Q 775 591 1075 516 
Q 1375 441 1709 441 
Q 2250 441 2565 725 
Q 2881 1009 2881 1497 
Q 2881 1984 2565 2268 
Q 2250 2553 1709 2553 
Q 1456 2553 1204 2497 
Q 953 2441 691 2322 
L 691 4666 
z
" transform="scale(0.015625)"/>
       </defs>
       <use xlink:href="#DejaVuSans-35"/>
       <use xlink:href="#DejaVuSans-30" x="63.623047"/>
       <use xlink:href="#DejaVuSans-30" x="127.246094"/>
      </g>
     </g>
    </g>
    <g id="ytick_7">
     <g id="line2d_33">
      <g>
       <use xlink:href="#m8a23c10af8" x="68.3275" y="57.747705" style="stroke: #000000; stroke-width: 0.8"/>
      </g>
     </g>
     <g id="text_11">
      <!-- 600 -->
      <g transform="translate(34.605 63.066611)scale(0.14 -0.14)">
       <defs>
        <path id="DejaVuSans-36" d="M 2113 2584 
Q 1688 2584 1439 2293 
Q 1191 2003 1191 1497 
Q 1191 994 1439 701 
Q 1688 409 2113 409 
Q 2538 409 2786 701 
Q 3034 994 3034 1497 
Q 3034 2003 2786 2293 
Q 2538 2584 2113 2584 
z
M 3366 4563 
L 3366 3988 
Q 3128 4100 2886 4159 
Q 2644 4219 2406 4219 
Q 1781 4219 1451 3797 
Q 1122 3375 1075 2522 
Q 1259 2794 1537 2939 
Q 1816 3084 2150 3084 
Q 2853 3084 3261 2657 
Q 3669 2231 3669 1497 
Q 3669 778 3244 343 
Q 2819 -91 2113 -91 
Q 1303 -91 875 529 
Q 447 1150 447 2328 
Q 447 3434 972 4092 
Q 1497 4750 2381 4750 
Q 2619 4750 2861 4703 
Q 3103 4656 3366 4563 
z
" transform="scale(0.015625)"/>
       </defs>
       <use xlink:href="#DejaVuSans-36"/>
       <use xlink:href="#DejaVuSans-30" x="63.623047"/>
       <use xlink:href="#DejaVuSans-30" x="127.246094"/>
      </g>
     </g>
    </g>
    <g id="ytick_8">
     <g id="line2d_34">
      <g>
       <use xlink:href="#m8a23c10af8" x="68.3275" y="22.564718" style="stroke: #000000; stroke-width: 0.8"/>
      </g>
     </g>
     <g id="text_12">
      <!-- 700 -->
      <g transform="translate(34.605 27.883625)scale(0.14 -0.14)">
       <defs>
        <path id="DejaVuSans-37" d="M 525 4666 
L 3525 4666 
L 3525 4397 
L 1831 0 
L 1172 0 
L 2766 4134 
L 525 4134 
L 525 4666 
z
" transform="scale(0.015625)"/>
       </defs>
       <use xlink:href="#DejaVuSans-37"/>
       <use xlink:href="#DejaVuSans-30" x="63.623047"/>
       <use xlink:href="#DejaVuSans-30" x="127.246094"/>
      </g>
     </g>
    </g>
    <g id="text_13">
     <!-- Fluorescence/OD600 (a.u.) -->
     <g transform="translate(27.2775 248.947812)rotate(-90)scale(0.16 -0.16)">
      <defs>
       <path id="DejaVuSans-46" d="M 628 4666 
L 3309 4666 
L 3309 4134 
L 1259 4134 
L 1259 2759 
L 3109 2759 
L 3109 2228 
L 1259 2228 
L 1259 0 
L 628 0 
L 628 4666 
z
" transform="scale(0.015625)"/>
       <path id="DejaVuSans-75" d="M 544 1381 
L 544 3500 
L 1119 3500 
L 1119 1403 
Q 1119 906 1312 657 
Q 1506 409 1894 409 
Q 2359 409 2629 706 
Q 2900 1003 2900 1516 
L 2900 3500 
L 3475 3500 
L 3475 0 
L 2900 0 
L 2900 538 
Q 2691 219 2414 64 
Q 2138 -91 1772 -91 
Q 1169 -91 856 284 
Q 544 659 544 1381 
z
M 1991 3584 
L 1991 3584 
z
" transform="scale(0.015625)"/>
       <path id="DejaVuSans-73" d="M 2834 3397 
L 2834 2853 
Q 2591 2978 2328 3040 
Q 2066 3103 1784 3103 
Q 1356 3103 1142 2972 
Q 928 2841 928 2578 
Q 928 2378 1081 2264 
Q 1234 2150 1697 2047 
L 1894 2003 
Q 2506 1872 2764 1633 
Q 3022 1394 3022 966 
Q 3022 478 2636 193 
Q 2250 -91 1575 -91 
Q 1294 -91 989 -36 
Q 684 19 347 128 
L 347 722 
Q 666 556 975 473 
Q 1284 391 1588 391 
Q 1994 391 2212 530 
Q 2431 669 2431 922 
Q 2431 1156 2273 1281 
Q 2116 1406 1581 1522 
L 1381 1569 
Q 847 1681 609 1914 
Q 372 2147 372 2553 
Q 372 3047 722 3315 
Q 1072 3584 1716 3584 
Q 2034 3584 2315 3537 
Q 2597 3491 2834 3397 
z
" transform="scale(0.015625)"/>
       <path id="DejaVuSans-2f" d="M 1625 4666 
L 2156 4666 
L 531 -594 
L 0 -594 
L 1625 4666 
z
" transform="scale(0.015625)"/>
       <path id="DejaVuSans-4f" d="M 2522 4238 
Q 1834 4238 1429 3725 
Q 1025 3213 1025 2328 
Q 1025 1447 1429 934 
Q 1834 422 2522 422 
Q 3209 422 3611 934 
Q 4013 1447 4013 2328 
Q 4013 3213 3611 3725 
Q 3209 4238 2522 4238 
z
M 2522 4750 
Q 3503 4750 4090 4092 
Q 4678 3434 4678 2328 
Q 4678 1225 4090 567 
Q 3503 -91 2522 -91 
Q 1538 -91 948 565 
Q 359 1222 359 2328 
Q 359 3434 948 4092 
Q 1538 4750 2522 4750 
z
" transform="scale(0.015625)"/>
       <path id="DejaVuSans-44" d="M 1259 4147 
L 1259 519 
L 2022 519 
Q 2988 519 3436 956 
Q 3884 1394 3884 2338 
Q 3884 3275 3436 3711 
Q 2988 4147 2022 4147 
L 1259 4147 
z
M 628 4666 
L 1925 4666 
Q 3281 4666 3915 4102 
Q 4550 3538 4550 2338 
Q 4550 1131 3912 565 
Q 3275 0 1925 0 
L 628 0 
L 628 4666 
z
" transform="scale(0.015625)"/>
       <path id="DejaVuSans-2e" d="M 684 794 
L 1344 794 
L 1344 0 
L 684 0 
L 684 794 
z
" transform="scale(0.015625)"/>
      </defs>
      <use xlink:href="#DejaVuSans-46"/>
      <use xlink:href="#DejaVuSans-6c" x="57.519531"/>
      <use xlink:href="#DejaVuSans-75" x="85.302734"/>
      <use xlink:href="#DejaVuSans-6f" x="148.681641"/>
      <use xlink:href="#DejaVuSans-72" x="209.863281"/>
      <use xlink:href="#DejaVuSans-65" x="248.726562"/>
      <use xlink:href="#DejaVuSans-73" x="310.25"/>
      <use xlink:href="#DejaVuSans-63" x="362.349609"/>
      <use xlink:href="#DejaVuSans-65" x="417.330078"/>
      <use xlink:href="#DejaVuSans-6e" x="478.853516"/>
      <use xlink:href="#DejaVuSans-63" x="542.232422"/>
      <use xlink:href="#DejaVuSans-65" x="597.212891"/>
      <use xlink:href="#DejaVuSans-2f" x="658.736328"/>
      <use xlink:href="#DejaVuSans-4f" x="692.427734"/>
      <use xlink:href="#DejaVuSans-44" x="771.138672"/>
      <use xlink:href="#DejaVuSans-36" x="848.140625"/>
      <use xlink:href="#DejaVuSans-30" x="911.763672"/>
      <use xlink:href="#DejaVuSans-30" x="975.386719"/>
      <use xlink:href="#DejaVuSans-20" x="1039.009766"/>
      <use xlink:href="#DejaVuSans-28" x="1070.796875"/>
      <use xlink:href="#DejaVuSans-61" x="1109.810547"/>
      <use xlink:href="#DejaVuSans-2e" x="1171.089844"/>
      <use xlink:href="#DejaVuSans-75" x="1202.876953"/>
      <use xlink:href="#DejaVuSans-2e" x="1266.255859"/>
      <use xlink:href="#DejaVuSans-29" x="1298.042969"/>
     </g>
    </g>
   </g>
   <g id="line2d_35">
    <path d="M 90.71625 268.845625 
L 99.854515 268.845625 
L 108.992781 268.845625 
L 118.131046 268.845625 
L 127.269311 268.845625 
L 136.407577 268.845625 
L 145.545842 268.845625 
L 154.684107 268.845625 
L 163.822372 268.845625 
L 172.960638 268.845625 
L 182.098903 268.845625 
L 191.237168 268.845625 
L 200.375434 268.845625 
L 209.513699 268.845625 
L 218.651964 268.845625 
L 227.79023 268.845625 
L 236.928495 268.845625 
L 246.06676 268.845625 
L 255.205026 268.845625 
L 264.343291 268.845625 
L 273.481556 268.845625 
L 282.619821 268.845625 
L 291.758087 268.845625 
L 300.896352 268.845625 
L 310.034617 268.845625 
L 319.172883 268.845625 
L 328.311148 268.845625 
L 337.449413 268.845625 
L 346.587679 268.845625 
L 355.725944 268.845625 
L 364.864209 268.845625 
L 374.002474 268.845625 
L 383.14074 268.845625 
L 392.279005 268.845625 
L 401.41727 268.845625 
L 410.555536 268.845625 
L 419.693801 268.845625 
L 428.832066 268.845625 
L 437.970332 268.845625 
L 447.108597 268.845625 
L 456.246862 268.845625 
L 465.385128 268.845625 
L 474.523393 268.845625 
L 483.661658 268.845625 
L 492.799923 268.845625 
L 501.938189 268.845625 
L 511.076454 268.845625 
L 520.214719 268.845625 
L 529.352985 268.845625 
L 538.49125 268.845625 
" clip-path="url(#pf696129c1c)" style="fill: none; stroke: #fba649; stroke-width: 2; stroke-linecap: square"/>
   </g>
   <g id="line2d_36">
    <defs>
     <path id="m5461f22232" d="M 0 3 
C 0.795609 3 1.55874 2.683901 2.12132 2.12132 
C 2.683901 1.55874 3 0.795609 3 0 
C 3 -0.795609 2.683901 -1.55874 2.12132 -2.12132 
C 1.55874 -2.683901 0.795609 -3 0 -3 
C -0.795609 -3 -1.55874 -2.683901 -2.12132 -2.12132 
C -2.683901 -1.55874 -3 -0.795609 -3 0 
C -3 0.795609 -2.683901 1.55874 -2.12132 2.12132 
C -1.55874 2.683901 -0.795609 3 0 3 
z
" style="stroke: #ff0000"/>
    </defs>
    <g clip-path="url(#pf696129c1c)"/>
   </g>
   <g id="line2d_37">
    <path d="M 90.71625 268.845625 
L 99.854515 268.845625 
L 108.992781 268.845625 
L 118.131046 268.845625 
L 127.269311 268.845625 
L 136.407577 268.845625 
L 145.545842 268.845625 
L 154.684107 268.845625 
L 163.822372 268.845625 
L 172.960638 268.845625 
L 182.098903 268.845625 
L 191.237168 268.845625 
L 200.375434 268.845625 
L 209.513699 268.845625 
L 218.651964 268.845625 
L 227.79023 268.845625 
L 236.928495 268.845625 
L 246.06676 268.845625 
L 255.205026 268.845625 
L 264.343291 268.845625 
L 273.481556 268.845625 
L 282.619821 268.845625 
L 291.758087 268.845625 
L 300.896352 268.845625 
L 310.034617 268.845625 
L 319.172883 268.845625 
L 328.311148 268.845625 
L 337.449413 268.845625 
L 346.587679 268.845625 
L 355.725944 268.845625 
L 364.864209 268.845625 
L 374.002474 268.845625 
L 383.14074 268.845625 
L 392.279005 268.845625 
L 401.41727 268.845625 
L 410.555536 268.845625 
L 419.693801 268.845625 
L 428.832066 268.845625 
L 437.970332 268.845625 
L 447.108597 268.845625 
L 456.246862 268.845625 
L 465.385128 268.845625 
L 474.523393 268.845625 
L 483.661658 268.845625 
L 492.799923 268.845625 
L 501.938189 268.845625 
L 511.076454 268.845625 
L 520.214719 268.845625 
L 529.352985 268.845625 
L 538.49125 268.845625 
" clip-path="url(#pf696129c1c)" style="fill: none; stroke: #45c4af; stroke-width: 2; stroke-linecap: square"/>
   </g>
   <g id="line2d_38">
    <g clip-path="url(#pf696129c1c)"/>
   </g>
   <g id="line2d_39">
    <path d="M 90.71625 217.433092 
L 99.854515 217.433066 
L 108.992781 217.433031 
L 118.131046 217.432988 
L 127.269311 217.432932 
L 136.407577 217.43286 
L 145.545842 217.432769 
L 154.684107 217.432654 
L 163.822372 217.43251 
L 172.960638 217.432328 
L 182.098903 217.432101 
L 191.237168 217.431823 
L 200.375434 217.431484 
L 209.513699 217.431077 
L 218.651964 217.430598 
L 227.79023 217.430046 
L 236.928495 217.429426 
L 246.06676 217.428748 
L 255.205026 217.428033 
L 264.343291 217.427306 
L 273.481556 217.426594 
L 282.619821 217.425922 
L 291.758087 217.425314 
L 300.896352 217.424784 
L 310.034617 217.424336 
L 319.172883 217.423968 
L 328.311148 217.423674 
L 337.449413 217.423441 
L 346.587679 217.423259 
L 355.725944 217.423117 
L 364.864209 217.423009 
L 374.002474 217.422925 
L 383.14074 217.422862 
L 392.279005 217.422813 
L 401.41727 217.422775 
L 410.555536 217.422746 
L 419.693801 217.422724 
L 428.832066 217.422707 
L 437.970332 217.422693 
L 447.108597 217.422684 
L 456.246862 217.422675 
L 465.385128 217.422669 
L 474.523393 217.422664 
L 483.661658 217.422661 
L 492.799923 217.422658 
L 501.938189 217.422656 
L 511.076454 217.422654 
L 520.214719 217.422653 
L 529.352985 217.422652 
L 538.49125 217.422651 
" clip-path="url(#pf696129c1c)" style="fill: none; stroke: #ec6c5f; stroke-width: 2; stroke-linecap: square"/>
   </g>
   <g id="line2d_40">
    <g clip-path="url(#pf696129c1c)">
     <use xlink:href="#m5461f22232" x="160.238362" y="217.43257" style="fill: #ff0000; stroke: #ff0000"/>
     <use xlink:href="#m5461f22232" x="257.236218" y="217.427872" style="fill: #ff0000; stroke: #ff0000"/>
     <use xlink:href="#m5461f22232" x="351.835689" y="217.423173" style="fill: #ff0000; stroke: #ff0000"/>
    </g>
   </g>
   <g id="line2d_41">
    <path d="M 90.71625 129.490405 
L 99.854515 129.438607 
L 108.992781 129.37207 
L 118.131046 129.286685 
L 127.269311 129.177247 
L 136.407577 129.037206 
L 145.545842 128.858381 
L 154.684107 128.630641 
L 163.822372 128.341616 
L 172.960638 127.976454 
L 182.098903 127.517771 
L 191.237168 126.945913 
L 200.375434 126.239815 
L 209.513699 125.378757 
L 218.651964 124.345366 
L 227.79023 123.130155 
L 236.928495 121.737356 
L 246.06676 120.191052 
L 255.205026 118.539266 
L 264.343291 116.852744 
L 273.481556 115.21587 
L 282.619821 113.710568 
L 291.758087 112.39881 
L 300.896352 111.311496 
L 310.034617 110.448087 
L 319.172883 109.785192 
L 328.311148 109.288224 
L 337.449413 108.921085 
L 346.587679 108.651795 
L 355.725944 108.454598 
L 364.864209 108.309894 
L 374.002474 108.20326 
L 383.14074 108.124261 
L 392.279005 108.065401 
L 401.41727 108.0213 
L 410.555536 107.98808 
L 419.693801 107.962938 
L 428.832066 107.94383 
L 437.970332 107.92925 
L 447.108597 107.918093 
L 456.246862 107.90953 
L 465.385128 107.902942 
L 474.523393 107.897866 
L 483.661658 107.893951 
L 492.799923 107.890925 
L 501.938189 107.888584 
L 511.076454 107.886775 
L 520.214719 107.885374 
L 529.352985 107.884288 
L 538.49125 107.883447 
" clip-path="url(#pf696129c1c)" style="fill: none; stroke: #4c8b30; stroke-width: 2; stroke-linecap: square"/>
   </g>
   <g id="line2d_42">
    <g clip-path="url(#pf696129c1c)">
     <use xlink:href="#m5461f22232" x="161.845135" y="128.410057" style="fill: #ff0000; stroke: #ff0000"/>
     <use xlink:href="#m5461f22232" x="254.402275" y="118.686926" style="fill: #ff0000; stroke: #ff0000"/>
     <use xlink:href="#m5461f22232" x="336.228438" y="108.963795" style="fill: #ff0000; stroke: #ff0000"/>
    </g>
   </g>
   <g id="line2d_43">
    <path d="M 90.71625 171.053533 
L 99.854515 170.982373 
L 108.992781 170.890695 
L 118.131046 170.772596 
L 127.269311 170.620484 
L 136.407577 170.424599 
L 145.545842 170.172405 
L 154.684107 169.847811 
L 163.822372 169.43019 
L 172.960638 168.893134 
L 182.098903 168.202905 
L 191.237168 167.316484 
L 200.375434 166.179216 
L 209.513699 164.721968 
L 218.651964 162.857909 
L 227.79023 160.479211 
L 236.928495 157.454463 
L 246.06676 153.628794 
L 255.205026 148.830605 
L 264.343291 142.891878 
L 273.481556 135.691734 
L 282.619821 127.229704 
L 291.758087 117.716106 
L 300.896352 107.627868 
L 310.034617 97.652328 
L 319.172883 88.495825 
L 328.311148 80.659447 
L 337.449413 74.330784 
L 346.587679 69.431815 
L 355.725944 65.741428 
L 364.864209 63.002858 
L 374.002474 60.983454 
L 383.14074 59.495515 
L 392.279005 58.396404 
L 401.41727 57.581016 
L 410.555536 56.973016 
L 419.693801 56.517234 
L 428.832066 56.173794 
L 437.970332 55.913761 
L 447.108597 55.716028 
L 456.246862 55.56512 
L 465.385128 55.449573 
L 474.523393 55.360873 
L 483.661658 55.292638 
L 492.799923 55.240051 
L 501.938189 55.199461 
L 511.076454 55.168099 
L 520.214719 55.143843 
L 529.352985 55.125073 
L 538.49125 55.110537 
" clip-path="url(#pf696129c1c)" style="fill: none; stroke: #641978; stroke-width: 2; stroke-linecap: square"/>
   </g>
   <g id="line2d_44">
    <g clip-path="url(#pf696129c1c)">
     <use xlink:href="#m5461f22232" x="206.418383" y="165.256383" style="fill: #ff0000; stroke: #ff0000"/>
     <use xlink:href="#m5461f22232" x="295.986508" y="113.082035" style="fill: #ff0000; stroke: #ff0000"/>
     <use xlink:href="#m5461f22232" x="374.406318" y="60.907687" style="fill: #ff0000; stroke: #ff0000"/>
    </g>
   </g>
   <g id="line2d_45">
    <path d="M 90.71625 201.939682 
L 99.854515 201.885971 
L 108.992781 201.81679 
L 118.131046 201.727702 
L 127.269311 201.613005 
L 136.407577 201.465377 
L 145.545842 201.275439 
L 154.684107 201.031168 
L 163.822372 200.717198 
L 172.960638 200.313906 
L 182.098903 199.796268 
L 191.237168 199.132455 
L 200.375434 198.28203 
L 209.513699 197.193686 
L 218.651964 195.802404 
L 227.79023 194.025819 
L 236.928495 191.759679 
L 246.06676 188.872239 
L 255.205026 185.197891 
L 264.343291 180.531178 
L 273.481556 174.624841 
L 282.619821 167.200357 
L 291.758087 157.987271 
L 300.896352 146.812699 
L 310.034617 133.747382 
L 319.172883 119.255768 
L 328.311148 104.220478 
L 337.449413 89.734399 
L 346.587679 76.744818 
L 355.725944 65.790807 
L 364.864209 56.975994 
L 374.002474 50.107882 
L 383.14074 44.863456 
L 392.279005 40.903573 
L 401.41727 37.928728 
L 410.555536 35.696283 
L 419.693801 34.018609 
L 428.832066 32.754304 
L 437.970332 31.798197 
L 447.108597 31.072512 
L 456.246862 30.519788 
L 465.385128 30.097436 
L 474.523393 29.773799 
L 483.661658 29.525207 
L 492.799923 29.333867 
L 501.938189 29.18636 
L 511.076454 29.072485 
L 520.214719 28.984481 
L 529.352985 28.916427 
L 538.49125 28.863747 
" clip-path="url(#pf696129c1c)" style="fill: none; stroke: #ddcc77; stroke-width: 2; stroke-linecap: square"/>
   </g>
   <g id="line2d_46">
    <g clip-path="url(#pf696129c1c)">
     <use xlink:href="#m5461f22232" x="231.024555" y="193.285885" style="fill: #ff0000; stroke: #ff0000"/>
     <use xlink:href="#m5461f22232" x="321.521643" y="115.401714" style="fill: #ff0000; stroke: #ff0000"/>
     <use xlink:href="#m5461f22232" x="402.914595" y="37.517544" style="fill: #ff0000; stroke: #ff0000"/>
    </g>
   </g>
   <g id="line2d_47">
    <path d="M 90.71625 220.542603 
L 99.854515 220.497347 
L 108.992781 220.439074 
L 118.131046 220.364063 
L 127.269311 220.267537 
L 136.407577 220.143385 
L 145.545842 219.983781 
L 154.684107 219.778744 
L 163.822372 219.515554 
L 172.960638 219.178062 
L 182.098903 218.7458 
L 191.237168 218.192925 
L 200.375434 217.486902 
L 209.513699 216.586873 
L 218.651964 215.441646 
L 227.79023 213.987159 
L 236.928495 212.143238 
L 246.06676 209.80943 
L 255.205026 206.859621 
L 264.343291 203.135313 
L 273.481556 198.43783 
L 282.619821 192.521595 
L 291.758087 185.094896 
L 300.896352 175.843655 
L 310.034617 164.504429 
L 319.172883 151.008342 
L 328.311148 135.665506 
L 337.449413 119.264286 
L 346.587679 102.936089 
L 355.725944 87.803977 
L 364.864209 74.644207 
L 374.002474 63.765196 
L 383.14074 55.097215 
L 392.279005 48.359692 
L 401.41727 43.202012 
L 410.555536 39.286627 
L 419.693801 36.325048 
L 428.832066 34.086058 
L 437.970332 32.390997 
L 447.108597 31.104615 
L 456.246862 30.125555 
L 465.385128 29.378264 
L 474.523393 28.806281 
L 483.661658 28.367396 
L 492.799923 28.029928 
L 501.938189 27.769972 
L 511.076454 27.569437 
L 520.214719 27.414557 
L 529.352985 27.294814 
L 538.49125 27.202173 
" clip-path="url(#pf696129c1c)" style="fill: none; stroke: #cc79a7; stroke-width: 2; stroke-linecap: square"/>
   </g>
   <g id="line2d_48">
    <g clip-path="url(#pf696129c1c)">
     <use xlink:href="#m5461f22232" x="242.156033" y="210.875582" style="fill: #ff0000; stroke: #ff0000"/>
     <use xlink:href="#m5461f22232" x="334.907224" y="123.872388" style="fill: #ff0000; stroke: #ff0000"/>
     <use xlink:href="#m5461f22232" x="417.80971" y="36.869194" style="fill: #ff0000; stroke: #ff0000"/>
    </g>
   </g>
   <g id="line2d_49">
    <path d="M 90.71625 232.426328 
L 99.854515 232.385712 
L 108.992781 232.333426 
L 118.131046 232.266132 
L 127.269311 232.17956 
L 136.407577 232.068244 
L 145.545842 231.925203 
L 154.684107 231.741535 
L 163.822372 231.505931 
L 172.960638 231.204073 
L 182.098903 230.817869 
L 191.237168 230.324582 
L 200.375434 229.695747 
L 209.513699 228.895866 
L 218.651964 227.88085 
L 227.79023 226.596077 
L 236.928495 224.974003 
L 246.06676 222.931096 
L 255.205026 220.363866 
L 264.343291 217.143633 
L 273.481556 213.109761 
L 282.619821 208.061375 
L 291.758087 201.749705 
L 300.896352 193.878456 
L 310.034617 184.131251 
L 319.172883 172.257256 
L 328.311148 158.234577 
L 337.449413 142.459614 
L 346.587679 125.810277 
L 355.725944 109.451212 
L 364.864209 94.460543 
L 374.002474 81.528974 
L 383.14074 70.889722 
L 392.279005 62.4307 
L 401.41727 55.857375 
L 410.555536 50.820931 
L 419.693801 46.991622 
L 428.832066 44.089608 
L 437.970332 41.891142 
L 447.108597 40.223354 
L 456.246862 38.955218 
L 465.385128 37.988363 
L 474.523393 37.249206 
L 483.661658 36.682703 
L 492.799923 36.247537 
L 501.938189 35.912618 
L 511.076454 35.65443 
L 520.214719 35.455138 
L 529.352985 35.301143 
L 538.49125 35.182033 
" clip-path="url(#pf696129c1c)" style="fill: none; stroke: #fee2c3; stroke-width: 2; stroke-linecap: square"/>
   </g>
   <g id="line2d_50">
    <g clip-path="url(#pf696129c1c)">
     <use xlink:href="#m5461f22232" x="247.507581" y="222.564113" style="fill: #ff0000; stroke: #ff0000"/>
     <use xlink:href="#m5461f22232" x="342.222009" y="133.804181" style="fill: #ff0000; stroke: #ff0000"/>
     <use xlink:href="#m5461f22232" x="425.534384" y="45.044248" style="fill: #ff0000; stroke: #ff0000"/>
    </g>
   </g>
   <g id="line2d_51">
    <path d="M 90.71625 240.177286 
L 99.854515 240.139793 
L 108.992781 240.091524 
L 118.131046 240.029402 
L 127.269311 239.949483 
L 136.407577 239.846723 
L 145.545842 239.714676 
L 154.684107 239.545131 
L 163.822372 239.327657 
L 172.960638 239.04904 
L 182.098903 238.69261 
L 191.237168 238.237435 
L 200.375434 237.657342 
L 209.513699 236.919775 
L 218.651964 235.984429 
L 227.79023 234.801611 
L 236.928495 233.310258 
L 246.06676 231.435488 
L 255.205026 229.085464 
L 264.343291 226.147283 
L 273.481556 222.481512 
L 282.619821 217.914887 
L 291.758087 212.231618 
L 300.896352 205.166908 
L 310.034617 196.415112 
L 319.172883 185.67982 
L 328.311148 172.799408 
L 337.449413 157.940326 
L 346.587679 141.746491 
L 355.725944 125.273759 
L 364.864209 109.675951 
L 374.002474 95.841682 
L 383.14074 84.212529 
L 392.279005 74.823313 
L 401.41727 67.452524 
L 410.555536 61.770167 
L 419.693801 57.435671 
L 428.832066 54.146604 
L 437.970332 51.654878 
L 447.108597 49.765974 
L 456.246862 48.331234 
L 465.385128 47.238717 
L 474.523393 46.404467 
L 483.661658 45.765775 
L 492.799923 45.275631 
L 501.938189 44.898702 
L 511.076454 44.608338 
L 520.214719 44.384315 
L 529.352985 44.211287 
L 538.49125 44.077523 
" clip-path="url(#pf696129c1c)" style="fill: none; stroke: #882255; stroke-width: 2; stroke-linecap: square"/>
   </g>
   <g id="line2d_52">
    <g clip-path="url(#pf696129c1c)">
     <use xlink:href="#m5461f22232" x="250.456647" y="230.372298" style="fill: #ff0000; stroke: #ff0000"/>
     <use xlink:href="#m5461f22232" x="346.377058" y="142.127405" style="fill: #ff0000; stroke: #ff0000"/>
     <use xlink:href="#m5461f22232" x="429.688712" y="53.882511" style="fill: #ff0000; stroke: #ff0000"/>
    </g>
   </g>
   <g id="line2d_53">
    <path d="M 285.762274 268.845625 
L 285.762274 15.12 
" clip-path="url(#pf696129c1c)" style="fill: none; stroke-dasharray: 6,6; stroke-dashoffset: 2; stroke: #4d8b31; stroke-width: 2"/>
   </g>
   <g id="line2d_54">
    <path d="M 335.685868 268.845625 
L 335.685868 15.12 
" clip-path="url(#pf696129c1c)" style="fill: none; stroke-dasharray: 6,6; stroke-dashoffset: 2; stroke: #4d8b31; stroke-width: 2"/>
   </g>
   <g id="line2d_55">
    <path d="M 422.401435 268.845625 
L 422.401435 15.12 
" clip-path="url(#pf696129c1c)" style="fill: none; stroke-dasharray: 6,6; stroke-dashoffset: 2; stroke: #ec6c5f; stroke-width: 2"/>
   </g>
   <g id="line2d_56">
    <path d="M 488.396838 268.845625 
L 488.396838 15.12 
" clip-path="url(#pf696129c1c)" style="fill: none; stroke-dasharray: 6,6; stroke-dashoffset: 2; stroke: #ec6c5f; stroke-width: 2"/>
   </g>
   <g id="patch_5">
    <path d="M 68.3275 268.845625 
L 68.3275 15.12 
" style="fill: none; stroke: #000000; stroke-width: 0.8; stroke-linejoin: miter; stroke-linecap: square"/>
   </g>
   <g id="patch_6">
    <path d="M 560.88 268.845625 
L 560.88 15.12 
" style="fill: none; stroke: #000000; stroke-width: 0.8; stroke-linejoin: miter; stroke-linecap: square"/>
   </g>
   <g id="patch_7">
    <path d="M 68.3275 268.845625 
L 560.88 268.845625 
" style="fill: none; stroke: #000000; stroke-width: 0.8; stroke-linejoin: miter; stroke-linecap: square"/>
   </g>
   <g id="patch_8">
    <path d="M 68.3275 15.12 
L 560.88 15.12 
" style="fill: none; stroke: #000000; stroke-width: 0.8; stroke-linejoin: miter; stroke-linecap: square"/>
   </g>
   <g id="legend_1">
    <g id="patch_9">
     <path d="M 456.314688 263.345625 
L 553.18 263.345625 
Q 555.38 263.345625 555.38 261.145625 
L 555.38 84.640312 
Q 555.38 82.440312 553.18 82.440312 
L 456.314688 82.440312 
Q 454.114688 82.440312 454.114688 84.640312 
L 454.114688 261.145625 
Q 454.114688 263.345625 456.314688 263.345625 
z
" style="fill: #ffffff; opacity: 0.8; stroke: #cccccc; stroke-linejoin: miter"/>
    </g>
    <g id="line2d_57">
     <path d="M 458.514688 91.348594 
L 469.514688 91.348594 
L 480.514688 91.348594 
" style="fill: none; stroke: #fba649; stroke-width: 2; stroke-linecap: square"/>
    </g>
    <g id="text_14">
     <!-- Factor 0.1 -->
     <g transform="translate(489.314688 95.198594)scale(0.11 -0.11)">
      <use xlink:href="#DejaVuSans-46"/>
      <use xlink:href="#DejaVuSans-61" x="48.394531"/>
      <use xlink:href="#DejaVuSans-63" x="109.673828"/>
      <use xlink:href="#DejaVuSans-74" x="164.654297"/>
      <use xlink:href="#DejaVuSans-6f" x="203.863281"/>
      <use xlink:href="#DejaVuSans-72" x="265.044922"/>
      <use xlink:href="#DejaVuSans-20" x="306.158203"/>
      <use xlink:href="#DejaVuSans-30" x="337.945312"/>
      <use xlink:href="#DejaVuSans-2e" x="401.568359"/>
      <use xlink:href="#DejaVuSans-31" x="433.355469"/>
     </g>
    </g>
    <g id="line2d_58">
     <path d="M 458.514688 107.494531 
L 469.514688 107.494531 
L 480.514688 107.494531 
" style="fill: none; stroke: #45c4af; stroke-width: 2; stroke-linecap: square"/>
    </g>
    <g id="text_15">
     <!-- Factor 0.18 -->
     <g transform="translate(489.314688 111.344531)scale(0.11 -0.11)">
      <defs>
       <path id="DejaVuSans-38" d="M 2034 2216 
Q 1584 2216 1326 1975 
Q 1069 1734 1069 1313 
Q 1069 891 1326 650 
Q 1584 409 2034 409 
Q 2484 409 2743 651 
Q 3003 894 3003 1313 
Q 3003 1734 2745 1975 
Q 2488 2216 2034 2216 
z
M 1403 2484 
Q 997 2584 770 2862 
Q 544 3141 544 3541 
Q 544 4100 942 4425 
Q 1341 4750 2034 4750 
Q 2731 4750 3128 4425 
Q 3525 4100 3525 3541 
Q 3525 3141 3298 2862 
Q 3072 2584 2669 2484 
Q 3125 2378 3379 2068 
Q 3634 1759 3634 1313 
Q 3634 634 3220 271 
Q 2806 -91 2034 -91 
Q 1263 -91 848 271 
Q 434 634 434 1313 
Q 434 1759 690 2068 
Q 947 2378 1403 2484 
z
M 1172 3481 
Q 1172 3119 1398 2916 
Q 1625 2713 2034 2713 
Q 2441 2713 2670 2916 
Q 2900 3119 2900 3481 
Q 2900 3844 2670 4047 
Q 2441 4250 2034 4250 
Q 1625 4250 1398 4047 
Q 1172 3844 1172 3481 
z
" transform="scale(0.015625)"/>
      </defs>
      <use xlink:href="#DejaVuSans-46"/>
      <use xlink:href="#DejaVuSans-61" x="48.394531"/>
      <use xlink:href="#DejaVuSans-63" x="109.673828"/>
      <use xlink:href="#DejaVuSans-74" x="164.654297"/>
      <use xlink:href="#DejaVuSans-6f" x="203.863281"/>
      <use xlink:href="#DejaVuSans-72" x="265.044922"/>
      <use xlink:href="#DejaVuSans-20" x="306.158203"/>
      <use xlink:href="#DejaVuSans-30" x="337.945312"/>
      <use xlink:href="#DejaVuSans-2e" x="401.568359"/>
      <use xlink:href="#DejaVuSans-31" x="433.355469"/>
      <use xlink:href="#DejaVuSans-38" x="496.978516"/>
     </g>
    </g>
    <g id="line2d_59">
     <path d="M 458.514688 123.640469 
L 469.514688 123.640469 
L 480.514688 123.640469 
" style="fill: none; stroke: #ec6c5f; stroke-width: 2; stroke-linecap: square"/>
    </g>
    <g id="text_16">
     <!-- Factor 0.32 -->
     <g transform="translate(489.314688 127.490469)scale(0.11 -0.11)">
      <use xlink:href="#DejaVuSans-46"/>
      <use xlink:href="#DejaVuSans-61" x="48.394531"/>
      <use xlink:href="#DejaVuSans-63" x="109.673828"/>
      <use xlink:href="#DejaVuSans-74" x="164.654297"/>
      <use xlink:href="#DejaVuSans-6f" x="203.863281"/>
      <use xlink:href="#DejaVuSans-72" x="265.044922"/>
      <use xlink:href="#DejaVuSans-20" x="306.158203"/>
      <use xlink:href="#DejaVuSans-30" x="337.945312"/>
      <use xlink:href="#DejaVuSans-2e" x="401.568359"/>
      <use xlink:href="#DejaVuSans-33" x="433.355469"/>
      <use xlink:href="#DejaVuSans-32" x="496.978516"/>
     </g>
    </g>
    <g id="line2d_60">
     <path d="M 458.514688 139.786406 
L 469.514688 139.786406 
L 480.514688 139.786406 
" style="fill: none; stroke: #4c8b30; stroke-width: 2; stroke-linecap: square"/>
    </g>
    <g id="text_17">
     <!-- Factor 0.56 -->
     <g transform="translate(489.314688 143.636406)scale(0.11 -0.11)">
      <use xlink:href="#DejaVuSans-46"/>
      <use xlink:href="#DejaVuSans-61" x="48.394531"/>
      <use xlink:href="#DejaVuSans-63" x="109.673828"/>
      <use xlink:href="#DejaVuSans-74" x="164.654297"/>
      <use xlink:href="#DejaVuSans-6f" x="203.863281"/>
      <use xlink:href="#DejaVuSans-72" x="265.044922"/>
      <use xlink:href="#DejaVuSans-20" x="306.158203"/>
      <use xlink:href="#DejaVuSans-30" x="337.945312"/>
      <use xlink:href="#DejaVuSans-2e" x="401.568359"/>
      <use xlink:href="#DejaVuSans-35" x="433.355469"/>
      <use xlink:href="#DejaVuSans-36" x="496.978516"/>
     </g>
    </g>
    <g id="line2d_61">
     <path d="M 458.514688 155.932344 
L 469.514688 155.932344 
L 480.514688 155.932344 
" style="fill: none; stroke: #641978; stroke-width: 2; stroke-linecap: square"/>
    </g>
    <g id="text_18">
     <!-- Original -->
     <g transform="translate(489.314688 159.782344)scale(0.11 -0.11)">
      <defs>
       <path id="DejaVuSans-67" d="M 2906 1791 
Q 2906 2416 2648 2759 
Q 2391 3103 1925 3103 
Q 1463 3103 1205 2759 
Q 947 2416 947 1791 
Q 947 1169 1205 825 
Q 1463 481 1925 481 
Q 2391 481 2648 825 
Q 2906 1169 2906 1791 
z
M 3481 434 
Q 3481 -459 3084 -895 
Q 2688 -1331 1869 -1331 
Q 1566 -1331 1297 -1286 
Q 1028 -1241 775 -1147 
L 775 -588 
Q 1028 -725 1275 -790 
Q 1522 -856 1778 -856 
Q 2344 -856 2625 -561 
Q 2906 -266 2906 331 
L 2906 616 
Q 2728 306 2450 153 
Q 2172 0 1784 0 
Q 1141 0 747 490 
Q 353 981 353 1791 
Q 353 2603 747 3093 
Q 1141 3584 1784 3584 
Q 2172 3584 2450 3431 
Q 2728 3278 2906 2969 
L 2906 3500 
L 3481 3500 
L 3481 434 
z
" transform="scale(0.015625)"/>
      </defs>
      <use xlink:href="#DejaVuSans-4f"/>
      <use xlink:href="#DejaVuSans-72" x="78.710938"/>
      <use xlink:href="#DejaVuSans-69" x="119.824219"/>
      <use xlink:href="#DejaVuSans-67" x="147.607422"/>
      <use xlink:href="#DejaVuSans-69" x="211.083984"/>
      <use xlink:href="#DejaVuSans-6e" x="238.867188"/>
      <use xlink:href="#DejaVuSans-61" x="302.246094"/>
      <use xlink:href="#DejaVuSans-6c" x="363.525391"/>
     </g>
    </g>
    <g id="line2d_62">
     <path d="M 458.514688 172.078281 
L 469.514688 172.078281 
L 480.514688 172.078281 
" style="fill: none; stroke: #ddcc77; stroke-width: 2; stroke-linecap: square"/>
    </g>
    <g id="text_19">
     <!-- Factor 1.78 -->
     <g transform="translate(489.314688 175.928281)scale(0.11 -0.11)">
      <use xlink:href="#DejaVuSans-46"/>
      <use xlink:href="#DejaVuSans-61" x="48.394531"/>
      <use xlink:href="#DejaVuSans-63" x="109.673828"/>
      <use xlink:href="#DejaVuSans-74" x="164.654297"/>
      <use xlink:href="#DejaVuSans-6f" x="203.863281"/>
      <use xlink:href="#DejaVuSans-72" x="265.044922"/>
      <use xlink:href="#DejaVuSans-20" x="306.158203"/>
      <use xlink:href="#DejaVuSans-31" x="337.945312"/>
      <use xlink:href="#DejaVuSans-2e" x="401.568359"/>
      <use xlink:href="#DejaVuSans-37" x="433.355469"/>
      <use xlink:href="#DejaVuSans-38" x="496.978516"/>
     </g>
    </g>
    <g id="line2d_63">
     <path d="M 458.514688 188.224219 
L 469.514688 188.224219 
L 480.514688 188.224219 
" style="fill: none; stroke: #cc79a7; stroke-width: 2; stroke-linecap: square"/>
    </g>
    <g id="text_20">
     <!-- Factor 3.16 -->
     <g transform="translate(489.314688 192.074219)scale(0.11 -0.11)">
      <use xlink:href="#DejaVuSans-46"/>
      <use xlink:href="#DejaVuSans-61" x="48.394531"/>
      <use xlink:href="#DejaVuSans-63" x="109.673828"/>
      <use xlink:href="#DejaVuSans-74" x="164.654297"/>
      <use xlink:href="#DejaVuSans-6f" x="203.863281"/>
      <use xlink:href="#DejaVuSans-72" x="265.044922"/>
      <use xlink:href="#DejaVuSans-20" x="306.158203"/>
      <use xlink:href="#DejaVuSans-33" x="337.945312"/>
      <use xlink:href="#DejaVuSans-2e" x="401.568359"/>
      <use xlink:href="#DejaVuSans-31" x="433.355469"/>
      <use xlink:href="#DejaVuSans-36" x="496.978516"/>
     </g>
    </g>
    <g id="line2d_64">
     <path d="M 458.514688 204.370156 
L 469.514688 204.370156 
L 480.514688 204.370156 
" style="fill: none; stroke: #fee2c3; stroke-width: 2; stroke-linecap: square"/>
    </g>
    <g id="text_21">
     <!-- Factor 5.62 -->
     <g transform="translate(489.314688 208.220156)scale(0.11 -0.11)">
      <use xlink:href="#DejaVuSans-46"/>
      <use xlink:href="#DejaVuSans-61" x="48.394531"/>
      <use xlink:href="#DejaVuSans-63" x="109.673828"/>
      <use xlink:href="#DejaVuSans-74" x="164.654297"/>
      <use xlink:href="#DejaVuSans-6f" x="203.863281"/>
      <use xlink:href="#DejaVuSans-72" x="265.044922"/>
      <use xlink:href="#DejaVuSans-20" x="306.158203"/>
      <use xlink:href="#DejaVuSans-35" x="337.945312"/>
      <use xlink:href="#DejaVuSans-2e" x="401.568359"/>
      <use xlink:href="#DejaVuSans-36" x="433.355469"/>
      <use xlink:href="#DejaVuSans-32" x="496.978516"/>
     </g>
    </g>
    <g id="line2d_65">
     <path d="M 458.514688 220.516094 
L 469.514688 220.516094 
L 480.514688 220.516094 
" style="fill: none; stroke: #882255; stroke-width: 2; stroke-linecap: square"/>
    </g>
    <g id="text_22">
     <!-- Factor 10.0 -->
     <g transform="translate(489.314688 224.366094)scale(0.11 -0.11)">
      <use xlink:href="#DejaVuSans-46"/>
      <use xlink:href="#DejaVuSans-61" x="48.394531"/>
      <use xlink:href="#DejaVuSans-63" x="109.673828"/>
      <use xlink:href="#DejaVuSans-74" x="164.654297"/>
      <use xlink:href="#DejaVuSans-6f" x="203.863281"/>
      <use xlink:href="#DejaVuSans-72" x="265.044922"/>
      <use xlink:href="#DejaVuSans-20" x="306.158203"/>
      <use xlink:href="#DejaVuSans-31" x="337.945312"/>
      <use xlink:href="#DejaVuSans-30" x="401.568359"/>
      <use xlink:href="#DejaVuSans-2e" x="465.191406"/>
      <use xlink:href="#DejaVuSans-30" x="496.978516"/>
     </g>
    </g>
    <g id="patch_10">
     <path d="M 458.514688 240.512031 
L 480.514688 240.512031 
L 480.514688 232.812031 
L 458.514688 232.812031 
z
" style="fill: #4d8b31; opacity: 0.3; stroke: #4d8b31; stroke-linejoin: miter"/>
    </g>
    <g id="text_23">
     <!-- Healthy -->
     <g transform="translate(489.314688 240.512031)scale(0.11 -0.11)">
      <defs>
       <path id="DejaVuSans-48" d="M 628 4666 
L 1259 4666 
L 1259 2753 
L 3553 2753 
L 3553 4666 
L 4184 4666 
L 4184 0 
L 3553 0 
L 3553 2222 
L 1259 2222 
L 1259 0 
L 628 0 
L 628 4666 
z
" transform="scale(0.015625)"/>
       <path id="DejaVuSans-68" d="M 3513 2113 
L 3513 0 
L 2938 0 
L 2938 2094 
Q 2938 2591 2744 2837 
Q 2550 3084 2163 3084 
Q 1697 3084 1428 2787 
Q 1159 2491 1159 1978 
L 1159 0 
L 581 0 
L 581 4863 
L 1159 4863 
L 1159 2956 
Q 1366 3272 1645 3428 
Q 1925 3584 2291 3584 
Q 2894 3584 3203 3211 
Q 3513 2838 3513 2113 
z
" transform="scale(0.015625)"/>
       <path id="DejaVuSans-79" d="M 2059 -325 
Q 1816 -950 1584 -1140 
Q 1353 -1331 966 -1331 
L 506 -1331 
L 506 -850 
L 844 -850 
Q 1081 -850 1212 -737 
Q 1344 -625 1503 -206 
L 1606 56 
L 191 3500 
L 800 3500 
L 1894 763 
L 2988 3500 
L 3597 3500 
L 2059 -325 
z
" transform="scale(0.015625)"/>
      </defs>
      <use xlink:href="#DejaVuSans-48"/>
      <use xlink:href="#DejaVuSans-65" x="75.195312"/>
      <use xlink:href="#DejaVuSans-61" x="136.71875"/>
      <use xlink:href="#DejaVuSans-6c" x="197.998047"/>
      <use xlink:href="#DejaVuSans-74" x="225.78125"/>
      <use xlink:href="#DejaVuSans-68" x="264.990234"/>
      <use xlink:href="#DejaVuSans-79" x="328.369141"/>
     </g>
    </g>
    <g id="patch_11">
     <path d="M 458.514688 256.657969 
L 480.514688 256.657969 
L 480.514688 248.957969 
L 458.514688 248.957969 
z
" style="fill: #ec6c5f; opacity: 0.3; stroke: #ec6c5f; stroke-linejoin: miter"/>
    </g>
    <g id="text_24">
     <!-- Cancer -->
     <g transform="translate(489.314688 256.657969)scale(0.11 -0.11)">
      <defs>
       <path id="DejaVuSans-43" d="M 4122 4306 
L 4122 3641 
Q 3803 3938 3442 4084 
Q 3081 4231 2675 4231 
Q 1875 4231 1450 3742 
Q 1025 3253 1025 2328 
Q 1025 1406 1450 917 
Q 1875 428 2675 428 
Q 3081 428 3442 575 
Q 3803 722 4122 1019 
L 4122 359 
Q 3791 134 3420 21 
Q 3050 -91 2638 -91 
Q 1578 -91 968 557 
Q 359 1206 359 2328 
Q 359 3453 968 4101 
Q 1578 4750 2638 4750 
Q 3056 4750 3426 4639 
Q 3797 4528 4122 4306 
z
" transform="scale(0.015625)"/>
      </defs>
      <use xlink:href="#DejaVuSans-43"/>
      <use xlink:href="#DejaVuSans-61" x="69.824219"/>
      <use xlink:href="#DejaVuSans-6e" x="131.103516"/>
      <use xlink:href="#DejaVuSans-63" x="194.482422"/>
      <use xlink:href="#DejaVuSans-65" x="249.462891"/>
      <use xlink:href="#DejaVuSans-72" x="310.986328"/>
     </g>
    </g>
   </g>
  </g>
 </g>
 <defs>
  <clipPath id="pf696129c1c">
   <rect x="68.3275" y="15.12" width="492.5525" height="253.725625"/>
  </clipPath>
 </defs>
</svg>
