<?xml version="1.0" encoding="utf-8" standalone="no"?>
<!DOCTYPE svg PUBLIC "-//W3C//DTD SVG 1.1//EN"
  "http://www.w3.org/Graphics/SVG/1.1/DTD/svg11.dtd">
<svg xmlns:xlink="http://www.w3.org/1999/xlink" width="576pt" height="324pt" viewBox="0 0 576 324" xmlns="http://www.w3.org/2000/svg" version="1.1">
 <metadata>
  <rdf:RDF xmlns:dc="http://purl.org/dc/elements/1.1/" xmlns:cc="http://creativecommons.org/ns#" xmlns:rdf="http://www.w3.org/1999/02/22-rdf-syntax-ns#">
   <cc:Work>
    <dc:type rdf:resource="http://purl.org/dc/dcmitype/StillImage"/>
    <dc:date>2022-12-02T18:23:53.038008</dc:date>
    <dc:format>image/svg+xml</dc:format>
    <dc:creator>
     <cc:Agent>
      <dc:title>Matplotlib v3.5.3, https://matplotlib.org/</dc:title>
     </cc:Agent>
    </dc:creator>
   </cc:Work>
  </rdf:RDF>
 </metadata>
 <defs>
  <style type="text/css">*{stroke-linejoin: round; stroke-linecap: butt}</style>
 </defs>
 <g id="figure_1">
  <g id="patch_1">
   <path d="M 0 324 
L 576 324 
L 576 0 
L 0 0 
z
" style="fill: #ffffff"/>
  </g>
  <g id="axes_1">
   <g id="patch_2">
    <path d="M 77.235 268.845625 
L 560.88 268.845625 
L 560.88 15.12 
L 77.235 15.12 
z
" style="fill: #ffffff"/>
   </g>
   <g id="patch_3">
    <path d="M 290.737603 268.845625 
L 290.737603 15.12 
L 339.758362 15.12 
L 339.758362 268.845625 
z
" clip-path="url(#p40dc449e53)" style="fill: #4d8b31; opacity: 0.3; stroke: #4d8b31; stroke-linejoin: miter"/>
   </g>
   <g id="patch_4">
    <path d="M 424.905732 268.845625 
L 424.905732 15.12 
L 489.70765 15.12 
L 489.70765 268.845625 
z
" clip-path="url(#p40dc449e53)" style="fill: #ec6c5f; opacity: 0.3; stroke: #ec6c5f; stroke-linejoin: miter"/>
   </g>
   <g id="matplotlib.axis_1">
    <g id="xtick_1">
     <g id="line2d_1">
      <defs>
       <path id="mbfbe34c0a8" d="M 0 0 
L 0 3.5 
" style="stroke: #000000; stroke-width: 0.8"/>
      </defs>
      <g>
       <use xlink:href="#mbfbe34c0a8" x="99.218864" y="268.845625" style="stroke: #000000; stroke-width: 0.8"/>
      </g>
     </g>
     <g id="text_1">
      <!-- $\mathdefault{10^{-1}}$ -->
      <g transform="translate(82.768864 286.483437)scale(0.14 -0.14)">
       <defs>
        <path id="DejaVuSans-31" d="M 794 531 
L 1825 531 
L 1825 4091 
L 703 3866 
L 703 4441 
L 1819 4666 
L 2450 4666 
L 2450 531 
L 3481 531 
L 3481 0 
L 794 0 
L 794 531 
z
" transform="scale(0.015625)"/>
        <path id="DejaVuSans-30" d="M 2034 4250 
Q 1547 4250 1301 3770 
Q 1056 3291 1056 2328 
Q 1056 1369 1301 889 
Q 1547 409 2034 409 
Q 2525 409 2770 889 
Q 3016 1369 3016 2328 
Q 3016 3291 2770 3770 
Q 2525 4250 2034 4250 
z
M 2034 4750 
Q 2819 4750 3233 4129 
Q 3647 3509 3647 2328 
Q 3647 1150 3233 529 
Q 2819 -91 2034 -91 
Q 1250 -91 836 529 
Q 422 1150 422 2328 
Q 422 3509 836 4129 
Q 1250 4750 2034 4750 
z
" transform="scale(0.015625)"/>
        <path id="DejaVuSans-2212" d="M 678 2272 
L 4684 2272 
L 4684 1741 
L 678 1741 
L 678 2272 
z
" transform="scale(0.015625)"/>
       </defs>
       <use xlink:href="#DejaVuSans-31" transform="translate(0 0.684375)"/>
       <use xlink:href="#DejaVuSans-30" transform="translate(63.623047 0.684375)"/>
       <use xlink:href="#DejaVuSans-2212" transform="translate(128.203125 38.965625)scale(0.7)"/>
       <use xlink:href="#DejaVuSans-31" transform="translate(186.855469 38.965625)scale(0.7)"/>
      </g>
     </g>
    </g>
    <g id="xtick_2">
     <g id="line2d_2">
      <g>
       <use xlink:href="#mbfbe34c0a8" x="262.062298" y="268.845625" style="stroke: #000000; stroke-width: 0.8"/>
      </g>
     </g>
     <g id="text_2">
      <!-- $\mathdefault{10^{0}}$ -->
      <g transform="translate(249.742298 286.483437)scale(0.14 -0.14)">
       <use xlink:href="#DejaVuSans-31" transform="translate(0 0.765625)"/>
       <use xlink:href="#DejaVuSans-30" transform="translate(63.623047 0.765625)"/>
       <use xlink:href="#DejaVuSans-30" transform="translate(128.203125 39.046875)scale(0.7)"/>
      </g>
     </g>
    </g>
    <g id="xtick_3">
     <g id="line2d_3">
      <g>
       <use xlink:href="#mbfbe34c0a8" x="424.905732" y="268.845625" style="stroke: #000000; stroke-width: 0.8"/>
      </g>
     </g>
     <g id="text_3">
      <!-- $\mathdefault{10^{1}}$ -->
      <g transform="translate(412.585732 286.483437)scale(0.14 -0.14)">
       <use xlink:href="#DejaVuSans-31" transform="translate(0 0.684375)"/>
       <use xlink:href="#DejaVuSans-30" transform="translate(63.623047 0.684375)"/>
       <use xlink:href="#DejaVuSans-31" transform="translate(128.203125 38.965625)scale(0.7)"/>
      </g>
     </g>
    </g>
    <g id="xtick_4">
     <g id="line2d_4">
      <defs>
       <path id="m5990bf83d5" d="M 0 0 
L 0 2 
" style="stroke: #000000; stroke-width: 0.6"/>
      </defs>
      <g>
       <use xlink:href="#m5990bf83d5" x="83.437704" y="268.845625" style="stroke: #000000; stroke-width: 0.6"/>
      </g>
     </g>
    </g>
    <g id="xtick_5">
     <g id="line2d_5">
      <g>
       <use xlink:href="#m5990bf83d5" x="91.767557" y="268.845625" style="stroke: #000000; stroke-width: 0.6"/>
      </g>
     </g>
    </g>
    <g id="xtick_6">
     <g id="line2d_6">
      <g>
       <use xlink:href="#m5990bf83d5" x="148.239622" y="268.845625" style="stroke: #000000; stroke-width: 0.6"/>
      </g>
     </g>
    </g>
    <g id="xtick_7">
     <g id="line2d_7">
      <g>
       <use xlink:href="#m5990bf83d5" x="176.914927" y="268.845625" style="stroke: #000000; stroke-width: 0.6"/>
      </g>
     </g>
    </g>
    <g id="xtick_8">
     <g id="line2d_8">
      <g>
       <use xlink:href="#m5990bf83d5" x="197.26038" y="268.845625" style="stroke: #000000; stroke-width: 0.6"/>
      </g>
     </g>
    </g>
    <g id="xtick_9">
     <g id="line2d_9">
      <g>
       <use xlink:href="#m5990bf83d5" x="213.04154" y="268.845625" style="stroke: #000000; stroke-width: 0.6"/>
      </g>
     </g>
    </g>
    <g id="xtick_10">
     <g id="line2d_10">
      <g>
       <use xlink:href="#m5990bf83d5" x="225.935686" y="268.845625" style="stroke: #000000; stroke-width: 0.6"/>
      </g>
     </g>
    </g>
    <g id="xtick_11">
     <g id="line2d_11">
      <g>
       <use xlink:href="#m5990bf83d5" x="236.837531" y="268.845625" style="stroke: #000000; stroke-width: 0.6"/>
      </g>
     </g>
    </g>
    <g id="xtick_12">
     <g id="line2d_12">
      <g>
       <use xlink:href="#m5990bf83d5" x="246.281139" y="268.845625" style="stroke: #000000; stroke-width: 0.6"/>
      </g>
     </g>
    </g>
    <g id="xtick_13">
     <g id="line2d_13">
      <g>
       <use xlink:href="#m5990bf83d5" x="254.610991" y="268.845625" style="stroke: #000000; stroke-width: 0.6"/>
      </g>
     </g>
    </g>
    <g id="xtick_14">
     <g id="line2d_14">
      <g>
       <use xlink:href="#m5990bf83d5" x="311.083056" y="268.845625" style="stroke: #000000; stroke-width: 0.6"/>
      </g>
     </g>
    </g>
    <g id="xtick_15">
     <g id="line2d_15">
      <g>
       <use xlink:href="#m5990bf83d5" x="339.758362" y="268.845625" style="stroke: #000000; stroke-width: 0.6"/>
      </g>
     </g>
    </g>
    <g id="xtick_16">
     <g id="line2d_16">
      <g>
       <use xlink:href="#m5990bf83d5" x="360.103815" y="268.845625" style="stroke: #000000; stroke-width: 0.6"/>
      </g>
     </g>
    </g>
    <g id="xtick_17">
     <g id="line2d_17">
      <g>
       <use xlink:href="#m5990bf83d5" x="375.884974" y="268.845625" style="stroke: #000000; stroke-width: 0.6"/>
      </g>
     </g>
    </g>
    <g id="xtick_18">
     <g id="line2d_18">
      <g>
       <use xlink:href="#m5990bf83d5" x="388.77912" y="268.845625" style="stroke: #000000; stroke-width: 0.6"/>
      </g>
     </g>
    </g>
    <g id="xtick_19">
     <g id="line2d_19">
      <g>
       <use xlink:href="#m5990bf83d5" x="399.680965" y="268.845625" style="stroke: #000000; stroke-width: 0.6"/>
      </g>
     </g>
    </g>
    <g id="xtick_20">
     <g id="line2d_20">
      <g>
       <use xlink:href="#m5990bf83d5" x="409.124573" y="268.845625" style="stroke: #000000; stroke-width: 0.6"/>
      </g>
     </g>
    </g>
    <g id="xtick_21">
     <g id="line2d_21">
      <g>
       <use xlink:href="#m5990bf83d5" x="417.454425" y="268.845625" style="stroke: #000000; stroke-width: 0.6"/>
      </g>
     </g>
    </g>
    <g id="xtick_22">
     <g id="line2d_22">
      <g>
       <use xlink:href="#m5990bf83d5" x="473.926491" y="268.845625" style="stroke: #000000; stroke-width: 0.6"/>
      </g>
     </g>
    </g>
    <g id="xtick_23">
     <g id="line2d_23">
      <g>
       <use xlink:href="#m5990bf83d5" x="502.601796" y="268.845625" style="stroke: #000000; stroke-width: 0.6"/>
      </g>
     </g>
    </g>
    <g id="xtick_24">
     <g id="line2d_24">
      <g>
       <use xlink:href="#m5990bf83d5" x="522.947249" y="268.845625" style="stroke: #000000; stroke-width: 0.6"/>
      </g>
     </g>
    </g>
    <g id="xtick_25">
     <g id="line2d_25">
      <g>
       <use xlink:href="#m5990bf83d5" x="538.728408" y="268.845625" style="stroke: #000000; stroke-width: 0.6"/>
      </g>
     </g>
    </g>
    <g id="xtick_26">
     <g id="line2d_26">
      <g>
       <use xlink:href="#m5990bf83d5" x="551.622554" y="268.845625" style="stroke: #000000; stroke-width: 0.6"/>
      </g>
     </g>
    </g>
    <g id="text_4">
     <!-- L-lactate concentration (mM) -->
     <g transform="translate(202.80375 305.5525)scale(0.16 -0.16)">
      <defs>
       <path id="DejaVuSans-4c" d="M 628 4666 
L 1259 4666 
L 1259 531 
L 3531 531 
L 3531 0 
L 628 0 
L 628 4666 
z
" transform="scale(0.015625)"/>
       <path id="DejaVuSans-2d" d="M 313 2009 
L 1997 2009 
L 1997 1497 
L 313 1497 
L 313 2009 
z
" transform="scale(0.015625)"/>
       <path id="DejaVuSans-6c" d="M 603 4863 
L 1178 4863 
L 1178 0 
L 603 0 
L 603 4863 
z
" transform="scale(0.015625)"/>
       <path id="DejaVuSans-61" d="M 2194 1759 
Q 1497 1759 1228 1600 
Q 959 1441 959 1056 
Q 959 750 1161 570 
Q 1363 391 1709 391 
Q 2188 391 2477 730 
Q 2766 1069 2766 1631 
L 2766 1759 
L 2194 1759 
z
M 3341 1997 
L 3341 0 
L 2766 0 
L 2766 531 
Q 2569 213 2275 61 
Q 1981 -91 1556 -91 
Q 1019 -91 701 211 
Q 384 513 384 1019 
Q 384 1609 779 1909 
Q 1175 2209 1959 2209 
L 2766 2209 
L 2766 2266 
Q 2766 2663 2505 2880 
Q 2244 3097 1772 3097 
Q 1472 3097 1187 3025 
Q 903 2953 641 2809 
L 641 3341 
Q 956 3463 1253 3523 
Q 1550 3584 1831 3584 
Q 2591 3584 2966 3190 
Q 3341 2797 3341 1997 
z
" transform="scale(0.015625)"/>
       <path id="DejaVuSans-63" d="M 3122 3366 
L 3122 2828 
Q 2878 2963 2633 3030 
Q 2388 3097 2138 3097 
Q 1578 3097 1268 2742 
Q 959 2388 959 1747 
Q 959 1106 1268 751 
Q 1578 397 2138 397 
Q 2388 397 2633 464 
Q 2878 531 3122 666 
L 3122 134 
Q 2881 22 2623 -34 
Q 2366 -91 2075 -91 
Q 1284 -91 818 406 
Q 353 903 353 1747 
Q 353 2603 823 3093 
Q 1294 3584 2113 3584 
Q 2378 3584 2631 3529 
Q 2884 3475 3122 3366 
z
" transform="scale(0.015625)"/>
       <path id="DejaVuSans-74" d="M 1172 4494 
L 1172 3500 
L 2356 3500 
L 2356 3053 
L 1172 3053 
L 1172 1153 
Q 1172 725 1289 603 
Q 1406 481 1766 481 
L 2356 481 
L 2356 0 
L 1766 0 
Q 1100 0 847 248 
Q 594 497 594 1153 
L 594 3053 
L 172 3053 
L 172 3500 
L 594 3500 
L 594 4494 
L 1172 4494 
z
" transform="scale(0.015625)"/>
       <path id="DejaVuSans-65" d="M 3597 1894 
L 3597 1613 
L 953 1613 
Q 991 1019 1311 708 
Q 1631 397 2203 397 
Q 2534 397 2845 478 
Q 3156 559 3463 722 
L 3463 178 
Q 3153 47 2828 -22 
Q 2503 -91 2169 -91 
Q 1331 -91 842 396 
Q 353 884 353 1716 
Q 353 2575 817 3079 
Q 1281 3584 2069 3584 
Q 2775 3584 3186 3129 
Q 3597 2675 3597 1894 
z
M 3022 2063 
Q 3016 2534 2758 2815 
Q 2500 3097 2075 3097 
Q 1594 3097 1305 2825 
Q 1016 2553 972 2059 
L 3022 2063 
z
" transform="scale(0.015625)"/>
       <path id="DejaVuSans-20" transform="scale(0.015625)"/>
       <path id="DejaVuSans-6f" d="M 1959 3097 
Q 1497 3097 1228 2736 
Q 959 2375 959 1747 
Q 959 1119 1226 758 
Q 1494 397 1959 397 
Q 2419 397 2687 759 
Q 2956 1122 2956 1747 
Q 2956 2369 2687 2733 
Q 2419 3097 1959 3097 
z
M 1959 3584 
Q 2709 3584 3137 3096 
Q 3566 2609 3566 1747 
Q 3566 888 3137 398 
Q 2709 -91 1959 -91 
Q 1206 -91 779 398 
Q 353 888 353 1747 
Q 353 2609 779 3096 
Q 1206 3584 1959 3584 
z
" transform="scale(0.015625)"/>
       <path id="DejaVuSans-6e" d="M 3513 2113 
L 3513 0 
L 2938 0 
L 2938 2094 
Q 2938 2591 2744 2837 
Q 2550 3084 2163 3084 
Q 1697 3084 1428 2787 
Q 1159 2491 1159 1978 
L 1159 0 
L 581 0 
L 581 3500 
L 1159 3500 
L 1159 2956 
Q 1366 3272 1645 3428 
Q 1925 3584 2291 3584 
Q 2894 3584 3203 3211 
Q 3513 2838 3513 2113 
z
" transform="scale(0.015625)"/>
       <path id="DejaVuSans-72" d="M 2631 2963 
Q 2534 3019 2420 3045 
Q 2306 3072 2169 3072 
Q 1681 3072 1420 2755 
Q 1159 2438 1159 1844 
L 1159 0 
L 581 0 
L 581 3500 
L 1159 3500 
L 1159 2956 
Q 1341 3275 1631 3429 
Q 1922 3584 2338 3584 
Q 2397 3584 2469 3576 
Q 2541 3569 2628 3553 
L 2631 2963 
z
" transform="scale(0.015625)"/>
       <path id="DejaVuSans-69" d="M 603 3500 
L 1178 3500 
L 1178 0 
L 603 0 
L 603 3500 
z
M 603 4863 
L 1178 4863 
L 1178 4134 
L 603 4134 
L 603 4863 
z
" transform="scale(0.015625)"/>
       <path id="DejaVuSans-28" d="M 1984 4856 
Q 1566 4138 1362 3434 
Q 1159 2731 1159 2009 
Q 1159 1288 1364 580 
Q 1569 -128 1984 -844 
L 1484 -844 
Q 1016 -109 783 600 
Q 550 1309 550 2009 
Q 550 2706 781 3412 
Q 1013 4119 1484 4856 
L 1984 4856 
z
" transform="scale(0.015625)"/>
       <path id="DejaVuSans-6d" d="M 3328 2828 
Q 3544 3216 3844 3400 
Q 4144 3584 4550 3584 
Q 5097 3584 5394 3201 
Q 5691 2819 5691 2113 
L 5691 0 
L 5113 0 
L 5113 2094 
Q 5113 2597 4934 2840 
Q 4756 3084 4391 3084 
Q 3944 3084 3684 2787 
Q 3425 2491 3425 1978 
L 3425 0 
L 2847 0 
L 2847 2094 
Q 2847 2600 2669 2842 
Q 2491 3084 2119 3084 
Q 1678 3084 1418 2786 
Q 1159 2488 1159 1978 
L 1159 0 
L 581 0 
L 581 3500 
L 1159 3500 
L 1159 2956 
Q 1356 3278 1631 3431 
Q 1906 3584 2284 3584 
Q 2666 3584 2933 3390 
Q 3200 3197 3328 2828 
z
" transform="scale(0.015625)"/>
       <path id="DejaVuSans-4d" d="M 628 4666 
L 1569 4666 
L 2759 1491 
L 3956 4666 
L 4897 4666 
L 4897 0 
L 4281 0 
L 4281 4097 
L 3078 897 
L 2444 897 
L 1241 4097 
L 1241 0 
L 628 0 
L 628 4666 
z
" transform="scale(0.015625)"/>
       <path id="DejaVuSans-29" d="M 513 4856 
L 1013 4856 
Q 1481 4119 1714 3412 
Q 1947 2706 1947 2009 
Q 1947 1309 1714 600 
Q 1481 -109 1013 -844 
L 513 -844 
Q 928 -128 1133 580 
Q 1338 1288 1338 2009 
Q 1338 2731 1133 3434 
Q 928 4138 513 4856 
z
" transform="scale(0.015625)"/>
      </defs>
      <use xlink:href="#DejaVuSans-4c"/>
      <use xlink:href="#DejaVuSans-2d" x="53.962891"/>
      <use xlink:href="#DejaVuSans-6c" x="90.046875"/>
      <use xlink:href="#DejaVuSans-61" x="117.830078"/>
      <use xlink:href="#DejaVuSans-63" x="179.109375"/>
      <use xlink:href="#DejaVuSans-74" x="234.089844"/>
      <use xlink:href="#DejaVuSans-61" x="273.298828"/>
      <use xlink:href="#DejaVuSans-74" x="334.578125"/>
      <use xlink:href="#DejaVuSans-65" x="373.787109"/>
      <use xlink:href="#DejaVuSans-20" x="435.310547"/>
      <use xlink:href="#DejaVuSans-63" x="467.097656"/>
      <use xlink:href="#DejaVuSans-6f" x="522.078125"/>
      <use xlink:href="#DejaVuSans-6e" x="583.259766"/>
      <use xlink:href="#DejaVuSans-63" x="646.638672"/>
      <use xlink:href="#DejaVuSans-65" x="701.619141"/>
      <use xlink:href="#DejaVuSans-6e" x="763.142578"/>
      <use xlink:href="#DejaVuSans-74" x="826.521484"/>
      <use xlink:href="#DejaVuSans-72" x="865.730469"/>
      <use xlink:href="#DejaVuSans-61" x="906.84375"/>
      <use xlink:href="#DejaVuSans-74" x="968.123047"/>
      <use xlink:href="#DejaVuSans-69" x="1007.332031"/>
      <use xlink:href="#DejaVuSans-6f" x="1035.115234"/>
      <use xlink:href="#DejaVuSans-6e" x="1096.296875"/>
      <use xlink:href="#DejaVuSans-20" x="1159.675781"/>
      <use xlink:href="#DejaVuSans-28" x="1191.462891"/>
      <use xlink:href="#DejaVuSans-6d" x="1230.476562"/>
      <use xlink:href="#DejaVuSans-4d" x="1327.888672"/>
      <use xlink:href="#DejaVuSans-29" x="1414.167969"/>
     </g>
    </g>
   </g>
   <g id="matplotlib.axis_2">
    <g id="ytick_1">
     <g id="line2d_27">
      <defs>
       <path id="m5c6a2fada8" d="M 0 0 
L -3.5 0 
" style="stroke: #000000; stroke-width: 0.8"/>
      </defs>
      <g>
       <use xlink:href="#m5c6a2fada8" x="77.235" y="268.845625" style="stroke: #000000; stroke-width: 0.8"/>
      </g>
     </g>
     <g id="text_5">
      <!-- 0 -->
      <g transform="translate(61.3275 274.164531)scale(0.14 -0.14)">
       <use xlink:href="#DejaVuSans-30"/>
      </g>
     </g>
    </g>
    <g id="ytick_2">
     <g id="line2d_28">
      <g>
       <use xlink:href="#m5c6a2fada8" x="77.235" y="240.363503" style="stroke: #000000; stroke-width: 0.8"/>
      </g>
     </g>
     <g id="text_6">
      <!-- 500 -->
      <g transform="translate(43.5125 245.68241)scale(0.14 -0.14)">
       <defs>
        <path id="DejaVuSans-35" d="M 691 4666 
L 3169 4666 
L 3169 4134 
L 1269 4134 
L 1269 2991 
Q 1406 3038 1543 3061 
Q 1681 3084 1819 3084 
Q 2600 3084 3056 2656 
Q 3513 2228 3513 1497 
Q 3513 744 3044 326 
Q 2575 -91 1722 -91 
Q 1428 -91 1123 -41 
Q 819 9 494 109 
L 494 744 
Q 775 591 1075 516 
Q 1375 441 1709 441 
Q 2250 441 2565 725 
Q 2881 1009 2881 1497 
Q 2881 1984 2565 2268 
Q 2250 2553 1709 2553 
Q 1456 2553 1204 2497 
Q 953 2441 691 2322 
L 691 4666 
z
" transform="scale(0.015625)"/>
       </defs>
       <use xlink:href="#DejaVuSans-35"/>
       <use xlink:href="#DejaVuSans-30" x="63.623047"/>
       <use xlink:href="#DejaVuSans-30" x="127.246094"/>
      </g>
     </g>
    </g>
    <g id="ytick_3">
     <g id="line2d_29">
      <g>
       <use xlink:href="#m5c6a2fada8" x="77.235" y="211.881382" style="stroke: #000000; stroke-width: 0.8"/>
      </g>
     </g>
     <g id="text_7">
      <!-- 1000 -->
      <g transform="translate(34.605 217.200288)scale(0.14 -0.14)">
       <use xlink:href="#DejaVuSans-31"/>
       <use xlink:href="#DejaVuSans-30" x="63.623047"/>
       <use xlink:href="#DejaVuSans-30" x="127.246094"/>
       <use xlink:href="#DejaVuSans-30" x="190.869141"/>
      </g>
     </g>
    </g>
    <g id="ytick_4">
     <g id="line2d_30">
      <g>
       <use xlink:href="#m5c6a2fada8" x="77.235" y="183.39926" style="stroke: #000000; stroke-width: 0.8"/>
      </g>
     </g>
     <g id="text_8">
      <!-- 1500 -->
      <g transform="translate(34.605 188.718166)scale(0.14 -0.14)">
       <use xlink:href="#DejaVuSans-31"/>
       <use xlink:href="#DejaVuSans-35" x="63.623047"/>
       <use xlink:href="#DejaVuSans-30" x="127.246094"/>
       <use xlink:href="#DejaVuSans-30" x="190.869141"/>
      </g>
     </g>
    </g>
    <g id="ytick_5">
     <g id="line2d_31">
      <g>
       <use xlink:href="#m5c6a2fada8" x="77.235" y="154.917138" style="stroke: #000000; stroke-width: 0.8"/>
      </g>
     </g>
     <g id="text_9">
      <!-- 2000 -->
      <g transform="translate(34.605 160.236044)scale(0.14 -0.14)">
       <defs>
        <path id="DejaVuSans-32" d="M 1228 531 
L 3431 531 
L 3431 0 
L 469 0 
L 469 531 
Q 828 903 1448 1529 
Q 2069 2156 2228 2338 
Q 2531 2678 2651 2914 
Q 2772 3150 2772 3378 
Q 2772 3750 2511 3984 
Q 2250 4219 1831 4219 
Q 1534 4219 1204 4116 
Q 875 4013 500 3803 
L 500 4441 
Q 881 4594 1212 4672 
Q 1544 4750 1819 4750 
Q 2544 4750 2975 4387 
Q 3406 4025 3406 3419 
Q 3406 3131 3298 2873 
Q 3191 2616 2906 2266 
Q 2828 2175 2409 1742 
Q 1991 1309 1228 531 
z
" transform="scale(0.015625)"/>
       </defs>
       <use xlink:href="#DejaVuSans-32"/>
       <use xlink:href="#DejaVuSans-30" x="63.623047"/>
       <use xlink:href="#DejaVuSans-30" x="127.246094"/>
       <use xlink:href="#DejaVuSans-30" x="190.869141"/>
      </g>
     </g>
    </g>
    <g id="ytick_6">
     <g id="line2d_32">
      <g>
       <use xlink:href="#m5c6a2fada8" x="77.235" y="126.435016" style="stroke: #000000; stroke-width: 0.8"/>
      </g>
     </g>
     <g id="text_10">
      <!-- 2500 -->
      <g transform="translate(34.605 131.753923)scale(0.14 -0.14)">
       <use xlink:href="#DejaVuSans-32"/>
       <use xlink:href="#DejaVuSans-35" x="63.623047"/>
       <use xlink:href="#DejaVuSans-30" x="127.246094"/>
       <use xlink:href="#DejaVuSans-30" x="190.869141"/>
      </g>
     </g>
    </g>
    <g id="ytick_7">
     <g id="line2d_33">
      <g>
       <use xlink:href="#m5c6a2fada8" x="77.235" y="97.952895" style="stroke: #000000; stroke-width: 0.8"/>
      </g>
     </g>
     <g id="text_11">
      <!-- 3000 -->
      <g transform="translate(34.605 103.271801)scale(0.14 -0.14)">
       <defs>
        <path id="DejaVuSans-33" d="M 2597 2516 
Q 3050 2419 3304 2112 
Q 3559 1806 3559 1356 
Q 3559 666 3084 287 
Q 2609 -91 1734 -91 
Q 1441 -91 1130 -33 
Q 819 25 488 141 
L 488 750 
Q 750 597 1062 519 
Q 1375 441 1716 441 
Q 2309 441 2620 675 
Q 2931 909 2931 1356 
Q 2931 1769 2642 2001 
Q 2353 2234 1838 2234 
L 1294 2234 
L 1294 2753 
L 1863 2753 
Q 2328 2753 2575 2939 
Q 2822 3125 2822 3475 
Q 2822 3834 2567 4026 
Q 2313 4219 1838 4219 
Q 1578 4219 1281 4162 
Q 984 4106 628 3988 
L 628 4550 
Q 988 4650 1302 4700 
Q 1616 4750 1894 4750 
Q 2613 4750 3031 4423 
Q 3450 4097 3450 3541 
Q 3450 3153 3228 2886 
Q 3006 2619 2597 2516 
z
" transform="scale(0.015625)"/>
       </defs>
       <use xlink:href="#DejaVuSans-33"/>
       <use xlink:href="#DejaVuSans-30" x="63.623047"/>
       <use xlink:href="#DejaVuSans-30" x="127.246094"/>
       <use xlink:href="#DejaVuSans-30" x="190.869141"/>
      </g>
     </g>
    </g>
    <g id="ytick_8">
     <g id="line2d_34">
      <g>
       <use xlink:href="#m5c6a2fada8" x="77.235" y="69.470773" style="stroke: #000000; stroke-width: 0.8"/>
      </g>
     </g>
     <g id="text_12">
      <!-- 3500 -->
      <g transform="translate(34.605 74.789679)scale(0.14 -0.14)">
       <use xlink:href="#DejaVuSans-33"/>
       <use xlink:href="#DejaVuSans-35" x="63.623047"/>
       <use xlink:href="#DejaVuSans-30" x="127.246094"/>
       <use xlink:href="#DejaVuSans-30" x="190.869141"/>
      </g>
     </g>
    </g>
    <g id="ytick_9">
     <g id="line2d_35">
      <g>
       <use xlink:href="#m5c6a2fada8" x="77.235" y="40.988651" style="stroke: #000000; stroke-width: 0.8"/>
      </g>
     </g>
     <g id="text_13">
      <!-- 4000 -->
      <g transform="translate(34.605 46.307557)scale(0.14 -0.14)">
       <defs>
        <path id="DejaVuSans-34" d="M 2419 4116 
L 825 1625 
L 2419 1625 
L 2419 4116 
z
M 2253 4666 
L 3047 4666 
L 3047 1625 
L 3713 1625 
L 3713 1100 
L 3047 1100 
L 3047 0 
L 2419 0 
L 2419 1100 
L 313 1100 
L 313 1709 
L 2253 4666 
z
" transform="scale(0.015625)"/>
       </defs>
       <use xlink:href="#DejaVuSans-34"/>
       <use xlink:href="#DejaVuSans-30" x="63.623047"/>
       <use xlink:href="#DejaVuSans-30" x="127.246094"/>
       <use xlink:href="#DejaVuSans-30" x="190.869141"/>
      </g>
     </g>
    </g>
    <g id="text_14">
     <!-- Fluorescence/OD600 (a.u.) -->
     <g transform="translate(27.2775 248.947812)rotate(-90)scale(0.16 -0.16)">
      <defs>
       <path id="DejaVuSans-46" d="M 628 4666 
L 3309 4666 
L 3309 4134 
L 1259 4134 
L 1259 2759 
L 3109 2759 
L 3109 2228 
L 1259 2228 
L 1259 0 
L 628 0 
L 628 4666 
z
" transform="scale(0.015625)"/>
       <path id="DejaVuSans-75" d="M 544 1381 
L 544 3500 
L 1119 3500 
L 1119 1403 
Q 1119 906 1312 657 
Q 1506 409 1894 409 
Q 2359 409 2629 706 
Q 2900 1003 2900 1516 
L 2900 3500 
L 3475 3500 
L 3475 0 
L 2900 0 
L 2900 538 
Q 2691 219 2414 64 
Q 2138 -91 1772 -91 
Q 1169 -91 856 284 
Q 544 659 544 1381 
z
M 1991 3584 
L 1991 3584 
z
" transform="scale(0.015625)"/>
       <path id="DejaVuSans-73" d="M 2834 3397 
L 2834 2853 
Q 2591 2978 2328 3040 
Q 2066 3103 1784 3103 
Q 1356 3103 1142 2972 
Q 928 2841 928 2578 
Q 928 2378 1081 2264 
Q 1234 2150 1697 2047 
L 1894 2003 
Q 2506 1872 2764 1633 
Q 3022 1394 3022 966 
Q 3022 478 2636 193 
Q 2250 -91 1575 -91 
Q 1294 -91 989 -36 
Q 684 19 347 128 
L 347 722 
Q 666 556 975 473 
Q 1284 391 1588 391 
Q 1994 391 2212 530 
Q 2431 669 2431 922 
Q 2431 1156 2273 1281 
Q 2116 1406 1581 1522 
L 1381 1569 
Q 847 1681 609 1914 
Q 372 2147 372 2553 
Q 372 3047 722 3315 
Q 1072 3584 1716 3584 
Q 2034 3584 2315 3537 
Q 2597 3491 2834 3397 
z
" transform="scale(0.015625)"/>
       <path id="DejaVuSans-2f" d="M 1625 4666 
L 2156 4666 
L 531 -594 
L 0 -594 
L 1625 4666 
z
" transform="scale(0.015625)"/>
       <path id="DejaVuSans-4f" d="M 2522 4238 
Q 1834 4238 1429 3725 
Q 1025 3213 1025 2328 
Q 1025 1447 1429 934 
Q 1834 422 2522 422 
Q 3209 422 3611 934 
Q 4013 1447 4013 2328 
Q 4013 3213 3611 3725 
Q 3209 4238 2522 4238 
z
M 2522 4750 
Q 3503 4750 4090 4092 
Q 4678 3434 4678 2328 
Q 4678 1225 4090 567 
Q 3503 -91 2522 -91 
Q 1538 -91 948 565 
Q 359 1222 359 2328 
Q 359 3434 948 4092 
Q 1538 4750 2522 4750 
z
" transform="scale(0.015625)"/>
       <path id="DejaVuSans-44" d="M 1259 4147 
L 1259 519 
L 2022 519 
Q 2988 519 3436 956 
Q 3884 1394 3884 2338 
Q 3884 3275 3436 3711 
Q 2988 4147 2022 4147 
L 1259 4147 
z
M 628 4666 
L 1925 4666 
Q 3281 4666 3915 4102 
Q 4550 3538 4550 2338 
Q 4550 1131 3912 565 
Q 3275 0 1925 0 
L 628 0 
L 628 4666 
z
" transform="scale(0.015625)"/>
       <path id="DejaVuSans-36" d="M 2113 2584 
Q 1688 2584 1439 2293 
Q 1191 2003 1191 1497 
Q 1191 994 1439 701 
Q 1688 409 2113 409 
Q 2538 409 2786 701 
Q 3034 994 3034 1497 
Q 3034 2003 2786 2293 
Q 2538 2584 2113 2584 
z
M 3366 4563 
L 3366 3988 
Q 3128 4100 2886 4159 
Q 2644 4219 2406 4219 
Q 1781 4219 1451 3797 
Q 1122 3375 1075 2522 
Q 1259 2794 1537 2939 
Q 1816 3084 2150 3084 
Q 2853 3084 3261 2657 
Q 3669 2231 3669 1497 
Q 3669 778 3244 343 
Q 2819 -91 2113 -91 
Q 1303 -91 875 529 
Q 447 1150 447 2328 
Q 447 3434 972 4092 
Q 1497 4750 2381 4750 
Q 2619 4750 2861 4703 
Q 3103 4656 3366 4563 
z
" transform="scale(0.015625)"/>
       <path id="DejaVuSans-2e" d="M 684 794 
L 1344 794 
L 1344 0 
L 684 0 
L 684 794 
z
" transform="scale(0.015625)"/>
      </defs>
      <use xlink:href="#DejaVuSans-46"/>
      <use xlink:href="#DejaVuSans-6c" x="57.519531"/>
      <use xlink:href="#DejaVuSans-75" x="85.302734"/>
      <use xlink:href="#DejaVuSans-6f" x="148.681641"/>
      <use xlink:href="#DejaVuSans-72" x="209.863281"/>
      <use xlink:href="#DejaVuSans-65" x="248.726562"/>
      <use xlink:href="#DejaVuSans-73" x="310.25"/>
      <use xlink:href="#DejaVuSans-63" x="362.349609"/>
      <use xlink:href="#DejaVuSans-65" x="417.330078"/>
      <use xlink:href="#DejaVuSans-6e" x="478.853516"/>
      <use xlink:href="#DejaVuSans-63" x="542.232422"/>
      <use xlink:href="#DejaVuSans-65" x="597.212891"/>
      <use xlink:href="#DejaVuSans-2f" x="658.736328"/>
      <use xlink:href="#DejaVuSans-4f" x="692.427734"/>
      <use xlink:href="#DejaVuSans-44" x="771.138672"/>
      <use xlink:href="#DejaVuSans-36" x="848.140625"/>
      <use xlink:href="#DejaVuSans-30" x="911.763672"/>
      <use xlink:href="#DejaVuSans-30" x="975.386719"/>
      <use xlink:href="#DejaVuSans-20" x="1039.009766"/>
      <use xlink:href="#DejaVuSans-28" x="1070.796875"/>
      <use xlink:href="#DejaVuSans-61" x="1109.810547"/>
      <use xlink:href="#DejaVuSans-2e" x="1171.089844"/>
      <use xlink:href="#DejaVuSans-75" x="1202.876953"/>
      <use xlink:href="#DejaVuSans-2e" x="1266.255859"/>
      <use xlink:href="#DejaVuSans-29" x="1298.042969"/>
     </g>
    </g>
   </g>
   <g id="line2d_36">
    <path d="M 99.218864 264.461227 
L 108.191869 264.461226 
L 117.164875 264.461226 
L 126.13788 264.461224 
L 135.110886 264.461223 
L 144.083891 264.461221 
L 153.056897 264.461219 
L 162.029903 264.461216 
L 171.002908 264.461212 
L 179.975914 264.461208 
L 188.948919 264.461202 
L 197.921925 264.461194 
L 206.89493 264.461185 
L 215.867936 264.461174 
L 224.840942 264.46116 
L 233.813947 264.461144 
L 242.786953 264.461125 
L 251.759958 264.461103 
L 260.732964 264.461079 
L 269.705969 264.461053 
L 278.678975 264.461025 
L 287.651981 264.460997 
L 296.624986 264.46097 
L 305.597992 264.460944 
L 314.570997 264.46092 
L 323.544003 264.460899 
L 332.517008 264.460881 
L 341.490014 264.460865 
L 350.463019 264.460852 
L 359.436025 264.460842 
L 368.409031 264.460833 
L 377.382036 264.460826 
L 386.355042 264.460821 
L 395.328047 264.460817 
L 404.301053 264.460814 
L 413.274058 264.460811 
L 422.247064 264.460809 
L 431.22007 264.460807 
L 440.193075 264.460806 
L 449.166081 264.460805 
L 458.139086 264.460804 
L 467.112092 264.460804 
L 476.085097 264.460803 
L 485.058103 264.460803 
L 494.031109 264.460803 
L 503.004114 264.460803 
L 511.97712 264.460803 
L 520.950125 264.460802 
L 529.923131 264.460802 
L 538.896136 264.460802 
" clip-path="url(#p40dc449e53)" style="fill: none; stroke: #fba649; stroke-width: 2; stroke-linecap: square"/>
   </g>
   <g id="line2d_37">
    <defs>
     <path id="mbb9f83e269" d="M 0 3 
C 0.795609 3 1.55874 2.683901 2.12132 2.12132 
C 2.683901 1.55874 3 0.795609 3 0 
C 3 -0.795609 2.683901 -1.55874 2.12132 -2.12132 
C 1.55874 -2.683901 0.795609 -3 0 -3 
C -0.795609 -3 -1.55874 -2.683901 -2.12132 -2.12132 
C -2.683901 -1.55874 -3 -0.795609 -3 0 
C -3 0.795609 -2.683901 1.55874 -2.12132 2.12132 
C -1.55874 2.683901 -0.795609 3 0 3 
z
" style="stroke: #ff0000"/>
    </defs>
    <g clip-path="url(#p40dc449e53)">
     <use xlink:href="#mbb9f83e269" x="182.794134" y="264.461206" style="fill: #ff0000; stroke: #ff0000"/>
     <use xlink:href="#mbb9f83e269" x="282.101744" y="264.461015" style="fill: #ff0000; stroke: #ff0000"/>
     <use xlink:href="#mbb9f83e269" x="382.114578" y="264.460823" style="fill: #ff0000; stroke: #ff0000"/>
    </g>
   </g>
   <g id="line2d_38">
    <path d="M 99.218864 261.074996 
L 108.191869 261.074961 
L 117.164875 261.074915 
L 126.13788 261.074856 
L 135.110886 261.074781 
L 144.083891 261.074685 
L 153.056897 261.074563 
L 162.029903 261.074407 
L 171.002908 261.07421 
L 179.975914 261.073962 
L 188.948919 261.073653 
L 197.921925 261.073268 
L 206.89493 261.072797 
L 215.867936 261.072225 
L 224.840942 261.071542 
L 233.813947 261.070743 
L 242.786953 261.069826 
L 251.759958 261.068803 
L 260.732964 261.067695 
L 269.705969 261.066532 
L 278.678975 261.065355 
L 287.651981 261.064208 
L 296.624986 261.063129 
L 305.597992 261.062151 
L 314.570997 261.061293 
L 323.544003 261.060562 
L 332.517008 261.059953 
L 341.490014 261.059458 
L 350.463019 261.05906 
L 359.436025 261.058744 
L 368.409031 261.058496 
L 377.382036 261.058303 
L 386.355042 261.058152 
L 395.328047 261.058035 
L 404.301053 261.057944 
L 413.274058 261.057874 
L 422.247064 261.05782 
L 431.22007 261.057778 
L 440.193075 261.057746 
L 449.166081 261.057721 
L 458.139086 261.057701 
L 467.112092 261.057686 
L 476.085097 261.057675 
L 485.058103 261.057666 
L 494.031109 261.057659 
L 503.004114 261.057653 
L 511.97712 261.057649 
L 520.950125 261.057646 
L 529.923131 261.057643 
L 538.896136 261.057641 
" clip-path="url(#p40dc449e53)" style="fill: none; stroke: #45c4af; stroke-width: 2; stroke-linecap: square"/>
   </g>
   <g id="line2d_39">
    <g clip-path="url(#p40dc449e53)">
     <use xlink:href="#mbb9f83e269" x="174.183667" y="261.074129" style="fill: #ff0000; stroke: #ff0000"/>
     <use xlink:href="#mbb9f83e269" x="271.330768" y="261.066319" style="fill: #ff0000; stroke: #ff0000"/>
     <use xlink:href="#mbb9f83e269" x="367.896458" y="261.058509" style="fill: #ff0000; stroke: #ff0000"/>
    </g>
   </g>
   <g id="line2d_40">
    <path d="M 99.218864 255.658328 
L 108.191869 255.657188 
L 117.164875 255.655725 
L 126.13788 255.653851 
L 135.110886 255.651453 
L 144.083891 255.648392 
L 153.056897 255.644495 
L 162.029903 255.639551 
L 171.002908 255.633305 
L 179.975914 255.625461 
L 188.948919 255.615678 
L 197.921925 255.603586 
L 206.89493 255.588809 
L 215.867936 255.571 
L 224.840942 255.549905 
L 233.813947 255.525434 
L 242.786953 255.49775 
L 251.759958 255.467338 
L 260.732964 255.435036 
L 269.705969 255.401991 
L 278.678975 255.369525 
L 287.651981 255.338935 
L 296.624986 255.311281 
L 305.597992 255.287237 
L 314.570997 255.267047 
L 323.544003 255.250583 
L 332.517008 255.237466 
L 341.490014 255.227195 
L 350.463019 255.219248 
L 359.436025 255.213147 
L 368.409031 255.208484 
L 377.382036 255.204928 
L 386.355042 255.202217 
L 395.328047 255.20015 
L 404.301053 255.19857 
L 413.274058 255.197363 
L 422.247064 255.196438 
L 431.22007 255.195728 
L 440.193075 255.195181 
L 449.166081 255.194761 
L 458.139086 255.194436 
L 467.112092 255.194186 
L 476.085097 255.193992 
L 485.058103 255.193843 
L 494.031109 255.193727 
L 503.004114 255.193637 
L 511.97712 255.193567 
L 520.950125 255.193514 
L 529.923131 255.193472 
L 538.896136 255.193439 
" clip-path="url(#p40dc449e53)" style="fill: none; stroke: #ec6c5f; stroke-width: 2; stroke-linecap: square"/>
   </g>
   <g id="line2d_41">
    <g clip-path="url(#p40dc449e53)">
     <use xlink:href="#mbb9f83e269" x="168.651933" y="255.635083" style="fill: #ff0000; stroke: #ff0000"/>
     <use xlink:href="#mbb9f83e269" x="263.223913" y="255.425884" style="fill: #ff0000; stroke: #ff0000"/>
     <use xlink:href="#mbb9f83e269" x="353.944754" y="255.216684" style="fill: #ff0000; stroke: #ff0000"/>
    </g>
   </g>
   <g id="line2d_42">
    <path d="M 99.218864 251.967882 
L 108.191869 251.958811 
L 117.164875 251.947146 
L 126.13788 251.932153 
L 135.110886 251.912901 
L 144.083891 251.888203 
L 153.056897 251.856565 
L 162.029903 251.816106 
L 171.002908 251.764487 
L 179.975914 251.698824 
L 188.948919 251.615618 
L 197.921925 251.510711 
L 206.89493 251.379304 
L 215.867936 251.216098 
L 224.840942 251.015636 
L 233.813947 250.772948 
L 242.786953 250.484592 
L 251.759958 250.150123 
L 260.732964 249.773802 
L 269.705969 249.365997 
L 278.678975 248.943395 
L 287.651981 248.52712 
L 296.624986 248.138721 
L 305.597992 247.7954 
L 314.570997 247.506674 
L 323.544003 247.273897 
L 332.517008 247.092268 
L 341.490014 246.953772 
L 350.463019 246.849675 
L 359.436025 246.772026 
L 368.409031 246.714265 
L 377.382036 246.671277 
L 386.355042 246.639207 
L 395.328047 246.615198 
L 404.301053 246.597152 
L 413.274058 246.583532 
L 422.247064 246.573211 
L 431.22007 246.56536 
L 440.193075 246.559369 
L 449.166081 246.554782 
L 458.139086 246.551263 
L 467.112092 246.548555 
L 476.085097 246.54647 
L 485.058103 246.544861 
L 494.031109 246.543618 
L 503.004114 246.542657 
L 511.97712 246.541913 
L 520.950125 246.541337 
L 529.923131 246.540892 
L 538.896136 246.540546 
" clip-path="url(#p40dc449e53)" style="fill: none; stroke: #4c8b30; stroke-width: 2; stroke-linecap: square"/>
   </g>
   <g id="line2d_43">
    <g clip-path="url(#p40dc449e53)">
     <use xlink:href="#mbb9f83e269" x="180.255599" y="251.696515" style="fill: #ff0000; stroke: #ff0000"/>
     <use xlink:href="#mbb9f83e269" x="272.09308" y="249.254214" style="fill: #ff0000; stroke: #ff0000"/>
     <use xlink:href="#mbb9f83e269" x="354.494774" y="246.811913" style="fill: #ff0000; stroke: #ff0000"/>
    </g>
   </g>
   <g id="line2d_44">
    <path d="M 99.218864 253.012255 
L 108.191869 253.000733 
L 117.164875 252.98589 
L 126.13788 252.966769 
L 135.110886 252.94214 
L 144.083891 252.910425 
L 153.056897 252.869593 
L 162.029903 252.817038 
L 171.002908 252.749422 
L 179.975914 252.662468 
L 188.948919 252.550714 
L 197.921925 252.407195 
L 206.89493 252.223061 
L 215.867936 251.987121 
L 224.840942 251.685314 
L 233.813947 251.300182 
L 242.786953 250.81045 
L 251.759958 250.191042 
L 260.732964 249.414174 
L 269.705969 248.452644 
L 278.678975 247.286879 
L 287.651981 245.916805 
L 296.624986 244.376472 
L 305.597992 242.743101 
L 314.570997 241.127976 
L 323.544003 239.645461 
L 332.517008 238.376684 
L 341.490014 237.35202 
L 350.463019 236.558836 
L 359.436025 235.961331 
L 368.409031 235.517933 
L 377.382036 235.190974 
L 386.355042 234.950064 
L 395.328047 234.772109 
L 404.301053 234.64009 
L 413.274058 234.54165 
L 422.247064 234.467855 
L 431.22007 234.412249 
L 440.193075 234.370148 
L 449.166081 234.338133 
L 458.139086 234.3137 
L 467.112092 234.294992 
L 476.085097 234.280631 
L 485.058103 234.269583 
L 494.031109 234.261068 
L 503.004114 234.254497 
L 511.97712 234.249419 
L 520.950125 234.245492 
L 529.923131 234.242453 
L 538.896136 234.240099 
" clip-path="url(#p40dc449e53)" style="fill: none; stroke: #641978; stroke-width: 2; stroke-linecap: square"/>
   </g>
   <g id="line2d_45">
    <g clip-path="url(#p40dc449e53)">
     <use xlink:href="#mbb9f83e269" x="212.828597" y="252.073647" style="fill: #ff0000; stroke: #ff0000"/>
     <use xlink:href="#mbb9f83e269" x="300.776939" y="243.626177" style="fill: #ff0000; stroke: #ff0000"/>
     <use xlink:href="#mbb9f83e269" x="377.778577" y="235.178707" style="fill: #ff0000; stroke: #ff0000"/>
    </g>
   </g>
   <g id="line2d_46">
    <path d="M 99.218864 252.848596 
L 108.191869 252.837811 
L 117.164875 252.823922 
L 126.13788 252.806035 
L 135.110886 252.783003 
L 144.083891 252.753358 
L 153.056897 252.71521 
L 162.029903 252.666143 
L 171.002908 252.603061 
L 179.975914 252.522006 
L 188.948919 252.417926 
L 197.921925 252.28438 
L 206.89493 252.113155 
L 215.867936 251.893791 
L 224.840942 251.612953 
L 233.813947 251.253625 
L 242.786953 250.794051 
L 251.759958 250.206346 
L 260.732964 249.454757 
L 269.705969 248.493618 
L 278.678975 247.265482 
L 287.651981 245.701028 
L 296.624986 243.724694 
L 305.597992 241.273323 
L 314.570997 238.334915 
L 323.544003 235.000021 
L 332.517008 231.486673 
L 341.490014 228.090456 
L 350.463019 225.073227 
L 359.436025 222.576192 
L 368.409031 220.613755 
L 377.382036 219.121551 
L 386.355042 218.007502 
L 395.328047 217.182548 
L 404.301053 216.572751 
L 413.274058 216.121092 
L 422.247064 215.785203 
L 431.22007 215.534161 
L 440.193075 215.345548 
L 449.166081 215.20312 
L 458.139086 215.095068 
L 467.112092 215.012761 
L 476.085097 214.949844 
L 485.058103 214.901607 
L 494.031109 214.864538 
L 503.004114 214.835991 
L 511.97712 214.813973 
L 520.950125 214.79697 
L 529.923131 214.783826 
L 538.896136 214.773656 
" clip-path="url(#p40dc449e53)" style="fill: none; stroke: #ddcc77; stroke-width: 2; stroke-linecap: square"/>
   </g>
   <g id="line2d_47">
    <g clip-path="url(#p40dc449e53)">
     <use xlink:href="#mbb9f83e269" x="240.078736" y="250.944849" style="fill: #ff0000; stroke: #ff0000"/>
     <use xlink:href="#mbb9f83e269" x="326.596492" y="233.811126" style="fill: #ff0000; stroke: #ff0000"/>
     <use xlink:href="#mbb9f83e269" x="402.554029" y="216.677403" style="fill: #ff0000; stroke: #ff0000"/>
    </g>
   </g>
   <g id="line2d_48">
    <path d="M 99.218864 251.063239 
L 108.191869 251.051435 
L 117.164875 251.036236 
L 126.13788 251.016671 
L 135.110886 250.991497 
L 144.083891 250.959118 
L 153.056897 250.917497 
L 162.029903 250.864027 
L 171.002908 250.795387 
L 179.975914 250.707362 
L 188.948919 250.594592 
L 197.921925 250.450294 
L 206.89493 250.265899 
L 215.867936 250.030582 
L 224.840942 249.730689 
L 233.813947 249.349004 
L 242.786953 248.863789 
L 251.759958 248.247575 
L 260.732964 247.465563 
L 269.705969 246.473526 
L 278.678975 245.214914 
L 287.651981 243.616768 
L 296.624986 241.583909 
L 305.597992 238.992123 
L 314.570997 235.686316 
L 323.544003 231.503109 
L 332.517008 226.350318 
L 341.490014 220.345327 
L 350.463019 213.907887 
L 359.436025 207.652864 
L 368.409031 202.119528 
L 377.382036 197.578591 
L 386.355042 194.039874 
L 395.328047 191.366851 
L 404.301053 189.380159 
L 413.274058 187.912949 
L 422.247064 186.829816 
L 431.22007 186.027813 
L 440.193075 185.431141 
L 449.166081 184.984809 
L 458.139086 184.649096 
L 467.112092 184.395278 
L 476.085097 184.202493 
L 485.058103 184.055482 
L 494.031109 183.942988 
L 503.004114 183.856668 
L 511.97712 183.79028 
L 520.950125 183.739129 
L 529.923131 183.699657 
L 538.896136 183.669162 
" clip-path="url(#p40dc449e53)" style="fill: none; stroke: #cc79a7; stroke-width: 2; stroke-linecap: square"/>
   </g>
   <g id="line2d_49">
    <g clip-path="url(#p40dc449e53)">
     <use xlink:href="#mbb9f83e269" x="258.330171" y="247.693535" style="fill: #ff0000; stroke: #ff0000"/>
     <use xlink:href="#mbb9f83e269" x="345.669477" y="217.366201" style="fill: #ff0000; stroke: #ff0000"/>
     <use xlink:href="#mbb9f83e269" x="420.28874" y="187.038866" style="fill: #ff0000; stroke: #ff0000"/>
    </g>
   </g>
   <g id="line2d_50">
    <path d="M 99.218864 248.192799 
L 108.191869 248.178699 
L 117.164875 248.16055 
L 126.13788 248.137197 
L 135.110886 248.107159 
L 144.083891 248.068544 
L 153.056897 248.018934 
L 162.029903 247.955252 
L 171.002908 247.873577 
L 179.975914 247.768938 
L 188.948919 247.635045 
L 197.921925 247.463937 
L 206.89493 247.24558 
L 215.867936 246.967311 
L 224.840942 246.613156 
L 233.813947 246.162966 
L 242.786953 245.591278 
L 251.759958 244.865933 
L 260.732964 243.946288 
L 269.705969 242.781118 
L 278.678975 241.306027 
L 287.651981 239.440326 
L 296.624986 237.082782 
L 305.597992 234.104706 
L 314.570997 230.336657 
L 323.544003 225.543645 
L 332.517008 219.396343 
L 341.490014 211.502046 
L 350.463019 201.633205 
L 359.436025 190.148749 
L 368.409031 178.159521 
L 377.382036 167.030896 
L 386.355042 157.679568 
L 395.328047 150.351338 
L 404.301053 144.844255 
L 413.274058 140.793719 
L 422.247064 137.839361 
L 431.22007 135.685825 
L 440.193075 134.110169 
L 449.166081 132.950469 
L 458.139086 132.091097 
L 467.112092 131.449889 
L 476.085097 130.968366 
L 485.058103 130.604657 
L 494.031109 130.328553 
L 503.004114 130.118058 
L 511.97712 129.957013 
L 520.950125 129.833451 
L 529.923131 129.738413 
L 538.896136 129.665182 
" clip-path="url(#p40dc449e53)" style="fill: none; stroke: #fee2c3; stroke-width: 2; stroke-linecap: square"/>
   </g>
   <g id="line2d_51">
    <g clip-path="url(#p40dc449e53)">
     <use xlink:href="#mbb9f83e269" x="273.082156" y="242.266418" style="fill: #ff0000; stroke: #ff0000"/>
     <use xlink:href="#mbb9f83e269" x="360.349136" y="188.92899" style="fill: #ff0000; stroke: #ff0000"/>
     <use xlink:href="#mbb9f83e269" x="431.685318" y="135.591563" style="fill: #ff0000; stroke: #ff0000"/>
    </g>
   </g>
   <g id="line2d_52">
    <path d="M 99.218864 244.468049 
L 108.191869 244.450957 
L 117.164875 244.428959 
L 126.13788 244.400661 
L 135.110886 244.364274 
L 144.083891 244.31751 
L 153.056897 244.257466 
L 162.029903 244.18042 
L 171.002908 244.081662 
L 179.975914 243.955212 
L 188.948919 243.793496 
L 197.921925 243.586928 
L 206.89493 243.32338 
L 215.867936 242.98748 
L 224.840942 242.559688 
L 233.813947 242.015108 
L 242.786953 241.321863 
L 251.759958 240.439037 
L 260.732964 239.314003 
L 269.705969 237.879105 
L 278.678975 236.047743 
L 287.651981 233.709951 
L 296.624986 230.727701 
L 305.597992 226.929693 
L 314.570997 222.104348 
L 323.544003 215.985264 
L 332.517008 208.213811 
L 341.490014 198.248136 
L 350.463019 185.225491 
L 359.436025 168.084419 
L 368.409031 146.579721 
L 377.382036 122.605075 
L 386.355042 99.595195 
L 395.328047 80.238282 
L 404.301053 65.3554 
L 413.274058 54.474348 
L 422.247064 46.699198 
L 431.22007 41.180185 
L 440.193075 37.253924 
L 449.166081 34.441758 
L 458.139086 32.409652 
L 467.112092 30.927186 
L 476.085097 29.835596 
L 485.058103 29.02474 
L 494.031109 28.417758 
L 503.004114 27.96038 
L 511.97712 27.613764 
L 520.950125 27.349832 
L 529.923131 27.148086 
L 538.896136 26.993392 
" clip-path="url(#p40dc449e53)" style="fill: none; stroke: #882255; stroke-width: 2; stroke-linecap: square"/>
   </g>
   <g id="line2d_53">
    <g clip-path="url(#p40dc449e53)">
     <use xlink:href="#mbb9f83e269" x="288.04375" y="233.594316" style="fill: #ff0000; stroke: #ff0000"/>
     <use xlink:href="#mbb9f83e269" x="372.514081" y="135.73072" style="fill: #ff0000; stroke: #ff0000"/>
     <use xlink:href="#mbb9f83e269" x="438.574525" y="37.867125" style="fill: #ff0000; stroke: #ff0000"/>
    </g>
   </g>
   <g id="line2d_54">
    <path d="M 290.737603 268.845625 
L 290.737603 15.12 
" clip-path="url(#p40dc449e53)" style="fill: none; stroke-dasharray: 6,6; stroke-dashoffset: 2; stroke: #4d8b31; stroke-width: 2"/>
   </g>
   <g id="line2d_55">
    <path d="M 339.758362 268.845625 
L 339.758362 15.12 
" clip-path="url(#p40dc449e53)" style="fill: none; stroke-dasharray: 6,6; stroke-dashoffset: 2; stroke: #4d8b31; stroke-width: 2"/>
   </g>
   <g id="line2d_56">
    <path d="M 424.905732 268.845625 
L 424.905732 15.12 
" clip-path="url(#p40dc449e53)" style="fill: none; stroke-dasharray: 6,6; stroke-dashoffset: 2; stroke: #ec6c5f; stroke-width: 2"/>
   </g>
   <g id="line2d_57">
    <path d="M 489.70765 268.845625 
L 489.70765 15.12 
" clip-path="url(#p40dc449e53)" style="fill: none; stroke-dasharray: 6,6; stroke-dashoffset: 2; stroke: #ec6c5f; stroke-width: 2"/>
   </g>
   <g id="patch_5">
    <path d="M 77.235 268.845625 
L 77.235 15.12 
" style="fill: none; stroke: #000000; stroke-width: 0.8; stroke-linejoin: miter; stroke-linecap: square"/>
   </g>
   <g id="patch_6">
    <path d="M 560.88 268.845625 
L 560.88 15.12 
" style="fill: none; stroke: #000000; stroke-width: 0.8; stroke-linejoin: miter; stroke-linecap: square"/>
   </g>
   <g id="patch_7">
    <path d="M 77.235 268.845625 
L 560.88 268.845625 
" style="fill: none; stroke: #000000; stroke-width: 0.8; stroke-linejoin: miter; stroke-linecap: square"/>
   </g>
   <g id="patch_8">
    <path d="M 77.235 15.12 
L 560.88 15.12 
" style="fill: none; stroke: #000000; stroke-width: 0.8; stroke-linejoin: miter; stroke-linecap: square"/>
   </g>
   <g id="legend_1">
    <g id="patch_9">
     <path d="M 84.935 201.525313 
L 181.800313 201.525313 
Q 184.000313 201.525313 184.000313 199.325312 
L 184.000313 22.82 
Q 184.000313 20.62 181.800313 20.62 
L 84.935 20.62 
Q 82.735 20.62 82.735 22.82 
L 82.735 199.325312 
Q 82.735 201.525313 84.935 201.525313 
z
" style="fill: #ffffff; opacity: 0.8; stroke: #cccccc; stroke-linejoin: miter"/>
    </g>
    <g id="line2d_58">
     <path d="M 87.135 29.528281 
L 98.135 29.528281 
L 109.135 29.528281 
" style="fill: none; stroke: #fba649; stroke-width: 2; stroke-linecap: square"/>
    </g>
    <g id="text_15">
     <!-- Factor 0.1 -->
     <g transform="translate(117.935 33.378281)scale(0.11 -0.11)">
      <use xlink:href="#DejaVuSans-46"/>
      <use xlink:href="#DejaVuSans-61" x="48.394531"/>
      <use xlink:href="#DejaVuSans-63" x="109.673828"/>
      <use xlink:href="#DejaVuSans-74" x="164.654297"/>
      <use xlink:href="#DejaVuSans-6f" x="203.863281"/>
      <use xlink:href="#DejaVuSans-72" x="265.044922"/>
      <use xlink:href="#DejaVuSans-20" x="306.158203"/>
      <use xlink:href="#DejaVuSans-30" x="337.945312"/>
      <use xlink:href="#DejaVuSans-2e" x="401.568359"/>
      <use xlink:href="#DejaVuSans-31" x="433.355469"/>
     </g>
    </g>
    <g id="line2d_59">
     <path d="M 87.135 45.674219 
L 98.135 45.674219 
L 109.135 45.674219 
" style="fill: none; stroke: #45c4af; stroke-width: 2; stroke-linecap: square"/>
    </g>
    <g id="text_16">
     <!-- Factor 0.18 -->
     <g transform="translate(117.935 49.524219)scale(0.11 -0.11)">
      <defs>
       <path id="DejaVuSans-38" d="M 2034 2216 
Q 1584 2216 1326 1975 
Q 1069 1734 1069 1313 
Q 1069 891 1326 650 
Q 1584 409 2034 409 
Q 2484 409 2743 651 
Q 3003 894 3003 1313 
Q 3003 1734 2745 1975 
Q 2488 2216 2034 2216 
z
M 1403 2484 
Q 997 2584 770 2862 
Q 544 3141 544 3541 
Q 544 4100 942 4425 
Q 1341 4750 2034 4750 
Q 2731 4750 3128 4425 
Q 3525 4100 3525 3541 
Q 3525 3141 3298 2862 
Q 3072 2584 2669 2484 
Q 3125 2378 3379 2068 
Q 3634 1759 3634 1313 
Q 3634 634 3220 271 
Q 2806 -91 2034 -91 
Q 1263 -91 848 271 
Q 434 634 434 1313 
Q 434 1759 690 2068 
Q 947 2378 1403 2484 
z
M 1172 3481 
Q 1172 3119 1398 2916 
Q 1625 2713 2034 2713 
Q 2441 2713 2670 2916 
Q 2900 3119 2900 3481 
Q 2900 3844 2670 4047 
Q 2441 4250 2034 4250 
Q 1625 4250 1398 4047 
Q 1172 3844 1172 3481 
z
" transform="scale(0.015625)"/>
      </defs>
      <use xlink:href="#DejaVuSans-46"/>
      <use xlink:href="#DejaVuSans-61" x="48.394531"/>
      <use xlink:href="#DejaVuSans-63" x="109.673828"/>
      <use xlink:href="#DejaVuSans-74" x="164.654297"/>
      <use xlink:href="#DejaVuSans-6f" x="203.863281"/>
      <use xlink:href="#DejaVuSans-72" x="265.044922"/>
      <use xlink:href="#DejaVuSans-20" x="306.158203"/>
      <use xlink:href="#DejaVuSans-30" x="337.945312"/>
      <use xlink:href="#DejaVuSans-2e" x="401.568359"/>
      <use xlink:href="#DejaVuSans-31" x="433.355469"/>
      <use xlink:href="#DejaVuSans-38" x="496.978516"/>
     </g>
    </g>
    <g id="line2d_60">
     <path d="M 87.135 61.820156 
L 98.135 61.820156 
L 109.135 61.820156 
" style="fill: none; stroke: #ec6c5f; stroke-width: 2; stroke-linecap: square"/>
    </g>
    <g id="text_17">
     <!-- Factor 0.32 -->
     <g transform="translate(117.935 65.670156)scale(0.11 -0.11)">
      <use xlink:href="#DejaVuSans-46"/>
      <use xlink:href="#DejaVuSans-61" x="48.394531"/>
      <use xlink:href="#DejaVuSans-63" x="109.673828"/>
      <use xlink:href="#DejaVuSans-74" x="164.654297"/>
      <use xlink:href="#DejaVuSans-6f" x="203.863281"/>
      <use xlink:href="#DejaVuSans-72" x="265.044922"/>
      <use xlink:href="#DejaVuSans-20" x="306.158203"/>
      <use xlink:href="#DejaVuSans-30" x="337.945312"/>
      <use xlink:href="#DejaVuSans-2e" x="401.568359"/>
      <use xlink:href="#DejaVuSans-33" x="433.355469"/>
      <use xlink:href="#DejaVuSans-32" x="496.978516"/>
     </g>
    </g>
    <g id="line2d_61">
     <path d="M 87.135 77.966094 
L 98.135 77.966094 
L 109.135 77.966094 
" style="fill: none; stroke: #4c8b30; stroke-width: 2; stroke-linecap: square"/>
    </g>
    <g id="text_18">
     <!-- Factor 0.56 -->
     <g transform="translate(117.935 81.816094)scale(0.11 -0.11)">
      <use xlink:href="#DejaVuSans-46"/>
      <use xlink:href="#DejaVuSans-61" x="48.394531"/>
      <use xlink:href="#DejaVuSans-63" x="109.673828"/>
      <use xlink:href="#DejaVuSans-74" x="164.654297"/>
      <use xlink:href="#DejaVuSans-6f" x="203.863281"/>
      <use xlink:href="#DejaVuSans-72" x="265.044922"/>
      <use xlink:href="#DejaVuSans-20" x="306.158203"/>
      <use xlink:href="#DejaVuSans-30" x="337.945312"/>
      <use xlink:href="#DejaVuSans-2e" x="401.568359"/>
      <use xlink:href="#DejaVuSans-35" x="433.355469"/>
      <use xlink:href="#DejaVuSans-36" x="496.978516"/>
     </g>
    </g>
    <g id="line2d_62">
     <path d="M 87.135 94.112031 
L 98.135 94.112031 
L 109.135 94.112031 
" style="fill: none; stroke: #641978; stroke-width: 2; stroke-linecap: square"/>
    </g>
    <g id="text_19">
     <!-- Original -->
     <g transform="translate(117.935 97.962031)scale(0.11 -0.11)">
      <defs>
       <path id="DejaVuSans-67" d="M 2906 1791 
Q 2906 2416 2648 2759 
Q 2391 3103 1925 3103 
Q 1463 3103 1205 2759 
Q 947 2416 947 1791 
Q 947 1169 1205 825 
Q 1463 481 1925 481 
Q 2391 481 2648 825 
Q 2906 1169 2906 1791 
z
M 3481 434 
Q 3481 -459 3084 -895 
Q 2688 -1331 1869 -1331 
Q 1566 -1331 1297 -1286 
Q 1028 -1241 775 -1147 
L 775 -588 
Q 1028 -725 1275 -790 
Q 1522 -856 1778 -856 
Q 2344 -856 2625 -561 
Q 2906 -266 2906 331 
L 2906 616 
Q 2728 306 2450 153 
Q 2172 0 1784 0 
Q 1141 0 747 490 
Q 353 981 353 1791 
Q 353 2603 747 3093 
Q 1141 3584 1784 3584 
Q 2172 3584 2450 3431 
Q 2728 3278 2906 2969 
L 2906 3500 
L 3481 3500 
L 3481 434 
z
" transform="scale(0.015625)"/>
      </defs>
      <use xlink:href="#DejaVuSans-4f"/>
      <use xlink:href="#DejaVuSans-72" x="78.710938"/>
      <use xlink:href="#DejaVuSans-69" x="119.824219"/>
      <use xlink:href="#DejaVuSans-67" x="147.607422"/>
      <use xlink:href="#DejaVuSans-69" x="211.083984"/>
      <use xlink:href="#DejaVuSans-6e" x="238.867188"/>
      <use xlink:href="#DejaVuSans-61" x="302.246094"/>
      <use xlink:href="#DejaVuSans-6c" x="363.525391"/>
     </g>
    </g>
    <g id="line2d_63">
     <path d="M 87.135 110.257969 
L 98.135 110.257969 
L 109.135 110.257969 
" style="fill: none; stroke: #ddcc77; stroke-width: 2; stroke-linecap: square"/>
    </g>
    <g id="text_20">
     <!-- Factor 1.78 -->
     <g transform="translate(117.935 114.107969)scale(0.11 -0.11)">
      <defs>
       <path id="DejaVuSans-37" d="M 525 4666 
L 3525 4666 
L 3525 4397 
L 1831 0 
L 1172 0 
L 2766 4134 
L 525 4134 
L 525 4666 
z
" transform="scale(0.015625)"/>
      </defs>
      <use xlink:href="#DejaVuSans-46"/>
      <use xlink:href="#DejaVuSans-61" x="48.394531"/>
      <use xlink:href="#DejaVuSans-63" x="109.673828"/>
      <use xlink:href="#DejaVuSans-74" x="164.654297"/>
      <use xlink:href="#DejaVuSans-6f" x="203.863281"/>
      <use xlink:href="#DejaVuSans-72" x="265.044922"/>
      <use xlink:href="#DejaVuSans-20" x="306.158203"/>
      <use xlink:href="#DejaVuSans-31" x="337.945312"/>
      <use xlink:href="#DejaVuSans-2e" x="401.568359"/>
      <use xlink:href="#DejaVuSans-37" x="433.355469"/>
      <use xlink:href="#DejaVuSans-38" x="496.978516"/>
     </g>
    </g>
    <g id="line2d_64">
     <path d="M 87.135 126.403906 
L 98.135 126.403906 
L 109.135 126.403906 
" style="fill: none; stroke: #cc79a7; stroke-width: 2; stroke-linecap: square"/>
    </g>
    <g id="text_21">
     <!-- Factor 3.16 -->
     <g transform="translate(117.935 130.253906)scale(0.11 -0.11)">
      <use xlink:href="#DejaVuSans-46"/>
      <use xlink:href="#DejaVuSans-61" x="48.394531"/>
      <use xlink:href="#DejaVuSans-63" x="109.673828"/>
      <use xlink:href="#DejaVuSans-74" x="164.654297"/>
      <use xlink:href="#DejaVuSans-6f" x="203.863281"/>
      <use xlink:href="#DejaVuSans-72" x="265.044922"/>
      <use xlink:href="#DejaVuSans-20" x="306.158203"/>
      <use xlink:href="#DejaVuSans-33" x="337.945312"/>
      <use xlink:href="#DejaVuSans-2e" x="401.568359"/>
      <use xlink:href="#DejaVuSans-31" x="433.355469"/>
      <use xlink:href="#DejaVuSans-36" x="496.978516"/>
     </g>
    </g>
    <g id="line2d_65">
     <path d="M 87.135 142.549844 
L 98.135 142.549844 
L 109.135 142.549844 
" style="fill: none; stroke: #fee2c3; stroke-width: 2; stroke-linecap: square"/>
    </g>
    <g id="text_22">
     <!-- Factor 5.62 -->
     <g transform="translate(117.935 146.399844)scale(0.11 -0.11)">
      <use xlink:href="#DejaVuSans-46"/>
      <use xlink:href="#DejaVuSans-61" x="48.394531"/>
      <use xlink:href="#DejaVuSans-63" x="109.673828"/>
      <use xlink:href="#DejaVuSans-74" x="164.654297"/>
      <use xlink:href="#DejaVuSans-6f" x="203.863281"/>
      <use xlink:href="#DejaVuSans-72" x="265.044922"/>
      <use xlink:href="#DejaVuSans-20" x="306.158203"/>
      <use xlink:href="#DejaVuSans-35" x="337.945312"/>
      <use xlink:href="#DejaVuSans-2e" x="401.568359"/>
      <use xlink:href="#DejaVuSans-36" x="433.355469"/>
      <use xlink:href="#DejaVuSans-32" x="496.978516"/>
     </g>
    </g>
    <g id="line2d_66">
     <path d="M 87.135 158.695781 
L 98.135 158.695781 
L 109.135 158.695781 
" style="fill: none; stroke: #882255; stroke-width: 2; stroke-linecap: square"/>
    </g>
    <g id="text_23">
     <!-- Factor 10.0 -->
     <g transform="translate(117.935 162.545781)scale(0.11 -0.11)">
      <use xlink:href="#DejaVuSans-46"/>
      <use xlink:href="#DejaVuSans-61" x="48.394531"/>
      <use xlink:href="#DejaVuSans-63" x="109.673828"/>
      <use xlink:href="#DejaVuSans-74" x="164.654297"/>
      <use xlink:href="#DejaVuSans-6f" x="203.863281"/>
      <use xlink:href="#DejaVuSans-72" x="265.044922"/>
      <use xlink:href="#DejaVuSans-20" x="306.158203"/>
      <use xlink:href="#DejaVuSans-31" x="337.945312"/>
      <use xlink:href="#DejaVuSans-30" x="401.568359"/>
      <use xlink:href="#DejaVuSans-2e" x="465.191406"/>
      <use xlink:href="#DejaVuSans-30" x="496.978516"/>
     </g>
    </g>
    <g id="patch_10">
     <path d="M 87.135 178.691719 
L 109.135 178.691719 
L 109.135 170.991719 
L 87.135 170.991719 
z
" style="fill: #4d8b31; opacity: 0.3; stroke: #4d8b31; stroke-linejoin: miter"/>
    </g>
    <g id="text_24">
     <!-- Healthy -->
     <g transform="translate(117.935 178.691719)scale(0.11 -0.11)">
      <defs>
       <path id="DejaVuSans-48" d="M 628 4666 
L 1259 4666 
L 1259 2753 
L 3553 2753 
L 3553 4666 
L 4184 4666 
L 4184 0 
L 3553 0 
L 3553 2222 
L 1259 2222 
L 1259 0 
L 628 0 
L 628 4666 
z
" transform="scale(0.015625)"/>
       <path id="DejaVuSans-68" d="M 3513 2113 
L 3513 0 
L 2938 0 
L 2938 2094 
Q 2938 2591 2744 2837 
Q 2550 3084 2163 3084 
Q 1697 3084 1428 2787 
Q 1159 2491 1159 1978 
L 1159 0 
L 581 0 
L 581 4863 
L 1159 4863 
L 1159 2956 
Q 1366 3272 1645 3428 
Q 1925 3584 2291 3584 
Q 2894 3584 3203 3211 
Q 3513 2838 3513 2113 
z
" transform="scale(0.015625)"/>
       <path id="DejaVuSans-79" d="M 2059 -325 
Q 1816 -950 1584 -1140 
Q 1353 -1331 966 -1331 
L 506 -1331 
L 506 -850 
L 844 -850 
Q 1081 -850 1212 -737 
Q 1344 -625 1503 -206 
L 1606 56 
L 191 3500 
L 800 3500 
L 1894 763 
L 2988 3500 
L 3597 3500 
L 2059 -325 
z
" transform="scale(0.015625)"/>
      </defs>
      <use xlink:href="#DejaVuSans-48"/>
      <use xlink:href="#DejaVuSans-65" x="75.195312"/>
      <use xlink:href="#DejaVuSans-61" x="136.71875"/>
      <use xlink:href="#DejaVuSans-6c" x="197.998047"/>
      <use xlink:href="#DejaVuSans-74" x="225.78125"/>
      <use xlink:href="#DejaVuSans-68" x="264.990234"/>
      <use xlink:href="#DejaVuSans-79" x="328.369141"/>
     </g>
    </g>
    <g id="patch_11">
     <path d="M 87.135 194.837656 
L 109.135 194.837656 
L 109.135 187.137656 
L 87.135 187.137656 
z
" style="fill: #ec6c5f; opacity: 0.3; stroke: #ec6c5f; stroke-linejoin: miter"/>
    </g>
    <g id="text_25">
     <!-- Cancer -->
     <g transform="translate(117.935 194.837656)scale(0.11 -0.11)">
      <defs>
       <path id="DejaVuSans-43" d="M 4122 4306 
L 4122 3641 
Q 3803 3938 3442 4084 
Q 3081 4231 2675 4231 
Q 1875 4231 1450 3742 
Q 1025 3253 1025 2328 
Q 1025 1406 1450 917 
Q 1875 428 2675 428 
Q 3081 428 3442 575 
Q 3803 722 4122 1019 
L 4122 359 
Q 3791 134 3420 21 
Q 3050 -91 2638 -91 
Q 1578 -91 968 557 
Q 359 1206 359 2328 
Q 359 3453 968 4101 
Q 1578 4750 2638 4750 
Q 3056 4750 3426 4639 
Q 3797 4528 4122 4306 
z
" transform="scale(0.015625)"/>
      </defs>
      <use xlink:href="#DejaVuSans-43"/>
      <use xlink:href="#DejaVuSans-61" x="69.824219"/>
      <use xlink:href="#DejaVuSans-6e" x="131.103516"/>
      <use xlink:href="#DejaVuSans-63" x="194.482422"/>
      <use xlink:href="#DejaVuSans-65" x="249.462891"/>
      <use xlink:href="#DejaVuSans-72" x="310.986328"/>
     </g>
    </g>
   </g>
  </g>
 </g>
 <defs>
  <clipPath id="p40dc449e53">
   <rect x="77.235" y="15.12" width="483.645" height="253.725625"/>
  </clipPath>
 </defs>
</svg>
