<?xml version="1.0" encoding="utf-8" standalone="no"?>
<!DOCTYPE svg PUBLIC "-//W3C//DTD SVG 1.1//EN"
  "http://www.w3.org/Graphics/SVG/1.1/DTD/svg11.dtd">
<svg xmlns:xlink="http://www.w3.org/1999/xlink" width="576pt" height="324pt" viewBox="0 0 576 324" xmlns="http://www.w3.org/2000/svg" version="1.1">
 <metadata>
  <rdf:RDF xmlns:dc="http://purl.org/dc/elements/1.1/" xmlns:cc="http://creativecommons.org/ns#" xmlns:rdf="http://www.w3.org/1999/02/22-rdf-syntax-ns#">
   <cc:Work>
    <dc:type rdf:resource="http://purl.org/dc/dcmitype/StillImage"/>
    <dc:date>2022-12-02T18:23:44.617124</dc:date>
    <dc:format>image/svg+xml</dc:format>
    <dc:creator>
     <cc:Agent>
      <dc:title>Matplotlib v3.5.3, https://matplotlib.org/</dc:title>
     </cc:Agent>
    </dc:creator>
   </cc:Work>
  </rdf:RDF>
 </metadata>
 <defs>
  <style type="text/css">*{stroke-linejoin: round; stroke-linecap: butt}</style>
 </defs>
 <g id="figure_1">
  <g id="patch_1">
   <path d="M 0 324 
L 576 324 
L 576 0 
L 0 0 
z
" style="fill: #ffffff"/>
  </g>
  <g id="axes_1">
   <g id="patch_2">
    <path d="M 68.3275 268.845625 
L 560.88 268.845625 
L 560.88 15.12 
L 68.3275 15.12 
z
" style="fill: #ffffff"/>
   </g>
   <g id="patch_3">
    <path d="M 285.762274 268.845625 
L 285.762274 15.12 
L 335.685868 15.12 
L 335.685868 268.845625 
z
" clip-path="url(#pfb6d976d4e)" style="fill: #4d8b31; opacity: 0.3; stroke: #4d8b31; stroke-linejoin: miter"/>
   </g>
   <g id="patch_4">
    <path d="M 422.401435 268.845625 
L 422.401435 15.12 
L 488.396838 15.12 
L 488.396838 268.845625 
z
" clip-path="url(#pfb6d976d4e)" style="fill: #ec6c5f; opacity: 0.3; stroke: #ec6c5f; stroke-linejoin: miter"/>
   </g>
   <g id="matplotlib.axis_1">
    <g id="xtick_1">
     <g id="line2d_1">
      <defs>
       <path id="maf77446689" d="M 0 0 
L 0 3.5 
" style="stroke: #000000; stroke-width: 0.8"/>
      </defs>
      <g>
       <use xlink:href="#maf77446689" x="90.71625" y="268.845625" style="stroke: #000000; stroke-width: 0.8"/>
      </g>
     </g>
     <g id="text_1">
      <!-- $\mathdefault{10^{-1}}$ -->
      <g transform="translate(74.26625 286.483437)scale(0.14 -0.14)">
       <defs>
        <path id="DejaVuSans-31" d="M 794 531 
L 1825 531 
L 1825 4091 
L 703 3866 
L 703 4441 
L 1819 4666 
L 2450 4666 
L 2450 531 
L 3481 531 
L 3481 0 
L 794 0 
L 794 531 
z
" transform="scale(0.015625)"/>
        <path id="DejaVuSans-30" d="M 2034 4250 
Q 1547 4250 1301 3770 
Q 1056 3291 1056 2328 
Q 1056 1369 1301 889 
Q 1547 409 2034 409 
Q 2525 409 2770 889 
Q 3016 1369 3016 2328 
Q 3016 3291 2770 3770 
Q 2525 4250 2034 4250 
z
M 2034 4750 
Q 2819 4750 3233 4129 
Q 3647 3509 3647 2328 
Q 3647 1150 3233 529 
Q 2819 -91 2034 -91 
Q 1250 -91 836 529 
Q 422 1150 422 2328 
Q 422 3509 836 4129 
Q 1250 4750 2034 4750 
z
" transform="scale(0.015625)"/>
        <path id="DejaVuSans-2212" d="M 678 2272 
L 4684 2272 
L 4684 1741 
L 678 1741 
L 678 2272 
z
" transform="scale(0.015625)"/>
       </defs>
       <use xlink:href="#DejaVuSans-31" transform="translate(0 0.684375)"/>
       <use xlink:href="#DejaVuSans-30" transform="translate(63.623047 0.684375)"/>
       <use xlink:href="#DejaVuSans-2212" transform="translate(128.203125 38.965625)scale(0.7)"/>
       <use xlink:href="#DejaVuSans-31" transform="translate(186.855469 38.965625)scale(0.7)"/>
      </g>
     </g>
    </g>
    <g id="xtick_2">
     <g id="line2d_2">
      <g>
       <use xlink:href="#maf77446689" x="256.558843" y="268.845625" style="stroke: #000000; stroke-width: 0.8"/>
      </g>
     </g>
     <g id="text_2">
      <!-- $\mathdefault{10^{0}}$ -->
      <g transform="translate(244.238843 286.483437)scale(0.14 -0.14)">
       <use xlink:href="#DejaVuSans-31" transform="translate(0 0.765625)"/>
       <use xlink:href="#DejaVuSans-30" transform="translate(63.623047 0.765625)"/>
       <use xlink:href="#DejaVuSans-30" transform="translate(128.203125 39.046875)scale(0.7)"/>
      </g>
     </g>
    </g>
    <g id="xtick_3">
     <g id="line2d_3">
      <g>
       <use xlink:href="#maf77446689" x="422.401435" y="268.845625" style="stroke: #000000; stroke-width: 0.8"/>
      </g>
     </g>
     <g id="text_3">
      <!-- $\mathdefault{10^{1}}$ -->
      <g transform="translate(410.081435 286.483437)scale(0.14 -0.14)">
       <use xlink:href="#DejaVuSans-31" transform="translate(0 0.684375)"/>
       <use xlink:href="#DejaVuSans-30" transform="translate(63.623047 0.684375)"/>
       <use xlink:href="#DejaVuSans-31" transform="translate(128.203125 38.965625)scale(0.7)"/>
      </g>
     </g>
    </g>
    <g id="xtick_4">
     <g id="line2d_4">
      <defs>
       <path id="m6f7c9221a5" d="M 0 0 
L 0 2 
" style="stroke: #000000; stroke-width: 0.6"/>
      </defs>
      <g>
       <use xlink:href="#m6f7c9221a5" x="74.644442" y="268.845625" style="stroke: #000000; stroke-width: 0.6"/>
      </g>
     </g>
    </g>
    <g id="xtick_5">
     <g id="line2d_5">
      <g>
       <use xlink:href="#m6f7c9221a5" x="83.127709" y="268.845625" style="stroke: #000000; stroke-width: 0.6"/>
      </g>
     </g>
    </g>
    <g id="xtick_6">
     <g id="line2d_6">
      <g>
       <use xlink:href="#m6f7c9221a5" x="140.639845" y="268.845625" style="stroke: #000000; stroke-width: 0.6"/>
      </g>
     </g>
    </g>
    <g id="xtick_7">
     <g id="line2d_7">
      <g>
       <use xlink:href="#m6f7c9221a5" x="169.843276" y="268.845625" style="stroke: #000000; stroke-width: 0.6"/>
      </g>
     </g>
    </g>
    <g id="xtick_8">
     <g id="line2d_8">
      <g>
       <use xlink:href="#m6f7c9221a5" x="190.56344" y="268.845625" style="stroke: #000000; stroke-width: 0.6"/>
      </g>
     </g>
    </g>
    <g id="xtick_9">
     <g id="line2d_9">
      <g>
       <use xlink:href="#m6f7c9221a5" x="206.635248" y="268.845625" style="stroke: #000000; stroke-width: 0.6"/>
      </g>
     </g>
    </g>
    <g id="xtick_10">
     <g id="line2d_10">
      <g>
       <use xlink:href="#m6f7c9221a5" x="219.766871" y="268.845625" style="stroke: #000000; stroke-width: 0.6"/>
      </g>
     </g>
    </g>
    <g id="xtick_11">
     <g id="line2d_11">
      <g>
       <use xlink:href="#m6f7c9221a5" x="230.8695" y="268.845625" style="stroke: #000000; stroke-width: 0.6"/>
      </g>
     </g>
    </g>
    <g id="xtick_12">
     <g id="line2d_12">
      <g>
       <use xlink:href="#m6f7c9221a5" x="240.487035" y="268.845625" style="stroke: #000000; stroke-width: 0.6"/>
      </g>
     </g>
    </g>
    <g id="xtick_13">
     <g id="line2d_13">
      <g>
       <use xlink:href="#m6f7c9221a5" x="248.970302" y="268.845625" style="stroke: #000000; stroke-width: 0.6"/>
      </g>
     </g>
    </g>
    <g id="xtick_14">
     <g id="line2d_14">
      <g>
       <use xlink:href="#m6f7c9221a5" x="306.482438" y="268.845625" style="stroke: #000000; stroke-width: 0.6"/>
      </g>
     </g>
    </g>
    <g id="xtick_15">
     <g id="line2d_15">
      <g>
       <use xlink:href="#m6f7c9221a5" x="335.685868" y="268.845625" style="stroke: #000000; stroke-width: 0.6"/>
      </g>
     </g>
    </g>
    <g id="xtick_16">
     <g id="line2d_16">
      <g>
       <use xlink:href="#m6f7c9221a5" x="356.406032" y="268.845625" style="stroke: #000000; stroke-width: 0.6"/>
      </g>
     </g>
    </g>
    <g id="xtick_17">
     <g id="line2d_17">
      <g>
       <use xlink:href="#m6f7c9221a5" x="372.47784" y="268.845625" style="stroke: #000000; stroke-width: 0.6"/>
      </g>
     </g>
    </g>
    <g id="xtick_18">
     <g id="line2d_18">
      <g>
       <use xlink:href="#m6f7c9221a5" x="385.609463" y="268.845625" style="stroke: #000000; stroke-width: 0.6"/>
      </g>
     </g>
    </g>
    <g id="xtick_19">
     <g id="line2d_19">
      <g>
       <use xlink:href="#m6f7c9221a5" x="396.712093" y="268.845625" style="stroke: #000000; stroke-width: 0.6"/>
      </g>
     </g>
    </g>
    <g id="xtick_20">
     <g id="line2d_20">
      <g>
       <use xlink:href="#m6f7c9221a5" x="406.329627" y="268.845625" style="stroke: #000000; stroke-width: 0.6"/>
      </g>
     </g>
    </g>
    <g id="xtick_21">
     <g id="line2d_21">
      <g>
       <use xlink:href="#m6f7c9221a5" x="414.812894" y="268.845625" style="stroke: #000000; stroke-width: 0.6"/>
      </g>
     </g>
    </g>
    <g id="xtick_22">
     <g id="line2d_22">
      <g>
       <use xlink:href="#m6f7c9221a5" x="472.32503" y="268.845625" style="stroke: #000000; stroke-width: 0.6"/>
      </g>
     </g>
    </g>
    <g id="xtick_23">
     <g id="line2d_23">
      <g>
       <use xlink:href="#m6f7c9221a5" x="501.528461" y="268.845625" style="stroke: #000000; stroke-width: 0.6"/>
      </g>
     </g>
    </g>
    <g id="xtick_24">
     <g id="line2d_24">
      <g>
       <use xlink:href="#m6f7c9221a5" x="522.248625" y="268.845625" style="stroke: #000000; stroke-width: 0.6"/>
      </g>
     </g>
    </g>
    <g id="xtick_25">
     <g id="line2d_25">
      <g>
       <use xlink:href="#m6f7c9221a5" x="538.320433" y="268.845625" style="stroke: #000000; stroke-width: 0.6"/>
      </g>
     </g>
    </g>
    <g id="xtick_26">
     <g id="line2d_26">
      <g>
       <use xlink:href="#m6f7c9221a5" x="551.452056" y="268.845625" style="stroke: #000000; stroke-width: 0.6"/>
      </g>
     </g>
    </g>
    <g id="text_4">
     <!-- L-lactate concentration (mM) -->
     <g transform="translate(198.35 305.5525)scale(0.16 -0.16)">
      <defs>
       <path id="DejaVuSans-4c" d="M 628 4666 
L 1259 4666 
L 1259 531 
L 3531 531 
L 3531 0 
L 628 0 
L 628 4666 
z
" transform="scale(0.015625)"/>
       <path id="DejaVuSans-2d" d="M 313 2009 
L 1997 2009 
L 1997 1497 
L 313 1497 
L 313 2009 
z
" transform="scale(0.015625)"/>
       <path id="DejaVuSans-6c" d="M 603 4863 
L 1178 4863 
L 1178 0 
L 603 0 
L 603 4863 
z
" transform="scale(0.015625)"/>
       <path id="DejaVuSans-61" d="M 2194 1759 
Q 1497 1759 1228 1600 
Q 959 1441 959 1056 
Q 959 750 1161 570 
Q 1363 391 1709 391 
Q 2188 391 2477 730 
Q 2766 1069 2766 1631 
L 2766 1759 
L 2194 1759 
z
M 3341 1997 
L 3341 0 
L 2766 0 
L 2766 531 
Q 2569 213 2275 61 
Q 1981 -91 1556 -91 
Q 1019 -91 701 211 
Q 384 513 384 1019 
Q 384 1609 779 1909 
Q 1175 2209 1959 2209 
L 2766 2209 
L 2766 2266 
Q 2766 2663 2505 2880 
Q 2244 3097 1772 3097 
Q 1472 3097 1187 3025 
Q 903 2953 641 2809 
L 641 3341 
Q 956 3463 1253 3523 
Q 1550 3584 1831 3584 
Q 2591 3584 2966 3190 
Q 3341 2797 3341 1997 
z
" transform="scale(0.015625)"/>
       <path id="DejaVuSans-63" d="M 3122 3366 
L 3122 2828 
Q 2878 2963 2633 3030 
Q 2388 3097 2138 3097 
Q 1578 3097 1268 2742 
Q 959 2388 959 1747 
Q 959 1106 1268 751 
Q 1578 397 2138 397 
Q 2388 397 2633 464 
Q 2878 531 3122 666 
L 3122 134 
Q 2881 22 2623 -34 
Q 2366 -91 2075 -91 
Q 1284 -91 818 406 
Q 353 903 353 1747 
Q 353 2603 823 3093 
Q 1294 3584 2113 3584 
Q 2378 3584 2631 3529 
Q 2884 3475 3122 3366 
z
" transform="scale(0.015625)"/>
       <path id="DejaVuSans-74" d="M 1172 4494 
L 1172 3500 
L 2356 3500 
L 2356 3053 
L 1172 3053 
L 1172 1153 
Q 1172 725 1289 603 
Q 1406 481 1766 481 
L 2356 481 
L 2356 0 
L 1766 0 
Q 1100 0 847 248 
Q 594 497 594 1153 
L 594 3053 
L 172 3053 
L 172 3500 
L 594 3500 
L 594 4494 
L 1172 4494 
z
" transform="scale(0.015625)"/>
       <path id="DejaVuSans-65" d="M 3597 1894 
L 3597 1613 
L 953 1613 
Q 991 1019 1311 708 
Q 1631 397 2203 397 
Q 2534 397 2845 478 
Q 3156 559 3463 722 
L 3463 178 
Q 3153 47 2828 -22 
Q 2503 -91 2169 -91 
Q 1331 -91 842 396 
Q 353 884 353 1716 
Q 353 2575 817 3079 
Q 1281 3584 2069 3584 
Q 2775 3584 3186 3129 
Q 3597 2675 3597 1894 
z
M 3022 2063 
Q 3016 2534 2758 2815 
Q 2500 3097 2075 3097 
Q 1594 3097 1305 2825 
Q 1016 2553 972 2059 
L 3022 2063 
z
" transform="scale(0.015625)"/>
       <path id="DejaVuSans-20" transform="scale(0.015625)"/>
       <path id="DejaVuSans-6f" d="M 1959 3097 
Q 1497 3097 1228 2736 
Q 959 2375 959 1747 
Q 959 1119 1226 758 
Q 1494 397 1959 397 
Q 2419 397 2687 759 
Q 2956 1122 2956 1747 
Q 2956 2369 2687 2733 
Q 2419 3097 1959 3097 
z
M 1959 3584 
Q 2709 3584 3137 3096 
Q 3566 2609 3566 1747 
Q 3566 888 3137 398 
Q 2709 -91 1959 -91 
Q 1206 -91 779 398 
Q 353 888 353 1747 
Q 353 2609 779 3096 
Q 1206 3584 1959 3584 
z
" transform="scale(0.015625)"/>
       <path id="DejaVuSans-6e" d="M 3513 2113 
L 3513 0 
L 2938 0 
L 2938 2094 
Q 2938 2591 2744 2837 
Q 2550 3084 2163 3084 
Q 1697 3084 1428 2787 
Q 1159 2491 1159 1978 
L 1159 0 
L 581 0 
L 581 3500 
L 1159 3500 
L 1159 2956 
Q 1366 3272 1645 3428 
Q 1925 3584 2291 3584 
Q 2894 3584 3203 3211 
Q 3513 2838 3513 2113 
z
" transform="scale(0.015625)"/>
       <path id="DejaVuSans-72" d="M 2631 2963 
Q 2534 3019 2420 3045 
Q 2306 3072 2169 3072 
Q 1681 3072 1420 2755 
Q 1159 2438 1159 1844 
L 1159 0 
L 581 0 
L 581 3500 
L 1159 3500 
L 1159 2956 
Q 1341 3275 1631 3429 
Q 1922 3584 2338 3584 
Q 2397 3584 2469 3576 
Q 2541 3569 2628 3553 
L 2631 2963 
z
" transform="scale(0.015625)"/>
       <path id="DejaVuSans-69" d="M 603 3500 
L 1178 3500 
L 1178 0 
L 603 0 
L 603 3500 
z
M 603 4863 
L 1178 4863 
L 1178 4134 
L 603 4134 
L 603 4863 
z
" transform="scale(0.015625)"/>
       <path id="DejaVuSans-28" d="M 1984 4856 
Q 1566 4138 1362 3434 
Q 1159 2731 1159 2009 
Q 1159 1288 1364 580 
Q 1569 -128 1984 -844 
L 1484 -844 
Q 1016 -109 783 600 
Q 550 1309 550 2009 
Q 550 2706 781 3412 
Q 1013 4119 1484 4856 
L 1984 4856 
z
" transform="scale(0.015625)"/>
       <path id="DejaVuSans-6d" d="M 3328 2828 
Q 3544 3216 3844 3400 
Q 4144 3584 4550 3584 
Q 5097 3584 5394 3201 
Q 5691 2819 5691 2113 
L 5691 0 
L 5113 0 
L 5113 2094 
Q 5113 2597 4934 2840 
Q 4756 3084 4391 3084 
Q 3944 3084 3684 2787 
Q 3425 2491 3425 1978 
L 3425 0 
L 2847 0 
L 2847 2094 
Q 2847 2600 2669 2842 
Q 2491 3084 2119 3084 
Q 1678 3084 1418 2786 
Q 1159 2488 1159 1978 
L 1159 0 
L 581 0 
L 581 3500 
L 1159 3500 
L 1159 2956 
Q 1356 3278 1631 3431 
Q 1906 3584 2284 3584 
Q 2666 3584 2933 3390 
Q 3200 3197 3328 2828 
z
" transform="scale(0.015625)"/>
       <path id="DejaVuSans-4d" d="M 628 4666 
L 1569 4666 
L 2759 1491 
L 3956 4666 
L 4897 4666 
L 4897 0 
L 4281 0 
L 4281 4097 
L 3078 897 
L 2444 897 
L 1241 4097 
L 1241 0 
L 628 0 
L 628 4666 
z
" transform="scale(0.015625)"/>
       <path id="DejaVuSans-29" d="M 513 4856 
L 1013 4856 
Q 1481 4119 1714 3412 
Q 1947 2706 1947 2009 
Q 1947 1309 1714 600 
Q 1481 -109 1013 -844 
L 513 -844 
Q 928 -128 1133 580 
Q 1338 1288 1338 2009 
Q 1338 2731 1133 3434 
Q 928 4138 513 4856 
z
" transform="scale(0.015625)"/>
      </defs>
      <use xlink:href="#DejaVuSans-4c"/>
      <use xlink:href="#DejaVuSans-2d" x="53.962891"/>
      <use xlink:href="#DejaVuSans-6c" x="90.046875"/>
      <use xlink:href="#DejaVuSans-61" x="117.830078"/>
      <use xlink:href="#DejaVuSans-63" x="179.109375"/>
      <use xlink:href="#DejaVuSans-74" x="234.089844"/>
      <use xlink:href="#DejaVuSans-61" x="273.298828"/>
      <use xlink:href="#DejaVuSans-74" x="334.578125"/>
      <use xlink:href="#DejaVuSans-65" x="373.787109"/>
      <use xlink:href="#DejaVuSans-20" x="435.310547"/>
      <use xlink:href="#DejaVuSans-63" x="467.097656"/>
      <use xlink:href="#DejaVuSans-6f" x="522.078125"/>
      <use xlink:href="#DejaVuSans-6e" x="583.259766"/>
      <use xlink:href="#DejaVuSans-63" x="646.638672"/>
      <use xlink:href="#DejaVuSans-65" x="701.619141"/>
      <use xlink:href="#DejaVuSans-6e" x="763.142578"/>
      <use xlink:href="#DejaVuSans-74" x="826.521484"/>
      <use xlink:href="#DejaVuSans-72" x="865.730469"/>
      <use xlink:href="#DejaVuSans-61" x="906.84375"/>
      <use xlink:href="#DejaVuSans-74" x="968.123047"/>
      <use xlink:href="#DejaVuSans-69" x="1007.332031"/>
      <use xlink:href="#DejaVuSans-6f" x="1035.115234"/>
      <use xlink:href="#DejaVuSans-6e" x="1096.296875"/>
      <use xlink:href="#DejaVuSans-20" x="1159.675781"/>
      <use xlink:href="#DejaVuSans-28" x="1191.462891"/>
      <use xlink:href="#DejaVuSans-6d" x="1230.476562"/>
      <use xlink:href="#DejaVuSans-4d" x="1327.888672"/>
      <use xlink:href="#DejaVuSans-29" x="1414.167969"/>
     </g>
    </g>
   </g>
   <g id="matplotlib.axis_2">
    <g id="ytick_1">
     <g id="line2d_27">
      <defs>
       <path id="m75d526c2e7" d="M 0 0 
L -3.5 0 
" style="stroke: #000000; stroke-width: 0.8"/>
      </defs>
      <g>
       <use xlink:href="#m75d526c2e7" x="68.3275" y="268.845625" style="stroke: #000000; stroke-width: 0.8"/>
      </g>
     </g>
     <g id="text_5">
      <!-- 0 -->
      <g transform="translate(52.42 274.164531)scale(0.14 -0.14)">
       <use xlink:href="#DejaVuSans-30"/>
      </g>
     </g>
    </g>
    <g id="ytick_2">
     <g id="line2d_28">
      <g>
       <use xlink:href="#m75d526c2e7" x="68.3275" y="228.221089" style="stroke: #000000; stroke-width: 0.8"/>
      </g>
     </g>
     <g id="text_6">
      <!-- 100 -->
      <g transform="translate(34.605 233.539995)scale(0.14 -0.14)">
       <use xlink:href="#DejaVuSans-31"/>
       <use xlink:href="#DejaVuSans-30" x="63.623047"/>
       <use xlink:href="#DejaVuSans-30" x="127.246094"/>
      </g>
     </g>
    </g>
    <g id="ytick_3">
     <g id="line2d_29">
      <g>
       <use xlink:href="#m75d526c2e7" x="68.3275" y="187.596552" style="stroke: #000000; stroke-width: 0.8"/>
      </g>
     </g>
     <g id="text_7">
      <!-- 200 -->
      <g transform="translate(34.605 192.915458)scale(0.14 -0.14)">
       <defs>
        <path id="DejaVuSans-32" d="M 1228 531 
L 3431 531 
L 3431 0 
L 469 0 
L 469 531 
Q 828 903 1448 1529 
Q 2069 2156 2228 2338 
Q 2531 2678 2651 2914 
Q 2772 3150 2772 3378 
Q 2772 3750 2511 3984 
Q 2250 4219 1831 4219 
Q 1534 4219 1204 4116 
Q 875 4013 500 3803 
L 500 4441 
Q 881 4594 1212 4672 
Q 1544 4750 1819 4750 
Q 2544 4750 2975 4387 
Q 3406 4025 3406 3419 
Q 3406 3131 3298 2873 
Q 3191 2616 2906 2266 
Q 2828 2175 2409 1742 
Q 1991 1309 1228 531 
z
" transform="scale(0.015625)"/>
       </defs>
       <use xlink:href="#DejaVuSans-32"/>
       <use xlink:href="#DejaVuSans-30" x="63.623047"/>
       <use xlink:href="#DejaVuSans-30" x="127.246094"/>
      </g>
     </g>
    </g>
    <g id="ytick_4">
     <g id="line2d_30">
      <g>
       <use xlink:href="#m75d526c2e7" x="68.3275" y="146.972016" style="stroke: #000000; stroke-width: 0.8"/>
      </g>
     </g>
     <g id="text_8">
      <!-- 300 -->
      <g transform="translate(34.605 152.290922)scale(0.14 -0.14)">
       <defs>
        <path id="DejaVuSans-33" d="M 2597 2516 
Q 3050 2419 3304 2112 
Q 3559 1806 3559 1356 
Q 3559 666 3084 287 
Q 2609 -91 1734 -91 
Q 1441 -91 1130 -33 
Q 819 25 488 141 
L 488 750 
Q 750 597 1062 519 
Q 1375 441 1716 441 
Q 2309 441 2620 675 
Q 2931 909 2931 1356 
Q 2931 1769 2642 2001 
Q 2353 2234 1838 2234 
L 1294 2234 
L 1294 2753 
L 1863 2753 
Q 2328 2753 2575 2939 
Q 2822 3125 2822 3475 
Q 2822 3834 2567 4026 
Q 2313 4219 1838 4219 
Q 1578 4219 1281 4162 
Q 984 4106 628 3988 
L 628 4550 
Q 988 4650 1302 4700 
Q 1616 4750 1894 4750 
Q 2613 4750 3031 4423 
Q 3450 4097 3450 3541 
Q 3450 3153 3228 2886 
Q 3006 2619 2597 2516 
z
" transform="scale(0.015625)"/>
       </defs>
       <use xlink:href="#DejaVuSans-33"/>
       <use xlink:href="#DejaVuSans-30" x="63.623047"/>
       <use xlink:href="#DejaVuSans-30" x="127.246094"/>
      </g>
     </g>
    </g>
    <g id="ytick_5">
     <g id="line2d_31">
      <g>
       <use xlink:href="#m75d526c2e7" x="68.3275" y="106.347479" style="stroke: #000000; stroke-width: 0.8"/>
      </g>
     </g>
     <g id="text_9">
      <!-- 400 -->
      <g transform="translate(34.605 111.666386)scale(0.14 -0.14)">
       <defs>
        <path id="DejaVuSans-34" d="M 2419 4116 
L 825 1625 
L 2419 1625 
L 2419 4116 
z
M 2253 4666 
L 3047 4666 
L 3047 1625 
L 3713 1625 
L 3713 1100 
L 3047 1100 
L 3047 0 
L 2419 0 
L 2419 1100 
L 313 1100 
L 313 1709 
L 2253 4666 
z
" transform="scale(0.015625)"/>
       </defs>
       <use xlink:href="#DejaVuSans-34"/>
       <use xlink:href="#DejaVuSans-30" x="63.623047"/>
       <use xlink:href="#DejaVuSans-30" x="127.246094"/>
      </g>
     </g>
    </g>
    <g id="ytick_6">
     <g id="line2d_32">
      <g>
       <use xlink:href="#m75d526c2e7" x="68.3275" y="65.722943" style="stroke: #000000; stroke-width: 0.8"/>
      </g>
     </g>
     <g id="text_10">
      <!-- 500 -->
      <g transform="translate(34.605 71.041849)scale(0.14 -0.14)">
       <defs>
        <path id="DejaVuSans-35" d="M 691 4666 
L 3169 4666 
L 3169 4134 
L 1269 4134 
L 1269 2991 
Q 1406 3038 1543 3061 
Q 1681 3084 1819 3084 
Q 2600 3084 3056 2656 
Q 3513 2228 3513 1497 
Q 3513 744 3044 326 
Q 2575 -91 1722 -91 
Q 1428 -91 1123 -41 
Q 819 9 494 109 
L 494 744 
Q 775 591 1075 516 
Q 1375 441 1709 441 
Q 2250 441 2565 725 
Q 2881 1009 2881 1497 
Q 2881 1984 2565 2268 
Q 2250 2553 1709 2553 
Q 1456 2553 1204 2497 
Q 953 2441 691 2322 
L 691 4666 
z
" transform="scale(0.015625)"/>
       </defs>
       <use xlink:href="#DejaVuSans-35"/>
       <use xlink:href="#DejaVuSans-30" x="63.623047"/>
       <use xlink:href="#DejaVuSans-30" x="127.246094"/>
      </g>
     </g>
    </g>
    <g id="ytick_7">
     <g id="line2d_33">
      <g>
       <use xlink:href="#m75d526c2e7" x="68.3275" y="25.098407" style="stroke: #000000; stroke-width: 0.8"/>
      </g>
     </g>
     <g id="text_11">
      <!-- 600 -->
      <g transform="translate(34.605 30.417313)scale(0.14 -0.14)">
       <defs>
        <path id="DejaVuSans-36" d="M 2113 2584 
Q 1688 2584 1439 2293 
Q 1191 2003 1191 1497 
Q 1191 994 1439 701 
Q 1688 409 2113 409 
Q 2538 409 2786 701 
Q 3034 994 3034 1497 
Q 3034 2003 2786 2293 
Q 2538 2584 2113 2584 
z
M 3366 4563 
L 3366 3988 
Q 3128 4100 2886 4159 
Q 2644 4219 2406 4219 
Q 1781 4219 1451 3797 
Q 1122 3375 1075 2522 
Q 1259 2794 1537 2939 
Q 1816 3084 2150 3084 
Q 2853 3084 3261 2657 
Q 3669 2231 3669 1497 
Q 3669 778 3244 343 
Q 2819 -91 2113 -91 
Q 1303 -91 875 529 
Q 447 1150 447 2328 
Q 447 3434 972 4092 
Q 1497 4750 2381 4750 
Q 2619 4750 2861 4703 
Q 3103 4656 3366 4563 
z
" transform="scale(0.015625)"/>
       </defs>
       <use xlink:href="#DejaVuSans-36"/>
       <use xlink:href="#DejaVuSans-30" x="63.623047"/>
       <use xlink:href="#DejaVuSans-30" x="127.246094"/>
      </g>
     </g>
    </g>
    <g id="text_12">
     <!-- Fluorescence/OD600 (a.u.) -->
     <g transform="translate(27.2775 248.947812)rotate(-90)scale(0.16 -0.16)">
      <defs>
       <path id="DejaVuSans-46" d="M 628 4666 
L 3309 4666 
L 3309 4134 
L 1259 4134 
L 1259 2759 
L 3109 2759 
L 3109 2228 
L 1259 2228 
L 1259 0 
L 628 0 
L 628 4666 
z
" transform="scale(0.015625)"/>
       <path id="DejaVuSans-75" d="M 544 1381 
L 544 3500 
L 1119 3500 
L 1119 1403 
Q 1119 906 1312 657 
Q 1506 409 1894 409 
Q 2359 409 2629 706 
Q 2900 1003 2900 1516 
L 2900 3500 
L 3475 3500 
L 3475 0 
L 2900 0 
L 2900 538 
Q 2691 219 2414 64 
Q 2138 -91 1772 -91 
Q 1169 -91 856 284 
Q 544 659 544 1381 
z
M 1991 3584 
L 1991 3584 
z
" transform="scale(0.015625)"/>
       <path id="DejaVuSans-73" d="M 2834 3397 
L 2834 2853 
Q 2591 2978 2328 3040 
Q 2066 3103 1784 3103 
Q 1356 3103 1142 2972 
Q 928 2841 928 2578 
Q 928 2378 1081 2264 
Q 1234 2150 1697 2047 
L 1894 2003 
Q 2506 1872 2764 1633 
Q 3022 1394 3022 966 
Q 3022 478 2636 193 
Q 2250 -91 1575 -91 
Q 1294 -91 989 -36 
Q 684 19 347 128 
L 347 722 
Q 666 556 975 473 
Q 1284 391 1588 391 
Q 1994 391 2212 530 
Q 2431 669 2431 922 
Q 2431 1156 2273 1281 
Q 2116 1406 1581 1522 
L 1381 1569 
Q 847 1681 609 1914 
Q 372 2147 372 2553 
Q 372 3047 722 3315 
Q 1072 3584 1716 3584 
Q 2034 3584 2315 3537 
Q 2597 3491 2834 3397 
z
" transform="scale(0.015625)"/>
       <path id="DejaVuSans-2f" d="M 1625 4666 
L 2156 4666 
L 531 -594 
L 0 -594 
L 1625 4666 
z
" transform="scale(0.015625)"/>
       <path id="DejaVuSans-4f" d="M 2522 4238 
Q 1834 4238 1429 3725 
Q 1025 3213 1025 2328 
Q 1025 1447 1429 934 
Q 1834 422 2522 422 
Q 3209 422 3611 934 
Q 4013 1447 4013 2328 
Q 4013 3213 3611 3725 
Q 3209 4238 2522 4238 
z
M 2522 4750 
Q 3503 4750 4090 4092 
Q 4678 3434 4678 2328 
Q 4678 1225 4090 567 
Q 3503 -91 2522 -91 
Q 1538 -91 948 565 
Q 359 1222 359 2328 
Q 359 3434 948 4092 
Q 1538 4750 2522 4750 
z
" transform="scale(0.015625)"/>
       <path id="DejaVuSans-44" d="M 1259 4147 
L 1259 519 
L 2022 519 
Q 2988 519 3436 956 
Q 3884 1394 3884 2338 
Q 3884 3275 3436 3711 
Q 2988 4147 2022 4147 
L 1259 4147 
z
M 628 4666 
L 1925 4666 
Q 3281 4666 3915 4102 
Q 4550 3538 4550 2338 
Q 4550 1131 3912 565 
Q 3275 0 1925 0 
L 628 0 
L 628 4666 
z
" transform="scale(0.015625)"/>
       <path id="DejaVuSans-2e" d="M 684 794 
L 1344 794 
L 1344 0 
L 684 0 
L 684 794 
z
" transform="scale(0.015625)"/>
      </defs>
      <use xlink:href="#DejaVuSans-46"/>
      <use xlink:href="#DejaVuSans-6c" x="57.519531"/>
      <use xlink:href="#DejaVuSans-75" x="85.302734"/>
      <use xlink:href="#DejaVuSans-6f" x="148.681641"/>
      <use xlink:href="#DejaVuSans-72" x="209.863281"/>
      <use xlink:href="#DejaVuSans-65" x="248.726562"/>
      <use xlink:href="#DejaVuSans-73" x="310.25"/>
      <use xlink:href="#DejaVuSans-63" x="362.349609"/>
      <use xlink:href="#DejaVuSans-65" x="417.330078"/>
      <use xlink:href="#DejaVuSans-6e" x="478.853516"/>
      <use xlink:href="#DejaVuSans-63" x="542.232422"/>
      <use xlink:href="#DejaVuSans-65" x="597.212891"/>
      <use xlink:href="#DejaVuSans-2f" x="658.736328"/>
      <use xlink:href="#DejaVuSans-4f" x="692.427734"/>
      <use xlink:href="#DejaVuSans-44" x="771.138672"/>
      <use xlink:href="#DejaVuSans-36" x="848.140625"/>
      <use xlink:href="#DejaVuSans-30" x="911.763672"/>
      <use xlink:href="#DejaVuSans-30" x="975.386719"/>
      <use xlink:href="#DejaVuSans-20" x="1039.009766"/>
      <use xlink:href="#DejaVuSans-28" x="1070.796875"/>
      <use xlink:href="#DejaVuSans-61" x="1109.810547"/>
      <use xlink:href="#DejaVuSans-2e" x="1171.089844"/>
      <use xlink:href="#DejaVuSans-75" x="1202.876953"/>
      <use xlink:href="#DejaVuSans-2e" x="1266.255859"/>
      <use xlink:href="#DejaVuSans-29" x="1298.042969"/>
     </g>
    </g>
   </g>
   <g id="line2d_34">
    <path d="M 90.71625 155.518128 
L 99.854515 155.319598 
L 108.992781 155.065106 
L 118.131046 154.73929 
L 127.269311 154.322768 
L 136.407577 153.791188 
L 145.545842 153.114031 
L 154.684107 152.253176 
L 163.822372 151.161162 
L 172.960638 149.779004 
L 182.098903 148.033633 
L 191.237168 145.834895 
L 200.375434 143.072412 
L 209.513699 139.612974 
L 218.651964 135.300244 
L 227.79023 129.960264 
L 236.928495 123.41903 
L 246.06676 115.541379 
L 255.205026 106.298678 
L 264.343291 95.858991 
L 273.481556 84.658812 
L 282.619821 73.381982 
L 291.758087 62.798535 
L 300.896352 53.528424 
L 310.034617 45.88109 
L 319.172883 39.856416 
L 328.311148 35.256685 
L 337.449413 31.810394 
L 346.587679 29.25309 
L 355.725944 27.362409 
L 364.864209 25.964779 
L 374.002474 24.929752 
L 383.14074 24.16106 
L 392.279005 23.588192 
L 401.41727 23.159621 
L 410.555536 22.837722 
L 419.693801 22.594951 
L 428.832066 22.41113 
L 437.970332 22.271416 
L 447.108597 22.164864 
L 456.246862 22.083351 
L 465.385128 22.020827 
L 474.523393 21.972762 
L 483.661658 21.935747 
L 492.799923 21.907201 
L 501.938189 21.885143 
L 511.076454 21.868105 
L 520.214719 21.854918 
L 529.352985 21.844709 
L 538.49125 21.836807 
" clip-path="url(#pfb6d976d4e)" style="fill: none; stroke: #fba649; stroke-width: 2; stroke-linecap: square"/>
   </g>
   <g id="line2d_35">
    <defs>
     <path id="m4162fc771f" d="M 0 3 
C 0.795609 3 1.55874 2.683901 2.12132 2.12132 
C 2.683901 1.55874 3 0.795609 3 0 
C 3 -0.795609 2.683901 -1.55874 2.12132 -2.12132 
C 1.55874 -2.683901 0.795609 -3 0 -3 
C -0.795609 -3 -1.55874 -2.683901 -2.12132 -2.12132 
C -2.683901 -1.55874 -3 -0.795609 -3 0 
C -3 0.795609 -2.683901 1.55874 -2.12132 2.12132 
C -1.55874 2.683901 -0.795609 3 0 3 
z
" style="stroke: #ff0000"/>
    </defs>
    <g clip-path="url(#pfb6d976d4e)">
     <use xlink:href="#m4162fc771f" x="178.169176" y="148.834062" style="fill: #ff0000; stroke: #ff0000"/>
     <use xlink:href="#m4162fc771f" x="270.242489" y="88.677467" style="fill: #ff0000; stroke: #ff0000"/>
     <use xlink:href="#m4162fc771f" x="349.804495" y="28.520873" style="fill: #ff0000; stroke: #ff0000"/>
    </g>
   </g>
   <g id="line2d_36">
    <path d="M 90.71625 155.589193 
L 99.854515 155.410482 
L 108.992781 155.181115 
L 118.131046 154.887033 
L 127.269311 154.510433 
L 136.407577 154.028837 
L 145.545842 153.413956 
L 154.684107 152.630296 
L 163.822372 151.633477 
L 172.960638 150.368135 
L 182.098903 148.765445 
L 191.237168 146.740158 
L 200.375434 144.187426 
L 209.513699 140.979839 
L 218.651964 136.966077 
L 227.79023 131.974079 
L 236.928495 125.824151 
L 246.06676 118.360548 
L 255.205026 109.510757 
L 264.343291 99.372523 
L 273.481556 88.299409 
L 282.619821 76.916693 
L 291.758087 66.000298 
L 300.896352 56.245609 
L 310.034617 48.066537 
L 319.172883 41.547422 
L 328.311148 36.533854 
L 337.449413 32.763148 
L 346.587679 29.961096 
L 355.725944 27.889457 
L 364.864209 26.359178 
L 374.002474 25.227072 
L 383.14074 24.387165 
L 392.279005 23.761819 
L 401.41727 23.294364 
L 410.555536 22.943483 
L 419.693801 22.678991 
L 428.832066 22.478799 
L 437.970332 22.326689 
L 447.108597 22.210708 
L 456.246862 22.121995 
L 465.385128 22.053961 
L 474.523393 22.00166 
L 483.661658 21.961392 
L 492.799923 21.930333 
L 501.938189 21.906347 
L 511.076454 21.88781 
L 520.214719 21.873463 
L 529.352985 21.862355 
L 538.49125 21.853749 
" clip-path="url(#pfb6d976d4e)" style="fill: none; stroke: #45c4af; stroke-width: 2; stroke-linecap: square"/>
   </g>
   <g id="line2d_37">
    <g clip-path="url(#pfb6d976d4e)">
     <use xlink:href="#m4162fc771f" x="181.396548" y="148.90242" style="fill: #ff0000; stroke: #ff0000"/>
     <use xlink:href="#m4162fc771f" x="273.141579" y="88.721471" style="fill: #ff0000; stroke: #ff0000"/>
     <use xlink:href="#m4162fc771f" x="352.541691" y="28.540521" style="fill: #ff0000; stroke: #ff0000"/>
    </g>
   </g>
   <g id="line2d_38">
    <path d="M 90.71625 155.688331 
L 99.854515 155.537533 
L 108.992781 155.343698 
L 118.131046 155.09472 
L 127.269311 154.775181 
L 136.407577 154.365493 
L 145.545842 153.84085 
L 154.684107 153.169899 
L 163.822372 152.313168 
L 172.960638 151.221109 
L 182.098903 149.831707 
L 191.237168 148.067672 
L 200.375434 145.833247 
L 209.513699 143.010886 
L 218.651964 139.458778 
L 227.79023 135.011115 
L 236.928495 129.485336 
L 246.06676 122.703382 
L 255.205026 114.536883 
L 264.343291 104.983128 
L 273.481556 94.260024 
L 282.619821 82.869122 
L 291.758087 71.547026 
L 300.896352 61.072865 
L 310.034617 52.026076 
L 319.172883 44.652476 
L 328.311148 38.897579 
L 337.449413 34.53313 
L 346.587679 31.27782 
L 355.725944 28.869193 
L 364.864209 27.09146 
L 374.002474 25.778321 
L 383.14074 24.805791 
L 392.279005 24.082885 
L 401.41727 23.543265 
L 410.555536 23.138688 
L 419.693801 22.834001 
L 428.832066 22.603548 
L 437.970332 22.428545 
L 447.108597 22.295154 
L 456.246862 22.193172 
L 465.385128 22.114971 
L 474.523393 22.054875 
L 483.661658 22.008607 
L 492.799923 21.972922 
L 501.938189 21.945362 
L 511.076454 21.924065 
L 520.214719 21.907589 
L 529.352985 21.894835 
L 538.49125 21.884953 
" clip-path="url(#pfb6d976d4e)" style="fill: none; stroke: #ec6c5f; stroke-width: 2; stroke-linecap: square"/>
   </g>
   <g id="line2d_39">
    <g clip-path="url(#pfb6d976d4e)">
     <use xlink:href="#m4162fc771f" x="186.688114" y="148.998163" style="fill: #ff0000; stroke: #ff0000"/>
     <use xlink:href="#m4162fc771f" x="277.906769" y="88.786642" style="fill: #ff0000; stroke: #ff0000"/>
     <use xlink:href="#m4162fc771f" x="357.058155" y="28.575122" style="fill: #ff0000; stroke: #ff0000"/>
    </g>
   </g>
   <g id="line2d_40">
    <path d="M 90.71625 155.808151 
L 99.854515 155.691435 
L 108.992781 155.541199 
L 118.131046 155.347883 
L 127.269311 155.099251 
L 136.407577 154.779641 
L 145.545842 154.369066 
L 154.684107 153.842058 
L 163.822372 153.166238 
L 172.960638 152.300566 
L 182.098903 151.193174 
L 191.237168 149.778756 
L 200.375434 147.975464 
L 209.513699 145.681484 
L 218.651964 142.77158 
L 227.79023 139.094786 
L 236.928495 134.475573 
L 246.06676 128.723335 
L 255.205026 121.658343 
L 264.343291 113.164651 
L 273.481556 103.27503 
L 282.619821 92.268729 
L 291.758087 80.719768 
L 300.896352 69.41348 
L 310.034617 59.122736 
L 319.172883 50.369128 
L 328.311148 43.324743 
L 337.449413 37.879167 
L 346.587679 33.776427 
L 355.725944 30.729085 
L 364.864209 28.479666 
L 374.002474 26.821104 
L 383.14074 25.595886 
L 392.279005 24.687561 
L 401.41727 24.011174 
L 410.555536 23.505094 
L 419.693801 23.124603 
L 428.832066 22.8372 
L 437.970332 22.619174 
L 447.108597 22.453135 
L 456.246862 22.326256 
L 465.385128 22.229019 
L 474.523393 22.154316 
L 483.661658 22.096823 
L 492.799923 22.052492 
L 501.938189 22.018251 
L 511.076454 21.991807 
L 520.214719 21.971347 
L 529.352985 21.955505 
L 538.49125 21.943239 
" clip-path="url(#pfb6d976d4e)" style="fill: none; stroke: #4c8b30; stroke-width: 2; stroke-linecap: square"/>
   </g>
   <g id="line2d_41">
    <g clip-path="url(#pfb6d976d4e)">
     <use xlink:href="#m4162fc771f" x="194.863394" y="149.114906" style="fill: #ff0000; stroke: #ff0000"/>
     <use xlink:href="#m4162fc771f" x="285.323984" y="88.875695" style="fill: #ff0000; stroke: #ff0000"/>
     <use xlink:href="#m4162fc771f" x="364.12781" y="28.636484" style="fill: #ff0000; stroke: #ff0000"/>
    </g>
   </g>
   <g id="line2d_42">
    <path d="M 90.71625 155.928593 
L 99.854515 155.846428 
L 108.992781 155.740571 
L 118.131046 155.604206 
L 127.269311 155.428567 
L 136.407577 155.202387 
L 145.545842 154.911187 
L 154.684107 154.536389 
L 163.822372 154.054178 
L 172.960638 153.434059 
L 182.098903 152.637076 
L 191.237168 151.613557 
L 200.375434 150.300394 
L 209.513699 148.617762 
L 218.651964 146.4654 
L 227.79023 143.718802 
L 236.928495 140.226234 
L 246.06676 135.808871 
L 255.205026 130.268573 
L 264.343291 123.411338 
L 273.481556 115.097589 
L 282.619821 105.326786 
L 291.758087 94.341775 
L 300.896352 82.693247 
L 310.034617 71.174848 
L 319.172883 60.602162 
L 328.311148 51.553775 
L 337.449413 44.246295 
L 346.587679 38.589631 
L 355.725944 34.328472 
L 364.864209 31.166344 
L 374.002474 28.834611 
L 383.14074 27.116541 
L 392.279005 25.847436 
L 401.41727 24.905936 
L 410.555536 24.203901 
L 419.693801 23.677626 
L 428.832066 23.281067 
L 437.970332 22.980817 
L 447.108597 22.752502 
L 456.246862 22.578253 
L 465.385128 22.444835 
L 474.523393 22.342417 
L 483.661658 22.263628 
L 492.799923 22.202908 
L 501.938189 22.156041 
L 511.076454 22.119828 
L 520.214719 22.091821 
L 529.352985 22.070148 
L 538.49125 22.053363 
" clip-path="url(#pfb6d976d4e)" style="fill: none; stroke: #641978; stroke-width: 2; stroke-linecap: square"/>
   </g>
   <g id="line2d_43">
    <g clip-path="url(#pfb6d976d4e)">
     <use xlink:href="#m4162fc771f" x="206.418383" y="149.234832" style="fill: #ff0000; stroke: #ff0000"/>
     <use xlink:href="#m4162fc771f" x="295.986508" y="88.990978" style="fill: #ff0000; stroke: #ff0000"/>
     <use xlink:href="#m4162fc771f" x="374.406318" y="28.747125" style="fill: #ff0000; stroke: #ff0000"/>
    </g>
   </g>
   <g id="line2d_44">
    <path d="M 90.71625 156.028478 
L 99.854515 155.975103 
L 108.992781 155.906315 
L 118.131046 155.817662 
L 127.269311 155.703409 
L 136.407577 155.556168 
L 145.545842 155.366421 
L 154.684107 155.12191 
L 163.822372 154.806842 
L 172.960638 154.400904 
L 182.098903 153.877938 
L 191.237168 153.204334 
L 200.375434 152.336926 
L 209.513699 151.220387 
L 218.651964 149.784034 
L 227.79023 147.937991 
L 236.928495 145.568937 
L 246.06676 142.536021 
L 255.205026 138.668428 
L 264.343291 133.768048 
L 273.481556 127.623766 
L 282.619821 120.048007 
L 291.758087 110.947582 
L 300.896352 100.428938 
L 310.034617 88.900169 
L 319.172883 77.081251 
L 328.311148 65.843683 
L 337.449413 55.930262 
L 346.587679 47.739405 
L 355.725944 41.303446 
L 364.864209 36.414317 
L 374.002474 32.771997 
L 383.14074 30.08257 
L 392.279005 28.100444 
L 401.41727 26.636175 
L 410.555536 25.549508 
L 419.693801 24.738592 
L 428.832066 24.129991 
L 437.970332 23.670745 
L 447.108597 23.322507 
L 456.246862 23.057316 
L 465.385128 22.854631 
L 474.523393 22.699255 
L 483.661658 22.579852 
L 492.799923 22.487913 
L 501.938189 22.416998 
L 511.076454 22.362235 
L 520.214719 22.319901 
L 529.352985 22.287153 
L 538.49125 22.261788 
" clip-path="url(#pfb6d976d4e)" style="fill: none; stroke: #ddcc77; stroke-width: 2; stroke-linecap: square"/>
   </g>
   <g id="line2d_45">
    <g clip-path="url(#pfb6d976d4e)">
     <use xlink:href="#m4162fc771f" x="221.067218" y="149.340143" style="fill: #ff0000; stroke: #ff0000"/>
     <use xlink:href="#m4162fc771f" x="309.845084" y="89.145133" style="fill: #ff0000; stroke: #ff0000"/>
     <use xlink:href="#m4162fc771f" x="388.013463" y="28.950122" style="fill: #ff0000; stroke: #ff0000"/>
    </g>
   </g>
   <g id="line2d_46">
    <path d="M 90.71625 156.09944 
L 99.854515 156.066557 
L 108.992781 156.024169 
L 118.131046 155.969538 
L 127.269311 155.899125 
L 136.407577 155.808363 
L 145.545842 155.691374 
L 154.684107 155.540573 
L 163.822372 155.346183 
L 172.960638 155.095599 
L 182.098903 154.772557 
L 191.237168 154.356095 
L 200.375434 153.819184 
L 209.513699 153.126974 
L 218.651964 152.234588 
L 227.79023 151.08428 
L 236.928495 149.601969 
L 246.06676 147.693028 
L 255.205026 145.237622 
L 264.343291 142.086261 
L 273.481556 138.057432 
L 282.619821 132.941544 
L 291.758087 126.519062 
L 300.896352 118.605362 
L 310.034617 109.13462 
L 319.172883 98.276779 
L 328.311148 86.533274 
L 337.449413 74.70783 
L 346.587679 63.691313 
L 355.725944 54.163933 
L 364.864209 46.420704 
L 374.002474 40.406308 
L 383.14074 35.866608 
L 392.279005 32.491241 
L 401.41727 29.995312 
L 410.555536 28.148785 
L 419.693801 26.777485 
L 428.832066 25.753692 
L 437.970332 24.984958 
L 447.108597 24.404579 
L 456.246862 23.964234 
L 465.385128 23.628705 
L 474.523393 23.372139 
L 483.661658 23.175355 
L 492.799923 23.024064 
L 501.938189 22.907519 
L 511.076454 22.817605 
L 520.214719 22.748149 
L 529.352985 22.694447 
L 538.49125 22.652889 
" clip-path="url(#pfb6d976d4e)" style="fill: none; stroke: #cc79a7; stroke-width: 2; stroke-linecap: square"/>
   </g>
   <g id="line2d_47">
    <g clip-path="url(#pfb6d976d4e)">
     <use xlink:href="#m4162fc771f" x="237.868459" y="149.427112" style="fill: #ff0000; stroke: #ff0000"/>
     <use xlink:href="#m4162fc771f" x="326.131329" y="89.376165" style="fill: #ff0000; stroke: #ff0000"/>
     <use xlink:href="#m4162fc771f" x="404.423674" y="29.325217" style="fill: #ff0000; stroke: #ff0000"/>
    </g>
   </g>
   <g id="line2d_48">
    <path d="M 90.71625 156.145137 
L 99.854515 156.125454 
L 108.992781 156.100083 
L 118.131046 156.067384 
L 127.269311 156.025232 
L 136.407577 155.970903 
L 145.545842 155.900873 
L 154.684107 155.810602 
L 163.822372 155.694234 
L 172.960638 155.544216 
L 182.098903 155.350808 
L 191.237168 155.10144 
L 200.375434 154.779895 
L 209.513699 154.365231 
L 218.651964 153.83043 
L 227.79023 153.140599 
L 236.928495 152.25071 
L 246.06676 151.102717 
L 255.205026 149.621932 
L 264.343291 147.71265 
L 273.481556 145.25325 
L 282.619821 142.091467 
L 291.758087 138.041922 
L 300.896352 132.890432 
L 310.034617 126.413873 
L 319.172883 118.429084 
L 328.311148 108.883025 
L 337.449413 97.97427 
L 346.587679 86.242155 
L 355.725944 74.515161 
L 364.864209 63.673026 
L 374.002474 54.352567 
L 383.14074 46.801105 
L 392.279005 40.934887 
L 401.41727 36.493846 
L 410.555536 33.175205 
L 419.693801 30.705912 
L 428.832066 28.866786 
L 437.970332 27.491864 
L 447.108597 26.458934 
L 456.246862 25.678973 
L 465.385128 25.087234 
L 474.523393 24.636389 
L 483.661658 24.291677 
L 492.799923 24.027306 
L 501.938189 23.824071 
L 511.076454 23.667526 
L 520.214719 23.546762 
L 529.352985 23.453486 
L 538.49125 23.381366 
" clip-path="url(#pfb6d976d4e)" style="fill: none; stroke: #fee2c3; stroke-width: 2; stroke-linecap: square"/>
   </g>
   <g id="line2d_49">
    <g clip-path="url(#pfb6d976d4e)">
     <use xlink:href="#m4162fc771f" x="255.826159" y="149.506949" style="fill: #ff0000; stroke: #ff0000"/>
     <use xlink:href="#m4162fc771f" x="343.877164" y="89.763252" style="fill: #ff0000; stroke: #ff0000"/>
     <use xlink:href="#m4162fc771f" x="422.796924" y="30.019554" style="fill: #ff0000; stroke: #ff0000"/>
    </g>
   </g>
   <g id="line2d_50">
    <path d="M 90.71625 156.172953 
L 99.854515 156.161305 
L 108.992781 156.146292 
L 118.131046 156.126942 
L 127.269311 156.102001 
L 136.407577 156.069854 
L 145.545842 156.028414 
L 154.684107 155.975004 
L 163.822372 155.906154 
L 172.960638 155.817399 
L 182.098903 155.70298 
L 191.237168 155.55547 
L 200.375434 155.365278 
L 209.513699 155.120036 
L 218.651964 154.803768 
L 227.79023 154.395857 
L 236.928495 153.869661 
L 246.06676 153.19077 
L 255.205026 152.314744 
L 264.343291 151.184238 
L 273.481556 149.725418 
L 282.619821 147.843596 
L 291.758087 145.418392 
L 300.896352 142.299157 
L 310.034617 138.302825 
L 319.172883 133.218886 
L 328.311148 126.83034 
L 337.449413 118.963664 
L 346.587679 109.578098 
L 355.725944 98.880822 
L 364.864209 87.403574 
L 374.002474 75.941384 
L 383.14074 65.324269 
L 392.279005 56.149806 
L 401.41727 48.655845 
L 410.555536 42.775274 
L 419.693801 38.274741 
L 428.832066 34.875561 
L 437.970332 32.321278 
L 447.108597 30.402201 
L 456.246862 28.956751 
L 465.385128 27.864009 
L 474.523393 27.034644 
L 483.661658 26.402761 
L 492.799923 25.919711 
L 501.938189 25.54937 
L 511.076454 25.264751 
L 520.214719 25.045576 
L 529.352985 24.876535 
L 538.49125 24.74599 
" clip-path="url(#pfb6d976d4e)" style="fill: none; stroke: #882255; stroke-width: 2; stroke-linecap: square"/>
   </g>
   <g id="line2d_51">
    <g clip-path="url(#pfb6d976d4e)">
     <use xlink:href="#m4162fc771f" x="274.159761" y="149.601605" style="fill: #ff0000; stroke: #ff0000"/>
     <use xlink:href="#m4162fc771f" x="362.458584" y="90.459471" style="fill: #ff0000; stroke: #ff0000"/>
     <use xlink:href="#m4162fc771f" x="442.422379" y="31.317338" style="fill: #ff0000; stroke: #ff0000"/>
    </g>
   </g>
   <g id="line2d_52">
    <path d="M 285.762274 268.845625 
L 285.762274 15.12 
" clip-path="url(#pfb6d976d4e)" style="fill: none; stroke-dasharray: 6,6; stroke-dashoffset: 2; stroke: #4d8b31; stroke-width: 2"/>
   </g>
   <g id="line2d_53">
    <path d="M 335.685868 268.845625 
L 335.685868 15.12 
" clip-path="url(#pfb6d976d4e)" style="fill: none; stroke-dasharray: 6,6; stroke-dashoffset: 2; stroke: #4d8b31; stroke-width: 2"/>
   </g>
   <g id="line2d_54">
    <path d="M 422.401435 268.845625 
L 422.401435 15.12 
" clip-path="url(#pfb6d976d4e)" style="fill: none; stroke-dasharray: 6,6; stroke-dashoffset: 2; stroke: #ec6c5f; stroke-width: 2"/>
   </g>
   <g id="line2d_55">
    <path d="M 488.396838 268.845625 
L 488.396838 15.12 
" clip-path="url(#pfb6d976d4e)" style="fill: none; stroke-dasharray: 6,6; stroke-dashoffset: 2; stroke: #ec6c5f; stroke-width: 2"/>
   </g>
   <g id="patch_5">
    <path d="M 68.3275 268.845625 
L 68.3275 15.12 
" style="fill: none; stroke: #000000; stroke-width: 0.8; stroke-linejoin: miter; stroke-linecap: square"/>
   </g>
   <g id="patch_6">
    <path d="M 560.88 268.845625 
L 560.88 15.12 
" style="fill: none; stroke: #000000; stroke-width: 0.8; stroke-linejoin: miter; stroke-linecap: square"/>
   </g>
   <g id="patch_7">
    <path d="M 68.3275 268.845625 
L 560.88 268.845625 
" style="fill: none; stroke: #000000; stroke-width: 0.8; stroke-linejoin: miter; stroke-linecap: square"/>
   </g>
   <g id="patch_8">
    <path d="M 68.3275 15.12 
L 560.88 15.12 
" style="fill: none; stroke: #000000; stroke-width: 0.8; stroke-linejoin: miter; stroke-linecap: square"/>
   </g>
   <g id="legend_1">
    <g id="patch_9">
     <path d="M 456.314688 263.345625 
L 553.18 263.345625 
Q 555.38 263.345625 555.38 261.145625 
L 555.38 84.640312 
Q 555.38 82.440312 553.18 82.440312 
L 456.314688 82.440312 
Q 454.114688 82.440312 454.114688 84.640312 
L 454.114688 261.145625 
Q 454.114688 263.345625 456.314688 263.345625 
z
" style="fill: #ffffff; opacity: 0.8; stroke: #cccccc; stroke-linejoin: miter"/>
    </g>
    <g id="line2d_56">
     <path d="M 458.514688 91.348594 
L 469.514688 91.348594 
L 480.514688 91.348594 
" style="fill: none; stroke: #fba649; stroke-width: 2; stroke-linecap: square"/>
    </g>
    <g id="text_13">
     <!-- Factor 0.1 -->
     <g transform="translate(489.314688 95.198594)scale(0.11 -0.11)">
      <use xlink:href="#DejaVuSans-46"/>
      <use xlink:href="#DejaVuSans-61" x="48.394531"/>
      <use xlink:href="#DejaVuSans-63" x="109.673828"/>
      <use xlink:href="#DejaVuSans-74" x="164.654297"/>
      <use xlink:href="#DejaVuSans-6f" x="203.863281"/>
      <use xlink:href="#DejaVuSans-72" x="265.044922"/>
      <use xlink:href="#DejaVuSans-20" x="306.158203"/>
      <use xlink:href="#DejaVuSans-30" x="337.945312"/>
      <use xlink:href="#DejaVuSans-2e" x="401.568359"/>
      <use xlink:href="#DejaVuSans-31" x="433.355469"/>
     </g>
    </g>
    <g id="line2d_57">
     <path d="M 458.514688 107.494531 
L 469.514688 107.494531 
L 480.514688 107.494531 
" style="fill: none; stroke: #45c4af; stroke-width: 2; stroke-linecap: square"/>
    </g>
    <g id="text_14">
     <!-- Factor 0.18 -->
     <g transform="translate(489.314688 111.344531)scale(0.11 -0.11)">
      <defs>
       <path id="DejaVuSans-38" d="M 2034 2216 
Q 1584 2216 1326 1975 
Q 1069 1734 1069 1313 
Q 1069 891 1326 650 
Q 1584 409 2034 409 
Q 2484 409 2743 651 
Q 3003 894 3003 1313 
Q 3003 1734 2745 1975 
Q 2488 2216 2034 2216 
z
M 1403 2484 
Q 997 2584 770 2862 
Q 544 3141 544 3541 
Q 544 4100 942 4425 
Q 1341 4750 2034 4750 
Q 2731 4750 3128 4425 
Q 3525 4100 3525 3541 
Q 3525 3141 3298 2862 
Q 3072 2584 2669 2484 
Q 3125 2378 3379 2068 
Q 3634 1759 3634 1313 
Q 3634 634 3220 271 
Q 2806 -91 2034 -91 
Q 1263 -91 848 271 
Q 434 634 434 1313 
Q 434 1759 690 2068 
Q 947 2378 1403 2484 
z
M 1172 3481 
Q 1172 3119 1398 2916 
Q 1625 2713 2034 2713 
Q 2441 2713 2670 2916 
Q 2900 3119 2900 3481 
Q 2900 3844 2670 4047 
Q 2441 4250 2034 4250 
Q 1625 4250 1398 4047 
Q 1172 3844 1172 3481 
z
" transform="scale(0.015625)"/>
      </defs>
      <use xlink:href="#DejaVuSans-46"/>
      <use xlink:href="#DejaVuSans-61" x="48.394531"/>
      <use xlink:href="#DejaVuSans-63" x="109.673828"/>
      <use xlink:href="#DejaVuSans-74" x="164.654297"/>
      <use xlink:href="#DejaVuSans-6f" x="203.863281"/>
      <use xlink:href="#DejaVuSans-72" x="265.044922"/>
      <use xlink:href="#DejaVuSans-20" x="306.158203"/>
      <use xlink:href="#DejaVuSans-30" x="337.945312"/>
      <use xlink:href="#DejaVuSans-2e" x="401.568359"/>
      <use xlink:href="#DejaVuSans-31" x="433.355469"/>
      <use xlink:href="#DejaVuSans-38" x="496.978516"/>
     </g>
    </g>
    <g id="line2d_58">
     <path d="M 458.514688 123.640469 
L 469.514688 123.640469 
L 480.514688 123.640469 
" style="fill: none; stroke: #ec6c5f; stroke-width: 2; stroke-linecap: square"/>
    </g>
    <g id="text_15">
     <!-- Factor 0.32 -->
     <g transform="translate(489.314688 127.490469)scale(0.11 -0.11)">
      <use xlink:href="#DejaVuSans-46"/>
      <use xlink:href="#DejaVuSans-61" x="48.394531"/>
      <use xlink:href="#DejaVuSans-63" x="109.673828"/>
      <use xlink:href="#DejaVuSans-74" x="164.654297"/>
      <use xlink:href="#DejaVuSans-6f" x="203.863281"/>
      <use xlink:href="#DejaVuSans-72" x="265.044922"/>
      <use xlink:href="#DejaVuSans-20" x="306.158203"/>
      <use xlink:href="#DejaVuSans-30" x="337.945312"/>
      <use xlink:href="#DejaVuSans-2e" x="401.568359"/>
      <use xlink:href="#DejaVuSans-33" x="433.355469"/>
      <use xlink:href="#DejaVuSans-32" x="496.978516"/>
     </g>
    </g>
    <g id="line2d_59">
     <path d="M 458.514688 139.786406 
L 469.514688 139.786406 
L 480.514688 139.786406 
" style="fill: none; stroke: #4c8b30; stroke-width: 2; stroke-linecap: square"/>
    </g>
    <g id="text_16">
     <!-- Factor 0.56 -->
     <g transform="translate(489.314688 143.636406)scale(0.11 -0.11)">
      <use xlink:href="#DejaVuSans-46"/>
      <use xlink:href="#DejaVuSans-61" x="48.394531"/>
      <use xlink:href="#DejaVuSans-63" x="109.673828"/>
      <use xlink:href="#DejaVuSans-74" x="164.654297"/>
      <use xlink:href="#DejaVuSans-6f" x="203.863281"/>
      <use xlink:href="#DejaVuSans-72" x="265.044922"/>
      <use xlink:href="#DejaVuSans-20" x="306.158203"/>
      <use xlink:href="#DejaVuSans-30" x="337.945312"/>
      <use xlink:href="#DejaVuSans-2e" x="401.568359"/>
      <use xlink:href="#DejaVuSans-35" x="433.355469"/>
      <use xlink:href="#DejaVuSans-36" x="496.978516"/>
     </g>
    </g>
    <g id="line2d_60">
     <path d="M 458.514688 155.932344 
L 469.514688 155.932344 
L 480.514688 155.932344 
" style="fill: none; stroke: #641978; stroke-width: 2; stroke-linecap: square"/>
    </g>
    <g id="text_17">
     <!-- Original -->
     <g transform="translate(489.314688 159.782344)scale(0.11 -0.11)">
      <defs>
       <path id="DejaVuSans-67" d="M 2906 1791 
Q 2906 2416 2648 2759 
Q 2391 3103 1925 3103 
Q 1463 3103 1205 2759 
Q 947 2416 947 1791 
Q 947 1169 1205 825 
Q 1463 481 1925 481 
Q 2391 481 2648 825 
Q 2906 1169 2906 1791 
z
M 3481 434 
Q 3481 -459 3084 -895 
Q 2688 -1331 1869 -1331 
Q 1566 -1331 1297 -1286 
Q 1028 -1241 775 -1147 
L 775 -588 
Q 1028 -725 1275 -790 
Q 1522 -856 1778 -856 
Q 2344 -856 2625 -561 
Q 2906 -266 2906 331 
L 2906 616 
Q 2728 306 2450 153 
Q 2172 0 1784 0 
Q 1141 0 747 490 
Q 353 981 353 1791 
Q 353 2603 747 3093 
Q 1141 3584 1784 3584 
Q 2172 3584 2450 3431 
Q 2728 3278 2906 2969 
L 2906 3500 
L 3481 3500 
L 3481 434 
z
" transform="scale(0.015625)"/>
      </defs>
      <use xlink:href="#DejaVuSans-4f"/>
      <use xlink:href="#DejaVuSans-72" x="78.710938"/>
      <use xlink:href="#DejaVuSans-69" x="119.824219"/>
      <use xlink:href="#DejaVuSans-67" x="147.607422"/>
      <use xlink:href="#DejaVuSans-69" x="211.083984"/>
      <use xlink:href="#DejaVuSans-6e" x="238.867188"/>
      <use xlink:href="#DejaVuSans-61" x="302.246094"/>
      <use xlink:href="#DejaVuSans-6c" x="363.525391"/>
     </g>
    </g>
    <g id="line2d_61">
     <path d="M 458.514688 172.078281 
L 469.514688 172.078281 
L 480.514688 172.078281 
" style="fill: none; stroke: #ddcc77; stroke-width: 2; stroke-linecap: square"/>
    </g>
    <g id="text_18">
     <!-- Factor 1.78 -->
     <g transform="translate(489.314688 175.928281)scale(0.11 -0.11)">
      <defs>
       <path id="DejaVuSans-37" d="M 525 4666 
L 3525 4666 
L 3525 4397 
L 1831 0 
L 1172 0 
L 2766 4134 
L 525 4134 
L 525 4666 
z
" transform="scale(0.015625)"/>
      </defs>
      <use xlink:href="#DejaVuSans-46"/>
      <use xlink:href="#DejaVuSans-61" x="48.394531"/>
      <use xlink:href="#DejaVuSans-63" x="109.673828"/>
      <use xlink:href="#DejaVuSans-74" x="164.654297"/>
      <use xlink:href="#DejaVuSans-6f" x="203.863281"/>
      <use xlink:href="#DejaVuSans-72" x="265.044922"/>
      <use xlink:href="#DejaVuSans-20" x="306.158203"/>
      <use xlink:href="#DejaVuSans-31" x="337.945312"/>
      <use xlink:href="#DejaVuSans-2e" x="401.568359"/>
      <use xlink:href="#DejaVuSans-37" x="433.355469"/>
      <use xlink:href="#DejaVuSans-38" x="496.978516"/>
     </g>
    </g>
    <g id="line2d_62">
     <path d="M 458.514688 188.224219 
L 469.514688 188.224219 
L 480.514688 188.224219 
" style="fill: none; stroke: #cc79a7; stroke-width: 2; stroke-linecap: square"/>
    </g>
    <g id="text_19">
     <!-- Factor 3.16 -->
     <g transform="translate(489.314688 192.074219)scale(0.11 -0.11)">
      <use xlink:href="#DejaVuSans-46"/>
      <use xlink:href="#DejaVuSans-61" x="48.394531"/>
      <use xlink:href="#DejaVuSans-63" x="109.673828"/>
      <use xlink:href="#DejaVuSans-74" x="164.654297"/>
      <use xlink:href="#DejaVuSans-6f" x="203.863281"/>
      <use xlink:href="#DejaVuSans-72" x="265.044922"/>
      <use xlink:href="#DejaVuSans-20" x="306.158203"/>
      <use xlink:href="#DejaVuSans-33" x="337.945312"/>
      <use xlink:href="#DejaVuSans-2e" x="401.568359"/>
      <use xlink:href="#DejaVuSans-31" x="433.355469"/>
      <use xlink:href="#DejaVuSans-36" x="496.978516"/>
     </g>
    </g>
    <g id="line2d_63">
     <path d="M 458.514688 204.370156 
L 469.514688 204.370156 
L 480.514688 204.370156 
" style="fill: none; stroke: #fee2c3; stroke-width: 2; stroke-linecap: square"/>
    </g>
    <g id="text_20">
     <!-- Factor 5.62 -->
     <g transform="translate(489.314688 208.220156)scale(0.11 -0.11)">
      <use xlink:href="#DejaVuSans-46"/>
      <use xlink:href="#DejaVuSans-61" x="48.394531"/>
      <use xlink:href="#DejaVuSans-63" x="109.673828"/>
      <use xlink:href="#DejaVuSans-74" x="164.654297"/>
      <use xlink:href="#DejaVuSans-6f" x="203.863281"/>
      <use xlink:href="#DejaVuSans-72" x="265.044922"/>
      <use xlink:href="#DejaVuSans-20" x="306.158203"/>
      <use xlink:href="#DejaVuSans-35" x="337.945312"/>
      <use xlink:href="#DejaVuSans-2e" x="401.568359"/>
      <use xlink:href="#DejaVuSans-36" x="433.355469"/>
      <use xlink:href="#DejaVuSans-32" x="496.978516"/>
     </g>
    </g>
    <g id="line2d_64">
     <path d="M 458.514688 220.516094 
L 469.514688 220.516094 
L 480.514688 220.516094 
" style="fill: none; stroke: #882255; stroke-width: 2; stroke-linecap: square"/>
    </g>
    <g id="text_21">
     <!-- Factor 10.0 -->
     <g transform="translate(489.314688 224.366094)scale(0.11 -0.11)">
      <use xlink:href="#DejaVuSans-46"/>
      <use xlink:href="#DejaVuSans-61" x="48.394531"/>
      <use xlink:href="#DejaVuSans-63" x="109.673828"/>
      <use xlink:href="#DejaVuSans-74" x="164.654297"/>
      <use xlink:href="#DejaVuSans-6f" x="203.863281"/>
      <use xlink:href="#DejaVuSans-72" x="265.044922"/>
      <use xlink:href="#DejaVuSans-20" x="306.158203"/>
      <use xlink:href="#DejaVuSans-31" x="337.945312"/>
      <use xlink:href="#DejaVuSans-30" x="401.568359"/>
      <use xlink:href="#DejaVuSans-2e" x="465.191406"/>
      <use xlink:href="#DejaVuSans-30" x="496.978516"/>
     </g>
    </g>
    <g id="patch_10">
     <path d="M 458.514688 240.512031 
L 480.514688 240.512031 
L 480.514688 232.812031 
L 458.514688 232.812031 
z
" style="fill: #4d8b31; opacity: 0.3; stroke: #4d8b31; stroke-linejoin: miter"/>
    </g>
    <g id="text_22">
     <!-- Healthy -->
     <g transform="translate(489.314688 240.512031)scale(0.11 -0.11)">
      <defs>
       <path id="DejaVuSans-48" d="M 628 4666 
L 1259 4666 
L 1259 2753 
L 3553 2753 
L 3553 4666 
L 4184 4666 
L 4184 0 
L 3553 0 
L 3553 2222 
L 1259 2222 
L 1259 0 
L 628 0 
L 628 4666 
z
" transform="scale(0.015625)"/>
       <path id="DejaVuSans-68" d="M 3513 2113 
L 3513 0 
L 2938 0 
L 2938 2094 
Q 2938 2591 2744 2837 
Q 2550 3084 2163 3084 
Q 1697 3084 1428 2787 
Q 1159 2491 1159 1978 
L 1159 0 
L 581 0 
L 581 4863 
L 1159 4863 
L 1159 2956 
Q 1366 3272 1645 3428 
Q 1925 3584 2291 3584 
Q 2894 3584 3203 3211 
Q 3513 2838 3513 2113 
z
" transform="scale(0.015625)"/>
       <path id="DejaVuSans-79" d="M 2059 -325 
Q 1816 -950 1584 -1140 
Q 1353 -1331 966 -1331 
L 506 -1331 
L 506 -850 
L 844 -850 
Q 1081 -850 1212 -737 
Q 1344 -625 1503 -206 
L 1606 56 
L 191 3500 
L 800 3500 
L 1894 763 
L 2988 3500 
L 3597 3500 
L 2059 -325 
z
" transform="scale(0.015625)"/>
      </defs>
      <use xlink:href="#DejaVuSans-48"/>
      <use xlink:href="#DejaVuSans-65" x="75.195312"/>
      <use xlink:href="#DejaVuSans-61" x="136.71875"/>
      <use xlink:href="#DejaVuSans-6c" x="197.998047"/>
      <use xlink:href="#DejaVuSans-74" x="225.78125"/>
      <use xlink:href="#DejaVuSans-68" x="264.990234"/>
      <use xlink:href="#DejaVuSans-79" x="328.369141"/>
     </g>
    </g>
    <g id="patch_11">
     <path d="M 458.514688 256.657969 
L 480.514688 256.657969 
L 480.514688 248.957969 
L 458.514688 248.957969 
z
" style="fill: #ec6c5f; opacity: 0.3; stroke: #ec6c5f; stroke-linejoin: miter"/>
    </g>
    <g id="text_23">
     <!-- Cancer -->
     <g transform="translate(489.314688 256.657969)scale(0.11 -0.11)">
      <defs>
       <path id="DejaVuSans-43" d="M 4122 4306 
L 4122 3641 
Q 3803 3938 3442 4084 
Q 3081 4231 2675 4231 
Q 1875 4231 1450 3742 
Q 1025 3253 1025 2328 
Q 1025 1406 1450 917 
Q 1875 428 2675 428 
Q 3081 428 3442 575 
Q 3803 722 4122 1019 
L 4122 359 
Q 3791 134 3420 21 
Q 3050 -91 2638 -91 
Q 1578 -91 968 557 
Q 359 1206 359 2328 
Q 359 3453 968 4101 
Q 1578 4750 2638 4750 
Q 3056 4750 3426 4639 
Q 3797 4528 4122 4306 
z
" transform="scale(0.015625)"/>
      </defs>
      <use xlink:href="#DejaVuSans-43"/>
      <use xlink:href="#DejaVuSans-61" x="69.824219"/>
      <use xlink:href="#DejaVuSans-6e" x="131.103516"/>
      <use xlink:href="#DejaVuSans-63" x="194.482422"/>
      <use xlink:href="#DejaVuSans-65" x="249.462891"/>
      <use xlink:href="#DejaVuSans-72" x="310.986328"/>
     </g>
    </g>
   </g>
  </g>
 </g>
 <defs>
  <clipPath id="pfb6d976d4e">
   <rect x="68.3275" y="15.12" width="492.5525" height="253.725625"/>
  </clipPath>
 </defs>
</svg>
