<?xml version="1.0" encoding="utf-8" standalone="no"?>
<!DOCTYPE svg PUBLIC "-//W3C//DTD SVG 1.1//EN"
  "http://www.w3.org/Graphics/SVG/1.1/DTD/svg11.dtd">
<svg xmlns:xlink="http://www.w3.org/1999/xlink" width="576pt" height="324pt" viewBox="0 0 576 324" xmlns="http://www.w3.org/2000/svg" version="1.1">
 <metadata>
  <rdf:RDF xmlns:dc="http://purl.org/dc/elements/1.1/" xmlns:cc="http://creativecommons.org/ns#" xmlns:rdf="http://www.w3.org/1999/02/22-rdf-syntax-ns#">
   <cc:Work>
    <dc:type rdf:resource="http://purl.org/dc/dcmitype/StillImage"/>
    <dc:date>2022-12-02T18:23:45.998598</dc:date>
    <dc:format>image/svg+xml</dc:format>
    <dc:creator>
     <cc:Agent>
      <dc:title>Matplotlib v3.5.3, https://matplotlib.org/</dc:title>
     </cc:Agent>
    </dc:creator>
   </cc:Work>
  </rdf:RDF>
 </metadata>
 <defs>
  <style type="text/css">*{stroke-linejoin: round; stroke-linecap: butt}</style>
 </defs>
 <g id="figure_1">
  <g id="patch_1">
   <path d="M 0 324 
L 576 324 
L 576 0 
L 0 0 
z
" style="fill: #ffffff"/>
  </g>
  <g id="axes_1">
   <g id="patch_2">
    <path d="M 68.3275 268.845625 
L 560.88 268.845625 
L 560.88 15.12 
L 68.3275 15.12 
z
" style="fill: #ffffff"/>
   </g>
   <g id="patch_3">
    <path d="M 285.762274 268.845625 
L 285.762274 15.12 
L 335.685868 15.12 
L 335.685868 268.845625 
z
" clip-path="url(#p83065b0b4e)" style="fill: #4d8b31; opacity: 0.3; stroke: #4d8b31; stroke-linejoin: miter"/>
   </g>
   <g id="patch_4">
    <path d="M 422.401435 268.845625 
L 422.401435 15.12 
L 488.396838 15.12 
L 488.396838 268.845625 
z
" clip-path="url(#p83065b0b4e)" style="fill: #ec6c5f; opacity: 0.3; stroke: #ec6c5f; stroke-linejoin: miter"/>
   </g>
   <g id="matplotlib.axis_1">
    <g id="xtick_1">
     <g id="line2d_1">
      <defs>
       <path id="m9b6db13c2a" d="M 0 0 
L 0 3.5 
" style="stroke: #000000; stroke-width: 0.8"/>
      </defs>
      <g>
       <use xlink:href="#m9b6db13c2a" x="90.71625" y="268.845625" style="stroke: #000000; stroke-width: 0.8"/>
      </g>
     </g>
     <g id="text_1">
      <!-- $\mathdefault{10^{-1}}$ -->
      <g transform="translate(74.26625 286.483437)scale(0.14 -0.14)">
       <defs>
        <path id="DejaVuSans-31" d="M 794 531 
L 1825 531 
L 1825 4091 
L 703 3866 
L 703 4441 
L 1819 4666 
L 2450 4666 
L 2450 531 
L 3481 531 
L 3481 0 
L 794 0 
L 794 531 
z
" transform="scale(0.015625)"/>
        <path id="DejaVuSans-30" d="M 2034 4250 
Q 1547 4250 1301 3770 
Q 1056 3291 1056 2328 
Q 1056 1369 1301 889 
Q 1547 409 2034 409 
Q 2525 409 2770 889 
Q 3016 1369 3016 2328 
Q 3016 3291 2770 3770 
Q 2525 4250 2034 4250 
z
M 2034 4750 
Q 2819 4750 3233 4129 
Q 3647 3509 3647 2328 
Q 3647 1150 3233 529 
Q 2819 -91 2034 -91 
Q 1250 -91 836 529 
Q 422 1150 422 2328 
Q 422 3509 836 4129 
Q 1250 4750 2034 4750 
z
" transform="scale(0.015625)"/>
        <path id="DejaVuSans-2212" d="M 678 2272 
L 4684 2272 
L 4684 1741 
L 678 1741 
L 678 2272 
z
" transform="scale(0.015625)"/>
       </defs>
       <use xlink:href="#DejaVuSans-31" transform="translate(0 0.684375)"/>
       <use xlink:href="#DejaVuSans-30" transform="translate(63.623047 0.684375)"/>
       <use xlink:href="#DejaVuSans-2212" transform="translate(128.203125 38.965625)scale(0.7)"/>
       <use xlink:href="#DejaVuSans-31" transform="translate(186.855469 38.965625)scale(0.7)"/>
      </g>
     </g>
    </g>
    <g id="xtick_2">
     <g id="line2d_2">
      <g>
       <use xlink:href="#m9b6db13c2a" x="256.558843" y="268.845625" style="stroke: #000000; stroke-width: 0.8"/>
      </g>
     </g>
     <g id="text_2">
      <!-- $\mathdefault{10^{0}}$ -->
      <g transform="translate(244.238843 286.483437)scale(0.14 -0.14)">
       <use xlink:href="#DejaVuSans-31" transform="translate(0 0.765625)"/>
       <use xlink:href="#DejaVuSans-30" transform="translate(63.623047 0.765625)"/>
       <use xlink:href="#DejaVuSans-30" transform="translate(128.203125 39.046875)scale(0.7)"/>
      </g>
     </g>
    </g>
    <g id="xtick_3">
     <g id="line2d_3">
      <g>
       <use xlink:href="#m9b6db13c2a" x="422.401435" y="268.845625" style="stroke: #000000; stroke-width: 0.8"/>
      </g>
     </g>
     <g id="text_3">
      <!-- $\mathdefault{10^{1}}$ -->
      <g transform="translate(410.081435 286.483437)scale(0.14 -0.14)">
       <use xlink:href="#DejaVuSans-31" transform="translate(0 0.684375)"/>
       <use xlink:href="#DejaVuSans-30" transform="translate(63.623047 0.684375)"/>
       <use xlink:href="#DejaVuSans-31" transform="translate(128.203125 38.965625)scale(0.7)"/>
      </g>
     </g>
    </g>
    <g id="xtick_4">
     <g id="line2d_4">
      <defs>
       <path id="me7cf424be9" d="M 0 0 
L 0 2 
" style="stroke: #000000; stroke-width: 0.6"/>
      </defs>
      <g>
       <use xlink:href="#me7cf424be9" x="74.644442" y="268.845625" style="stroke: #000000; stroke-width: 0.6"/>
      </g>
     </g>
    </g>
    <g id="xtick_5">
     <g id="line2d_5">
      <g>
       <use xlink:href="#me7cf424be9" x="83.127709" y="268.845625" style="stroke: #000000; stroke-width: 0.6"/>
      </g>
     </g>
    </g>
    <g id="xtick_6">
     <g id="line2d_6">
      <g>
       <use xlink:href="#me7cf424be9" x="140.639845" y="268.845625" style="stroke: #000000; stroke-width: 0.6"/>
      </g>
     </g>
    </g>
    <g id="xtick_7">
     <g id="line2d_7">
      <g>
       <use xlink:href="#me7cf424be9" x="169.843276" y="268.845625" style="stroke: #000000; stroke-width: 0.6"/>
      </g>
     </g>
    </g>
    <g id="xtick_8">
     <g id="line2d_8">
      <g>
       <use xlink:href="#me7cf424be9" x="190.56344" y="268.845625" style="stroke: #000000; stroke-width: 0.6"/>
      </g>
     </g>
    </g>
    <g id="xtick_9">
     <g id="line2d_9">
      <g>
       <use xlink:href="#me7cf424be9" x="206.635248" y="268.845625" style="stroke: #000000; stroke-width: 0.6"/>
      </g>
     </g>
    </g>
    <g id="xtick_10">
     <g id="line2d_10">
      <g>
       <use xlink:href="#me7cf424be9" x="219.766871" y="268.845625" style="stroke: #000000; stroke-width: 0.6"/>
      </g>
     </g>
    </g>
    <g id="xtick_11">
     <g id="line2d_11">
      <g>
       <use xlink:href="#me7cf424be9" x="230.8695" y="268.845625" style="stroke: #000000; stroke-width: 0.6"/>
      </g>
     </g>
    </g>
    <g id="xtick_12">
     <g id="line2d_12">
      <g>
       <use xlink:href="#me7cf424be9" x="240.487035" y="268.845625" style="stroke: #000000; stroke-width: 0.6"/>
      </g>
     </g>
    </g>
    <g id="xtick_13">
     <g id="line2d_13">
      <g>
       <use xlink:href="#me7cf424be9" x="248.970302" y="268.845625" style="stroke: #000000; stroke-width: 0.6"/>
      </g>
     </g>
    </g>
    <g id="xtick_14">
     <g id="line2d_14">
      <g>
       <use xlink:href="#me7cf424be9" x="306.482438" y="268.845625" style="stroke: #000000; stroke-width: 0.6"/>
      </g>
     </g>
    </g>
    <g id="xtick_15">
     <g id="line2d_15">
      <g>
       <use xlink:href="#me7cf424be9" x="335.685868" y="268.845625" style="stroke: #000000; stroke-width: 0.6"/>
      </g>
     </g>
    </g>
    <g id="xtick_16">
     <g id="line2d_16">
      <g>
       <use xlink:href="#me7cf424be9" x="356.406032" y="268.845625" style="stroke: #000000; stroke-width: 0.6"/>
      </g>
     </g>
    </g>
    <g id="xtick_17">
     <g id="line2d_17">
      <g>
       <use xlink:href="#me7cf424be9" x="372.47784" y="268.845625" style="stroke: #000000; stroke-width: 0.6"/>
      </g>
     </g>
    </g>
    <g id="xtick_18">
     <g id="line2d_18">
      <g>
       <use xlink:href="#me7cf424be9" x="385.609463" y="268.845625" style="stroke: #000000; stroke-width: 0.6"/>
      </g>
     </g>
    </g>
    <g id="xtick_19">
     <g id="line2d_19">
      <g>
       <use xlink:href="#me7cf424be9" x="396.712093" y="268.845625" style="stroke: #000000; stroke-width: 0.6"/>
      </g>
     </g>
    </g>
    <g id="xtick_20">
     <g id="line2d_20">
      <g>
       <use xlink:href="#me7cf424be9" x="406.329627" y="268.845625" style="stroke: #000000; stroke-width: 0.6"/>
      </g>
     </g>
    </g>
    <g id="xtick_21">
     <g id="line2d_21">
      <g>
       <use xlink:href="#me7cf424be9" x="414.812894" y="268.845625" style="stroke: #000000; stroke-width: 0.6"/>
      </g>
     </g>
    </g>
    <g id="xtick_22">
     <g id="line2d_22">
      <g>
       <use xlink:href="#me7cf424be9" x="472.32503" y="268.845625" style="stroke: #000000; stroke-width: 0.6"/>
      </g>
     </g>
    </g>
    <g id="xtick_23">
     <g id="line2d_23">
      <g>
       <use xlink:href="#me7cf424be9" x="501.528461" y="268.845625" style="stroke: #000000; stroke-width: 0.6"/>
      </g>
     </g>
    </g>
    <g id="xtick_24">
     <g id="line2d_24">
      <g>
       <use xlink:href="#me7cf424be9" x="522.248625" y="268.845625" style="stroke: #000000; stroke-width: 0.6"/>
      </g>
     </g>
    </g>
    <g id="xtick_25">
     <g id="line2d_25">
      <g>
       <use xlink:href="#me7cf424be9" x="538.320433" y="268.845625" style="stroke: #000000; stroke-width: 0.6"/>
      </g>
     </g>
    </g>
    <g id="xtick_26">
     <g id="line2d_26">
      <g>
       <use xlink:href="#me7cf424be9" x="551.452056" y="268.845625" style="stroke: #000000; stroke-width: 0.6"/>
      </g>
     </g>
    </g>
    <g id="text_4">
     <!-- L-lactate concentration (mM) -->
     <g transform="translate(198.35 305.5525)scale(0.16 -0.16)">
      <defs>
       <path id="DejaVuSans-4c" d="M 628 4666 
L 1259 4666 
L 1259 531 
L 3531 531 
L 3531 0 
L 628 0 
L 628 4666 
z
" transform="scale(0.015625)"/>
       <path id="DejaVuSans-2d" d="M 313 2009 
L 1997 2009 
L 1997 1497 
L 313 1497 
L 313 2009 
z
" transform="scale(0.015625)"/>
       <path id="DejaVuSans-6c" d="M 603 4863 
L 1178 4863 
L 1178 0 
L 603 0 
L 603 4863 
z
" transform="scale(0.015625)"/>
       <path id="DejaVuSans-61" d="M 2194 1759 
Q 1497 1759 1228 1600 
Q 959 1441 959 1056 
Q 959 750 1161 570 
Q 1363 391 1709 391 
Q 2188 391 2477 730 
Q 2766 1069 2766 1631 
L 2766 1759 
L 2194 1759 
z
M 3341 1997 
L 3341 0 
L 2766 0 
L 2766 531 
Q 2569 213 2275 61 
Q 1981 -91 1556 -91 
Q 1019 -91 701 211 
Q 384 513 384 1019 
Q 384 1609 779 1909 
Q 1175 2209 1959 2209 
L 2766 2209 
L 2766 2266 
Q 2766 2663 2505 2880 
Q 2244 3097 1772 3097 
Q 1472 3097 1187 3025 
Q 903 2953 641 2809 
L 641 3341 
Q 956 3463 1253 3523 
Q 1550 3584 1831 3584 
Q 2591 3584 2966 3190 
Q 3341 2797 3341 1997 
z
" transform="scale(0.015625)"/>
       <path id="DejaVuSans-63" d="M 3122 3366 
L 3122 2828 
Q 2878 2963 2633 3030 
Q 2388 3097 2138 3097 
Q 1578 3097 1268 2742 
Q 959 2388 959 1747 
Q 959 1106 1268 751 
Q 1578 397 2138 397 
Q 2388 397 2633 464 
Q 2878 531 3122 666 
L 3122 134 
Q 2881 22 2623 -34 
Q 2366 -91 2075 -91 
Q 1284 -91 818 406 
Q 353 903 353 1747 
Q 353 2603 823 3093 
Q 1294 3584 2113 3584 
Q 2378 3584 2631 3529 
Q 2884 3475 3122 3366 
z
" transform="scale(0.015625)"/>
       <path id="DejaVuSans-74" d="M 1172 4494 
L 1172 3500 
L 2356 3500 
L 2356 3053 
L 1172 3053 
L 1172 1153 
Q 1172 725 1289 603 
Q 1406 481 1766 481 
L 2356 481 
L 2356 0 
L 1766 0 
Q 1100 0 847 248 
Q 594 497 594 1153 
L 594 3053 
L 172 3053 
L 172 3500 
L 594 3500 
L 594 4494 
L 1172 4494 
z
" transform="scale(0.015625)"/>
       <path id="DejaVuSans-65" d="M 3597 1894 
L 3597 1613 
L 953 1613 
Q 991 1019 1311 708 
Q 1631 397 2203 397 
Q 2534 397 2845 478 
Q 3156 559 3463 722 
L 3463 178 
Q 3153 47 2828 -22 
Q 2503 -91 2169 -91 
Q 1331 -91 842 396 
Q 353 884 353 1716 
Q 353 2575 817 3079 
Q 1281 3584 2069 3584 
Q 2775 3584 3186 3129 
Q 3597 2675 3597 1894 
z
M 3022 2063 
Q 3016 2534 2758 2815 
Q 2500 3097 2075 3097 
Q 1594 3097 1305 2825 
Q 1016 2553 972 2059 
L 3022 2063 
z
" transform="scale(0.015625)"/>
       <path id="DejaVuSans-20" transform="scale(0.015625)"/>
       <path id="DejaVuSans-6f" d="M 1959 3097 
Q 1497 3097 1228 2736 
Q 959 2375 959 1747 
Q 959 1119 1226 758 
Q 1494 397 1959 397 
Q 2419 397 2687 759 
Q 2956 1122 2956 1747 
Q 2956 2369 2687 2733 
Q 2419 3097 1959 3097 
z
M 1959 3584 
Q 2709 3584 3137 3096 
Q 3566 2609 3566 1747 
Q 3566 888 3137 398 
Q 2709 -91 1959 -91 
Q 1206 -91 779 398 
Q 353 888 353 1747 
Q 353 2609 779 3096 
Q 1206 3584 1959 3584 
z
" transform="scale(0.015625)"/>
       <path id="DejaVuSans-6e" d="M 3513 2113 
L 3513 0 
L 2938 0 
L 2938 2094 
Q 2938 2591 2744 2837 
Q 2550 3084 2163 3084 
Q 1697 3084 1428 2787 
Q 1159 2491 1159 1978 
L 1159 0 
L 581 0 
L 581 3500 
L 1159 3500 
L 1159 2956 
Q 1366 3272 1645 3428 
Q 1925 3584 2291 3584 
Q 2894 3584 3203 3211 
Q 3513 2838 3513 2113 
z
" transform="scale(0.015625)"/>
       <path id="DejaVuSans-72" d="M 2631 2963 
Q 2534 3019 2420 3045 
Q 2306 3072 2169 3072 
Q 1681 3072 1420 2755 
Q 1159 2438 1159 1844 
L 1159 0 
L 581 0 
L 581 3500 
L 1159 3500 
L 1159 2956 
Q 1341 3275 1631 3429 
Q 1922 3584 2338 3584 
Q 2397 3584 2469 3576 
Q 2541 3569 2628 3553 
L 2631 2963 
z
" transform="scale(0.015625)"/>
       <path id="DejaVuSans-69" d="M 603 3500 
L 1178 3500 
L 1178 0 
L 603 0 
L 603 3500 
z
M 603 4863 
L 1178 4863 
L 1178 4134 
L 603 4134 
L 603 4863 
z
" transform="scale(0.015625)"/>
       <path id="DejaVuSans-28" d="M 1984 4856 
Q 1566 4138 1362 3434 
Q 1159 2731 1159 2009 
Q 1159 1288 1364 580 
Q 1569 -128 1984 -844 
L 1484 -844 
Q 1016 -109 783 600 
Q 550 1309 550 2009 
Q 550 2706 781 3412 
Q 1013 4119 1484 4856 
L 1984 4856 
z
" transform="scale(0.015625)"/>
       <path id="DejaVuSans-6d" d="M 3328 2828 
Q 3544 3216 3844 3400 
Q 4144 3584 4550 3584 
Q 5097 3584 5394 3201 
Q 5691 2819 5691 2113 
L 5691 0 
L 5113 0 
L 5113 2094 
Q 5113 2597 4934 2840 
Q 4756 3084 4391 3084 
Q 3944 3084 3684 2787 
Q 3425 2491 3425 1978 
L 3425 0 
L 2847 0 
L 2847 2094 
Q 2847 2600 2669 2842 
Q 2491 3084 2119 3084 
Q 1678 3084 1418 2786 
Q 1159 2488 1159 1978 
L 1159 0 
L 581 0 
L 581 3500 
L 1159 3500 
L 1159 2956 
Q 1356 3278 1631 3431 
Q 1906 3584 2284 3584 
Q 2666 3584 2933 3390 
Q 3200 3197 3328 2828 
z
" transform="scale(0.015625)"/>
       <path id="DejaVuSans-4d" d="M 628 4666 
L 1569 4666 
L 2759 1491 
L 3956 4666 
L 4897 4666 
L 4897 0 
L 4281 0 
L 4281 4097 
L 3078 897 
L 2444 897 
L 1241 4097 
L 1241 0 
L 628 0 
L 628 4666 
z
" transform="scale(0.015625)"/>
       <path id="DejaVuSans-29" d="M 513 4856 
L 1013 4856 
Q 1481 4119 1714 3412 
Q 1947 2706 1947 2009 
Q 1947 1309 1714 600 
Q 1481 -109 1013 -844 
L 513 -844 
Q 928 -128 1133 580 
Q 1338 1288 1338 2009 
Q 1338 2731 1133 3434 
Q 928 4138 513 4856 
z
" transform="scale(0.015625)"/>
      </defs>
      <use xlink:href="#DejaVuSans-4c"/>
      <use xlink:href="#DejaVuSans-2d" x="53.962891"/>
      <use xlink:href="#DejaVuSans-6c" x="90.046875"/>
      <use xlink:href="#DejaVuSans-61" x="117.830078"/>
      <use xlink:href="#DejaVuSans-63" x="179.109375"/>
      <use xlink:href="#DejaVuSans-74" x="234.089844"/>
      <use xlink:href="#DejaVuSans-61" x="273.298828"/>
      <use xlink:href="#DejaVuSans-74" x="334.578125"/>
      <use xlink:href="#DejaVuSans-65" x="373.787109"/>
      <use xlink:href="#DejaVuSans-20" x="435.310547"/>
      <use xlink:href="#DejaVuSans-63" x="467.097656"/>
      <use xlink:href="#DejaVuSans-6f" x="522.078125"/>
      <use xlink:href="#DejaVuSans-6e" x="583.259766"/>
      <use xlink:href="#DejaVuSans-63" x="646.638672"/>
      <use xlink:href="#DejaVuSans-65" x="701.619141"/>
      <use xlink:href="#DejaVuSans-6e" x="763.142578"/>
      <use xlink:href="#DejaVuSans-74" x="826.521484"/>
      <use xlink:href="#DejaVuSans-72" x="865.730469"/>
      <use xlink:href="#DejaVuSans-61" x="906.84375"/>
      <use xlink:href="#DejaVuSans-74" x="968.123047"/>
      <use xlink:href="#DejaVuSans-69" x="1007.332031"/>
      <use xlink:href="#DejaVuSans-6f" x="1035.115234"/>
      <use xlink:href="#DejaVuSans-6e" x="1096.296875"/>
      <use xlink:href="#DejaVuSans-20" x="1159.675781"/>
      <use xlink:href="#DejaVuSans-28" x="1191.462891"/>
      <use xlink:href="#DejaVuSans-6d" x="1230.476562"/>
      <use xlink:href="#DejaVuSans-4d" x="1327.888672"/>
      <use xlink:href="#DejaVuSans-29" x="1414.167969"/>
     </g>
    </g>
   </g>
   <g id="matplotlib.axis_2">
    <g id="ytick_1">
     <g id="line2d_27">
      <defs>
       <path id="mc85ccd75c6" d="M 0 0 
L -3.5 0 
" style="stroke: #000000; stroke-width: 0.8"/>
      </defs>
      <g>
       <use xlink:href="#mc85ccd75c6" x="68.3275" y="268.845625" style="stroke: #000000; stroke-width: 0.8"/>
      </g>
     </g>
     <g id="text_5">
      <!-- 0 -->
      <g transform="translate(52.42 274.164531)scale(0.14 -0.14)">
       <use xlink:href="#DejaVuSans-30"/>
      </g>
     </g>
    </g>
    <g id="ytick_2">
     <g id="line2d_28">
      <g>
       <use xlink:href="#mc85ccd75c6" x="68.3275" y="230.00067" style="stroke: #000000; stroke-width: 0.8"/>
      </g>
     </g>
     <g id="text_6">
      <!-- 100 -->
      <g transform="translate(34.605 235.319576)scale(0.14 -0.14)">
       <use xlink:href="#DejaVuSans-31"/>
       <use xlink:href="#DejaVuSans-30" x="63.623047"/>
       <use xlink:href="#DejaVuSans-30" x="127.246094"/>
      </g>
     </g>
    </g>
    <g id="ytick_3">
     <g id="line2d_29">
      <g>
       <use xlink:href="#mc85ccd75c6" x="68.3275" y="191.155714" style="stroke: #000000; stroke-width: 0.8"/>
      </g>
     </g>
     <g id="text_7">
      <!-- 200 -->
      <g transform="translate(34.605 196.47462)scale(0.14 -0.14)">
       <defs>
        <path id="DejaVuSans-32" d="M 1228 531 
L 3431 531 
L 3431 0 
L 469 0 
L 469 531 
Q 828 903 1448 1529 
Q 2069 2156 2228 2338 
Q 2531 2678 2651 2914 
Q 2772 3150 2772 3378 
Q 2772 3750 2511 3984 
Q 2250 4219 1831 4219 
Q 1534 4219 1204 4116 
Q 875 4013 500 3803 
L 500 4441 
Q 881 4594 1212 4672 
Q 1544 4750 1819 4750 
Q 2544 4750 2975 4387 
Q 3406 4025 3406 3419 
Q 3406 3131 3298 2873 
Q 3191 2616 2906 2266 
Q 2828 2175 2409 1742 
Q 1991 1309 1228 531 
z
" transform="scale(0.015625)"/>
       </defs>
       <use xlink:href="#DejaVuSans-32"/>
       <use xlink:href="#DejaVuSans-30" x="63.623047"/>
       <use xlink:href="#DejaVuSans-30" x="127.246094"/>
      </g>
     </g>
    </g>
    <g id="ytick_4">
     <g id="line2d_30">
      <g>
       <use xlink:href="#mc85ccd75c6" x="68.3275" y="152.310759" style="stroke: #000000; stroke-width: 0.8"/>
      </g>
     </g>
     <g id="text_8">
      <!-- 300 -->
      <g transform="translate(34.605 157.629665)scale(0.14 -0.14)">
       <defs>
        <path id="DejaVuSans-33" d="M 2597 2516 
Q 3050 2419 3304 2112 
Q 3559 1806 3559 1356 
Q 3559 666 3084 287 
Q 2609 -91 1734 -91 
Q 1441 -91 1130 -33 
Q 819 25 488 141 
L 488 750 
Q 750 597 1062 519 
Q 1375 441 1716 441 
Q 2309 441 2620 675 
Q 2931 909 2931 1356 
Q 2931 1769 2642 2001 
Q 2353 2234 1838 2234 
L 1294 2234 
L 1294 2753 
L 1863 2753 
Q 2328 2753 2575 2939 
Q 2822 3125 2822 3475 
Q 2822 3834 2567 4026 
Q 2313 4219 1838 4219 
Q 1578 4219 1281 4162 
Q 984 4106 628 3988 
L 628 4550 
Q 988 4650 1302 4700 
Q 1616 4750 1894 4750 
Q 2613 4750 3031 4423 
Q 3450 4097 3450 3541 
Q 3450 3153 3228 2886 
Q 3006 2619 2597 2516 
z
" transform="scale(0.015625)"/>
       </defs>
       <use xlink:href="#DejaVuSans-33"/>
       <use xlink:href="#DejaVuSans-30" x="63.623047"/>
       <use xlink:href="#DejaVuSans-30" x="127.246094"/>
      </g>
     </g>
    </g>
    <g id="ytick_5">
     <g id="line2d_31">
      <g>
       <use xlink:href="#mc85ccd75c6" x="68.3275" y="113.465803" style="stroke: #000000; stroke-width: 0.8"/>
      </g>
     </g>
     <g id="text_9">
      <!-- 400 -->
      <g transform="translate(34.605 118.784709)scale(0.14 -0.14)">
       <defs>
        <path id="DejaVuSans-34" d="M 2419 4116 
L 825 1625 
L 2419 1625 
L 2419 4116 
z
M 2253 4666 
L 3047 4666 
L 3047 1625 
L 3713 1625 
L 3713 1100 
L 3047 1100 
L 3047 0 
L 2419 0 
L 2419 1100 
L 313 1100 
L 313 1709 
L 2253 4666 
z
" transform="scale(0.015625)"/>
       </defs>
       <use xlink:href="#DejaVuSans-34"/>
       <use xlink:href="#DejaVuSans-30" x="63.623047"/>
       <use xlink:href="#DejaVuSans-30" x="127.246094"/>
      </g>
     </g>
    </g>
    <g id="ytick_6">
     <g id="line2d_32">
      <g>
       <use xlink:href="#mc85ccd75c6" x="68.3275" y="74.620848" style="stroke: #000000; stroke-width: 0.8"/>
      </g>
     </g>
     <g id="text_10">
      <!-- 500 -->
      <g transform="translate(34.605 79.939754)scale(0.14 -0.14)">
       <defs>
        <path id="DejaVuSans-35" d="M 691 4666 
L 3169 4666 
L 3169 4134 
L 1269 4134 
L 1269 2991 
Q 1406 3038 1543 3061 
Q 1681 3084 1819 3084 
Q 2600 3084 3056 2656 
Q 3513 2228 3513 1497 
Q 3513 744 3044 326 
Q 2575 -91 1722 -91 
Q 1428 -91 1123 -41 
Q 819 9 494 109 
L 494 744 
Q 775 591 1075 516 
Q 1375 441 1709 441 
Q 2250 441 2565 725 
Q 2881 1009 2881 1497 
Q 2881 1984 2565 2268 
Q 2250 2553 1709 2553 
Q 1456 2553 1204 2497 
Q 953 2441 691 2322 
L 691 4666 
z
" transform="scale(0.015625)"/>
       </defs>
       <use xlink:href="#DejaVuSans-35"/>
       <use xlink:href="#DejaVuSans-30" x="63.623047"/>
       <use xlink:href="#DejaVuSans-30" x="127.246094"/>
      </g>
     </g>
    </g>
    <g id="ytick_7">
     <g id="line2d_33">
      <g>
       <use xlink:href="#mc85ccd75c6" x="68.3275" y="35.775892" style="stroke: #000000; stroke-width: 0.8"/>
      </g>
     </g>
     <g id="text_11">
      <!-- 600 -->
      <g transform="translate(34.605 41.094799)scale(0.14 -0.14)">
       <defs>
        <path id="DejaVuSans-36" d="M 2113 2584 
Q 1688 2584 1439 2293 
Q 1191 2003 1191 1497 
Q 1191 994 1439 701 
Q 1688 409 2113 409 
Q 2538 409 2786 701 
Q 3034 994 3034 1497 
Q 3034 2003 2786 2293 
Q 2538 2584 2113 2584 
z
M 3366 4563 
L 3366 3988 
Q 3128 4100 2886 4159 
Q 2644 4219 2406 4219 
Q 1781 4219 1451 3797 
Q 1122 3375 1075 2522 
Q 1259 2794 1537 2939 
Q 1816 3084 2150 3084 
Q 2853 3084 3261 2657 
Q 3669 2231 3669 1497 
Q 3669 778 3244 343 
Q 2819 -91 2113 -91 
Q 1303 -91 875 529 
Q 447 1150 447 2328 
Q 447 3434 972 4092 
Q 1497 4750 2381 4750 
Q 2619 4750 2861 4703 
Q 3103 4656 3366 4563 
z
" transform="scale(0.015625)"/>
       </defs>
       <use xlink:href="#DejaVuSans-36"/>
       <use xlink:href="#DejaVuSans-30" x="63.623047"/>
       <use xlink:href="#DejaVuSans-30" x="127.246094"/>
      </g>
     </g>
    </g>
    <g id="text_12">
     <!-- Fluorescence/OD600 (a.u.) -->
     <g transform="translate(27.2775 248.947812)rotate(-90)scale(0.16 -0.16)">
      <defs>
       <path id="DejaVuSans-46" d="M 628 4666 
L 3309 4666 
L 3309 4134 
L 1259 4134 
L 1259 2759 
L 3109 2759 
L 3109 2228 
L 1259 2228 
L 1259 0 
L 628 0 
L 628 4666 
z
" transform="scale(0.015625)"/>
       <path id="DejaVuSans-75" d="M 544 1381 
L 544 3500 
L 1119 3500 
L 1119 1403 
Q 1119 906 1312 657 
Q 1506 409 1894 409 
Q 2359 409 2629 706 
Q 2900 1003 2900 1516 
L 2900 3500 
L 3475 3500 
L 3475 0 
L 2900 0 
L 2900 538 
Q 2691 219 2414 64 
Q 2138 -91 1772 -91 
Q 1169 -91 856 284 
Q 544 659 544 1381 
z
M 1991 3584 
L 1991 3584 
z
" transform="scale(0.015625)"/>
       <path id="DejaVuSans-73" d="M 2834 3397 
L 2834 2853 
Q 2591 2978 2328 3040 
Q 2066 3103 1784 3103 
Q 1356 3103 1142 2972 
Q 928 2841 928 2578 
Q 928 2378 1081 2264 
Q 1234 2150 1697 2047 
L 1894 2003 
Q 2506 1872 2764 1633 
Q 3022 1394 3022 966 
Q 3022 478 2636 193 
Q 2250 -91 1575 -91 
Q 1294 -91 989 -36 
Q 684 19 347 128 
L 347 722 
Q 666 556 975 473 
Q 1284 391 1588 391 
Q 1994 391 2212 530 
Q 2431 669 2431 922 
Q 2431 1156 2273 1281 
Q 2116 1406 1581 1522 
L 1381 1569 
Q 847 1681 609 1914 
Q 372 2147 372 2553 
Q 372 3047 722 3315 
Q 1072 3584 1716 3584 
Q 2034 3584 2315 3537 
Q 2597 3491 2834 3397 
z
" transform="scale(0.015625)"/>
       <path id="DejaVuSans-2f" d="M 1625 4666 
L 2156 4666 
L 531 -594 
L 0 -594 
L 1625 4666 
z
" transform="scale(0.015625)"/>
       <path id="DejaVuSans-4f" d="M 2522 4238 
Q 1834 4238 1429 3725 
Q 1025 3213 1025 2328 
Q 1025 1447 1429 934 
Q 1834 422 2522 422 
Q 3209 422 3611 934 
Q 4013 1447 4013 2328 
Q 4013 3213 3611 3725 
Q 3209 4238 2522 4238 
z
M 2522 4750 
Q 3503 4750 4090 4092 
Q 4678 3434 4678 2328 
Q 4678 1225 4090 567 
Q 3503 -91 2522 -91 
Q 1538 -91 948 565 
Q 359 1222 359 2328 
Q 359 3434 948 4092 
Q 1538 4750 2522 4750 
z
" transform="scale(0.015625)"/>
       <path id="DejaVuSans-44" d="M 1259 4147 
L 1259 519 
L 2022 519 
Q 2988 519 3436 956 
Q 3884 1394 3884 2338 
Q 3884 3275 3436 3711 
Q 2988 4147 2022 4147 
L 1259 4147 
z
M 628 4666 
L 1925 4666 
Q 3281 4666 3915 4102 
Q 4550 3538 4550 2338 
Q 4550 1131 3912 565 
Q 3275 0 1925 0 
L 628 0 
L 628 4666 
z
" transform="scale(0.015625)"/>
       <path id="DejaVuSans-2e" d="M 684 794 
L 1344 794 
L 1344 0 
L 684 0 
L 684 794 
z
" transform="scale(0.015625)"/>
      </defs>
      <use xlink:href="#DejaVuSans-46"/>
      <use xlink:href="#DejaVuSans-6c" x="57.519531"/>
      <use xlink:href="#DejaVuSans-75" x="85.302734"/>
      <use xlink:href="#DejaVuSans-6f" x="148.681641"/>
      <use xlink:href="#DejaVuSans-72" x="209.863281"/>
      <use xlink:href="#DejaVuSans-65" x="248.726562"/>
      <use xlink:href="#DejaVuSans-73" x="310.25"/>
      <use xlink:href="#DejaVuSans-63" x="362.349609"/>
      <use xlink:href="#DejaVuSans-65" x="417.330078"/>
      <use xlink:href="#DejaVuSans-6e" x="478.853516"/>
      <use xlink:href="#DejaVuSans-63" x="542.232422"/>
      <use xlink:href="#DejaVuSans-65" x="597.212891"/>
      <use xlink:href="#DejaVuSans-2f" x="658.736328"/>
      <use xlink:href="#DejaVuSans-4f" x="692.427734"/>
      <use xlink:href="#DejaVuSans-44" x="771.138672"/>
      <use xlink:href="#DejaVuSans-36" x="848.140625"/>
      <use xlink:href="#DejaVuSans-30" x="911.763672"/>
      <use xlink:href="#DejaVuSans-30" x="975.386719"/>
      <use xlink:href="#DejaVuSans-20" x="1039.009766"/>
      <use xlink:href="#DejaVuSans-28" x="1070.796875"/>
      <use xlink:href="#DejaVuSans-61" x="1109.810547"/>
      <use xlink:href="#DejaVuSans-2e" x="1171.089844"/>
      <use xlink:href="#DejaVuSans-75" x="1202.876953"/>
      <use xlink:href="#DejaVuSans-2e" x="1266.255859"/>
      <use xlink:href="#DejaVuSans-29" x="1298.042969"/>
     </g>
    </g>
   </g>
   <g id="line2d_34">
    <path d="M 90.71625 162.561169 
L 99.854515 162.486562 
L 108.992781 162.390453 
L 118.131046 162.266657 
L 127.269311 162.107223 
L 136.407577 161.901942 
L 145.545842 161.637693 
L 154.684107 161.297666 
L 163.822372 160.860311 
L 172.960638 160.298089 
L 182.098903 159.575848 
L 191.237168 158.648846 
L 200.375434 157.460358 
L 209.513699 155.938781 
L 218.651964 153.994422 
L 227.79023 151.51615 
L 236.928495 148.368792 
L 246.06676 144.393091 
L 255.205026 139.411888 
L 264.343291 133.24907 
L 273.481556 125.770455 
L 282.619821 116.953377 
L 291.758087 106.975727 
L 300.896352 96.279817 
L 310.034617 85.53817 
L 319.172883 75.485738 
L 328.311148 66.6958 
L 337.449413 59.442515 
L 346.587679 53.714975 
L 355.725944 49.325197 
L 364.864209 46.020475 
L 374.002474 43.555188 
L 383.14074 41.721987 
L 392.279005 40.358122 
L 401.41727 39.340702 
L 410.555536 38.578817 
L 419.693801 38.005801 
L 428.832066 37.572926 
L 437.970332 37.244546 
L 447.108597 36.994475 
L 456.246862 36.803399 
L 465.385128 36.656967 
L 474.523393 36.544488 
L 483.661658 36.457905 
L 492.799923 36.391149 
L 501.938189 36.339612 
L 511.076454 36.299781 
L 520.214719 36.268969 
L 529.352985 36.245127 
L 538.49125 36.22665 
" clip-path="url(#p83065b0b4e)" style="fill: none; stroke: #fba649; stroke-width: 2; stroke-linecap: square"/>
   </g>
   <g id="line2d_35">
    <defs>
     <path id="m88d02861ac" d="M 0 3 
C 0.795609 3 1.55874 2.683901 2.12132 2.12132 
C 2.683901 1.55874 3 0.795609 3 0 
C 3 -0.795609 2.683901 -1.55874 2.12132 -2.12132 
C 1.55874 -2.683901 0.795609 -3 0 -3 
C -0.795609 -3 -1.55874 -2.683901 -2.12132 -2.12132 
C -2.683901 -1.55874 -3 -0.795609 -3 0 
C -3 0.795609 -2.683901 1.55874 -2.12132 2.12132 
C -1.55874 2.683901 -0.795609 3 0 3 
z
" style="stroke: #ff0000"/>
    </defs>
    <g clip-path="url(#p83065b0b4e)">
     <use xlink:href="#m88d02861ac" x="207.849637" y="156.244443" style="fill: #ff0000; stroke: #ff0000"/>
     <use xlink:href="#m88d02861ac" x="298.268108" y="99.393909" style="fill: #ff0000; stroke: #ff0000"/>
     <use xlink:href="#m88d02861ac" x="378.705363" y="42.543376" style="fill: #ff0000; stroke: #ff0000"/>
    </g>
   </g>
   <g id="line2d_36">
    <path d="M 90.71625 162.406491 
L 99.854515 162.331517 
L 108.992781 162.234932 
L 118.131046 162.110521 
L 127.269311 161.950297 
L 136.407577 161.743988 
L 145.545842 161.478422 
L 154.684107 161.136683 
L 163.822372 160.697117 
L 172.960638 160.132029 
L 182.098903 159.40607 
L 191.237168 158.474242 
L 200.375434 157.279476 
L 209.513699 155.749723 
L 218.651964 153.794694 
L 227.79023 151.302506 
L 236.928495 148.137014 
L 246.06676 144.137811 
L 255.205026 139.126474 
L 264.343291 132.925825 
L 273.481556 125.401472 
L 282.619821 116.532438 
L 291.758087 106.501298 
L 300.896352 95.758108 
L 310.034617 84.983907 
L 319.172883 74.918912 
L 328.311148 66.135711 
L 337.449413 58.902894 
L 346.587679 53.20255 
L 355.725944 48.841048 
L 364.864209 45.562304 
L 374.002474 43.119241 
L 383.14074 41.304247 
L 392.279005 39.954908 
L 401.41727 38.948892 
L 410.555536 38.195875 
L 419.693801 37.629718 
L 428.832066 37.202139 
L 437.970332 36.877835 
L 447.108597 36.630909 
L 456.246862 36.442258 
L 465.385128 36.297698 
L 474.523393 36.186665 
L 483.661658 36.101199 
L 492.799923 36.035304 
L 501.938189 35.984436 
L 511.076454 35.945124 
L 520.214719 35.914717 
L 529.352985 35.891176 
L 538.49125 35.872953 
" clip-path="url(#p83065b0b4e)" style="fill: none; stroke: #45c4af; stroke-width: 2; stroke-linecap: square"/>
   </g>
   <g id="line2d_37">
    <g clip-path="url(#p83065b0b4e)">
     <use xlink:href="#m88d02861ac" x="207.723306" y="156.079814" style="fill: #ff0000; stroke: #ff0000"/>
     <use xlink:href="#m88d02861ac" x="298.05312" y="99.139722" style="fill: #ff0000; stroke: #ff0000"/>
     <use xlink:href="#m88d02861ac" x="378.290369" y="42.19963" style="fill: #ff0000; stroke: #ff0000"/>
    </g>
   </g>
   <g id="line2d_38">
    <path d="M 90.71625 162.135868 
L 99.854515 162.060254 
L 108.992781 161.96284 
L 118.131046 161.837359 
L 127.269311 161.675752 
L 136.407577 161.467665 
L 145.545842 161.199792 
L 154.684107 160.855077 
L 163.822372 160.411658 
L 172.960638 159.841579 
L 182.098903 159.109151 
L 191.237168 158.168921 
L 200.375434 156.963234 
L 209.513699 155.419257 
L 218.651964 153.445688 
L 227.79023 150.92932 
L 236.928495 147.732371 
L 246.06676 143.692431 
L 255.205026 138.628946 
L 264.343291 132.362994 
L 273.481556 124.759946 
L 282.619821 115.801965 
L 291.758087 105.679986 
L 300.896352 94.857639 
L 310.034617 84.030582 
L 319.172883 73.947619 
L 328.311148 65.179545 
L 337.449413 57.984857 
L 346.587679 52.333402 
L 355.725944 48.021897 
L 364.864209 44.788649 
L 374.002474 42.384255 
L 383.14074 40.600798 
L 392.279005 39.276539 
L 401.41727 38.290163 
L 410.555536 37.552392 
L 419.693801 36.998014 
L 428.832066 36.579512 
L 437.970332 36.262202 
L 447.108597 36.020661 
L 456.246862 35.836162 
L 465.385128 35.694805 
L 474.523393 35.586243 
L 483.661658 35.502684 
L 492.799923 35.438279 
L 501.938189 35.38855 
L 511.076454 35.350119 
L 520.214719 35.320404 
L 529.352985 35.297394 
L 538.49125 35.279578 
" clip-path="url(#p83065b0b4e)" style="fill: none; stroke: #ec6c5f; stroke-width: 2; stroke-linecap: square"/>
   </g>
   <g id="line2d_39">
    <g clip-path="url(#p83065b0b4e)">
     <use xlink:href="#m88d02861ac" x="207.499035" y="155.793054" style="fill: #ff0000; stroke: #ff0000"/>
     <use xlink:href="#m88d02861ac" x="297.67952" y="98.707723" style="fill: #ff0000; stroke: #ff0000"/>
     <use xlink:href="#m88d02861ac" x="377.575173" y="41.622393" style="fill: #ff0000; stroke: #ff0000"/>
    </g>
   </g>
   <g id="line2d_40">
    <path d="M 90.71625 161.668002 
L 99.854515 161.591283 
L 108.992781 161.492447 
L 118.131046 161.365131 
L 127.269311 161.201157 
L 136.407577 160.990009 
L 145.545842 160.718185 
L 154.684107 160.368361 
L 163.822372 159.918332 
L 172.960638 159.339699 
L 182.098903 158.596177 
L 191.237168 157.641554 
L 200.375434 156.41715 
L 209.513699 154.84883 
L 218.651964 152.843557 
L 227.79023 150.2859 
L 236.928495 147.035296 
L 246.06676 142.926021 
L 255.205026 137.77403 
L 264.343291 131.397671 
L 273.481556 123.662343 
L 282.619821 114.556135 
L 291.758087 104.284903 
L 300.896352 93.335693 
L 310.034617 82.428571 
L 319.172883 72.325574 
L 328.311148 63.592595 
L 337.449413 56.469817 
L 346.587679 50.906038 
L 355.725944 46.682044 
L 364.864209 43.527244 
L 374.002474 41.188859 
L 383.14074 39.45886 
L 392.279005 38.17689 
L 401.41727 37.22351 
L 410.555536 36.511283 
L 419.693801 35.976593 
L 428.832066 35.573247 
L 437.970332 35.267594 
L 447.108597 35.035025 
L 456.246862 34.857437 
L 465.385128 34.721406 
L 474.523393 34.616962 
L 483.661658 34.536587 
L 492.799923 34.474629 
L 501.938189 34.426803 
L 511.076454 34.389847 
L 520.214719 34.361262 
L 529.352985 34.339148 
L 538.49125 34.322009 
" clip-path="url(#p83065b0b4e)" style="fill: none; stroke: #4c8b30; stroke-width: 2; stroke-linecap: square"/>
   </g>
   <g id="line2d_41">
    <g clip-path="url(#p83065b0b4e)">
     <use xlink:href="#m88d02861ac" x="207.103599" y="155.300702" style="fill: #ff0000; stroke: #ff0000"/>
     <use xlink:href="#m88d02861ac" x="297.04187" y="97.995006" style="fill: #ff0000; stroke: #ff0000"/>
     <use xlink:href="#m88d02861ac" x="376.369426" y="40.689309" style="fill: #ff0000; stroke: #ff0000"/>
    </g>
   </g>
   <g id="line2d_42">
    <path d="M 90.71625 160.874988 
L 99.854515 160.796422 
L 108.992781 160.695202 
L 118.131046 160.564811 
L 127.269311 160.396866 
L 136.407577 160.180593 
L 145.545842 159.90215 
L 154.684107 159.54377 
L 163.822372 159.082683 
L 172.960638 158.489728 
L 182.098903 157.727657 
L 191.237168 156.748975 
L 200.375434 155.493336 
L 209.513699 153.884412 
L 218.651964 151.826335 
L 227.79023 149.200054 
L 236.928495 145.86048 
L 246.06676 141.636622 
L 255.205026 136.33902 
L 264.343291 129.782169 
L 273.481556 121.832609 
L 282.619821 112.489822 
L 291.758087 101.986015 
L 300.896352 90.847758 
L 310.034617 79.833929 
L 319.172883 69.724385 
L 328.311148 61.072369 
L 337.449413 54.084997 
L 346.587679 48.676125 
L 355.725944 44.60163 
L 364.864209 41.57802 
L 374.002474 39.34843 
L 383.14074 37.705621 
L 392.279005 36.49211 
L 401.41727 35.591853 
L 410.555536 34.920571 
L 419.693801 34.41735 
L 428.832066 34.038163 
L 437.970332 33.751065 
L 447.108597 33.532751 
L 456.246862 33.366136 
L 465.385128 33.238562 
L 474.523393 33.140631 
L 483.661658 33.065293 
L 492.799923 33.007232 
L 501.938189 32.962418 
L 511.076454 32.927791 
L 520.214719 32.901012 
L 529.352985 32.880288 
L 538.49125 32.864239 
" clip-path="url(#p83065b0b4e)" style="fill: none; stroke: #641978; stroke-width: 2; stroke-linecap: square"/>
   </g>
   <g id="line2d_43">
    <g clip-path="url(#p83065b0b4e)">
     <use xlink:href="#m88d02861ac" x="206.418383" y="154.474451" style="fill: #ff0000; stroke: #ff0000"/>
     <use xlink:href="#m88d02861ac" x="295.986508" y="96.869613" style="fill: #ff0000; stroke: #ff0000"/>
     <use xlink:href="#m88d02861ac" x="374.406318" y="39.264776" style="fill: #ff0000; stroke: #ff0000"/>
    </g>
   </g>
   <g id="line2d_44">
    <path d="M 90.71625 159.572619 
L 99.854515 159.491069 
L 108.992781 159.385999 
L 118.131046 159.250644 
L 127.269311 159.076294 
L 136.407577 158.851755 
L 145.545842 158.562639 
L 154.684107 158.190471 
L 163.822372 157.711556 
L 172.960638 157.095549 
L 182.098903 156.303633 
L 191.237168 155.286285 
L 200.375434 153.980503 
L 209.513699 152.306519 
L 218.651964 150.164024 
L 227.79023 147.428324 
L 236.928495 143.947433 
L 246.06676 139.54248 
L 255.205026 134.016333 
L 264.343291 127.179004 
L 273.481556 118.901494 
L 282.619821 109.205079 
L 291.758087 98.36753 
L 300.896352 86.979175 
L 310.034617 75.855734 
L 319.172883 65.795077 
L 328.311148 57.319827 
L 337.449413 50.579499 
L 346.587679 45.433434 
L 355.725944 41.602133 
L 364.864209 38.786115 
L 374.002474 36.725376 
L 383.14074 35.216007 
L 392.279005 34.106207 
L 401.41727 33.285811 
L 410.555536 32.675742 
L 419.693801 32.219368 
L 428.832066 31.876029 
L 437.970332 31.616392 
L 447.108597 31.419154 
L 456.246862 31.268725 
L 465.385128 31.153609 
L 474.523393 31.065289 
L 483.661658 30.997353 
L 492.799923 30.945017 
L 501.938189 30.904631 
L 511.076454 30.873428 
L 520.214719 30.849301 
L 529.352985 30.830632 
L 538.49125 30.816174 
" clip-path="url(#p83065b0b4e)" style="fill: none; stroke: #ddcc77; stroke-width: 2; stroke-linecap: square"/>
   </g>
   <g id="line2d_45">
    <g clip-path="url(#p83065b0b4e)">
     <use xlink:href="#m88d02861ac" x="205.274071" y="153.134796" style="fill: #ff0000; stroke: #ff0000"/>
     <use xlink:href="#m88d02861ac" x="294.323399" y="95.194396" style="fill: #ff0000; stroke: #ff0000"/>
     <use xlink:href="#m88d02861ac" x="371.369466" y="37.253996" style="fill: #ff0000; stroke: #ff0000"/>
    </g>
   </g>
   <g id="line2d_46">
    <path d="M 90.71625 157.532943 
L 99.854515 157.446833 
L 108.992781 157.335886 
L 118.131046 157.192948 
L 127.269311 157.008816 
L 136.407577 156.771654 
L 145.545842 156.466244 
L 154.684107 156.07304 
L 163.822372 155.566956 
L 172.960638 154.915831 
L 182.098903 154.078506 
L 191.237168 153.002407 
L 200.375434 151.620584 
L 209.513699 149.848164 
L 218.651964 147.578327 
L 227.79023 144.678222 
L 236.928495 140.986106 
L 246.06676 136.312401 
L 255.205026 130.450496 
L 264.343291 123.207208 
L 273.481556 114.465885 
L 282.619821 104.28806 
L 291.758087 93.026727 
L 300.896352 81.367702 
L 310.034617 70.198901 
L 319.172883 60.322316 
L 328.311148 52.194854 
L 337.449413 45.872923 
L 346.587679 41.139578 
L 355.725944 37.672468 
L 364.864209 35.157329 
L 374.002474 33.335671 
L 383.14074 32.01206 
L 392.279005 31.044827 
L 401.41727 30.333197 
L 410.555536 29.805919 
L 419.693801 29.412562 
L 428.832066 29.11726 
L 437.970332 28.894312 
L 447.108597 28.725152 
L 456.246862 28.596266 
L 465.385128 28.49771 
L 474.523393 28.422137 
L 483.661658 28.364033 
L 492.799923 28.319277 
L 501.938189 28.284758 
L 511.076454 28.258086 
L 520.214719 28.237473 
L 529.352985 28.221525 
L 538.49125 28.209178 
" clip-path="url(#p83065b0b4e)" style="fill: none; stroke: #cc79a7; stroke-width: 2; stroke-linecap: square"/>
   </g>
   <g id="line2d_47">
    <g clip-path="url(#p83065b0b4e)">
     <use xlink:href="#m88d02861ac" x="203.481831" y="151.066754" style="fill: #ff0000; stroke: #ff0000"/>
     <use xlink:href="#m88d02861ac" x="291.880714" y="92.87106" style="fill: #ff0000; stroke: #ff0000"/>
     <use xlink:href="#m88d02861ac" x="367.009085" y="34.675366" style="fill: #ff0000; stroke: #ff0000"/>
    </g>
   </g>
   <g id="line2d_48">
    <path d="M 90.71625 154.544179 
L 99.854515 154.451589 
L 108.992781 154.332291 
L 118.131046 154.178585 
L 127.269311 153.980566 
L 136.407577 153.725493 
L 145.545842 153.396974 
L 154.684107 152.973955 
L 163.822372 152.429391 
L 172.960638 151.728592 
L 182.098903 150.82712 
L 191.237168 149.668175 
L 200.375434 148.179367 
L 209.513699 146.268856 
L 218.651964 143.821049 
L 227.79023 140.692344 
L 236.928495 136.708505 
L 246.06676 131.667124 
L 255.205026 125.352186 
L 264.343291 117.572636 
L 273.481556 108.239415 
L 282.619821 97.483411 
L 291.758087 85.772275 
L 300.896352 73.919111 
L 310.034617 62.882674 
L 319.172883 53.428613 
L 328.311148 45.893418 
L 337.449413 40.20157 
L 346.587679 36.045794 
L 355.725944 33.0637 
L 364.864209 30.935399 
L 374.002474 29.413362 
L 383.14074 28.318216 
L 392.279005 27.523899 
L 401.41727 26.942819 
L 410.555536 26.514145 
L 419.693801 26.195414 
L 428.832066 25.956743 
L 437.970332 25.776902 
L 447.108597 25.640651 
L 456.246862 25.536959 
L 465.385128 25.457741 
L 474.523393 25.397027 
L 483.661658 25.350387 
L 492.799923 25.314475 
L 501.938189 25.286774 
L 511.076454 25.265389 
L 520.214719 25.248857 
L 529.352985 25.236066 
L 538.49125 25.226167 
" clip-path="url(#p83065b0b4e)" style="fill: none; stroke: #fee2c3; stroke-width: 2; stroke-linecap: square"/>
   </g>
   <g id="line2d_49">
    <g clip-path="url(#p83065b0b4e)">
     <use xlink:href="#m88d02861ac" x="200.920406" y="148.078278" style="fill: #ff0000; stroke: #ff0000"/>
     <use xlink:href="#m88d02861ac" x="288.598624" y="89.885173" style="fill: #ff0000; stroke: #ff0000"/>
     <use xlink:href="#m88d02861ac" x="361.247697" y="31.692068" style="fill: #ff0000; stroke: #ff0000"/>
    </g>
   </g>
   <g id="line2d_50">
    <path d="M 90.71625 150.525913 
L 99.854515 150.424916 
L 108.992781 150.294774 
L 118.131046 150.127091 
L 127.269311 149.911054 
L 136.407577 149.632753 
L 145.545842 149.274288 
L 154.684107 148.812656 
L 163.822372 148.218301 
L 172.960638 147.453296 
L 182.098903 146.469056 
L 191.237168 145.203413 
L 200.375434 143.577167 
L 209.513699 141.489839 
L 218.651964 138.815137 
L 227.79023 135.396669 
L 236.928495 131.046019 
L 246.06676 125.547741 
L 255.205026 118.679821 
L 264.343291 110.264423 
L 273.481556 100.263865 
L 282.619821 88.916604 
L 291.758087 76.8464 
L 300.896352 65.009039 
L 310.034617 54.398982 
L 319.172883 45.674715 
L 328.311148 38.991415 
L 337.449413 34.117909 
L 346.587679 30.662957 
L 355.725944 28.241693 
L 364.864209 26.545332 
L 374.002474 25.349388 
L 383.14074 24.498225 
L 392.279005 23.885988 
L 401.41727 23.440943 
L 410.555536 23.11421 
L 419.693801 22.872167 
L 428.832066 22.691429 
L 437.970332 22.555539 
L 447.108597 22.452759 
L 456.246862 22.374633 
L 465.385128 22.315007 
L 474.523393 22.269353 
L 483.661658 22.234291 
L 492.799923 22.20731 
L 501.938189 22.186505 
L 511.076454 22.170445 
L 520.214719 22.158038 
L 529.352985 22.148438 
L 538.49125 22.141008 
" clip-path="url(#p83065b0b4e)" style="fill: none; stroke: #882255; stroke-width: 2; stroke-linecap: square"/>
   </g>
   <g id="line2d_51">
    <g clip-path="url(#p83065b0b4e)">
     <use xlink:href="#m88d02861ac" x="197.643358" y="144.106668" style="fill: #ff0000; stroke: #ff0000"/>
     <use xlink:href="#m88d02861ac" x="284.600418" y="86.333461" style="fill: #ff0000; stroke: #ff0000"/>
     <use xlink:href="#m88d02861ac" x="354.318239" y="28.560253" style="fill: #ff0000; stroke: #ff0000"/>
    </g>
   </g>
   <g id="line2d_52">
    <path d="M 285.762274 268.845625 
L 285.762274 15.12 
" clip-path="url(#p83065b0b4e)" style="fill: none; stroke-dasharray: 6,6; stroke-dashoffset: 2; stroke: #4d8b31; stroke-width: 2"/>
   </g>
   <g id="line2d_53">
    <path d="M 335.685868 268.845625 
L 335.685868 15.12 
" clip-path="url(#p83065b0b4e)" style="fill: none; stroke-dasharray: 6,6; stroke-dashoffset: 2; stroke: #4d8b31; stroke-width: 2"/>
   </g>
   <g id="line2d_54">
    <path d="M 422.401435 268.845625 
L 422.401435 15.12 
" clip-path="url(#p83065b0b4e)" style="fill: none; stroke-dasharray: 6,6; stroke-dashoffset: 2; stroke: #ec6c5f; stroke-width: 2"/>
   </g>
   <g id="line2d_55">
    <path d="M 488.396838 268.845625 
L 488.396838 15.12 
" clip-path="url(#p83065b0b4e)" style="fill: none; stroke-dasharray: 6,6; stroke-dashoffset: 2; stroke: #ec6c5f; stroke-width: 2"/>
   </g>
   <g id="patch_5">
    <path d="M 68.3275 268.845625 
L 68.3275 15.12 
" style="fill: none; stroke: #000000; stroke-width: 0.8; stroke-linejoin: miter; stroke-linecap: square"/>
   </g>
   <g id="patch_6">
    <path d="M 560.88 268.845625 
L 560.88 15.12 
" style="fill: none; stroke: #000000; stroke-width: 0.8; stroke-linejoin: miter; stroke-linecap: square"/>
   </g>
   <g id="patch_7">
    <path d="M 68.3275 268.845625 
L 560.88 268.845625 
" style="fill: none; stroke: #000000; stroke-width: 0.8; stroke-linejoin: miter; stroke-linecap: square"/>
   </g>
   <g id="patch_8">
    <path d="M 68.3275 15.12 
L 560.88 15.12 
" style="fill: none; stroke: #000000; stroke-width: 0.8; stroke-linejoin: miter; stroke-linecap: square"/>
   </g>
   <g id="legend_1">
    <g id="patch_9">
     <path d="M 456.314688 263.345625 
L 553.18 263.345625 
Q 555.38 263.345625 555.38 261.145625 
L 555.38 84.640312 
Q 555.38 82.440312 553.18 82.440312 
L 456.314688 82.440312 
Q 454.114688 82.440312 454.114688 84.640312 
L 454.114688 261.145625 
Q 454.114688 263.345625 456.314688 263.345625 
z
" style="fill: #ffffff; opacity: 0.8; stroke: #cccccc; stroke-linejoin: miter"/>
    </g>
    <g id="line2d_56">
     <path d="M 458.514688 91.348594 
L 469.514688 91.348594 
L 480.514688 91.348594 
" style="fill: none; stroke: #fba649; stroke-width: 2; stroke-linecap: square"/>
    </g>
    <g id="text_13">
     <!-- Factor 0.1 -->
     <g transform="translate(489.314688 95.198594)scale(0.11 -0.11)">
      <use xlink:href="#DejaVuSans-46"/>
      <use xlink:href="#DejaVuSans-61" x="48.394531"/>
      <use xlink:href="#DejaVuSans-63" x="109.673828"/>
      <use xlink:href="#DejaVuSans-74" x="164.654297"/>
      <use xlink:href="#DejaVuSans-6f" x="203.863281"/>
      <use xlink:href="#DejaVuSans-72" x="265.044922"/>
      <use xlink:href="#DejaVuSans-20" x="306.158203"/>
      <use xlink:href="#DejaVuSans-30" x="337.945312"/>
      <use xlink:href="#DejaVuSans-2e" x="401.568359"/>
      <use xlink:href="#DejaVuSans-31" x="433.355469"/>
     </g>
    </g>
    <g id="line2d_57">
     <path d="M 458.514688 107.494531 
L 469.514688 107.494531 
L 480.514688 107.494531 
" style="fill: none; stroke: #45c4af; stroke-width: 2; stroke-linecap: square"/>
    </g>
    <g id="text_14">
     <!-- Factor 0.18 -->
     <g transform="translate(489.314688 111.344531)scale(0.11 -0.11)">
      <defs>
       <path id="DejaVuSans-38" d="M 2034 2216 
Q 1584 2216 1326 1975 
Q 1069 1734 1069 1313 
Q 1069 891 1326 650 
Q 1584 409 2034 409 
Q 2484 409 2743 651 
Q 3003 894 3003 1313 
Q 3003 1734 2745 1975 
Q 2488 2216 2034 2216 
z
M 1403 2484 
Q 997 2584 770 2862 
Q 544 3141 544 3541 
Q 544 4100 942 4425 
Q 1341 4750 2034 4750 
Q 2731 4750 3128 4425 
Q 3525 4100 3525 3541 
Q 3525 3141 3298 2862 
Q 3072 2584 2669 2484 
Q 3125 2378 3379 2068 
Q 3634 1759 3634 1313 
Q 3634 634 3220 271 
Q 2806 -91 2034 -91 
Q 1263 -91 848 271 
Q 434 634 434 1313 
Q 434 1759 690 2068 
Q 947 2378 1403 2484 
z
M 1172 3481 
Q 1172 3119 1398 2916 
Q 1625 2713 2034 2713 
Q 2441 2713 2670 2916 
Q 2900 3119 2900 3481 
Q 2900 3844 2670 4047 
Q 2441 4250 2034 4250 
Q 1625 4250 1398 4047 
Q 1172 3844 1172 3481 
z
" transform="scale(0.015625)"/>
      </defs>
      <use xlink:href="#DejaVuSans-46"/>
      <use xlink:href="#DejaVuSans-61" x="48.394531"/>
      <use xlink:href="#DejaVuSans-63" x="109.673828"/>
      <use xlink:href="#DejaVuSans-74" x="164.654297"/>
      <use xlink:href="#DejaVuSans-6f" x="203.863281"/>
      <use xlink:href="#DejaVuSans-72" x="265.044922"/>
      <use xlink:href="#DejaVuSans-20" x="306.158203"/>
      <use xlink:href="#DejaVuSans-30" x="337.945312"/>
      <use xlink:href="#DejaVuSans-2e" x="401.568359"/>
      <use xlink:href="#DejaVuSans-31" x="433.355469"/>
      <use xlink:href="#DejaVuSans-38" x="496.978516"/>
     </g>
    </g>
    <g id="line2d_58">
     <path d="M 458.514688 123.640469 
L 469.514688 123.640469 
L 480.514688 123.640469 
" style="fill: none; stroke: #ec6c5f; stroke-width: 2; stroke-linecap: square"/>
    </g>
    <g id="text_15">
     <!-- Factor 0.32 -->
     <g transform="translate(489.314688 127.490469)scale(0.11 -0.11)">
      <use xlink:href="#DejaVuSans-46"/>
      <use xlink:href="#DejaVuSans-61" x="48.394531"/>
      <use xlink:href="#DejaVuSans-63" x="109.673828"/>
      <use xlink:href="#DejaVuSans-74" x="164.654297"/>
      <use xlink:href="#DejaVuSans-6f" x="203.863281"/>
      <use xlink:href="#DejaVuSans-72" x="265.044922"/>
      <use xlink:href="#DejaVuSans-20" x="306.158203"/>
      <use xlink:href="#DejaVuSans-30" x="337.945312"/>
      <use xlink:href="#DejaVuSans-2e" x="401.568359"/>
      <use xlink:href="#DejaVuSans-33" x="433.355469"/>
      <use xlink:href="#DejaVuSans-32" x="496.978516"/>
     </g>
    </g>
    <g id="line2d_59">
     <path d="M 458.514688 139.786406 
L 469.514688 139.786406 
L 480.514688 139.786406 
" style="fill: none; stroke: #4c8b30; stroke-width: 2; stroke-linecap: square"/>
    </g>
    <g id="text_16">
     <!-- Factor 0.56 -->
     <g transform="translate(489.314688 143.636406)scale(0.11 -0.11)">
      <use xlink:href="#DejaVuSans-46"/>
      <use xlink:href="#DejaVuSans-61" x="48.394531"/>
      <use xlink:href="#DejaVuSans-63" x="109.673828"/>
      <use xlink:href="#DejaVuSans-74" x="164.654297"/>
      <use xlink:href="#DejaVuSans-6f" x="203.863281"/>
      <use xlink:href="#DejaVuSans-72" x="265.044922"/>
      <use xlink:href="#DejaVuSans-20" x="306.158203"/>
      <use xlink:href="#DejaVuSans-30" x="337.945312"/>
      <use xlink:href="#DejaVuSans-2e" x="401.568359"/>
      <use xlink:href="#DejaVuSans-35" x="433.355469"/>
      <use xlink:href="#DejaVuSans-36" x="496.978516"/>
     </g>
    </g>
    <g id="line2d_60">
     <path d="M 458.514688 155.932344 
L 469.514688 155.932344 
L 480.514688 155.932344 
" style="fill: none; stroke: #641978; stroke-width: 2; stroke-linecap: square"/>
    </g>
    <g id="text_17">
     <!-- Original -->
     <g transform="translate(489.314688 159.782344)scale(0.11 -0.11)">
      <defs>
       <path id="DejaVuSans-67" d="M 2906 1791 
Q 2906 2416 2648 2759 
Q 2391 3103 1925 3103 
Q 1463 3103 1205 2759 
Q 947 2416 947 1791 
Q 947 1169 1205 825 
Q 1463 481 1925 481 
Q 2391 481 2648 825 
Q 2906 1169 2906 1791 
z
M 3481 434 
Q 3481 -459 3084 -895 
Q 2688 -1331 1869 -1331 
Q 1566 -1331 1297 -1286 
Q 1028 -1241 775 -1147 
L 775 -588 
Q 1028 -725 1275 -790 
Q 1522 -856 1778 -856 
Q 2344 -856 2625 -561 
Q 2906 -266 2906 331 
L 2906 616 
Q 2728 306 2450 153 
Q 2172 0 1784 0 
Q 1141 0 747 490 
Q 353 981 353 1791 
Q 353 2603 747 3093 
Q 1141 3584 1784 3584 
Q 2172 3584 2450 3431 
Q 2728 3278 2906 2969 
L 2906 3500 
L 3481 3500 
L 3481 434 
z
" transform="scale(0.015625)"/>
      </defs>
      <use xlink:href="#DejaVuSans-4f"/>
      <use xlink:href="#DejaVuSans-72" x="78.710938"/>
      <use xlink:href="#DejaVuSans-69" x="119.824219"/>
      <use xlink:href="#DejaVuSans-67" x="147.607422"/>
      <use xlink:href="#DejaVuSans-69" x="211.083984"/>
      <use xlink:href="#DejaVuSans-6e" x="238.867188"/>
      <use xlink:href="#DejaVuSans-61" x="302.246094"/>
      <use xlink:href="#DejaVuSans-6c" x="363.525391"/>
     </g>
    </g>
    <g id="line2d_61">
     <path d="M 458.514688 172.078281 
L 469.514688 172.078281 
L 480.514688 172.078281 
" style="fill: none; stroke: #ddcc77; stroke-width: 2; stroke-linecap: square"/>
    </g>
    <g id="text_18">
     <!-- Factor 1.78 -->
     <g transform="translate(489.314688 175.928281)scale(0.11 -0.11)">
      <defs>
       <path id="DejaVuSans-37" d="M 525 4666 
L 3525 4666 
L 3525 4397 
L 1831 0 
L 1172 0 
L 2766 4134 
L 525 4134 
L 525 4666 
z
" transform="scale(0.015625)"/>
      </defs>
      <use xlink:href="#DejaVuSans-46"/>
      <use xlink:href="#DejaVuSans-61" x="48.394531"/>
      <use xlink:href="#DejaVuSans-63" x="109.673828"/>
      <use xlink:href="#DejaVuSans-74" x="164.654297"/>
      <use xlink:href="#DejaVuSans-6f" x="203.863281"/>
      <use xlink:href="#DejaVuSans-72" x="265.044922"/>
      <use xlink:href="#DejaVuSans-20" x="306.158203"/>
      <use xlink:href="#DejaVuSans-31" x="337.945312"/>
      <use xlink:href="#DejaVuSans-2e" x="401.568359"/>
      <use xlink:href="#DejaVuSans-37" x="433.355469"/>
      <use xlink:href="#DejaVuSans-38" x="496.978516"/>
     </g>
    </g>
    <g id="line2d_62">
     <path d="M 458.514688 188.224219 
L 469.514688 188.224219 
L 480.514688 188.224219 
" style="fill: none; stroke: #cc79a7; stroke-width: 2; stroke-linecap: square"/>
    </g>
    <g id="text_19">
     <!-- Factor 3.16 -->
     <g transform="translate(489.314688 192.074219)scale(0.11 -0.11)">
      <use xlink:href="#DejaVuSans-46"/>
      <use xlink:href="#DejaVuSans-61" x="48.394531"/>
      <use xlink:href="#DejaVuSans-63" x="109.673828"/>
      <use xlink:href="#DejaVuSans-74" x="164.654297"/>
      <use xlink:href="#DejaVuSans-6f" x="203.863281"/>
      <use xlink:href="#DejaVuSans-72" x="265.044922"/>
      <use xlink:href="#DejaVuSans-20" x="306.158203"/>
      <use xlink:href="#DejaVuSans-33" x="337.945312"/>
      <use xlink:href="#DejaVuSans-2e" x="401.568359"/>
      <use xlink:href="#DejaVuSans-31" x="433.355469"/>
      <use xlink:href="#DejaVuSans-36" x="496.978516"/>
     </g>
    </g>
    <g id="line2d_63">
     <path d="M 458.514688 204.370156 
L 469.514688 204.370156 
L 480.514688 204.370156 
" style="fill: none; stroke: #fee2c3; stroke-width: 2; stroke-linecap: square"/>
    </g>
    <g id="text_20">
     <!-- Factor 5.62 -->
     <g transform="translate(489.314688 208.220156)scale(0.11 -0.11)">
      <use xlink:href="#DejaVuSans-46"/>
      <use xlink:href="#DejaVuSans-61" x="48.394531"/>
      <use xlink:href="#DejaVuSans-63" x="109.673828"/>
      <use xlink:href="#DejaVuSans-74" x="164.654297"/>
      <use xlink:href="#DejaVuSans-6f" x="203.863281"/>
      <use xlink:href="#DejaVuSans-72" x="265.044922"/>
      <use xlink:href="#DejaVuSans-20" x="306.158203"/>
      <use xlink:href="#DejaVuSans-35" x="337.945312"/>
      <use xlink:href="#DejaVuSans-2e" x="401.568359"/>
      <use xlink:href="#DejaVuSans-36" x="433.355469"/>
      <use xlink:href="#DejaVuSans-32" x="496.978516"/>
     </g>
    </g>
    <g id="line2d_64">
     <path d="M 458.514688 220.516094 
L 469.514688 220.516094 
L 480.514688 220.516094 
" style="fill: none; stroke: #882255; stroke-width: 2; stroke-linecap: square"/>
    </g>
    <g id="text_21">
     <!-- Factor 10.0 -->
     <g transform="translate(489.314688 224.366094)scale(0.11 -0.11)">
      <use xlink:href="#DejaVuSans-46"/>
      <use xlink:href="#DejaVuSans-61" x="48.394531"/>
      <use xlink:href="#DejaVuSans-63" x="109.673828"/>
      <use xlink:href="#DejaVuSans-74" x="164.654297"/>
      <use xlink:href="#DejaVuSans-6f" x="203.863281"/>
      <use xlink:href="#DejaVuSans-72" x="265.044922"/>
      <use xlink:href="#DejaVuSans-20" x="306.158203"/>
      <use xlink:href="#DejaVuSans-31" x="337.945312"/>
      <use xlink:href="#DejaVuSans-30" x="401.568359"/>
      <use xlink:href="#DejaVuSans-2e" x="465.191406"/>
      <use xlink:href="#DejaVuSans-30" x="496.978516"/>
     </g>
    </g>
    <g id="patch_10">
     <path d="M 458.514688 240.512031 
L 480.514688 240.512031 
L 480.514688 232.812031 
L 458.514688 232.812031 
z
" style="fill: #4d8b31; opacity: 0.3; stroke: #4d8b31; stroke-linejoin: miter"/>
    </g>
    <g id="text_22">
     <!-- Healthy -->
     <g transform="translate(489.314688 240.512031)scale(0.11 -0.11)">
      <defs>
       <path id="DejaVuSans-48" d="M 628 4666 
L 1259 4666 
L 1259 2753 
L 3553 2753 
L 3553 4666 
L 4184 4666 
L 4184 0 
L 3553 0 
L 3553 2222 
L 1259 2222 
L 1259 0 
L 628 0 
L 628 4666 
z
" transform="scale(0.015625)"/>
       <path id="DejaVuSans-68" d="M 3513 2113 
L 3513 0 
L 2938 0 
L 2938 2094 
Q 2938 2591 2744 2837 
Q 2550 3084 2163 3084 
Q 1697 3084 1428 2787 
Q 1159 2491 1159 1978 
L 1159 0 
L 581 0 
L 581 4863 
L 1159 4863 
L 1159 2956 
Q 1366 3272 1645 3428 
Q 1925 3584 2291 3584 
Q 2894 3584 3203 3211 
Q 3513 2838 3513 2113 
z
" transform="scale(0.015625)"/>
       <path id="DejaVuSans-79" d="M 2059 -325 
Q 1816 -950 1584 -1140 
Q 1353 -1331 966 -1331 
L 506 -1331 
L 506 -850 
L 844 -850 
Q 1081 -850 1212 -737 
Q 1344 -625 1503 -206 
L 1606 56 
L 191 3500 
L 800 3500 
L 1894 763 
L 2988 3500 
L 3597 3500 
L 2059 -325 
z
" transform="scale(0.015625)"/>
      </defs>
      <use xlink:href="#DejaVuSans-48"/>
      <use xlink:href="#DejaVuSans-65" x="75.195312"/>
      <use xlink:href="#DejaVuSans-61" x="136.71875"/>
      <use xlink:href="#DejaVuSans-6c" x="197.998047"/>
      <use xlink:href="#DejaVuSans-74" x="225.78125"/>
      <use xlink:href="#DejaVuSans-68" x="264.990234"/>
      <use xlink:href="#DejaVuSans-79" x="328.369141"/>
     </g>
    </g>
    <g id="patch_11">
     <path d="M 458.514688 256.657969 
L 480.514688 256.657969 
L 480.514688 248.957969 
L 458.514688 248.957969 
z
" style="fill: #ec6c5f; opacity: 0.3; stroke: #ec6c5f; stroke-linejoin: miter"/>
    </g>
    <g id="text_23">
     <!-- Cancer -->
     <g transform="translate(489.314688 256.657969)scale(0.11 -0.11)">
      <defs>
       <path id="DejaVuSans-43" d="M 4122 4306 
L 4122 3641 
Q 3803 3938 3442 4084 
Q 3081 4231 2675 4231 
Q 1875 4231 1450 3742 
Q 1025 3253 1025 2328 
Q 1025 1406 1450 917 
Q 1875 428 2675 428 
Q 3081 428 3442 575 
Q 3803 722 4122 1019 
L 4122 359 
Q 3791 134 3420 21 
Q 3050 -91 2638 -91 
Q 1578 -91 968 557 
Q 359 1206 359 2328 
Q 359 3453 968 4101 
Q 1578 4750 2638 4750 
Q 3056 4750 3426 4639 
Q 3797 4528 4122 4306 
z
" transform="scale(0.015625)"/>
      </defs>
      <use xlink:href="#DejaVuSans-43"/>
      <use xlink:href="#DejaVuSans-61" x="69.824219"/>
      <use xlink:href="#DejaVuSans-6e" x="131.103516"/>
      <use xlink:href="#DejaVuSans-63" x="194.482422"/>
      <use xlink:href="#DejaVuSans-65" x="249.462891"/>
      <use xlink:href="#DejaVuSans-72" x="310.986328"/>
     </g>
    </g>
   </g>
  </g>
 </g>
 <defs>
  <clipPath id="p83065b0b4e">
   <rect x="68.3275" y="15.12" width="492.5525" height="253.725625"/>
  </clipPath>
 </defs>
</svg>
