<?xml version="1.0" encoding="utf-8" standalone="no"?>
<!DOCTYPE svg PUBLIC "-//W3C//DTD SVG 1.1//EN"
  "http://www.w3.org/Graphics/SVG/1.1/DTD/svg11.dtd">
<svg xmlns:xlink="http://www.w3.org/1999/xlink" width="720pt" height="405pt" viewBox="0 0 720 405" xmlns="http://www.w3.org/2000/svg" version="1.1">
 <metadata>
  <rdf:RDF xmlns:dc="http://purl.org/dc/elements/1.1/" xmlns:cc="http://creativecommons.org/ns#" xmlns:rdf="http://www.w3.org/1999/02/22-rdf-syntax-ns#">
   <cc:Work>
    <dc:type rdf:resource="http://purl.org/dc/dcmitype/StillImage"/>
    <dc:date>2022-12-02T13:53:07.838245</dc:date>
    <dc:format>image/svg+xml</dc:format>
    <dc:creator>
     <cc:Agent>
      <dc:title>Matplotlib v3.5.3, https://matplotlib.org/</dc:title>
     </cc:Agent>
    </dc:creator>
   </cc:Work>
  </rdf:RDF>
 </metadata>
 <defs>
  <style type="text/css">*{stroke-linejoin: round; stroke-linecap: butt}</style>
 </defs>
 <g id="figure_1">
  <g id="patch_1">
   <path d="M 0 405 
L 720 405 
L 720 0 
L 0 0 
z
" style="fill: #ffffff"/>
  </g>
  <g id="axes_1">
   <g id="patch_2">
    <path d="M 63.869375 349.845625 
L 704.88 349.845625 
L 704.88 15.12 
L 63.869375 15.12 
z
" style="fill: #ffffff"/>
   </g>
   <g id="patch_3">
    <path d="M 418.579648 349.845625 
L 418.579648 15.12 
L 477.053413 15.12 
L 477.053413 349.845625 
z
" clip-path="url(#pc56a3c2472)" style="fill: #4d8b31; opacity: 0.3; stroke: #4d8b31; stroke-linejoin: miter"/>
   </g>
   <g id="patch_4">
    <path d="M 578.620331 349.845625 
L 578.620331 15.12 
L 655.918445 15.12 
L 655.918445 349.845625 
z
" clip-path="url(#pc56a3c2472)" style="fill: #ec6c5f; opacity: 0.3; stroke: #ec6c5f; stroke-linejoin: miter"/>
   </g>
   <g id="matplotlib.axis_1">
    <g id="xtick_1">
     <g id="line2d_1">
      <defs>
       <path id="mb8788cf8aa" d="M 0 0 
L 0 3.5 
" style="stroke: #000000; stroke-width: 0.8"/>
      </defs>
      <g>
       <use xlink:href="#mb8788cf8aa" x="190.129044" y="349.845625" style="stroke: #000000; stroke-width: 0.8"/>
      </g>
     </g>
     <g id="text_1">
      <!-- $\mathdefault{10^{-1}}$ -->
      <g transform="translate(173.679044 367.483438)scale(0.14 -0.14)">
       <defs>
        <path id="DejaVuSans-31" d="M 794 531 
L 1825 531 
L 1825 4091 
L 703 3866 
L 703 4441 
L 1819 4666 
L 2450 4666 
L 2450 531 
L 3481 531 
L 3481 0 
L 794 0 
L 794 531 
z
" transform="scale(0.015625)"/>
        <path id="DejaVuSans-30" d="M 2034 4250 
Q 1547 4250 1301 3770 
Q 1056 3291 1056 2328 
Q 1056 1369 1301 889 
Q 1547 409 2034 409 
Q 2525 409 2770 889 
Q 3016 1369 3016 2328 
Q 3016 3291 2770 3770 
Q 2525 4250 2034 4250 
z
M 2034 4750 
Q 2819 4750 3233 4129 
Q 3647 3509 3647 2328 
Q 3647 1150 3233 529 
Q 2819 -91 2034 -91 
Q 1250 -91 836 529 
Q 422 1150 422 2328 
Q 422 3509 836 4129 
Q 1250 4750 2034 4750 
z
" transform="scale(0.015625)"/>
        <path id="DejaVuSans-2212" d="M 678 2272 
L 4684 2272 
L 4684 1741 
L 678 1741 
L 678 2272 
z
" transform="scale(0.015625)"/>
       </defs>
       <use xlink:href="#DejaVuSans-31" transform="translate(0 0.684375)"/>
       <use xlink:href="#DejaVuSans-30" transform="translate(63.623047 0.684375)"/>
       <use xlink:href="#DejaVuSans-2212" transform="translate(128.203125 38.965625)scale(0.7)"/>
       <use xlink:href="#DejaVuSans-31" transform="translate(186.855469 38.965625)scale(0.7)"/>
      </g>
     </g>
    </g>
    <g id="xtick_2">
     <g id="line2d_2">
      <g>
       <use xlink:href="#mb8788cf8aa" x="384.374688" y="349.845625" style="stroke: #000000; stroke-width: 0.8"/>
      </g>
     </g>
     <g id="text_2">
      <!-- $\mathdefault{10^{0}}$ -->
      <g transform="translate(372.054688 367.483438)scale(0.14 -0.14)">
       <use xlink:href="#DejaVuSans-31" transform="translate(0 0.765625)"/>
       <use xlink:href="#DejaVuSans-30" transform="translate(63.623047 0.765625)"/>
       <use xlink:href="#DejaVuSans-30" transform="translate(128.203125 39.046875)scale(0.7)"/>
      </g>
     </g>
    </g>
    <g id="xtick_3">
     <g id="line2d_3">
      <g>
       <use xlink:href="#mb8788cf8aa" x="578.620331" y="349.845625" style="stroke: #000000; stroke-width: 0.8"/>
      </g>
     </g>
     <g id="text_3">
      <!-- $\mathdefault{10^{1}}$ -->
      <g transform="translate(566.300331 367.483438)scale(0.14 -0.14)">
       <use xlink:href="#DejaVuSans-31" transform="translate(0 0.684375)"/>
       <use xlink:href="#DejaVuSans-30" transform="translate(63.623047 0.684375)"/>
       <use xlink:href="#DejaVuSans-31" transform="translate(128.203125 38.965625)scale(0.7)"/>
      </g>
     </g>
    </g>
    <g id="xtick_4">
     <g id="line2d_4">
      <defs>
       <path id="mdbb68e497b" d="M 0 0 
L 0 2 
" style="stroke: #000000; stroke-width: 0.6"/>
      </defs>
      <g>
       <use xlink:href="#mdbb68e497b" x="88.562125" y="349.845625" style="stroke: #000000; stroke-width: 0.6"/>
      </g>
     </g>
    </g>
    <g id="xtick_5">
     <g id="line2d_5">
      <g>
       <use xlink:href="#mdbb68e497b" x="112.83093" y="349.845625" style="stroke: #000000; stroke-width: 0.6"/>
      </g>
     </g>
    </g>
    <g id="xtick_6">
     <g id="line2d_6">
      <g>
       <use xlink:href="#mdbb68e497b" x="131.655278" y="349.845625" style="stroke: #000000; stroke-width: 0.6"/>
      </g>
     </g>
    </g>
    <g id="xtick_7">
     <g id="line2d_7">
      <g>
       <use xlink:href="#mdbb68e497b" x="147.03589" y="349.845625" style="stroke: #000000; stroke-width: 0.6"/>
      </g>
     </g>
    </g>
    <g id="xtick_8">
     <g id="line2d_8">
      <g>
       <use xlink:href="#mdbb68e497b" x="160.040013" y="349.845625" style="stroke: #000000; stroke-width: 0.6"/>
      </g>
     </g>
    </g>
    <g id="xtick_9">
     <g id="line2d_9">
      <g>
       <use xlink:href="#mdbb68e497b" x="171.304696" y="349.845625" style="stroke: #000000; stroke-width: 0.6"/>
      </g>
     </g>
    </g>
    <g id="xtick_10">
     <g id="line2d_10">
      <g>
       <use xlink:href="#mdbb68e497b" x="181.24085" y="349.845625" style="stroke: #000000; stroke-width: 0.6"/>
      </g>
     </g>
    </g>
    <g id="xtick_11">
     <g id="line2d_11">
      <g>
       <use xlink:href="#mdbb68e497b" x="248.602809" y="349.845625" style="stroke: #000000; stroke-width: 0.6"/>
      </g>
     </g>
    </g>
    <g id="xtick_12">
     <g id="line2d_12">
      <g>
       <use xlink:href="#mdbb68e497b" x="282.807769" y="349.845625" style="stroke: #000000; stroke-width: 0.6"/>
      </g>
     </g>
    </g>
    <g id="xtick_13">
     <g id="line2d_13">
      <g>
       <use xlink:href="#mdbb68e497b" x="307.076574" y="349.845625" style="stroke: #000000; stroke-width: 0.6"/>
      </g>
     </g>
    </g>
    <g id="xtick_14">
     <g id="line2d_14">
      <g>
       <use xlink:href="#mdbb68e497b" x="325.900922" y="349.845625" style="stroke: #000000; stroke-width: 0.6"/>
      </g>
     </g>
    </g>
    <g id="xtick_15">
     <g id="line2d_15">
      <g>
       <use xlink:href="#mdbb68e497b" x="341.281534" y="349.845625" style="stroke: #000000; stroke-width: 0.6"/>
      </g>
     </g>
    </g>
    <g id="xtick_16">
     <g id="line2d_16">
      <g>
       <use xlink:href="#mdbb68e497b" x="354.285657" y="349.845625" style="stroke: #000000; stroke-width: 0.6"/>
      </g>
     </g>
    </g>
    <g id="xtick_17">
     <g id="line2d_17">
      <g>
       <use xlink:href="#mdbb68e497b" x="365.55034" y="349.845625" style="stroke: #000000; stroke-width: 0.6"/>
      </g>
     </g>
    </g>
    <g id="xtick_18">
     <g id="line2d_18">
      <g>
       <use xlink:href="#mdbb68e497b" x="375.486494" y="349.845625" style="stroke: #000000; stroke-width: 0.6"/>
      </g>
     </g>
    </g>
    <g id="xtick_19">
     <g id="line2d_19">
      <g>
       <use xlink:href="#mdbb68e497b" x="442.848453" y="349.845625" style="stroke: #000000; stroke-width: 0.6"/>
      </g>
     </g>
    </g>
    <g id="xtick_20">
     <g id="line2d_20">
      <g>
       <use xlink:href="#mdbb68e497b" x="477.053413" y="349.845625" style="stroke: #000000; stroke-width: 0.6"/>
      </g>
     </g>
    </g>
    <g id="xtick_21">
     <g id="line2d_21">
      <g>
       <use xlink:href="#mdbb68e497b" x="501.322218" y="349.845625" style="stroke: #000000; stroke-width: 0.6"/>
      </g>
     </g>
    </g>
    <g id="xtick_22">
     <g id="line2d_22">
      <g>
       <use xlink:href="#mdbb68e497b" x="520.146566" y="349.845625" style="stroke: #000000; stroke-width: 0.6"/>
      </g>
     </g>
    </g>
    <g id="xtick_23">
     <g id="line2d_23">
      <g>
       <use xlink:href="#mdbb68e497b" x="535.527178" y="349.845625" style="stroke: #000000; stroke-width: 0.6"/>
      </g>
     </g>
    </g>
    <g id="xtick_24">
     <g id="line2d_24">
      <g>
       <use xlink:href="#mdbb68e497b" x="548.5313" y="349.845625" style="stroke: #000000; stroke-width: 0.6"/>
      </g>
     </g>
    </g>
    <g id="xtick_25">
     <g id="line2d_25">
      <g>
       <use xlink:href="#mdbb68e497b" x="559.795984" y="349.845625" style="stroke: #000000; stroke-width: 0.6"/>
      </g>
     </g>
    </g>
    <g id="xtick_26">
     <g id="line2d_26">
      <g>
       <use xlink:href="#mdbb68e497b" x="569.732138" y="349.845625" style="stroke: #000000; stroke-width: 0.6"/>
      </g>
     </g>
    </g>
    <g id="xtick_27">
     <g id="line2d_27">
      <g>
       <use xlink:href="#mdbb68e497b" x="637.094097" y="349.845625" style="stroke: #000000; stroke-width: 0.6"/>
      </g>
     </g>
    </g>
    <g id="xtick_28">
     <g id="line2d_28">
      <g>
       <use xlink:href="#mdbb68e497b" x="671.299057" y="349.845625" style="stroke: #000000; stroke-width: 0.6"/>
      </g>
     </g>
    </g>
    <g id="xtick_29">
     <g id="line2d_29">
      <g>
       <use xlink:href="#mdbb68e497b" x="695.567862" y="349.845625" style="stroke: #000000; stroke-width: 0.6"/>
      </g>
     </g>
    </g>
    <g id="text_4">
     <!-- L-lactate concentration (mM) -->
     <g transform="translate(268.120938 386.5525)scale(0.16 -0.16)">
      <defs>
       <path id="DejaVuSans-4c" d="M 628 4666 
L 1259 4666 
L 1259 531 
L 3531 531 
L 3531 0 
L 628 0 
L 628 4666 
z
" transform="scale(0.015625)"/>
       <path id="DejaVuSans-2d" d="M 313 2009 
L 1997 2009 
L 1997 1497 
L 313 1497 
L 313 2009 
z
" transform="scale(0.015625)"/>
       <path id="DejaVuSans-6c" d="M 603 4863 
L 1178 4863 
L 1178 0 
L 603 0 
L 603 4863 
z
" transform="scale(0.015625)"/>
       <path id="DejaVuSans-61" d="M 2194 1759 
Q 1497 1759 1228 1600 
Q 959 1441 959 1056 
Q 959 750 1161 570 
Q 1363 391 1709 391 
Q 2188 391 2477 730 
Q 2766 1069 2766 1631 
L 2766 1759 
L 2194 1759 
z
M 3341 1997 
L 3341 0 
L 2766 0 
L 2766 531 
Q 2569 213 2275 61 
Q 1981 -91 1556 -91 
Q 1019 -91 701 211 
Q 384 513 384 1019 
Q 384 1609 779 1909 
Q 1175 2209 1959 2209 
L 2766 2209 
L 2766 2266 
Q 2766 2663 2505 2880 
Q 2244 3097 1772 3097 
Q 1472 3097 1187 3025 
Q 903 2953 641 2809 
L 641 3341 
Q 956 3463 1253 3523 
Q 1550 3584 1831 3584 
Q 2591 3584 2966 3190 
Q 3341 2797 3341 1997 
z
" transform="scale(0.015625)"/>
       <path id="DejaVuSans-63" d="M 3122 3366 
L 3122 2828 
Q 2878 2963 2633 3030 
Q 2388 3097 2138 3097 
Q 1578 3097 1268 2742 
Q 959 2388 959 1747 
Q 959 1106 1268 751 
Q 1578 397 2138 397 
Q 2388 397 2633 464 
Q 2878 531 3122 666 
L 3122 134 
Q 2881 22 2623 -34 
Q 2366 -91 2075 -91 
Q 1284 -91 818 406 
Q 353 903 353 1747 
Q 353 2603 823 3093 
Q 1294 3584 2113 3584 
Q 2378 3584 2631 3529 
Q 2884 3475 3122 3366 
z
" transform="scale(0.015625)"/>
       <path id="DejaVuSans-74" d="M 1172 4494 
L 1172 3500 
L 2356 3500 
L 2356 3053 
L 1172 3053 
L 1172 1153 
Q 1172 725 1289 603 
Q 1406 481 1766 481 
L 2356 481 
L 2356 0 
L 1766 0 
Q 1100 0 847 248 
Q 594 497 594 1153 
L 594 3053 
L 172 3053 
L 172 3500 
L 594 3500 
L 594 4494 
L 1172 4494 
z
" transform="scale(0.015625)"/>
       <path id="DejaVuSans-65" d="M 3597 1894 
L 3597 1613 
L 953 1613 
Q 991 1019 1311 708 
Q 1631 397 2203 397 
Q 2534 397 2845 478 
Q 3156 559 3463 722 
L 3463 178 
Q 3153 47 2828 -22 
Q 2503 -91 2169 -91 
Q 1331 -91 842 396 
Q 353 884 353 1716 
Q 353 2575 817 3079 
Q 1281 3584 2069 3584 
Q 2775 3584 3186 3129 
Q 3597 2675 3597 1894 
z
M 3022 2063 
Q 3016 2534 2758 2815 
Q 2500 3097 2075 3097 
Q 1594 3097 1305 2825 
Q 1016 2553 972 2059 
L 3022 2063 
z
" transform="scale(0.015625)"/>
       <path id="DejaVuSans-20" transform="scale(0.015625)"/>
       <path id="DejaVuSans-6f" d="M 1959 3097 
Q 1497 3097 1228 2736 
Q 959 2375 959 1747 
Q 959 1119 1226 758 
Q 1494 397 1959 397 
Q 2419 397 2687 759 
Q 2956 1122 2956 1747 
Q 2956 2369 2687 2733 
Q 2419 3097 1959 3097 
z
M 1959 3584 
Q 2709 3584 3137 3096 
Q 3566 2609 3566 1747 
Q 3566 888 3137 398 
Q 2709 -91 1959 -91 
Q 1206 -91 779 398 
Q 353 888 353 1747 
Q 353 2609 779 3096 
Q 1206 3584 1959 3584 
z
" transform="scale(0.015625)"/>
       <path id="DejaVuSans-6e" d="M 3513 2113 
L 3513 0 
L 2938 0 
L 2938 2094 
Q 2938 2591 2744 2837 
Q 2550 3084 2163 3084 
Q 1697 3084 1428 2787 
Q 1159 2491 1159 1978 
L 1159 0 
L 581 0 
L 581 3500 
L 1159 3500 
L 1159 2956 
Q 1366 3272 1645 3428 
Q 1925 3584 2291 3584 
Q 2894 3584 3203 3211 
Q 3513 2838 3513 2113 
z
" transform="scale(0.015625)"/>
       <path id="DejaVuSans-72" d="M 2631 2963 
Q 2534 3019 2420 3045 
Q 2306 3072 2169 3072 
Q 1681 3072 1420 2755 
Q 1159 2438 1159 1844 
L 1159 0 
L 581 0 
L 581 3500 
L 1159 3500 
L 1159 2956 
Q 1341 3275 1631 3429 
Q 1922 3584 2338 3584 
Q 2397 3584 2469 3576 
Q 2541 3569 2628 3553 
L 2631 2963 
z
" transform="scale(0.015625)"/>
       <path id="DejaVuSans-69" d="M 603 3500 
L 1178 3500 
L 1178 0 
L 603 0 
L 603 3500 
z
M 603 4863 
L 1178 4863 
L 1178 4134 
L 603 4134 
L 603 4863 
z
" transform="scale(0.015625)"/>
       <path id="DejaVuSans-28" d="M 1984 4856 
Q 1566 4138 1362 3434 
Q 1159 2731 1159 2009 
Q 1159 1288 1364 580 
Q 1569 -128 1984 -844 
L 1484 -844 
Q 1016 -109 783 600 
Q 550 1309 550 2009 
Q 550 2706 781 3412 
Q 1013 4119 1484 4856 
L 1984 4856 
z
" transform="scale(0.015625)"/>
       <path id="DejaVuSans-6d" d="M 3328 2828 
Q 3544 3216 3844 3400 
Q 4144 3584 4550 3584 
Q 5097 3584 5394 3201 
Q 5691 2819 5691 2113 
L 5691 0 
L 5113 0 
L 5113 2094 
Q 5113 2597 4934 2840 
Q 4756 3084 4391 3084 
Q 3944 3084 3684 2787 
Q 3425 2491 3425 1978 
L 3425 0 
L 2847 0 
L 2847 2094 
Q 2847 2600 2669 2842 
Q 2491 3084 2119 3084 
Q 1678 3084 1418 2786 
Q 1159 2488 1159 1978 
L 1159 0 
L 581 0 
L 581 3500 
L 1159 3500 
L 1159 2956 
Q 1356 3278 1631 3431 
Q 1906 3584 2284 3584 
Q 2666 3584 2933 3390 
Q 3200 3197 3328 2828 
z
" transform="scale(0.015625)"/>
       <path id="DejaVuSans-4d" d="M 628 4666 
L 1569 4666 
L 2759 1491 
L 3956 4666 
L 4897 4666 
L 4897 0 
L 4281 0 
L 4281 4097 
L 3078 897 
L 2444 897 
L 1241 4097 
L 1241 0 
L 628 0 
L 628 4666 
z
" transform="scale(0.015625)"/>
       <path id="DejaVuSans-29" d="M 513 4856 
L 1013 4856 
Q 1481 4119 1714 3412 
Q 1947 2706 1947 2009 
Q 1947 1309 1714 600 
Q 1481 -109 1013 -844 
L 513 -844 
Q 928 -128 1133 580 
Q 1338 1288 1338 2009 
Q 1338 2731 1133 3434 
Q 928 4138 513 4856 
z
" transform="scale(0.015625)"/>
      </defs>
      <use xlink:href="#DejaVuSans-4c"/>
      <use xlink:href="#DejaVuSans-2d" x="53.962891"/>
      <use xlink:href="#DejaVuSans-6c" x="90.046875"/>
      <use xlink:href="#DejaVuSans-61" x="117.830078"/>
      <use xlink:href="#DejaVuSans-63" x="179.109375"/>
      <use xlink:href="#DejaVuSans-74" x="234.089844"/>
      <use xlink:href="#DejaVuSans-61" x="273.298828"/>
      <use xlink:href="#DejaVuSans-74" x="334.578125"/>
      <use xlink:href="#DejaVuSans-65" x="373.787109"/>
      <use xlink:href="#DejaVuSans-20" x="435.310547"/>
      <use xlink:href="#DejaVuSans-63" x="467.097656"/>
      <use xlink:href="#DejaVuSans-6f" x="522.078125"/>
      <use xlink:href="#DejaVuSans-6e" x="583.259766"/>
      <use xlink:href="#DejaVuSans-63" x="646.638672"/>
      <use xlink:href="#DejaVuSans-65" x="701.619141"/>
      <use xlink:href="#DejaVuSans-6e" x="763.142578"/>
      <use xlink:href="#DejaVuSans-74" x="826.521484"/>
      <use xlink:href="#DejaVuSans-72" x="865.730469"/>
      <use xlink:href="#DejaVuSans-61" x="906.84375"/>
      <use xlink:href="#DejaVuSans-74" x="968.123047"/>
      <use xlink:href="#DejaVuSans-69" x="1007.332031"/>
      <use xlink:href="#DejaVuSans-6f" x="1035.115234"/>
      <use xlink:href="#DejaVuSans-6e" x="1096.296875"/>
      <use xlink:href="#DejaVuSans-20" x="1159.675781"/>
      <use xlink:href="#DejaVuSans-28" x="1191.462891"/>
      <use xlink:href="#DejaVuSans-6d" x="1230.476562"/>
      <use xlink:href="#DejaVuSans-4d" x="1327.888672"/>
      <use xlink:href="#DejaVuSans-29" x="1414.167969"/>
     </g>
    </g>
   </g>
   <g id="matplotlib.axis_2">
    <g id="ytick_1">
     <g id="line2d_30">
      <defs>
       <path id="m2d5f360766" d="M 0 0 
L -3.5 0 
" style="stroke: #000000; stroke-width: 0.8"/>
      </defs>
      <g>
       <use xlink:href="#m2d5f360766" x="63.869375" y="349.845625" style="stroke: #000000; stroke-width: 0.8"/>
      </g>
     </g>
     <g id="text_5">
      <!-- 0.0 -->
      <g transform="translate(34.605 355.164531)scale(0.14 -0.14)">
       <defs>
        <path id="DejaVuSans-2e" d="M 684 794 
L 1344 794 
L 1344 0 
L 684 0 
L 684 794 
z
" transform="scale(0.015625)"/>
       </defs>
       <use xlink:href="#DejaVuSans-30"/>
       <use xlink:href="#DejaVuSans-2e" x="63.623047"/>
       <use xlink:href="#DejaVuSans-30" x="95.410156"/>
      </g>
     </g>
    </g>
    <g id="ytick_2">
     <g id="line2d_31">
      <g>
       <use xlink:href="#m2d5f360766" x="63.869375" y="286.00773" style="stroke: #000000; stroke-width: 0.8"/>
      </g>
     </g>
     <g id="text_6">
      <!-- 0.2 -->
      <g transform="translate(34.605 291.326636)scale(0.14 -0.14)">
       <defs>
        <path id="DejaVuSans-32" d="M 1228 531 
L 3431 531 
L 3431 0 
L 469 0 
L 469 531 
Q 828 903 1448 1529 
Q 2069 2156 2228 2338 
Q 2531 2678 2651 2914 
Q 2772 3150 2772 3378 
Q 2772 3750 2511 3984 
Q 2250 4219 1831 4219 
Q 1534 4219 1204 4116 
Q 875 4013 500 3803 
L 500 4441 
Q 881 4594 1212 4672 
Q 1544 4750 1819 4750 
Q 2544 4750 2975 4387 
Q 3406 4025 3406 3419 
Q 3406 3131 3298 2873 
Q 3191 2616 2906 2266 
Q 2828 2175 2409 1742 
Q 1991 1309 1228 531 
z
" transform="scale(0.015625)"/>
       </defs>
       <use xlink:href="#DejaVuSans-30"/>
       <use xlink:href="#DejaVuSans-2e" x="63.623047"/>
       <use xlink:href="#DejaVuSans-32" x="95.410156"/>
      </g>
     </g>
    </g>
    <g id="ytick_3">
     <g id="line2d_32">
      <g>
       <use xlink:href="#m2d5f360766" x="63.869375" y="222.169835" style="stroke: #000000; stroke-width: 0.8"/>
      </g>
     </g>
     <g id="text_7">
      <!-- 0.4 -->
      <g transform="translate(34.605 227.488741)scale(0.14 -0.14)">
       <defs>
        <path id="DejaVuSans-34" d="M 2419 4116 
L 825 1625 
L 2419 1625 
L 2419 4116 
z
M 2253 4666 
L 3047 4666 
L 3047 1625 
L 3713 1625 
L 3713 1100 
L 3047 1100 
L 3047 0 
L 2419 0 
L 2419 1100 
L 313 1100 
L 313 1709 
L 2253 4666 
z
" transform="scale(0.015625)"/>
       </defs>
       <use xlink:href="#DejaVuSans-30"/>
       <use xlink:href="#DejaVuSans-2e" x="63.623047"/>
       <use xlink:href="#DejaVuSans-34" x="95.410156"/>
      </g>
     </g>
    </g>
    <g id="ytick_4">
     <g id="line2d_33">
      <g>
       <use xlink:href="#m2d5f360766" x="63.869375" y="158.331939" style="stroke: #000000; stroke-width: 0.8"/>
      </g>
     </g>
     <g id="text_8">
      <!-- 0.6 -->
      <g transform="translate(34.605 163.650846)scale(0.14 -0.14)">
       <defs>
        <path id="DejaVuSans-36" d="M 2113 2584 
Q 1688 2584 1439 2293 
Q 1191 2003 1191 1497 
Q 1191 994 1439 701 
Q 1688 409 2113 409 
Q 2538 409 2786 701 
Q 3034 994 3034 1497 
Q 3034 2003 2786 2293 
Q 2538 2584 2113 2584 
z
M 3366 4563 
L 3366 3988 
Q 3128 4100 2886 4159 
Q 2644 4219 2406 4219 
Q 1781 4219 1451 3797 
Q 1122 3375 1075 2522 
Q 1259 2794 1537 2939 
Q 1816 3084 2150 3084 
Q 2853 3084 3261 2657 
Q 3669 2231 3669 1497 
Q 3669 778 3244 343 
Q 2819 -91 2113 -91 
Q 1303 -91 875 529 
Q 447 1150 447 2328 
Q 447 3434 972 4092 
Q 1497 4750 2381 4750 
Q 2619 4750 2861 4703 
Q 3103 4656 3366 4563 
z
" transform="scale(0.015625)"/>
       </defs>
       <use xlink:href="#DejaVuSans-30"/>
       <use xlink:href="#DejaVuSans-2e" x="63.623047"/>
       <use xlink:href="#DejaVuSans-36" x="95.410156"/>
      </g>
     </g>
    </g>
    <g id="ytick_5">
     <g id="line2d_34">
      <g>
       <use xlink:href="#m2d5f360766" x="63.869375" y="94.494044" style="stroke: #000000; stroke-width: 0.8"/>
      </g>
     </g>
     <g id="text_9">
      <!-- 0.8 -->
      <g transform="translate(34.605 99.81295)scale(0.14 -0.14)">
       <defs>
        <path id="DejaVuSans-38" d="M 2034 2216 
Q 1584 2216 1326 1975 
Q 1069 1734 1069 1313 
Q 1069 891 1326 650 
Q 1584 409 2034 409 
Q 2484 409 2743 651 
Q 3003 894 3003 1313 
Q 3003 1734 2745 1975 
Q 2488 2216 2034 2216 
z
M 1403 2484 
Q 997 2584 770 2862 
Q 544 3141 544 3541 
Q 544 4100 942 4425 
Q 1341 4750 2034 4750 
Q 2731 4750 3128 4425 
Q 3525 4100 3525 3541 
Q 3525 3141 3298 2862 
Q 3072 2584 2669 2484 
Q 3125 2378 3379 2068 
Q 3634 1759 3634 1313 
Q 3634 634 3220 271 
Q 2806 -91 2034 -91 
Q 1263 -91 848 271 
Q 434 634 434 1313 
Q 434 1759 690 2068 
Q 947 2378 1403 2484 
z
M 1172 3481 
Q 1172 3119 1398 2916 
Q 1625 2713 2034 2713 
Q 2441 2713 2670 2916 
Q 2900 3119 2900 3481 
Q 2900 3844 2670 4047 
Q 2441 4250 2034 4250 
Q 1625 4250 1398 4047 
Q 1172 3844 1172 3481 
z
" transform="scale(0.015625)"/>
       </defs>
       <use xlink:href="#DejaVuSans-30"/>
       <use xlink:href="#DejaVuSans-2e" x="63.623047"/>
       <use xlink:href="#DejaVuSans-38" x="95.410156"/>
      </g>
     </g>
    </g>
    <g id="ytick_6">
     <g id="line2d_35">
      <g>
       <use xlink:href="#m2d5f360766" x="63.869375" y="30.656149" style="stroke: #000000; stroke-width: 0.8"/>
      </g>
     </g>
     <g id="text_10">
      <!-- 1.0 -->
      <g transform="translate(34.605 35.975055)scale(0.14 -0.14)">
       <use xlink:href="#DejaVuSans-31"/>
       <use xlink:href="#DejaVuSans-2e" x="63.623047"/>
       <use xlink:href="#DejaVuSans-30" x="95.410156"/>
      </g>
     </g>
    </g>
    <g id="text_11">
     <!-- Normalized response -->
     <g transform="translate(27.2775 266.726562)rotate(-90)scale(0.16 -0.16)">
      <defs>
       <path id="DejaVuSans-4e" d="M 628 4666 
L 1478 4666 
L 3547 763 
L 3547 4666 
L 4159 4666 
L 4159 0 
L 3309 0 
L 1241 3903 
L 1241 0 
L 628 0 
L 628 4666 
z
" transform="scale(0.015625)"/>
       <path id="DejaVuSans-7a" d="M 353 3500 
L 3084 3500 
L 3084 2975 
L 922 459 
L 3084 459 
L 3084 0 
L 275 0 
L 275 525 
L 2438 3041 
L 353 3041 
L 353 3500 
z
" transform="scale(0.015625)"/>
       <path id="DejaVuSans-64" d="M 2906 2969 
L 2906 4863 
L 3481 4863 
L 3481 0 
L 2906 0 
L 2906 525 
Q 2725 213 2448 61 
Q 2172 -91 1784 -91 
Q 1150 -91 751 415 
Q 353 922 353 1747 
Q 353 2572 751 3078 
Q 1150 3584 1784 3584 
Q 2172 3584 2448 3432 
Q 2725 3281 2906 2969 
z
M 947 1747 
Q 947 1113 1208 752 
Q 1469 391 1925 391 
Q 2381 391 2643 752 
Q 2906 1113 2906 1747 
Q 2906 2381 2643 2742 
Q 2381 3103 1925 3103 
Q 1469 3103 1208 2742 
Q 947 2381 947 1747 
z
" transform="scale(0.015625)"/>
       <path id="DejaVuSans-73" d="M 2834 3397 
L 2834 2853 
Q 2591 2978 2328 3040 
Q 2066 3103 1784 3103 
Q 1356 3103 1142 2972 
Q 928 2841 928 2578 
Q 928 2378 1081 2264 
Q 1234 2150 1697 2047 
L 1894 2003 
Q 2506 1872 2764 1633 
Q 3022 1394 3022 966 
Q 3022 478 2636 193 
Q 2250 -91 1575 -91 
Q 1294 -91 989 -36 
Q 684 19 347 128 
L 347 722 
Q 666 556 975 473 
Q 1284 391 1588 391 
Q 1994 391 2212 530 
Q 2431 669 2431 922 
Q 2431 1156 2273 1281 
Q 2116 1406 1581 1522 
L 1381 1569 
Q 847 1681 609 1914 
Q 372 2147 372 2553 
Q 372 3047 722 3315 
Q 1072 3584 1716 3584 
Q 2034 3584 2315 3537 
Q 2597 3491 2834 3397 
z
" transform="scale(0.015625)"/>
       <path id="DejaVuSans-70" d="M 1159 525 
L 1159 -1331 
L 581 -1331 
L 581 3500 
L 1159 3500 
L 1159 2969 
Q 1341 3281 1617 3432 
Q 1894 3584 2278 3584 
Q 2916 3584 3314 3078 
Q 3713 2572 3713 1747 
Q 3713 922 3314 415 
Q 2916 -91 2278 -91 
Q 1894 -91 1617 61 
Q 1341 213 1159 525 
z
M 3116 1747 
Q 3116 2381 2855 2742 
Q 2594 3103 2138 3103 
Q 1681 3103 1420 2742 
Q 1159 2381 1159 1747 
Q 1159 1113 1420 752 
Q 1681 391 2138 391 
Q 2594 391 2855 752 
Q 3116 1113 3116 1747 
z
" transform="scale(0.015625)"/>
      </defs>
      <use xlink:href="#DejaVuSans-4e"/>
      <use xlink:href="#DejaVuSans-6f" x="74.804688"/>
      <use xlink:href="#DejaVuSans-72" x="135.986328"/>
      <use xlink:href="#DejaVuSans-6d" x="175.349609"/>
      <use xlink:href="#DejaVuSans-61" x="272.761719"/>
      <use xlink:href="#DejaVuSans-6c" x="334.041016"/>
      <use xlink:href="#DejaVuSans-69" x="361.824219"/>
      <use xlink:href="#DejaVuSans-7a" x="389.607422"/>
      <use xlink:href="#DejaVuSans-65" x="442.097656"/>
      <use xlink:href="#DejaVuSans-64" x="503.621094"/>
      <use xlink:href="#DejaVuSans-20" x="567.097656"/>
      <use xlink:href="#DejaVuSans-72" x="598.884766"/>
      <use xlink:href="#DejaVuSans-65" x="637.748047"/>
      <use xlink:href="#DejaVuSans-73" x="699.271484"/>
      <use xlink:href="#DejaVuSans-70" x="751.371094"/>
      <use xlink:href="#DejaVuSans-6f" x="814.847656"/>
      <use xlink:href="#DejaVuSans-6e" x="876.029297"/>
      <use xlink:href="#DejaVuSans-73" x="939.408203"/>
      <use xlink:href="#DejaVuSans-65" x="991.507812"/>
     </g>
    </g>
   </g>
   <g id="line2d_36">
    <path d="M 93.006222 220.431068 
L 98.892453 220.422356 
L 104.778685 220.41234 
L 110.664916 220.400826 
L 116.551148 220.387589 
L 122.43738 220.372373 
L 128.323611 220.354882 
L 134.209843 220.334776 
L 140.096075 220.311666 
L 145.982306 220.285103 
L 151.868538 220.254574 
L 157.75477 220.219486 
L 163.641001 220.179164 
L 169.527233 220.132829 
L 175.413464 220.079588 
L 181.299696 220.018418 
L 187.185928 219.948147 
L 193.072159 219.86743 
L 198.958391 219.774726 
L 204.844623 219.668275 
L 210.730854 219.54606 
L 216.617086 219.405776 
L 222.503318 219.244792 
L 228.389549 219.060106 
L 234.275781 218.848297 
L 240.162012 218.605471 
L 246.048244 218.327203 
L 251.934476 218.008474 
L 257.820707 217.643603 
L 263.706939 217.226173 
L 269.593171 216.748953 
L 275.479402 216.203824 
L 281.365634 215.581698 
L 287.251866 214.872443 
L 293.138097 214.064817 
L 299.024329 213.146409 
L 304.91056 212.1036 
L 310.796792 210.921553 
L 316.683024 209.58423 
L 322.569255 208.074461 
L 328.455487 206.374065 
L 334.341719 204.464039 
L 340.22795 202.324833 
L 346.114182 199.936709 
L 352.000414 197.280212 
L 357.886645 194.336743 
L 363.772877 191.089247 
L 369.659108 187.522997 
L 375.54534 183.626476 
L 381.431572 179.392317 
L 387.317803 174.818257 
L 393.204035 169.908075 
L 399.090267 164.672412 
L 404.976498 159.129435 
L 410.86273 153.305241 
L 416.748961 147.23392 
L 422.635193 140.957239 
L 428.521425 134.52389 
L 434.407656 127.98829 
L 440.293888 121.408995 
L 446.18012 114.84678 
L 452.066351 108.362536 
L 457.952583 102.015079 
L 463.838815 95.859096 
L 469.725046 89.943338 
L 475.611278 84.30915 
L 481.497509 78.989521 
L 487.383741 74.008582 
L 493.269973 69.381617 
L 499.156204 65.115493 
L 505.042436 61.209452 
L 510.928668 57.656133 
L 516.814899 54.442761 
L 522.701131 51.552385 
L 528.587363 48.965035 
L 534.473594 46.65886 
L 540.359826 44.611052 
L 546.246057 42.798638 
L 552.132289 41.199115 
L 558.018521 39.790919 
L 563.904752 38.55374 
L 569.790984 37.468694 
L 575.677216 36.518463 
L 581.563447 35.68731 
L 587.449679 34.961033 
L 593.335911 34.326917 
L 599.222142 33.77371 
L 605.108374 33.291278 
L 610.994605 32.8708 
L 616.880837 32.50442 
L 622.767069 32.185345 
L 628.6533 31.907473 
L 634.539532 31.665553 
L 640.425764 31.454964 
L 646.311995 31.271692 
L 652.198227 31.112188 
L 658.084459 30.973385 
L 663.97069 30.852625 
L 669.856922 30.747561 
L 675.743153 30.656149 
" clip-path="url(#pc56a3c2472)" style="fill: none; stroke: #fba649; stroke-width: 2; stroke-linecap: square"/>
   </g>
   <g id="line2d_37">
    <path d="M 93.006222 204.083342 
L 98.892453 204.077823 
L 104.778685 204.071478 
L 110.664916 204.064183 
L 116.551148 204.055796 
L 122.43738 204.046153 
L 128.323611 204.035067 
L 134.209843 204.022321 
L 140.096075 204.007666 
L 145.982306 203.990818 
L 151.868538 203.971447 
L 157.75477 203.949178 
L 163.641001 203.923576 
L 169.527233 203.894138 
L 175.413464 203.8603 
L 181.299696 203.821399 
L 187.185928 203.776678 
L 193.072159 203.725269 
L 198.958391 203.666171 
L 204.844623 203.598239 
L 210.730854 203.52015 
L 216.617086 203.430393 
L 222.503318 203.327225 
L 228.389549 203.208651 
L 234.275781 203.072376 
L 240.162012 202.915767 
L 246.048244 202.735804 
L 251.934476 202.52902 
L 257.820707 202.291435 
L 263.706939 202.018495 
L 269.593171 201.704974 
L 275.479402 201.344881 
L 281.365634 200.931365 
L 287.251866 200.456568 
L 293.138097 199.91153 
L 299.024329 199.285995 
L 304.91056 198.568246 
L 310.796792 197.744932 
L 316.683024 196.800834 
L 322.569255 195.718653 
L 328.455487 194.478751 
L 334.341719 193.058903 
L 340.22795 191.434035 
L 346.114182 189.576001 
L 352.000414 187.453376 
L 357.886645 185.031401 
L 363.772877 182.272022 
L 369.659108 179.134327 
L 375.54534 175.575262 
L 381.431572 171.551088 
L 387.317803 167.019635 
L 393.204035 161.943693 
L 399.090267 156.29574 
L 404.976498 150.063972 
L 410.86273 143.259493 
L 416.748961 135.923561 
L 422.635193 128.133597 
L 428.521425 120.005563 
L 434.407656 111.690936 
L 440.293888 103.36664 
L 446.18012 95.218955 
L 452.066351 87.424233 
L 457.952583 80.13074 
L 463.838815 73.446026 
L 469.725046 67.431884 
L 475.611278 62.106911 
L 481.497509 57.454287 
L 487.383741 53.431917 
L 493.269973 49.98251 
L 499.156204 47.04194 
L 505.042436 44.545369 
L 510.928668 42.431255 
L 516.814899 40.643523 
L 522.701131 39.132531 
L 528.587363 37.855194 
L 534.473594 36.774626 
L 540.359826 35.859547 
L 546.246057 35.083592 
L 552.132289 34.424642 
L 558.018521 33.864167 
L 563.904752 33.386694 
L 569.790984 32.97927 
L 575.677216 32.631062 
L 581.563447 32.33301 
L 587.449679 32.077501 
L 593.335911 31.85816 
L 599.222142 31.669631 
L 605.108374 31.507376 
L 610.994605 31.36758 
L 616.880837 31.247009 
L 622.767069 31.142917 
L 628.6533 31.052993 
L 634.539532 30.975234 
L 640.425764 30.907956 
L 646.311995 30.8497 
L 652.198227 30.799236 
L 658.084459 30.755507 
L 663.97069 30.717583 
L 669.856922 30.684687 
L 675.743153 30.656149 
" clip-path="url(#pc56a3c2472)" style="fill: none; stroke: #45c4af; stroke-width: 2; stroke-linecap: square"/>
   </g>
   <g id="line2d_38">
    <path d="M 93.006222 297.994942 
L 98.892453 297.98957 
L 104.778685 297.983395 
L 110.664916 297.976295 
L 116.551148 297.968131 
L 122.43738 297.958745 
L 128.323611 297.947953 
L 134.209843 297.935545 
L 140.096075 297.921279 
L 145.982306 297.904877 
L 151.868538 297.886018 
L 157.75477 297.864336 
L 163.641001 297.839406 
L 169.527233 297.810744 
L 175.413464 297.77779 
L 181.299696 297.739902 
L 187.185928 297.696341 
L 193.072159 297.646256 
L 198.958391 297.588674 
L 204.844623 297.522468 
L 210.730854 297.446352 
L 216.617086 297.358839 
L 222.503318 297.258227 
L 228.389549 297.14255 
L 234.275781 297.009562 
L 240.162012 296.856669 
L 246.048244 296.680893 
L 251.934476 296.478813 
L 257.820707 296.246495 
L 263.706939 295.979419 
L 269.593171 295.672394 
L 275.479402 295.31945 
L 281.365634 294.913735 
L 287.251866 294.44737 
L 293.138097 293.911306 
L 299.024329 293.295165 
L 304.91056 292.587014 
L 310.796792 291.773168 
L 316.683024 290.837925 
L 322.569255 289.763275 
L 328.455487 288.528584 
L 334.341719 287.110231 
L 340.22795 285.481204 
L 346.114182 283.61068 
L 352.000414 281.463595 
L 357.886645 279.000189 
L 363.772877 276.175672 
L 369.659108 272.939985 
L 375.54534 269.237857 
L 381.431572 265.009313 
L 387.317803 260.190916 
L 393.204035 254.71804 
L 399.090267 248.528608 
L 404.976498 241.568584 
L 410.86273 233.799383 
L 416.748961 225.206861 
L 422.635193 215.810903 
L 428.521425 205.673655 
L 434.407656 194.903987 
L 440.293888 183.655711 
L 446.18012 172.118331 
L 452.066351 160.501295 
L 457.952583 149.014779 
L 463.838815 137.85128 
L 469.725046 127.1718 
L 475.611278 117.098315 
L 481.497509 107.712696 
L 487.383741 99.060116 
L 493.269973 91.155147 
L 499.156204 83.9886 
L 505.042436 77.534027 
L 510.928668 71.753269 
L 516.814899 66.600898 
L 522.701131 62.027631 
L 528.587363 57.98284 
L 534.473594 54.416405 
L 540.359826 51.279969 
L 546.246057 48.527788 
L 552.132289 46.117299 
L 558.018521 44.009344 
L 563.904752 42.168307 
L 569.790984 40.56205 
L 575.677216 39.161804 
L 581.563447 37.941943 
L 587.449679 36.879777 
L 593.335911 35.955284 
L 599.222142 35.150872 
L 605.108374 34.451078 
L 610.994605 33.842413 
L 616.880837 33.31305 
L 622.767069 32.852706 
L 628.6533 32.452394 
L 634.539532 32.104307 
L 640.425764 31.801629 
L 646.311995 31.538432 
L 652.198227 31.309562 
L 658.084459 31.110555 
L 663.97069 30.937498 
L 669.856922 30.787014 
L 675.743153 30.656149 
" clip-path="url(#pc56a3c2472)" style="fill: none; stroke: #ec6c5f; stroke-width: 2; stroke-linecap: square"/>
   </g>
   <g id="line2d_39">
    <path d="M 93.006222 341.379125 
L 98.892453 341.37742 
L 104.778685 341.375461 
L 110.664916 341.373207 
L 116.551148 341.370617 
L 122.43738 341.367638 
L 128.323611 341.364213 
L 134.209843 341.360276 
L 140.096075 341.355748 
L 145.982306 341.350543 
L 151.868538 341.344557 
L 157.75477 341.337675 
L 163.641001 341.329762 
L 169.527233 341.320664 
L 175.413464 341.310203 
L 181.299696 341.298175 
L 187.185928 341.284344 
L 193.072159 341.268441 
L 198.958391 341.250155 
L 204.844623 341.229128 
L 210.730854 341.20495 
L 216.617086 341.177147 
L 222.503318 341.145176 
L 228.389549 341.10841 
L 234.275781 341.066128 
L 240.162012 341.017503 
L 246.048244 340.961579 
L 251.934476 340.897257 
L 257.820707 340.823272 
L 263.706939 340.738164 
L 269.593171 340.640252 
L 275.479402 340.527595 
L 281.365634 340.397954 
L 287.251866 340.24874 
L 293.138097 340.076959 
L 299.024329 339.879141 
L 304.91056 339.651256 
L 310.796792 339.388617 
L 316.683024 339.085755 
L 322.569255 338.736262 
L 328.455487 338.332609 
L 334.341719 337.865897 
L 340.22795 337.325559 
L 346.114182 336.698962 
L 352.000414 335.970916 
L 357.886645 335.123034 
L 363.772877 334.132921 
L 369.659108 332.973173 
L 375.54534 331.610146 
L 381.431572 330.002509 
L 387.317803 328.09965 
L 393.204035 325.840047 
L 399.090267 323.149918 
L 404.976498 319.942559 
L 410.86273 316.119017 
L 416.748961 311.570834 
L 422.635193 306.185584 
L 428.521425 299.855555 
L 434.407656 292.489274 
L 440.293888 284.024603 
L 446.18012 274.441252 
L 452.066351 263.770144 
L 457.952583 252.09762 
L 463.838815 239.563075 
L 469.725046 226.350722 
L 475.611278 212.676633 
L 481.497509 198.773396 
L 487.383741 184.874263 
L 493.269973 171.198938 
L 499.156204 157.942184 
L 505.042436 145.266138 
L 510.928668 133.29621 
L 516.814899 122.120509 
L 522.701131 111.791934 
L 528.587363 102.332179 
L 534.473594 93.736888 
L 540.359826 85.981199 
L 546.246057 79.025063 
L 552.132289 72.818223 
L 558.018521 67.304216 
L 563.904752 62.423954 
L 569.790984 58.117952 
L 575.677216 54.328537 
L 581.563447 51.000921 
L 587.449679 48.083861 
L 593.335911 45.53054 
L 599.222142 43.298265 
L 605.108374 41.348461 
L 610.994605 39.646701 
L 616.880837 38.162471 
L 622.767069 36.86854 
L 628.6533 35.741075 
L 634.539532 34.758901 
L 640.425764 33.903562 
L 646.311995 33.158844 
L 652.198227 32.510594 
L 658.084459 31.946245 
L 663.97069 31.45528 
L 669.856922 31.027932 
L 675.743153 30.656149 
" clip-path="url(#pc56a3c2472)" style="fill: none; stroke: #4c8b30; stroke-width: 2; stroke-linecap: square"/>
   </g>
   <g id="line2d_40">
    <path d="M 418.579648 349.845625 
L 418.579648 15.12 
" clip-path="url(#pc56a3c2472)" style="fill: none; stroke-dasharray: 6,6; stroke-dashoffset: 2; stroke: #4d8b31; stroke-width: 2"/>
   </g>
   <g id="line2d_41">
    <path d="M 477.053413 349.845625 
L 477.053413 15.12 
" clip-path="url(#pc56a3c2472)" style="fill: none; stroke-dasharray: 6,6; stroke-dashoffset: 2; stroke: #4d8b31; stroke-width: 2"/>
   </g>
   <g id="line2d_42">
    <path d="M 578.620331 349.845625 
L 578.620331 15.12 
" clip-path="url(#pc56a3c2472)" style="fill: none; stroke-dasharray: 6,6; stroke-dashoffset: 2; stroke: #ec6c5f; stroke-width: 2"/>
   </g>
   <g id="line2d_43">
    <path d="M 655.918445 349.845625 
L 655.918445 15.12 
" clip-path="url(#pc56a3c2472)" style="fill: none; stroke-dasharray: 6,6; stroke-dashoffset: 2; stroke: #ec6c5f; stroke-width: 2"/>
   </g>
   <g id="patch_5">
    <path d="M 63.869375 349.845625 
L 63.869375 15.12 
" style="fill: none; stroke: #000000; stroke-width: 0.8; stroke-linejoin: miter; stroke-linecap: square"/>
   </g>
   <g id="patch_6">
    <path d="M 704.88 349.845625 
L 704.88 15.12 
" style="fill: none; stroke: #000000; stroke-width: 0.8; stroke-linejoin: miter; stroke-linecap: square"/>
   </g>
   <g id="patch_7">
    <path d="M 63.869375 349.845625 
L 704.88 349.845625 
" style="fill: none; stroke: #000000; stroke-width: 0.8; stroke-linejoin: miter; stroke-linecap: square"/>
   </g>
   <g id="patch_8">
    <path d="M 63.869375 15.12 
L 704.88 15.12 
" style="fill: none; stroke: #000000; stroke-width: 0.8; stroke-linejoin: miter; stroke-linecap: square"/>
   </g>
   <g id="legend_1">
    <g id="patch_9">
     <path d="M 73.669375 149.61625 
L 314.618125 149.61625 
Q 317.418125 149.61625 317.418125 146.81625 
L 317.418125 24.92 
Q 317.418125 22.12 314.618125 22.12 
L 73.669375 22.12 
Q 70.869375 22.12 70.869375 24.92 
L 70.869375 146.81625 
Q 70.869375 149.61625 73.669375 149.61625 
z
" style="fill: #ffffff; opacity: 0.8; stroke: #cccccc; stroke-linejoin: miter"/>
    </g>
    <g id="patch_10">
     <path d="M 76.469375 38.357813 
L 104.469375 38.357813 
L 104.469375 28.557813 
L 76.469375 28.557813 
z
" style="fill: #4d8b31; opacity: 0.3; stroke: #4d8b31; stroke-linejoin: miter"/>
    </g>
    <g id="text_12">
     <!-- Healthy -->
     <g transform="translate(115.669375 38.357813)scale(0.14 -0.14)">
      <defs>
       <path id="DejaVuSans-48" d="M 628 4666 
L 1259 4666 
L 1259 2753 
L 3553 2753 
L 3553 4666 
L 4184 4666 
L 4184 0 
L 3553 0 
L 3553 2222 
L 1259 2222 
L 1259 0 
L 628 0 
L 628 4666 
z
" transform="scale(0.015625)"/>
       <path id="DejaVuSans-68" d="M 3513 2113 
L 3513 0 
L 2938 0 
L 2938 2094 
Q 2938 2591 2744 2837 
Q 2550 3084 2163 3084 
Q 1697 3084 1428 2787 
Q 1159 2491 1159 1978 
L 1159 0 
L 581 0 
L 581 4863 
L 1159 4863 
L 1159 2956 
Q 1366 3272 1645 3428 
Q 1925 3584 2291 3584 
Q 2894 3584 3203 3211 
Q 3513 2838 3513 2113 
z
" transform="scale(0.015625)"/>
       <path id="DejaVuSans-79" d="M 2059 -325 
Q 1816 -950 1584 -1140 
Q 1353 -1331 966 -1331 
L 506 -1331 
L 506 -850 
L 844 -850 
Q 1081 -850 1212 -737 
Q 1344 -625 1503 -206 
L 1606 56 
L 191 3500 
L 800 3500 
L 1894 763 
L 2988 3500 
L 3597 3500 
L 2059 -325 
z
" transform="scale(0.015625)"/>
      </defs>
      <use xlink:href="#DejaVuSans-48"/>
      <use xlink:href="#DejaVuSans-65" x="75.195312"/>
      <use xlink:href="#DejaVuSans-61" x="136.71875"/>
      <use xlink:href="#DejaVuSans-6c" x="197.998047"/>
      <use xlink:href="#DejaVuSans-74" x="225.78125"/>
      <use xlink:href="#DejaVuSans-68" x="264.990234"/>
      <use xlink:href="#DejaVuSans-79" x="328.369141"/>
     </g>
    </g>
    <g id="patch_11">
     <path d="M 76.469375 58.907188 
L 104.469375 58.907188 
L 104.469375 49.107188 
L 76.469375 49.107188 
z
" style="fill: #ec6c5f; opacity: 0.3; stroke: #ec6c5f; stroke-linejoin: miter"/>
    </g>
    <g id="text_13">
     <!-- Cancer -->
     <g transform="translate(115.669375 58.907188)scale(0.14 -0.14)">
      <defs>
       <path id="DejaVuSans-43" d="M 4122 4306 
L 4122 3641 
Q 3803 3938 3442 4084 
Q 3081 4231 2675 4231 
Q 1875 4231 1450 3742 
Q 1025 3253 1025 2328 
Q 1025 1406 1450 917 
Q 1875 428 2675 428 
Q 3081 428 3442 575 
Q 3803 722 4122 1019 
L 4122 359 
Q 3791 134 3420 21 
Q 3050 -91 2638 -91 
Q 1578 -91 968 557 
Q 359 1206 359 2328 
Q 359 3453 968 4101 
Q 1578 4750 2638 4750 
Q 3056 4750 3426 4639 
Q 3797 4528 4122 4306 
z
" transform="scale(0.015625)"/>
      </defs>
      <use xlink:href="#DejaVuSans-43"/>
      <use xlink:href="#DejaVuSans-61" x="69.824219"/>
      <use xlink:href="#DejaVuSans-6e" x="131.103516"/>
      <use xlink:href="#DejaVuSans-63" x="194.482422"/>
      <use xlink:href="#DejaVuSans-65" x="249.462891"/>
      <use xlink:href="#DejaVuSans-72" x="310.986328"/>
     </g>
    </g>
    <g id="line2d_44">
     <path d="M 76.469375 74.556563 
L 90.469375 74.556563 
L 104.469375 74.556563 
" style="fill: none; stroke: #fba649; stroke-width: 2; stroke-linecap: square"/>
    </g>
    <g id="text_14">
     <!-- Without asRNA system -->
     <g transform="translate(115.669375 79.456563)scale(0.14 -0.14)">
      <defs>
       <path id="DejaVuSans-57" d="M 213 4666 
L 850 4666 
L 1831 722 
L 2809 4666 
L 3519 4666 
L 4500 722 
L 5478 4666 
L 6119 4666 
L 4947 0 
L 4153 0 
L 3169 4050 
L 2175 0 
L 1381 0 
L 213 4666 
z
" transform="scale(0.015625)"/>
       <path id="DejaVuSans-75" d="M 544 1381 
L 544 3500 
L 1119 3500 
L 1119 1403 
Q 1119 906 1312 657 
Q 1506 409 1894 409 
Q 2359 409 2629 706 
Q 2900 1003 2900 1516 
L 2900 3500 
L 3475 3500 
L 3475 0 
L 2900 0 
L 2900 538 
Q 2691 219 2414 64 
Q 2138 -91 1772 -91 
Q 1169 -91 856 284 
Q 544 659 544 1381 
z
M 1991 3584 
L 1991 3584 
z
" transform="scale(0.015625)"/>
       <path id="DejaVuSans-52" d="M 2841 2188 
Q 3044 2119 3236 1894 
Q 3428 1669 3622 1275 
L 4263 0 
L 3584 0 
L 2988 1197 
Q 2756 1666 2539 1819 
Q 2322 1972 1947 1972 
L 1259 1972 
L 1259 0 
L 628 0 
L 628 4666 
L 2053 4666 
Q 2853 4666 3247 4331 
Q 3641 3997 3641 3322 
Q 3641 2881 3436 2590 
Q 3231 2300 2841 2188 
z
M 1259 4147 
L 1259 2491 
L 2053 2491 
Q 2509 2491 2742 2702 
Q 2975 2913 2975 3322 
Q 2975 3731 2742 3939 
Q 2509 4147 2053 4147 
L 1259 4147 
z
" transform="scale(0.015625)"/>
       <path id="DejaVuSans-41" d="M 2188 4044 
L 1331 1722 
L 3047 1722 
L 2188 4044 
z
M 1831 4666 
L 2547 4666 
L 4325 0 
L 3669 0 
L 3244 1197 
L 1141 1197 
L 716 0 
L 50 0 
L 1831 4666 
z
" transform="scale(0.015625)"/>
      </defs>
      <use xlink:href="#DejaVuSans-57"/>
      <use xlink:href="#DejaVuSans-69" x="96.626953"/>
      <use xlink:href="#DejaVuSans-74" x="124.410156"/>
      <use xlink:href="#DejaVuSans-68" x="163.619141"/>
      <use xlink:href="#DejaVuSans-6f" x="226.998047"/>
      <use xlink:href="#DejaVuSans-75" x="288.179688"/>
      <use xlink:href="#DejaVuSans-74" x="351.558594"/>
      <use xlink:href="#DejaVuSans-20" x="390.767578"/>
      <use xlink:href="#DejaVuSans-61" x="422.554688"/>
      <use xlink:href="#DejaVuSans-73" x="483.833984"/>
      <use xlink:href="#DejaVuSans-52" x="535.933594"/>
      <use xlink:href="#DejaVuSans-4e" x="605.416016"/>
      <use xlink:href="#DejaVuSans-41" x="680.220703"/>
      <use xlink:href="#DejaVuSans-20" x="748.628906"/>
      <use xlink:href="#DejaVuSans-73" x="780.416016"/>
      <use xlink:href="#DejaVuSans-79" x="832.515625"/>
      <use xlink:href="#DejaVuSans-73" x="891.695312"/>
      <use xlink:href="#DejaVuSans-74" x="943.794922"/>
      <use xlink:href="#DejaVuSans-65" x="983.003906"/>
      <use xlink:href="#DejaVuSans-6d" x="1044.527344"/>
     </g>
    </g>
    <g id="line2d_45">
     <path d="M 76.469375 95.105938 
L 90.469375 95.105938 
L 104.469375 95.105938 
" style="fill: none; stroke: #45c4af; stroke-width: 2; stroke-linecap: square"/>
    </g>
    <g id="text_15">
     <!-- asRNA system -->
     <g transform="translate(115.669375 100.005938)scale(0.14 -0.14)">
      <use xlink:href="#DejaVuSans-61"/>
      <use xlink:href="#DejaVuSans-73" x="61.279297"/>
      <use xlink:href="#DejaVuSans-52" x="113.378906"/>
      <use xlink:href="#DejaVuSans-4e" x="182.861328"/>
      <use xlink:href="#DejaVuSans-41" x="257.666016"/>
      <use xlink:href="#DejaVuSans-20" x="326.074219"/>
      <use xlink:href="#DejaVuSans-73" x="357.861328"/>
      <use xlink:href="#DejaVuSans-79" x="409.960938"/>
      <use xlink:href="#DejaVuSans-73" x="469.140625"/>
      <use xlink:href="#DejaVuSans-74" x="521.240234"/>
      <use xlink:href="#DejaVuSans-65" x="560.449219"/>
      <use xlink:href="#DejaVuSans-6d" x="621.972656"/>
     </g>
    </g>
    <g id="line2d_46">
     <path d="M 76.469375 115.655313 
L 90.469375 115.655313 
L 104.469375 115.655313 
" style="fill: none; stroke: #ec6c5f; stroke-width: 2; stroke-linecap: square"/>
    </g>
    <g id="text_16">
     <!-- asRNA system, FFL -->
     <g transform="translate(115.669375 120.555313)scale(0.14 -0.14)">
      <defs>
       <path id="DejaVuSans-2c" d="M 750 794 
L 1409 794 
L 1409 256 
L 897 -744 
L 494 -744 
L 750 256 
L 750 794 
z
" transform="scale(0.015625)"/>
       <path id="DejaVuSans-46" d="M 628 4666 
L 3309 4666 
L 3309 4134 
L 1259 4134 
L 1259 2759 
L 3109 2759 
L 3109 2228 
L 1259 2228 
L 1259 0 
L 628 0 
L 628 4666 
z
" transform="scale(0.015625)"/>
      </defs>
      <use xlink:href="#DejaVuSans-61"/>
      <use xlink:href="#DejaVuSans-73" x="61.279297"/>
      <use xlink:href="#DejaVuSans-52" x="113.378906"/>
      <use xlink:href="#DejaVuSans-4e" x="182.861328"/>
      <use xlink:href="#DejaVuSans-41" x="257.666016"/>
      <use xlink:href="#DejaVuSans-20" x="326.074219"/>
      <use xlink:href="#DejaVuSans-73" x="357.861328"/>
      <use xlink:href="#DejaVuSans-79" x="409.960938"/>
      <use xlink:href="#DejaVuSans-73" x="469.140625"/>
      <use xlink:href="#DejaVuSans-74" x="521.240234"/>
      <use xlink:href="#DejaVuSans-65" x="560.449219"/>
      <use xlink:href="#DejaVuSans-6d" x="621.972656"/>
      <use xlink:href="#DejaVuSans-2c" x="719.384766"/>
      <use xlink:href="#DejaVuSans-20" x="751.171875"/>
      <use xlink:href="#DejaVuSans-46" x="782.958984"/>
      <use xlink:href="#DejaVuSans-46" x="840.478516"/>
      <use xlink:href="#DejaVuSans-4c" x="897.998047"/>
     </g>
    </g>
    <g id="line2d_47">
     <path d="M 76.469375 136.204688 
L 90.469375 136.204688 
L 104.469375 136.204688 
" style="fill: none; stroke: #4c8b30; stroke-width: 2; stroke-linecap: square"/>
    </g>
    <g id="text_17">
     <!-- sRNA leak dampener switch -->
     <g transform="translate(115.669375 141.104688)scale(0.14 -0.14)">
      <defs>
       <path id="DejaVuSans-6b" d="M 581 4863 
L 1159 4863 
L 1159 1991 
L 2875 3500 
L 3609 3500 
L 1753 1863 
L 3688 0 
L 2938 0 
L 1159 1709 
L 1159 0 
L 581 0 
L 581 4863 
z
" transform="scale(0.015625)"/>
       <path id="DejaVuSans-77" d="M 269 3500 
L 844 3500 
L 1563 769 
L 2278 3500 
L 2956 3500 
L 3675 769 
L 4391 3500 
L 4966 3500 
L 4050 0 
L 3372 0 
L 2619 2869 
L 1863 0 
L 1184 0 
L 269 3500 
z
" transform="scale(0.015625)"/>
      </defs>
      <use xlink:href="#DejaVuSans-73"/>
      <use xlink:href="#DejaVuSans-52" x="52.099609"/>
      <use xlink:href="#DejaVuSans-4e" x="121.582031"/>
      <use xlink:href="#DejaVuSans-41" x="196.386719"/>
      <use xlink:href="#DejaVuSans-20" x="264.794922"/>
      <use xlink:href="#DejaVuSans-6c" x="296.582031"/>
      <use xlink:href="#DejaVuSans-65" x="324.365234"/>
      <use xlink:href="#DejaVuSans-61" x="385.888672"/>
      <use xlink:href="#DejaVuSans-6b" x="447.167969"/>
      <use xlink:href="#DejaVuSans-20" x="505.078125"/>
      <use xlink:href="#DejaVuSans-64" x="536.865234"/>
      <use xlink:href="#DejaVuSans-61" x="600.341797"/>
      <use xlink:href="#DejaVuSans-6d" x="661.621094"/>
      <use xlink:href="#DejaVuSans-70" x="759.033203"/>
      <use xlink:href="#DejaVuSans-65" x="822.509766"/>
      <use xlink:href="#DejaVuSans-6e" x="884.033203"/>
      <use xlink:href="#DejaVuSans-65" x="947.412109"/>
      <use xlink:href="#DejaVuSans-72" x="1008.935547"/>
      <use xlink:href="#DejaVuSans-20" x="1050.048828"/>
      <use xlink:href="#DejaVuSans-73" x="1081.835938"/>
      <use xlink:href="#DejaVuSans-77" x="1133.935547"/>
      <use xlink:href="#DejaVuSans-69" x="1215.722656"/>
      <use xlink:href="#DejaVuSans-74" x="1243.505859"/>
      <use xlink:href="#DejaVuSans-63" x="1282.714844"/>
      <use xlink:href="#DejaVuSans-68" x="1337.695312"/>
     </g>
    </g>
   </g>
   <g id="line2d_48">
    <defs>
     <path id="md7ba3c0b28" d="M 0 3 
C 0.795609 3 1.55874 2.683901 2.12132 2.12132 
C 2.683901 1.55874 3 0.795609 3 0 
C 3 -0.795609 2.683901 -1.55874 2.12132 -2.12132 
C 1.55874 -2.683901 0.795609 -3 0 -3 
C -0.795609 -3 -1.55874 -2.683901 -2.12132 -2.12132 
C -2.683901 -1.55874 -3 -0.795609 -3 0 
C -3 0.795609 -2.683901 1.55874 -2.12132 2.12132 
C -1.55874 2.683901 -0.795609 3 0 3 
z
" style="stroke: #ff0000"/>
    </defs>
    <g clip-path="url(#pc56a3c2472)">
     <use xlink:href="#md7ba3c0b28" x="310.699428" y="210.942322" style="fill: #ff0000; stroke: #ff0000"/>
     <use xlink:href="#md7ba3c0b28" x="324.101245" y="195.411982" style="fill: #ff0000; stroke: #ff0000"/>
     <use xlink:href="#md7ba3c0b28" x="343.013984" y="284.628002" style="fill: #ff0000; stroke: #ff0000"/>
     <use xlink:href="#md7ba3c0b28" x="393.19703" y="325.842976" style="fill: #ff0000; stroke: #ff0000"/>
    </g>
   </g>
   <g id="line2d_49">
    <g clip-path="url(#pc56a3c2472)">
     <use xlink:href="#md7ba3c0b28" x="436.596524" y="125.543609" style="fill: #ff0000; stroke: #ff0000"/>
     <use xlink:href="#md7ba3c0b28" x="430.396115" y="117.369745" style="fill: #ff0000; stroke: #ff0000"/>
     <use xlink:href="#md7ba3c0b28" x="450.126531" y="164.325545" style="fill: #ff0000; stroke: #ff0000"/>
     <use xlink:href="#md7ba3c0b28" x="486.897159" y="186.017637" style="fill: #ff0000; stroke: #ff0000"/>
    </g>
   </g>
   <g id="line2d_50">
    <g clip-path="url(#pc56a3c2472)">
     <use xlink:href="#md7ba3c0b28" x="556.465971" y="40.144895" style="fill: #ff0000; stroke: #ff0000"/>
     <use xlink:href="#md7ba3c0b28" x="521.883475" y="39.327508" style="fill: #ff0000; stroke: #ff0000"/>
     <use xlink:href="#md7ba3c0b28" x="557.977448" y="44.023088" style="fill: #ff0000; stroke: #ff0000"/>
     <use xlink:href="#md7ba3c0b28" x="591.732861" y="46.192298" style="fill: #ff0000; stroke: #ff0000"/>
    </g>
   </g>
  </g>
 </g>
 <defs>
  <clipPath id="pc56a3c2472">
   <rect x="63.869375" y="15.12" width="641.010625" height="334.725625"/>
  </clipPath>
 </defs>
</svg>
