<?xml version="1.0" encoding="utf-8" standalone="no"?>
<!DOCTYPE svg PUBLIC "-//W3C//DTD SVG 1.1//EN"
  "http://www.w3.org/Graphics/SVG/1.1/DTD/svg11.dtd">
<svg xmlns:xlink="http://www.w3.org/1999/xlink" width="460.8pt" height="345.6pt" viewBox="0 0 460.8 345.6" xmlns="http://www.w3.org/2000/svg" version="1.1">
 <metadata>
  <rdf:RDF xmlns:dc="http://purl.org/dc/elements/1.1/" xmlns:cc="http://creativecommons.org/ns#" xmlns:rdf="http://www.w3.org/1999/02/22-rdf-syntax-ns#">
   <cc:Work>
    <dc:type rdf:resource="http://purl.org/dc/dcmitype/StillImage"/>
    <dc:date>2022-11-18T11:15:21.599053</dc:date>
    <dc:format>image/svg+xml</dc:format>
    <dc:creator>
     <cc:Agent>
      <dc:title>Matplotlib v3.5.3, https://matplotlib.org/</dc:title>
     </cc:Agent>
    </dc:creator>
   </cc:Work>
  </rdf:RDF>
 </metadata>
 <defs>
  <style type="text/css">*{stroke-linejoin: round; stroke-linecap: butt}</style>
 </defs>
 <g id="figure_1">
  <g id="patch_1">
   <path d="M 0 345.6 
L 460.8 345.6 
L 460.8 0 
L 0 0 
z
" style="fill: #ffffff"/>
  </g>
  <g id="axes_1">
   <g id="patch_2">
    <path d="M 38.105 305.595 
L 445.68 305.595 
L 445.68 15.12 
L 38.105 15.12 
z
" style="fill: #ffffff"/>
   </g>
   <g id="matplotlib.axis_1">
    <g id="xtick_1">
     <g id="line2d_1">
      <defs>
       <path id="m1eef0331d3" d="M 0 0 
L 0 2 
" style="stroke: #000000; stroke-width: 0.6"/>
      </defs>
      <g>
       <use xlink:href="#m1eef0331d3" x="44.606608" y="305.595" style="stroke: #000000; stroke-width: 0.6"/>
      </g>
     </g>
    </g>
    <g id="xtick_2">
     <g id="line2d_2">
      <g>
       <use xlink:href="#m1eef0331d3" x="50.925248" y="305.595" style="stroke: #000000; stroke-width: 0.6"/>
      </g>
     </g>
    </g>
    <g id="xtick_3">
     <g id="line2d_3">
      <g>
       <use xlink:href="#m1eef0331d3" x="93.762334" y="305.595" style="stroke: #000000; stroke-width: 0.6"/>
      </g>
     </g>
    </g>
    <g id="xtick_4">
     <g id="line2d_4">
      <g>
       <use xlink:href="#m1eef0331d3" x="115.514089" y="305.595" style="stroke: #000000; stroke-width: 0.6"/>
      </g>
     </g>
    </g>
    <g id="xtick_5">
     <g id="line2d_5">
      <g>
       <use xlink:href="#m1eef0331d3" x="130.947205" y="305.595" style="stroke: #000000; stroke-width: 0.6"/>
      </g>
     </g>
    </g>
    <g id="xtick_6">
     <g id="line2d_6">
      <g>
       <use xlink:href="#m1eef0331d3" x="142.918059" y="305.595" style="stroke: #000000; stroke-width: 0.6"/>
      </g>
     </g>
    </g>
    <g id="xtick_7">
     <g id="line2d_7">
      <g>
       <use xlink:href="#m1eef0331d3" x="152.69896" y="305.595" style="stroke: #000000; stroke-width: 0.6"/>
      </g>
     </g>
    </g>
    <g id="xtick_8">
     <g id="line2d_8">
      <g>
       <use xlink:href="#m1eef0331d3" x="160.968593" y="305.595" style="stroke: #000000; stroke-width: 0.6"/>
      </g>
     </g>
    </g>
    <g id="xtick_9">
     <g id="line2d_9">
      <g>
       <use xlink:href="#m1eef0331d3" x="168.132075" y="305.595" style="stroke: #000000; stroke-width: 0.6"/>
      </g>
     </g>
    </g>
    <g id="xtick_10">
     <g id="line2d_10">
      <g>
       <use xlink:href="#m1eef0331d3" x="174.450715" y="305.595" style="stroke: #000000; stroke-width: 0.6"/>
      </g>
     </g>
    </g>
    <g id="xtick_11">
     <g id="line2d_11">
      <g>
       <use xlink:href="#m1eef0331d3" x="217.287801" y="305.595" style="stroke: #000000; stroke-width: 0.6"/>
      </g>
     </g>
    </g>
    <g id="xtick_12">
     <g id="line2d_12">
      <g>
       <use xlink:href="#m1eef0331d3" x="239.039556" y="305.595" style="stroke: #000000; stroke-width: 0.6"/>
      </g>
     </g>
    </g>
    <g id="xtick_13">
     <g id="line2d_13">
      <g>
       <use xlink:href="#m1eef0331d3" x="254.472671" y="305.595" style="stroke: #000000; stroke-width: 0.6"/>
      </g>
     </g>
    </g>
    <g id="xtick_14">
     <g id="line2d_14">
      <g>
       <use xlink:href="#m1eef0331d3" x="266.443526" y="305.595" style="stroke: #000000; stroke-width: 0.6"/>
      </g>
     </g>
    </g>
    <g id="xtick_15">
     <g id="line2d_15">
      <g>
       <use xlink:href="#m1eef0331d3" x="276.224426" y="305.595" style="stroke: #000000; stroke-width: 0.6"/>
      </g>
     </g>
    </g>
    <g id="xtick_16">
     <g id="line2d_16">
      <g>
       <use xlink:href="#m1eef0331d3" x="284.49406" y="305.595" style="stroke: #000000; stroke-width: 0.6"/>
      </g>
     </g>
    </g>
    <g id="xtick_17">
     <g id="line2d_17">
      <g>
       <use xlink:href="#m1eef0331d3" x="291.657542" y="305.595" style="stroke: #000000; stroke-width: 0.6"/>
      </g>
     </g>
    </g>
    <g id="xtick_18">
     <g id="line2d_18">
      <g>
       <use xlink:href="#m1eef0331d3" x="297.976181" y="305.595" style="stroke: #000000; stroke-width: 0.6"/>
      </g>
     </g>
    </g>
    <g id="xtick_19">
     <g id="line2d_19">
      <g>
       <use xlink:href="#m1eef0331d3" x="340.813268" y="305.595" style="stroke: #000000; stroke-width: 0.6"/>
      </g>
     </g>
    </g>
    <g id="xtick_20">
     <g id="line2d_20">
      <g>
       <use xlink:href="#m1eef0331d3" x="362.565023" y="305.595" style="stroke: #000000; stroke-width: 0.6"/>
      </g>
     </g>
    </g>
    <g id="xtick_21">
     <g id="line2d_21">
      <g>
       <use xlink:href="#m1eef0331d3" x="377.998138" y="305.595" style="stroke: #000000; stroke-width: 0.6"/>
      </g>
     </g>
    </g>
    <g id="xtick_22">
     <g id="line2d_22">
      <g>
       <use xlink:href="#m1eef0331d3" x="389.968993" y="305.595" style="stroke: #000000; stroke-width: 0.6"/>
      </g>
     </g>
    </g>
    <g id="xtick_23">
     <g id="line2d_23">
      <g>
       <use xlink:href="#m1eef0331d3" x="399.749893" y="305.595" style="stroke: #000000; stroke-width: 0.6"/>
      </g>
     </g>
    </g>
    <g id="xtick_24">
     <g id="line2d_24">
      <g>
       <use xlink:href="#m1eef0331d3" x="408.019527" y="305.595" style="stroke: #000000; stroke-width: 0.6"/>
      </g>
     </g>
    </g>
    <g id="xtick_25">
     <g id="line2d_25">
      <g>
       <use xlink:href="#m1eef0331d3" x="415.183009" y="305.595" style="stroke: #000000; stroke-width: 0.6"/>
      </g>
     </g>
    </g>
    <g id="xtick_26">
     <g id="line2d_26">
      <g>
       <use xlink:href="#m1eef0331d3" x="421.501648" y="305.595" style="stroke: #000000; stroke-width: 0.6"/>
      </g>
     </g>
    </g>
    <g id="text_1">
     <!-- Concentration $\rightarrow$ -->
     <g transform="translate(172.9325 327.1525)scale(0.16 -0.16)">
      <defs>
       <path id="DejaVuSans-43" d="M 4122 4306 
L 4122 3641 
Q 3803 3938 3442 4084 
Q 3081 4231 2675 4231 
Q 1875 4231 1450 3742 
Q 1025 3253 1025 2328 
Q 1025 1406 1450 917 
Q 1875 428 2675 428 
Q 3081 428 3442 575 
Q 3803 722 4122 1019 
L 4122 359 
Q 3791 134 3420 21 
Q 3050 -91 2638 -91 
Q 1578 -91 968 557 
Q 359 1206 359 2328 
Q 359 3453 968 4101 
Q 1578 4750 2638 4750 
Q 3056 4750 3426 4639 
Q 3797 4528 4122 4306 
z
" transform="scale(0.015625)"/>
       <path id="DejaVuSans-6f" d="M 1959 3097 
Q 1497 3097 1228 2736 
Q 959 2375 959 1747 
Q 959 1119 1226 758 
Q 1494 397 1959 397 
Q 2419 397 2687 759 
Q 2956 1122 2956 1747 
Q 2956 2369 2687 2733 
Q 2419 3097 1959 3097 
z
M 1959 3584 
Q 2709 3584 3137 3096 
Q 3566 2609 3566 1747 
Q 3566 888 3137 398 
Q 2709 -91 1959 -91 
Q 1206 -91 779 398 
Q 353 888 353 1747 
Q 353 2609 779 3096 
Q 1206 3584 1959 3584 
z
" transform="scale(0.015625)"/>
       <path id="DejaVuSans-6e" d="M 3513 2113 
L 3513 0 
L 2938 0 
L 2938 2094 
Q 2938 2591 2744 2837 
Q 2550 3084 2163 3084 
Q 1697 3084 1428 2787 
Q 1159 2491 1159 1978 
L 1159 0 
L 581 0 
L 581 3500 
L 1159 3500 
L 1159 2956 
Q 1366 3272 1645 3428 
Q 1925 3584 2291 3584 
Q 2894 3584 3203 3211 
Q 3513 2838 3513 2113 
z
" transform="scale(0.015625)"/>
       <path id="DejaVuSans-63" d="M 3122 3366 
L 3122 2828 
Q 2878 2963 2633 3030 
Q 2388 3097 2138 3097 
Q 1578 3097 1268 2742 
Q 959 2388 959 1747 
Q 959 1106 1268 751 
Q 1578 397 2138 397 
Q 2388 397 2633 464 
Q 2878 531 3122 666 
L 3122 134 
Q 2881 22 2623 -34 
Q 2366 -91 2075 -91 
Q 1284 -91 818 406 
Q 353 903 353 1747 
Q 353 2603 823 3093 
Q 1294 3584 2113 3584 
Q 2378 3584 2631 3529 
Q 2884 3475 3122 3366 
z
" transform="scale(0.015625)"/>
       <path id="DejaVuSans-65" d="M 3597 1894 
L 3597 1613 
L 953 1613 
Q 991 1019 1311 708 
Q 1631 397 2203 397 
Q 2534 397 2845 478 
Q 3156 559 3463 722 
L 3463 178 
Q 3153 47 2828 -22 
Q 2503 -91 2169 -91 
Q 1331 -91 842 396 
Q 353 884 353 1716 
Q 353 2575 817 3079 
Q 1281 3584 2069 3584 
Q 2775 3584 3186 3129 
Q 3597 2675 3597 1894 
z
M 3022 2063 
Q 3016 2534 2758 2815 
Q 2500 3097 2075 3097 
Q 1594 3097 1305 2825 
Q 1016 2553 972 2059 
L 3022 2063 
z
" transform="scale(0.015625)"/>
       <path id="DejaVuSans-74" d="M 1172 4494 
L 1172 3500 
L 2356 3500 
L 2356 3053 
L 1172 3053 
L 1172 1153 
Q 1172 725 1289 603 
Q 1406 481 1766 481 
L 2356 481 
L 2356 0 
L 1766 0 
Q 1100 0 847 248 
Q 594 497 594 1153 
L 594 3053 
L 172 3053 
L 172 3500 
L 594 3500 
L 594 4494 
L 1172 4494 
z
" transform="scale(0.015625)"/>
       <path id="DejaVuSans-72" d="M 2631 2963 
Q 2534 3019 2420 3045 
Q 2306 3072 2169 3072 
Q 1681 3072 1420 2755 
Q 1159 2438 1159 1844 
L 1159 0 
L 581 0 
L 581 3500 
L 1159 3500 
L 1159 2956 
Q 1341 3275 1631 3429 
Q 1922 3584 2338 3584 
Q 2397 3584 2469 3576 
Q 2541 3569 2628 3553 
L 2631 2963 
z
" transform="scale(0.015625)"/>
       <path id="DejaVuSans-61" d="M 2194 1759 
Q 1497 1759 1228 1600 
Q 959 1441 959 1056 
Q 959 750 1161 570 
Q 1363 391 1709 391 
Q 2188 391 2477 730 
Q 2766 1069 2766 1631 
L 2766 1759 
L 2194 1759 
z
M 3341 1997 
L 3341 0 
L 2766 0 
L 2766 531 
Q 2569 213 2275 61 
Q 1981 -91 1556 -91 
Q 1019 -91 701 211 
Q 384 513 384 1019 
Q 384 1609 779 1909 
Q 1175 2209 1959 2209 
L 2766 2209 
L 2766 2266 
Q 2766 2663 2505 2880 
Q 2244 3097 1772 3097 
Q 1472 3097 1187 3025 
Q 903 2953 641 2809 
L 641 3341 
Q 956 3463 1253 3523 
Q 1550 3584 1831 3584 
Q 2591 3584 2966 3190 
Q 3341 2797 3341 1997 
z
" transform="scale(0.015625)"/>
       <path id="DejaVuSans-69" d="M 603 3500 
L 1178 3500 
L 1178 0 
L 603 0 
L 603 3500 
z
M 603 4863 
L 1178 4863 
L 1178 4134 
L 603 4134 
L 603 4863 
z
" transform="scale(0.015625)"/>
       <path id="DejaVuSans-20" transform="scale(0.015625)"/>
       <path id="DejaVuSans-2192" d="M 5050 2147 
L 5050 1866 
L 3822 638 
L 3447 1013 
L 4175 1741 
L 366 1741 
L 366 2272 
L 4175 2272 
L 3447 3000 
L 3822 3375 
L 5050 2147 
z
" transform="scale(0.015625)"/>
      </defs>
      <use xlink:href="#DejaVuSans-43" transform="translate(0 0.015625)"/>
      <use xlink:href="#DejaVuSans-6f" transform="translate(69.824219 0.015625)"/>
      <use xlink:href="#DejaVuSans-6e" transform="translate(131.005859 0.015625)"/>
      <use xlink:href="#DejaVuSans-63" transform="translate(194.384766 0.015625)"/>
      <use xlink:href="#DejaVuSans-65" transform="translate(249.365234 0.015625)"/>
      <use xlink:href="#DejaVuSans-6e" transform="translate(310.888672 0.015625)"/>
      <use xlink:href="#DejaVuSans-74" transform="translate(374.267578 0.015625)"/>
      <use xlink:href="#DejaVuSans-72" transform="translate(413.476562 0.015625)"/>
      <use xlink:href="#DejaVuSans-61" transform="translate(454.589844 0.015625)"/>
      <use xlink:href="#DejaVuSans-74" transform="translate(515.869141 0.015625)"/>
      <use xlink:href="#DejaVuSans-69" transform="translate(555.078125 0.015625)"/>
      <use xlink:href="#DejaVuSans-6f" transform="translate(582.861328 0.015625)"/>
      <use xlink:href="#DejaVuSans-6e" transform="translate(644.042969 0.015625)"/>
      <use xlink:href="#DejaVuSans-20" transform="translate(707.421875 0.015625)"/>
      <use xlink:href="#DejaVuSans-2192" transform="translate(758.691406 0.015625)"/>
     </g>
    </g>
   </g>
   <g id="matplotlib.axis_2">
    <g id="text_2">
     <!-- Response $\rightarrow$ -->
     <g transform="translate(27.245 211.5575)rotate(-90)scale(0.16 -0.16)">
      <defs>
       <path id="DejaVuSans-52" d="M 2841 2188 
Q 3044 2119 3236 1894 
Q 3428 1669 3622 1275 
L 4263 0 
L 3584 0 
L 2988 1197 
Q 2756 1666 2539 1819 
Q 2322 1972 1947 1972 
L 1259 1972 
L 1259 0 
L 628 0 
L 628 4666 
L 2053 4666 
Q 2853 4666 3247 4331 
Q 3641 3997 3641 3322 
Q 3641 2881 3436 2590 
Q 3231 2300 2841 2188 
z
M 1259 4147 
L 1259 2491 
L 2053 2491 
Q 2509 2491 2742 2702 
Q 2975 2913 2975 3322 
Q 2975 3731 2742 3939 
Q 2509 4147 2053 4147 
L 1259 4147 
z
" transform="scale(0.015625)"/>
       <path id="DejaVuSans-73" d="M 2834 3397 
L 2834 2853 
Q 2591 2978 2328 3040 
Q 2066 3103 1784 3103 
Q 1356 3103 1142 2972 
Q 928 2841 928 2578 
Q 928 2378 1081 2264 
Q 1234 2150 1697 2047 
L 1894 2003 
Q 2506 1872 2764 1633 
Q 3022 1394 3022 966 
Q 3022 478 2636 193 
Q 2250 -91 1575 -91 
Q 1294 -91 989 -36 
Q 684 19 347 128 
L 347 722 
Q 666 556 975 473 
Q 1284 391 1588 391 
Q 1994 391 2212 530 
Q 2431 669 2431 922 
Q 2431 1156 2273 1281 
Q 2116 1406 1581 1522 
L 1381 1569 
Q 847 1681 609 1914 
Q 372 2147 372 2553 
Q 372 3047 722 3315 
Q 1072 3584 1716 3584 
Q 2034 3584 2315 3537 
Q 2597 3491 2834 3397 
z
" transform="scale(0.015625)"/>
       <path id="DejaVuSans-70" d="M 1159 525 
L 1159 -1331 
L 581 -1331 
L 581 3500 
L 1159 3500 
L 1159 2969 
Q 1341 3281 1617 3432 
Q 1894 3584 2278 3584 
Q 2916 3584 3314 3078 
Q 3713 2572 3713 1747 
Q 3713 922 3314 415 
Q 2916 -91 2278 -91 
Q 1894 -91 1617 61 
Q 1341 213 1159 525 
z
M 3116 1747 
Q 3116 2381 2855 2742 
Q 2594 3103 2138 3103 
Q 1681 3103 1420 2742 
Q 1159 2381 1159 1747 
Q 1159 1113 1420 752 
Q 1681 391 2138 391 
Q 2594 391 2855 752 
Q 3116 1113 3116 1747 
z
" transform="scale(0.015625)"/>
      </defs>
      <use xlink:href="#DejaVuSans-52" transform="translate(0 0.09375)"/>
      <use xlink:href="#DejaVuSans-65" transform="translate(69.482422 0.09375)"/>
      <use xlink:href="#DejaVuSans-73" transform="translate(131.005859 0.09375)"/>
      <use xlink:href="#DejaVuSans-70" transform="translate(183.105469 0.09375)"/>
      <use xlink:href="#DejaVuSans-6f" transform="translate(246.582031 0.09375)"/>
      <use xlink:href="#DejaVuSans-6e" transform="translate(307.763672 0.09375)"/>
      <use xlink:href="#DejaVuSans-73" transform="translate(371.142578 0.09375)"/>
      <use xlink:href="#DejaVuSans-65" transform="translate(423.242188 0.09375)"/>
      <use xlink:href="#DejaVuSans-20" transform="translate(484.765625 0.09375)"/>
      <use xlink:href="#DejaVuSans-2192" transform="translate(536.035156 0.09375)"/>
     </g>
    </g>
   </g>
   <g id="line2d_27">
    <path d="M -1 292.38696 
L 115.567762 292.319389 
L 142.971732 292.132851 
L 161.022266 291.79232 
L 174.504388 291.270541 
L 185.269654 290.545288 
L 194.231509 289.598332 
L 201.908358 288.414979 
L 208.622914 286.983855 
L 214.589772 285.296784 
L 219.958892 283.348725 
L 224.839203 281.137695 
L 229.312329 278.664697 
L 233.441014 275.933599 
L 237.274532 272.950996 
L 240.852286 269.726022 
L 244.20628 266.27013 
L 247.362862 262.596844 
L 250.343986 258.721478 
L 253.168135 254.66084 
L 255.851015 250.432916 
L 258.40609 246.056563 
L 260.844984 241.551197 
L 264.307245 234.594285 
L 267.55954 227.457403 
L 270.625884 220.204631 
L 274.459403 210.457992 
L 278.037157 200.742487 
L 282.197879 188.810561 
L 287.528857 172.804227 
L 302.048042 128.705746 
L 306.299488 116.664196 
L 310.23861 106.179445 
L 313.908172 97.089423 
L 317.342716 89.224198 
L 320.570542 82.420719 
L 323.615128 76.53022 
L 326.496165 71.421097 
L 329.56251 66.46581 
L 332.463023 62.217411 
L 335.214725 58.56098 
L 338.115239 55.077331 
L 340.866941 52.100409 
L 343.739212 49.308261 
L 346.706591 46.734276 
L 349.746199 44.395598 
L 352.837795 42.296272 
L 356.165773 40.31813 
L 359.4892 38.601315 
L 362.975152 37.044636 
L 366.747381 35.605154 
L 370.734834 34.321484 
L 375.158749 33.139146 
L 379.897325 32.107126 
L 385.198527 31.186042 
L 391.085006 30.392303 
L 397.892296 29.704827 
L 405.883246 29.129509 
L 415.570929 28.664432 
L 427.153864 28.323409 
L 427.153864 28.323409 
" clip-path="url(#pa848fd87c7)" style="fill: none; stroke: #fba649; stroke-width: 1.5; stroke-linecap: square"/>
   </g>
   <g id="line2d_28">
    <path d="M 38.105 292.391591 
L 445.68 292.391591 
" clip-path="url(#pa848fd87c7)" style="fill: none; stroke-dasharray: 5.55,2.4; stroke-dashoffset: 0; stroke: #641978; stroke-width: 1.5"/>
   </g>
   <g id="line2d_29">
    <path d="M 38.105 27.845395 
L 445.68 27.845395 
" clip-path="url(#pa848fd87c7)" style="fill: none; stroke-dasharray: 5.55,2.4; stroke-dashoffset: 0; stroke: #641978; stroke-width: 1.5"/>
   </g>
   <g id="line2d_30">
    <path d="M 180.10293 305.595 
L 180.10293 15.12 
" clip-path="url(#pa848fd87c7)" style="fill: none; stroke-dasharray: 5.55,2.4; stroke-dashoffset: 0; stroke: #4c8b30; stroke-width: 1.5"/>
   </g>
   <g id="line2d_31">
    <path d="M 399.749893 305.595 
L 399.749893 15.12 
" clip-path="url(#pa848fd87c7)" style="fill: none; stroke-dasharray: 5.55,2.4; stroke-dashoffset: 0; stroke: #4c8b30; stroke-width: 1.5"/>
   </g>
   <g id="patch_3">
    <path d="M 38.105 305.595 
L 38.105 15.12 
" style="fill: none; stroke: #000000; stroke-width: 0.8; stroke-linejoin: miter; stroke-linecap: square"/>
   </g>
   <g id="patch_4">
    <path d="M 445.68 305.595 
L 445.68 15.12 
" style="fill: none; stroke: #000000; stroke-width: 0.8; stroke-linejoin: miter; stroke-linecap: square"/>
   </g>
   <g id="patch_5">
    <path d="M 38.105 305.595 
L 445.68 305.595 
" style="fill: none; stroke: #000000; stroke-width: 0.8; stroke-linejoin: miter; stroke-linecap: square"/>
   </g>
   <g id="patch_6">
    <path d="M 38.105 15.12 
L 445.68 15.12 
" style="fill: none; stroke: #000000; stroke-width: 0.8; stroke-linejoin: miter; stroke-linecap: square"/>
   </g>
   <g id="patch_7">
    <path d="M 284.49406 30.961573 
Q 284.49406 160.118027 284.49406 289.27448 
" style="fill: none; stroke: #641978; stroke-linecap: round"/>
    <path d="M 281.69406 36.561573 
L 284.49406 30.961573 
L 287.29406 36.561573 
" style="fill: none; stroke: #641978; stroke-linecap: round"/>
    <path d="M 287.29406 283.67448 
L 284.49406 289.27448 
L 281.69406 283.67448 
" style="fill: none; stroke: #641978; stroke-linecap: round"/>
   </g>
   <g id="text_3">
    <!-- $\leftarrow$Dynamic range -->
    <g transform="translate(285.255015 188.366073)scale(0.1 -0.1)">
     <defs>
      <path id="DejaVuSans-2190" d="M 313 1866 
L 313 2147 
L 1541 3375 
L 1916 3000 
L 1188 2272 
L 4997 2272 
L 4997 1741 
L 1188 1741 
L 1916 1013 
L 1541 638 
L 313 1866 
z
" transform="scale(0.015625)"/>
      <path id="DejaVuSans-44" d="M 1259 4147 
L 1259 519 
L 2022 519 
Q 2988 519 3436 956 
Q 3884 1394 3884 2338 
Q 3884 3275 3436 3711 
Q 2988 4147 2022 4147 
L 1259 4147 
z
M 628 4666 
L 1925 4666 
Q 3281 4666 3915 4102 
Q 4550 3538 4550 2338 
Q 4550 1131 3912 565 
Q 3275 0 1925 0 
L 628 0 
L 628 4666 
z
" transform="scale(0.015625)"/>
      <path id="DejaVuSans-79" d="M 2059 -325 
Q 1816 -950 1584 -1140 
Q 1353 -1331 966 -1331 
L 506 -1331 
L 506 -850 
L 844 -850 
Q 1081 -850 1212 -737 
Q 1344 -625 1503 -206 
L 1606 56 
L 191 3500 
L 800 3500 
L 1894 763 
L 2988 3500 
L 3597 3500 
L 2059 -325 
z
" transform="scale(0.015625)"/>
      <path id="DejaVuSans-6d" d="M 3328 2828 
Q 3544 3216 3844 3400 
Q 4144 3584 4550 3584 
Q 5097 3584 5394 3201 
Q 5691 2819 5691 2113 
L 5691 0 
L 5113 0 
L 5113 2094 
Q 5113 2597 4934 2840 
Q 4756 3084 4391 3084 
Q 3944 3084 3684 2787 
Q 3425 2491 3425 1978 
L 3425 0 
L 2847 0 
L 2847 2094 
Q 2847 2600 2669 2842 
Q 2491 3084 2119 3084 
Q 1678 3084 1418 2786 
Q 1159 2488 1159 1978 
L 1159 0 
L 581 0 
L 581 3500 
L 1159 3500 
L 1159 2956 
Q 1356 3278 1631 3431 
Q 1906 3584 2284 3584 
Q 2666 3584 2933 3390 
Q 3200 3197 3328 2828 
z
" transform="scale(0.015625)"/>
      <path id="DejaVuSans-67" d="M 2906 1791 
Q 2906 2416 2648 2759 
Q 2391 3103 1925 3103 
Q 1463 3103 1205 2759 
Q 947 2416 947 1791 
Q 947 1169 1205 825 
Q 1463 481 1925 481 
Q 2391 481 2648 825 
Q 2906 1169 2906 1791 
z
M 3481 434 
Q 3481 -459 3084 -895 
Q 2688 -1331 1869 -1331 
Q 1566 -1331 1297 -1286 
Q 1028 -1241 775 -1147 
L 775 -588 
Q 1028 -725 1275 -790 
Q 1522 -856 1778 -856 
Q 2344 -856 2625 -561 
Q 2906 -266 2906 331 
L 2906 616 
Q 2728 306 2450 153 
Q 2172 0 1784 0 
Q 1141 0 747 490 
Q 353 981 353 1791 
Q 353 2603 747 3093 
Q 1141 3584 1784 3584 
Q 2172 3584 2450 3431 
Q 2728 3278 2906 2969 
L 2906 3500 
L 3481 3500 
L 3481 434 
z
" transform="scale(0.015625)"/>
     </defs>
     <use xlink:href="#DejaVuSans-2190" transform="translate(19.482422 0.015625)"/>
     <use xlink:href="#DejaVuSans-44" transform="translate(122.753906 0.015625)"/>
     <use xlink:href="#DejaVuSans-79" transform="translate(199.755859 0.015625)"/>
     <use xlink:href="#DejaVuSans-6e" transform="translate(258.935547 0.015625)"/>
     <use xlink:href="#DejaVuSans-61" transform="translate(322.314453 0.015625)"/>
     <use xlink:href="#DejaVuSans-6d" transform="translate(383.59375 0.015625)"/>
     <use xlink:href="#DejaVuSans-69" transform="translate(481.005859 0.015625)"/>
     <use xlink:href="#DejaVuSans-63" transform="translate(508.789062 0.015625)"/>
     <use xlink:href="#DejaVuSans-20" transform="translate(563.769531 0.015625)"/>
     <use xlink:href="#DejaVuSans-72" transform="translate(595.556641 0.015625)"/>
     <use xlink:href="#DejaVuSans-61" transform="translate(636.669922 0.015625)"/>
     <use xlink:href="#DejaVuSans-6e" transform="translate(697.949219 0.015625)"/>
     <use xlink:href="#DejaVuSans-67" transform="translate(761.328125 0.015625)"/>
     <use xlink:href="#DejaVuSans-65" transform="translate(824.804688 0.015625)"/>
    </g>
   </g>
   <g id="patch_8">
    <path d="M 396.630986 78.420403 
Q 289.927261 78.420403 183.223536 78.420403 
" style="fill: none; stroke: #4c8b30; stroke-linecap: round"/>
    <path d="M 391.030986 75.620403 
L 396.630986 78.420403 
L 391.030986 81.220403 
" style="fill: none; stroke: #4c8b30; stroke-linecap: round"/>
    <path d="M 188.823536 81.220403 
L 183.223536 78.420403 
L 188.823536 75.620403 
" style="fill: none; stroke: #4c8b30; stroke-linecap: round"/>
   </g>
   <g id="text_4">
    <!-- Operational range$\rightarrow$ -->
    <g transform="translate(61.690514 70.639632)scale(0.1 -0.1)">
     <defs>
      <path id="DejaVuSans-4f" d="M 2522 4238 
Q 1834 4238 1429 3725 
Q 1025 3213 1025 2328 
Q 1025 1447 1429 934 
Q 1834 422 2522 422 
Q 3209 422 3611 934 
Q 4013 1447 4013 2328 
Q 4013 3213 3611 3725 
Q 3209 4238 2522 4238 
z
M 2522 4750 
Q 3503 4750 4090 4092 
Q 4678 3434 4678 2328 
Q 4678 1225 4090 567 
Q 3503 -91 2522 -91 
Q 1538 -91 948 565 
Q 359 1222 359 2328 
Q 359 3434 948 4092 
Q 1538 4750 2522 4750 
z
" transform="scale(0.015625)"/>
      <path id="DejaVuSans-6c" d="M 603 4863 
L 1178 4863 
L 1178 0 
L 603 0 
L 603 4863 
z
" transform="scale(0.015625)"/>
     </defs>
     <use xlink:href="#DejaVuSans-4f" transform="translate(0 0.015625)"/>
     <use xlink:href="#DejaVuSans-70" transform="translate(78.710938 0.015625)"/>
     <use xlink:href="#DejaVuSans-65" transform="translate(142.1875 0.015625)"/>
     <use xlink:href="#DejaVuSans-72" transform="translate(203.710938 0.015625)"/>
     <use xlink:href="#DejaVuSans-61" transform="translate(244.824219 0.015625)"/>
     <use xlink:href="#DejaVuSans-74" transform="translate(306.103516 0.015625)"/>
     <use xlink:href="#DejaVuSans-69" transform="translate(345.3125 0.015625)"/>
     <use xlink:href="#DejaVuSans-6f" transform="translate(373.095703 0.015625)"/>
     <use xlink:href="#DejaVuSans-6e" transform="translate(434.277344 0.015625)"/>
     <use xlink:href="#DejaVuSans-61" transform="translate(497.65625 0.015625)"/>
     <use xlink:href="#DejaVuSans-6c" transform="translate(558.935547 0.015625)"/>
     <use xlink:href="#DejaVuSans-20" transform="translate(586.71875 0.015625)"/>
     <use xlink:href="#DejaVuSans-72" transform="translate(618.505859 0.015625)"/>
     <use xlink:href="#DejaVuSans-61" transform="translate(659.619141 0.015625)"/>
     <use xlink:href="#DejaVuSans-6e" transform="translate(720.898438 0.015625)"/>
     <use xlink:href="#DejaVuSans-67" transform="translate(784.277344 0.015625)"/>
     <use xlink:href="#DejaVuSans-65" transform="translate(847.753906 0.015625)"/>
     <use xlink:href="#DejaVuSans-2192" transform="translate(928.759766 0.015625)"/>
    </g>
   </g>
  </g>
 </g>
 <defs>
  <clipPath id="pa848fd87c7">
   <rect x="38.105" y="15.12" width="407.575" height="290.475"/>
  </clipPath>
 </defs>
</svg>
