<?xml version="1.0" encoding="utf-8" standalone="no"?>
<!DOCTYPE svg PUBLIC "-//W3C//DTD SVG 1.1//EN"
  "http://www.w3.org/Graphics/SVG/1.1/DTD/svg11.dtd">
<svg xmlns:xlink="http://www.w3.org/1999/xlink" width="576pt" height="324pt" viewBox="0 0 576 324" xmlns="http://www.w3.org/2000/svg" version="1.1">
 <metadata>
  <rdf:RDF xmlns:dc="http://purl.org/dc/elements/1.1/" xmlns:cc="http://creativecommons.org/ns#" xmlns:rdf="http://www.w3.org/1999/02/22-rdf-syntax-ns#">
   <cc:Work>
    <dc:type rdf:resource="http://purl.org/dc/dcmitype/StillImage"/>
    <dc:date>2022-12-02T13:51:19.139897</dc:date>
    <dc:format>image/svg+xml</dc:format>
    <dc:creator>
     <cc:Agent>
      <dc:title>Matplotlib v3.5.3, https://matplotlib.org/</dc:title>
     </cc:Agent>
    </dc:creator>
   </cc:Work>
  </rdf:RDF>
 </metadata>
 <defs>
  <style type="text/css">*{stroke-linejoin: round; stroke-linecap: butt}</style>
 </defs>
 <g id="figure_1">
  <g id="patch_1">
   <path d="M 0 324 
L 576 324 
L 576 0 
L 0 0 
z
" style="fill: #ffffff"/>
  </g>
  <g id="axes_1">
   <g id="patch_2">
    <path d="M 63.869375 268.845625 
L 560.88 268.845625 
L 560.88 15.12 
L 63.869375 15.12 
z
" style="fill: #ffffff"/>
   </g>
   <g id="patch_3">
    <path d="M 338.895665 268.845625 
L 338.895665 15.12 
L 384.233576 15.12 
L 384.233576 268.845625 
z
" clip-path="url(#p0819c28779)" style="fill: #4d8b31; opacity: 0.3; stroke: #4d8b31; stroke-linejoin: miter"/>
   </g>
   <g id="patch_4">
    <path d="M 462.983968 268.845625 
L 462.983968 15.12 
L 522.917426 15.12 
L 522.917426 268.845625 
z
" clip-path="url(#p0819c28779)" style="fill: #ec6c5f; opacity: 0.3; stroke: #ec6c5f; stroke-linejoin: miter"/>
   </g>
   <g id="matplotlib.axis_1">
    <g id="xtick_1">
     <g id="line2d_1">
      <defs>
       <path id="me7df01c405" d="M 0 0 
L 0 3.5 
" style="stroke: #000000; stroke-width: 0.8"/>
      </defs>
      <g>
       <use xlink:href="#me7df01c405" x="161.765407" y="268.845625" style="stroke: #000000; stroke-width: 0.8"/>
      </g>
     </g>
     <g id="text_1">
      <!-- $\mathdefault{10^{-1}}$ -->
      <g transform="translate(145.315407 286.483437)scale(0.14 -0.14)">
       <defs>
        <path id="DejaVuSans-31" d="M 794 531 
L 1825 531 
L 1825 4091 
L 703 3866 
L 703 4441 
L 1819 4666 
L 2450 4666 
L 2450 531 
L 3481 531 
L 3481 0 
L 794 0 
L 794 531 
z
" transform="scale(0.015625)"/>
        <path id="DejaVuSans-30" d="M 2034 4250 
Q 1547 4250 1301 3770 
Q 1056 3291 1056 2328 
Q 1056 1369 1301 889 
Q 1547 409 2034 409 
Q 2525 409 2770 889 
Q 3016 1369 3016 2328 
Q 3016 3291 2770 3770 
Q 2525 4250 2034 4250 
z
M 2034 4750 
Q 2819 4750 3233 4129 
Q 3647 3509 3647 2328 
Q 3647 1150 3233 529 
Q 2819 -91 2034 -91 
Q 1250 -91 836 529 
Q 422 1150 422 2328 
Q 422 3509 836 4129 
Q 1250 4750 2034 4750 
z
" transform="scale(0.015625)"/>
        <path id="DejaVuSans-2212" d="M 678 2272 
L 4684 2272 
L 4684 1741 
L 678 1741 
L 678 2272 
z
" transform="scale(0.015625)"/>
       </defs>
       <use xlink:href="#DejaVuSans-31" transform="translate(0 0.684375)"/>
       <use xlink:href="#DejaVuSans-30" transform="translate(63.623047 0.684375)"/>
       <use xlink:href="#DejaVuSans-2212" transform="translate(128.203125 38.965625)scale(0.7)"/>
       <use xlink:href="#DejaVuSans-31" transform="translate(186.855469 38.965625)scale(0.7)"/>
      </g>
     </g>
    </g>
    <g id="xtick_2">
     <g id="line2d_2">
      <g>
       <use xlink:href="#me7df01c405" x="312.374687" y="268.845625" style="stroke: #000000; stroke-width: 0.8"/>
      </g>
     </g>
     <g id="text_2">
      <!-- $\mathdefault{10^{0}}$ -->
      <g transform="translate(300.054688 286.483437)scale(0.14 -0.14)">
       <use xlink:href="#DejaVuSans-31" transform="translate(0 0.765625)"/>
       <use xlink:href="#DejaVuSans-30" transform="translate(63.623047 0.765625)"/>
       <use xlink:href="#DejaVuSans-30" transform="translate(128.203125 39.046875)scale(0.7)"/>
      </g>
     </g>
    </g>
    <g id="xtick_3">
     <g id="line2d_3">
      <g>
       <use xlink:href="#me7df01c405" x="462.983968" y="268.845625" style="stroke: #000000; stroke-width: 0.8"/>
      </g>
     </g>
     <g id="text_3">
      <!-- $\mathdefault{10^{1}}$ -->
      <g transform="translate(450.663968 286.483437)scale(0.14 -0.14)">
       <use xlink:href="#DejaVuSans-31" transform="translate(0 0.684375)"/>
       <use xlink:href="#DejaVuSans-30" transform="translate(63.623047 0.684375)"/>
       <use xlink:href="#DejaVuSans-31" transform="translate(128.203125 38.965625)scale(0.7)"/>
      </g>
     </g>
    </g>
    <g id="xtick_4">
     <g id="line2d_4">
      <defs>
       <path id="m30c752929a" d="M 0 0 
L 0 2 
" style="stroke: #000000; stroke-width: 0.6"/>
      </defs>
      <g>
       <use xlink:href="#m30c752929a" x="83.015016" y="268.845625" style="stroke: #000000; stroke-width: 0.6"/>
      </g>
     </g>
    </g>
    <g id="xtick_5">
     <g id="line2d_5">
      <g>
       <use xlink:href="#m30c752929a" x="101.831949" y="268.845625" style="stroke: #000000; stroke-width: 0.6"/>
      </g>
     </g>
    </g>
    <g id="xtick_6">
     <g id="line2d_6">
      <g>
       <use xlink:href="#m30c752929a" x="116.427496" y="268.845625" style="stroke: #000000; stroke-width: 0.6"/>
      </g>
     </g>
    </g>
    <g id="xtick_7">
     <g id="line2d_7">
      <g>
       <use xlink:href="#m30c752929a" x="128.352927" y="268.845625" style="stroke: #000000; stroke-width: 0.6"/>
      </g>
     </g>
    </g>
    <g id="xtick_8">
     <g id="line2d_8">
      <g>
       <use xlink:href="#m30c752929a" x="138.435734" y="268.845625" style="stroke: #000000; stroke-width: 0.6"/>
      </g>
     </g>
    </g>
    <g id="xtick_9">
     <g id="line2d_9">
      <g>
       <use xlink:href="#m30c752929a" x="147.16986" y="268.845625" style="stroke: #000000; stroke-width: 0.6"/>
      </g>
     </g>
    </g>
    <g id="xtick_10">
     <g id="line2d_10">
      <g>
       <use xlink:href="#m30c752929a" x="154.873904" y="268.845625" style="stroke: #000000; stroke-width: 0.6"/>
      </g>
     </g>
    </g>
    <g id="xtick_11">
     <g id="line2d_11">
      <g>
       <use xlink:href="#m30c752929a" x="207.103318" y="268.845625" style="stroke: #000000; stroke-width: 0.6"/>
      </g>
     </g>
    </g>
    <g id="xtick_12">
     <g id="line2d_12">
      <g>
       <use xlink:href="#m30c752929a" x="233.624296" y="268.845625" style="stroke: #000000; stroke-width: 0.6"/>
      </g>
     </g>
    </g>
    <g id="xtick_13">
     <g id="line2d_13">
      <g>
       <use xlink:href="#m30c752929a" x="252.441229" y="268.845625" style="stroke: #000000; stroke-width: 0.6"/>
      </g>
     </g>
    </g>
    <g id="xtick_14">
     <g id="line2d_14">
      <g>
       <use xlink:href="#m30c752929a" x="267.036777" y="268.845625" style="stroke: #000000; stroke-width: 0.6"/>
      </g>
     </g>
    </g>
    <g id="xtick_15">
     <g id="line2d_15">
      <g>
       <use xlink:href="#m30c752929a" x="278.962207" y="268.845625" style="stroke: #000000; stroke-width: 0.6"/>
      </g>
     </g>
    </g>
    <g id="xtick_16">
     <g id="line2d_16">
      <g>
       <use xlink:href="#m30c752929a" x="289.045015" y="268.845625" style="stroke: #000000; stroke-width: 0.6"/>
      </g>
     </g>
    </g>
    <g id="xtick_17">
     <g id="line2d_17">
      <g>
       <use xlink:href="#m30c752929a" x="297.77914" y="268.845625" style="stroke: #000000; stroke-width: 0.6"/>
      </g>
     </g>
    </g>
    <g id="xtick_18">
     <g id="line2d_18">
      <g>
       <use xlink:href="#m30c752929a" x="305.483185" y="268.845625" style="stroke: #000000; stroke-width: 0.6"/>
      </g>
     </g>
    </g>
    <g id="xtick_19">
     <g id="line2d_19">
      <g>
       <use xlink:href="#m30c752929a" x="357.712598" y="268.845625" style="stroke: #000000; stroke-width: 0.6"/>
      </g>
     </g>
    </g>
    <g id="xtick_20">
     <g id="line2d_20">
      <g>
       <use xlink:href="#m30c752929a" x="384.233576" y="268.845625" style="stroke: #000000; stroke-width: 0.6"/>
      </g>
     </g>
    </g>
    <g id="xtick_21">
     <g id="line2d_21">
      <g>
       <use xlink:href="#m30c752929a" x="403.050509" y="268.845625" style="stroke: #000000; stroke-width: 0.6"/>
      </g>
     </g>
    </g>
    <g id="xtick_22">
     <g id="line2d_22">
      <g>
       <use xlink:href="#m30c752929a" x="417.646057" y="268.845625" style="stroke: #000000; stroke-width: 0.6"/>
      </g>
     </g>
    </g>
    <g id="xtick_23">
     <g id="line2d_23">
      <g>
       <use xlink:href="#m30c752929a" x="429.571487" y="268.845625" style="stroke: #000000; stroke-width: 0.6"/>
      </g>
     </g>
    </g>
    <g id="xtick_24">
     <g id="line2d_24">
      <g>
       <use xlink:href="#m30c752929a" x="439.654295" y="268.845625" style="stroke: #000000; stroke-width: 0.6"/>
      </g>
     </g>
    </g>
    <g id="xtick_25">
     <g id="line2d_25">
      <g>
       <use xlink:href="#m30c752929a" x="448.38842" y="268.845625" style="stroke: #000000; stroke-width: 0.6"/>
      </g>
     </g>
    </g>
    <g id="xtick_26">
     <g id="line2d_26">
      <g>
       <use xlink:href="#m30c752929a" x="456.092465" y="268.845625" style="stroke: #000000; stroke-width: 0.6"/>
      </g>
     </g>
    </g>
    <g id="xtick_27">
     <g id="line2d_27">
      <g>
       <use xlink:href="#m30c752929a" x="508.321879" y="268.845625" style="stroke: #000000; stroke-width: 0.6"/>
      </g>
     </g>
    </g>
    <g id="xtick_28">
     <g id="line2d_28">
      <g>
       <use xlink:href="#m30c752929a" x="534.842857" y="268.845625" style="stroke: #000000; stroke-width: 0.6"/>
      </g>
     </g>
    </g>
    <g id="xtick_29">
     <g id="line2d_29">
      <g>
       <use xlink:href="#m30c752929a" x="553.65979" y="268.845625" style="stroke: #000000; stroke-width: 0.6"/>
      </g>
     </g>
    </g>
    <g id="text_4">
     <!-- L-lactate concentration (mM) -->
     <g transform="translate(196.120937 305.5525)scale(0.16 -0.16)">
      <defs>
       <path id="DejaVuSans-4c" d="M 628 4666 
L 1259 4666 
L 1259 531 
L 3531 531 
L 3531 0 
L 628 0 
L 628 4666 
z
" transform="scale(0.015625)"/>
       <path id="DejaVuSans-2d" d="M 313 2009 
L 1997 2009 
L 1997 1497 
L 313 1497 
L 313 2009 
z
" transform="scale(0.015625)"/>
       <path id="DejaVuSans-6c" d="M 603 4863 
L 1178 4863 
L 1178 0 
L 603 0 
L 603 4863 
z
" transform="scale(0.015625)"/>
       <path id="DejaVuSans-61" d="M 2194 1759 
Q 1497 1759 1228 1600 
Q 959 1441 959 1056 
Q 959 750 1161 570 
Q 1363 391 1709 391 
Q 2188 391 2477 730 
Q 2766 1069 2766 1631 
L 2766 1759 
L 2194 1759 
z
M 3341 1997 
L 3341 0 
L 2766 0 
L 2766 531 
Q 2569 213 2275 61 
Q 1981 -91 1556 -91 
Q 1019 -91 701 211 
Q 384 513 384 1019 
Q 384 1609 779 1909 
Q 1175 2209 1959 2209 
L 2766 2209 
L 2766 2266 
Q 2766 2663 2505 2880 
Q 2244 3097 1772 3097 
Q 1472 3097 1187 3025 
Q 903 2953 641 2809 
L 641 3341 
Q 956 3463 1253 3523 
Q 1550 3584 1831 3584 
Q 2591 3584 2966 3190 
Q 3341 2797 3341 1997 
z
" transform="scale(0.015625)"/>
       <path id="DejaVuSans-63" d="M 3122 3366 
L 3122 2828 
Q 2878 2963 2633 3030 
Q 2388 3097 2138 3097 
Q 1578 3097 1268 2742 
Q 959 2388 959 1747 
Q 959 1106 1268 751 
Q 1578 397 2138 397 
Q 2388 397 2633 464 
Q 2878 531 3122 666 
L 3122 134 
Q 2881 22 2623 -34 
Q 2366 -91 2075 -91 
Q 1284 -91 818 406 
Q 353 903 353 1747 
Q 353 2603 823 3093 
Q 1294 3584 2113 3584 
Q 2378 3584 2631 3529 
Q 2884 3475 3122 3366 
z
" transform="scale(0.015625)"/>
       <path id="DejaVuSans-74" d="M 1172 4494 
L 1172 3500 
L 2356 3500 
L 2356 3053 
L 1172 3053 
L 1172 1153 
Q 1172 725 1289 603 
Q 1406 481 1766 481 
L 2356 481 
L 2356 0 
L 1766 0 
Q 1100 0 847 248 
Q 594 497 594 1153 
L 594 3053 
L 172 3053 
L 172 3500 
L 594 3500 
L 594 4494 
L 1172 4494 
z
" transform="scale(0.015625)"/>
       <path id="DejaVuSans-65" d="M 3597 1894 
L 3597 1613 
L 953 1613 
Q 991 1019 1311 708 
Q 1631 397 2203 397 
Q 2534 397 2845 478 
Q 3156 559 3463 722 
L 3463 178 
Q 3153 47 2828 -22 
Q 2503 -91 2169 -91 
Q 1331 -91 842 396 
Q 353 884 353 1716 
Q 353 2575 817 3079 
Q 1281 3584 2069 3584 
Q 2775 3584 3186 3129 
Q 3597 2675 3597 1894 
z
M 3022 2063 
Q 3016 2534 2758 2815 
Q 2500 3097 2075 3097 
Q 1594 3097 1305 2825 
Q 1016 2553 972 2059 
L 3022 2063 
z
" transform="scale(0.015625)"/>
       <path id="DejaVuSans-20" transform="scale(0.015625)"/>
       <path id="DejaVuSans-6f" d="M 1959 3097 
Q 1497 3097 1228 2736 
Q 959 2375 959 1747 
Q 959 1119 1226 758 
Q 1494 397 1959 397 
Q 2419 397 2687 759 
Q 2956 1122 2956 1747 
Q 2956 2369 2687 2733 
Q 2419 3097 1959 3097 
z
M 1959 3584 
Q 2709 3584 3137 3096 
Q 3566 2609 3566 1747 
Q 3566 888 3137 398 
Q 2709 -91 1959 -91 
Q 1206 -91 779 398 
Q 353 888 353 1747 
Q 353 2609 779 3096 
Q 1206 3584 1959 3584 
z
" transform="scale(0.015625)"/>
       <path id="DejaVuSans-6e" d="M 3513 2113 
L 3513 0 
L 2938 0 
L 2938 2094 
Q 2938 2591 2744 2837 
Q 2550 3084 2163 3084 
Q 1697 3084 1428 2787 
Q 1159 2491 1159 1978 
L 1159 0 
L 581 0 
L 581 3500 
L 1159 3500 
L 1159 2956 
Q 1366 3272 1645 3428 
Q 1925 3584 2291 3584 
Q 2894 3584 3203 3211 
Q 3513 2838 3513 2113 
z
" transform="scale(0.015625)"/>
       <path id="DejaVuSans-72" d="M 2631 2963 
Q 2534 3019 2420 3045 
Q 2306 3072 2169 3072 
Q 1681 3072 1420 2755 
Q 1159 2438 1159 1844 
L 1159 0 
L 581 0 
L 581 3500 
L 1159 3500 
L 1159 2956 
Q 1341 3275 1631 3429 
Q 1922 3584 2338 3584 
Q 2397 3584 2469 3576 
Q 2541 3569 2628 3553 
L 2631 2963 
z
" transform="scale(0.015625)"/>
       <path id="DejaVuSans-69" d="M 603 3500 
L 1178 3500 
L 1178 0 
L 603 0 
L 603 3500 
z
M 603 4863 
L 1178 4863 
L 1178 4134 
L 603 4134 
L 603 4863 
z
" transform="scale(0.015625)"/>
       <path id="DejaVuSans-28" d="M 1984 4856 
Q 1566 4138 1362 3434 
Q 1159 2731 1159 2009 
Q 1159 1288 1364 580 
Q 1569 -128 1984 -844 
L 1484 -844 
Q 1016 -109 783 600 
Q 550 1309 550 2009 
Q 550 2706 781 3412 
Q 1013 4119 1484 4856 
L 1984 4856 
z
" transform="scale(0.015625)"/>
       <path id="DejaVuSans-6d" d="M 3328 2828 
Q 3544 3216 3844 3400 
Q 4144 3584 4550 3584 
Q 5097 3584 5394 3201 
Q 5691 2819 5691 2113 
L 5691 0 
L 5113 0 
L 5113 2094 
Q 5113 2597 4934 2840 
Q 4756 3084 4391 3084 
Q 3944 3084 3684 2787 
Q 3425 2491 3425 1978 
L 3425 0 
L 2847 0 
L 2847 2094 
Q 2847 2600 2669 2842 
Q 2491 3084 2119 3084 
Q 1678 3084 1418 2786 
Q 1159 2488 1159 1978 
L 1159 0 
L 581 0 
L 581 3500 
L 1159 3500 
L 1159 2956 
Q 1356 3278 1631 3431 
Q 1906 3584 2284 3584 
Q 2666 3584 2933 3390 
Q 3200 3197 3328 2828 
z
" transform="scale(0.015625)"/>
       <path id="DejaVuSans-4d" d="M 628 4666 
L 1569 4666 
L 2759 1491 
L 3956 4666 
L 4897 4666 
L 4897 0 
L 4281 0 
L 4281 4097 
L 3078 897 
L 2444 897 
L 1241 4097 
L 1241 0 
L 628 0 
L 628 4666 
z
" transform="scale(0.015625)"/>
       <path id="DejaVuSans-29" d="M 513 4856 
L 1013 4856 
Q 1481 4119 1714 3412 
Q 1947 2706 1947 2009 
Q 1947 1309 1714 600 
Q 1481 -109 1013 -844 
L 513 -844 
Q 928 -128 1133 580 
Q 1338 1288 1338 2009 
Q 1338 2731 1133 3434 
Q 928 4138 513 4856 
z
" transform="scale(0.015625)"/>
      </defs>
      <use xlink:href="#DejaVuSans-4c"/>
      <use xlink:href="#DejaVuSans-2d" x="53.962891"/>
      <use xlink:href="#DejaVuSans-6c" x="90.046875"/>
      <use xlink:href="#DejaVuSans-61" x="117.830078"/>
      <use xlink:href="#DejaVuSans-63" x="179.109375"/>
      <use xlink:href="#DejaVuSans-74" x="234.089844"/>
      <use xlink:href="#DejaVuSans-61" x="273.298828"/>
      <use xlink:href="#DejaVuSans-74" x="334.578125"/>
      <use xlink:href="#DejaVuSans-65" x="373.787109"/>
      <use xlink:href="#DejaVuSans-20" x="435.310547"/>
      <use xlink:href="#DejaVuSans-63" x="467.097656"/>
      <use xlink:href="#DejaVuSans-6f" x="522.078125"/>
      <use xlink:href="#DejaVuSans-6e" x="583.259766"/>
      <use xlink:href="#DejaVuSans-63" x="646.638672"/>
      <use xlink:href="#DejaVuSans-65" x="701.619141"/>
      <use xlink:href="#DejaVuSans-6e" x="763.142578"/>
      <use xlink:href="#DejaVuSans-74" x="826.521484"/>
      <use xlink:href="#DejaVuSans-72" x="865.730469"/>
      <use xlink:href="#DejaVuSans-61" x="906.84375"/>
      <use xlink:href="#DejaVuSans-74" x="968.123047"/>
      <use xlink:href="#DejaVuSans-69" x="1007.332031"/>
      <use xlink:href="#DejaVuSans-6f" x="1035.115234"/>
      <use xlink:href="#DejaVuSans-6e" x="1096.296875"/>
      <use xlink:href="#DejaVuSans-20" x="1159.675781"/>
      <use xlink:href="#DejaVuSans-28" x="1191.462891"/>
      <use xlink:href="#DejaVuSans-6d" x="1230.476562"/>
      <use xlink:href="#DejaVuSans-4d" x="1327.888672"/>
      <use xlink:href="#DejaVuSans-29" x="1414.167969"/>
     </g>
    </g>
   </g>
   <g id="matplotlib.axis_2">
    <g id="ytick_1">
     <g id="line2d_30">
      <defs>
       <path id="mdda62ff037" d="M 0 0 
L -3.5 0 
" style="stroke: #000000; stroke-width: 0.8"/>
      </defs>
      <g>
       <use xlink:href="#mdda62ff037" x="63.869375" y="268.845625" style="stroke: #000000; stroke-width: 0.8"/>
      </g>
     </g>
     <g id="text_5">
      <!-- 0.0 -->
      <g transform="translate(34.605 274.164531)scale(0.14 -0.14)">
       <defs>
        <path id="DejaVuSans-2e" d="M 684 794 
L 1344 794 
L 1344 0 
L 684 0 
L 684 794 
z
" transform="scale(0.015625)"/>
       </defs>
       <use xlink:href="#DejaVuSans-30"/>
       <use xlink:href="#DejaVuSans-2e" x="63.623047"/>
       <use xlink:href="#DejaVuSans-30" x="95.410156"/>
      </g>
     </g>
    </g>
    <g id="ytick_2">
     <g id="line2d_31">
      <g>
       <use xlink:href="#mdda62ff037" x="63.869375" y="219.565482" style="stroke: #000000; stroke-width: 0.8"/>
      </g>
     </g>
     <g id="text_6">
      <!-- 0.2 -->
      <g transform="translate(34.605 224.884388)scale(0.14 -0.14)">
       <defs>
        <path id="DejaVuSans-32" d="M 1228 531 
L 3431 531 
L 3431 0 
L 469 0 
L 469 531 
Q 828 903 1448 1529 
Q 2069 2156 2228 2338 
Q 2531 2678 2651 2914 
Q 2772 3150 2772 3378 
Q 2772 3750 2511 3984 
Q 2250 4219 1831 4219 
Q 1534 4219 1204 4116 
Q 875 4013 500 3803 
L 500 4441 
Q 881 4594 1212 4672 
Q 1544 4750 1819 4750 
Q 2544 4750 2975 4387 
Q 3406 4025 3406 3419 
Q 3406 3131 3298 2873 
Q 3191 2616 2906 2266 
Q 2828 2175 2409 1742 
Q 1991 1309 1228 531 
z
" transform="scale(0.015625)"/>
       </defs>
       <use xlink:href="#DejaVuSans-30"/>
       <use xlink:href="#DejaVuSans-2e" x="63.623047"/>
       <use xlink:href="#DejaVuSans-32" x="95.410156"/>
      </g>
     </g>
    </g>
    <g id="ytick_3">
     <g id="line2d_32">
      <g>
       <use xlink:href="#mdda62ff037" x="63.869375" y="170.285339" style="stroke: #000000; stroke-width: 0.8"/>
      </g>
     </g>
     <g id="text_7">
      <!-- 0.4 -->
      <g transform="translate(34.605 175.604245)scale(0.14 -0.14)">
       <defs>
        <path id="DejaVuSans-34" d="M 2419 4116 
L 825 1625 
L 2419 1625 
L 2419 4116 
z
M 2253 4666 
L 3047 4666 
L 3047 1625 
L 3713 1625 
L 3713 1100 
L 3047 1100 
L 3047 0 
L 2419 0 
L 2419 1100 
L 313 1100 
L 313 1709 
L 2253 4666 
z
" transform="scale(0.015625)"/>
       </defs>
       <use xlink:href="#DejaVuSans-30"/>
       <use xlink:href="#DejaVuSans-2e" x="63.623047"/>
       <use xlink:href="#DejaVuSans-34" x="95.410156"/>
      </g>
     </g>
    </g>
    <g id="ytick_4">
     <g id="line2d_33">
      <g>
       <use xlink:href="#mdda62ff037" x="63.869375" y="121.005195" style="stroke: #000000; stroke-width: 0.8"/>
      </g>
     </g>
     <g id="text_8">
      <!-- 0.6 -->
      <g transform="translate(34.605 126.324102)scale(0.14 -0.14)">
       <defs>
        <path id="DejaVuSans-36" d="M 2113 2584 
Q 1688 2584 1439 2293 
Q 1191 2003 1191 1497 
Q 1191 994 1439 701 
Q 1688 409 2113 409 
Q 2538 409 2786 701 
Q 3034 994 3034 1497 
Q 3034 2003 2786 2293 
Q 2538 2584 2113 2584 
z
M 3366 4563 
L 3366 3988 
Q 3128 4100 2886 4159 
Q 2644 4219 2406 4219 
Q 1781 4219 1451 3797 
Q 1122 3375 1075 2522 
Q 1259 2794 1537 2939 
Q 1816 3084 2150 3084 
Q 2853 3084 3261 2657 
Q 3669 2231 3669 1497 
Q 3669 778 3244 343 
Q 2819 -91 2113 -91 
Q 1303 -91 875 529 
Q 447 1150 447 2328 
Q 447 3434 972 4092 
Q 1497 4750 2381 4750 
Q 2619 4750 2861 4703 
Q 3103 4656 3366 4563 
z
" transform="scale(0.015625)"/>
       </defs>
       <use xlink:href="#DejaVuSans-30"/>
       <use xlink:href="#DejaVuSans-2e" x="63.623047"/>
       <use xlink:href="#DejaVuSans-36" x="95.410156"/>
      </g>
     </g>
    </g>
    <g id="ytick_5">
     <g id="line2d_34">
      <g>
       <use xlink:href="#mdda62ff037" x="63.869375" y="71.725052" style="stroke: #000000; stroke-width: 0.8"/>
      </g>
     </g>
     <g id="text_9">
      <!-- 0.8 -->
      <g transform="translate(34.605 77.043958)scale(0.14 -0.14)">
       <defs>
        <path id="DejaVuSans-38" d="M 2034 2216 
Q 1584 2216 1326 1975 
Q 1069 1734 1069 1313 
Q 1069 891 1326 650 
Q 1584 409 2034 409 
Q 2484 409 2743 651 
Q 3003 894 3003 1313 
Q 3003 1734 2745 1975 
Q 2488 2216 2034 2216 
z
M 1403 2484 
Q 997 2584 770 2862 
Q 544 3141 544 3541 
Q 544 4100 942 4425 
Q 1341 4750 2034 4750 
Q 2731 4750 3128 4425 
Q 3525 4100 3525 3541 
Q 3525 3141 3298 2862 
Q 3072 2584 2669 2484 
Q 3125 2378 3379 2068 
Q 3634 1759 3634 1313 
Q 3634 634 3220 271 
Q 2806 -91 2034 -91 
Q 1263 -91 848 271 
Q 434 634 434 1313 
Q 434 1759 690 2068 
Q 947 2378 1403 2484 
z
M 1172 3481 
Q 1172 3119 1398 2916 
Q 1625 2713 2034 2713 
Q 2441 2713 2670 2916 
Q 2900 3119 2900 3481 
Q 2900 3844 2670 4047 
Q 2441 4250 2034 4250 
Q 1625 4250 1398 4047 
Q 1172 3844 1172 3481 
z
" transform="scale(0.015625)"/>
       </defs>
       <use xlink:href="#DejaVuSans-30"/>
       <use xlink:href="#DejaVuSans-2e" x="63.623047"/>
       <use xlink:href="#DejaVuSans-38" x="95.410156"/>
      </g>
     </g>
    </g>
    <g id="ytick_6">
     <g id="line2d_35">
      <g>
       <use xlink:href="#mdda62ff037" x="63.869375" y="22.444909" style="stroke: #000000; stroke-width: 0.8"/>
      </g>
     </g>
     <g id="text_10">
      <!-- 1.0 -->
      <g transform="translate(34.605 27.763815)scale(0.14 -0.14)">
       <use xlink:href="#DejaVuSans-31"/>
       <use xlink:href="#DejaVuSans-2e" x="63.623047"/>
       <use xlink:href="#DejaVuSans-30" x="95.410156"/>
      </g>
     </g>
    </g>
    <g id="text_11">
     <!-- Normalized response -->
     <g transform="translate(27.2775 226.226562)rotate(-90)scale(0.16 -0.16)">
      <defs>
       <path id="DejaVuSans-4e" d="M 628 4666 
L 1478 4666 
L 3547 763 
L 3547 4666 
L 4159 4666 
L 4159 0 
L 3309 0 
L 1241 3903 
L 1241 0 
L 628 0 
L 628 4666 
z
" transform="scale(0.015625)"/>
       <path id="DejaVuSans-7a" d="M 353 3500 
L 3084 3500 
L 3084 2975 
L 922 459 
L 3084 459 
L 3084 0 
L 275 0 
L 275 525 
L 2438 3041 
L 353 3041 
L 353 3500 
z
" transform="scale(0.015625)"/>
       <path id="DejaVuSans-64" d="M 2906 2969 
L 2906 4863 
L 3481 4863 
L 3481 0 
L 2906 0 
L 2906 525 
Q 2725 213 2448 61 
Q 2172 -91 1784 -91 
Q 1150 -91 751 415 
Q 353 922 353 1747 
Q 353 2572 751 3078 
Q 1150 3584 1784 3584 
Q 2172 3584 2448 3432 
Q 2725 3281 2906 2969 
z
M 947 1747 
Q 947 1113 1208 752 
Q 1469 391 1925 391 
Q 2381 391 2643 752 
Q 2906 1113 2906 1747 
Q 2906 2381 2643 2742 
Q 2381 3103 1925 3103 
Q 1469 3103 1208 2742 
Q 947 2381 947 1747 
z
" transform="scale(0.015625)"/>
       <path id="DejaVuSans-73" d="M 2834 3397 
L 2834 2853 
Q 2591 2978 2328 3040 
Q 2066 3103 1784 3103 
Q 1356 3103 1142 2972 
Q 928 2841 928 2578 
Q 928 2378 1081 2264 
Q 1234 2150 1697 2047 
L 1894 2003 
Q 2506 1872 2764 1633 
Q 3022 1394 3022 966 
Q 3022 478 2636 193 
Q 2250 -91 1575 -91 
Q 1294 -91 989 -36 
Q 684 19 347 128 
L 347 722 
Q 666 556 975 473 
Q 1284 391 1588 391 
Q 1994 391 2212 530 
Q 2431 669 2431 922 
Q 2431 1156 2273 1281 
Q 2116 1406 1581 1522 
L 1381 1569 
Q 847 1681 609 1914 
Q 372 2147 372 2553 
Q 372 3047 722 3315 
Q 1072 3584 1716 3584 
Q 2034 3584 2315 3537 
Q 2597 3491 2834 3397 
z
" transform="scale(0.015625)"/>
       <path id="DejaVuSans-70" d="M 1159 525 
L 1159 -1331 
L 581 -1331 
L 581 3500 
L 1159 3500 
L 1159 2969 
Q 1341 3281 1617 3432 
Q 1894 3584 2278 3584 
Q 2916 3584 3314 3078 
Q 3713 2572 3713 1747 
Q 3713 922 3314 415 
Q 2916 -91 2278 -91 
Q 1894 -91 1617 61 
Q 1341 213 1159 525 
z
M 3116 1747 
Q 3116 2381 2855 2742 
Q 2594 3103 2138 3103 
Q 1681 3103 1420 2742 
Q 1159 2381 1159 1747 
Q 1159 1113 1420 752 
Q 1681 391 2138 391 
Q 2594 391 2855 752 
Q 3116 1113 3116 1747 
z
" transform="scale(0.015625)"/>
      </defs>
      <use xlink:href="#DejaVuSans-4e"/>
      <use xlink:href="#DejaVuSans-6f" x="74.804688"/>
      <use xlink:href="#DejaVuSans-72" x="135.986328"/>
      <use xlink:href="#DejaVuSans-6d" x="175.349609"/>
      <use xlink:href="#DejaVuSans-61" x="272.761719"/>
      <use xlink:href="#DejaVuSans-6c" x="334.041016"/>
      <use xlink:href="#DejaVuSans-69" x="361.824219"/>
      <use xlink:href="#DejaVuSans-7a" x="389.607422"/>
      <use xlink:href="#DejaVuSans-65" x="442.097656"/>
      <use xlink:href="#DejaVuSans-64" x="503.621094"/>
      <use xlink:href="#DejaVuSans-20" x="567.097656"/>
      <use xlink:href="#DejaVuSans-72" x="598.884766"/>
      <use xlink:href="#DejaVuSans-65" x="637.748047"/>
      <use xlink:href="#DejaVuSans-73" x="699.271484"/>
      <use xlink:href="#DejaVuSans-70" x="751.371094"/>
      <use xlink:href="#DejaVuSans-6f" x="814.847656"/>
      <use xlink:href="#DejaVuSans-6e" x="876.029297"/>
      <use xlink:href="#DejaVuSans-73" x="939.408203"/>
      <use xlink:href="#DejaVuSans-65" x="991.507812"/>
     </g>
    </g>
   </g>
   <g id="line2d_36">
    <path d="M 86.460767 168.943085 
L 91.024685 168.936359 
L 95.588602 168.928627 
L 100.15252 168.919739 
L 104.716437 168.909521 
L 109.280355 168.897775 
L 113.844273 168.884272 
L 118.40819 168.868752 
L 122.972108 168.850911 
L 127.536025 168.830406 
L 132.099943 168.806838 
L 136.66386 168.779753 
L 141.227778 168.748625 
L 145.791696 168.712856 
L 150.355613 168.671757 
L 154.919531 168.624537 
L 159.483448 168.57029 
L 164.047366 168.50798 
L 168.611284 168.436417 
L 173.175201 168.354241 
L 177.739119 168.259896 
L 182.303036 168.151603 
L 186.866954 168.02733 
L 191.430871 167.884761 
L 195.994789 167.721253 
L 200.558707 167.533801 
L 205.122624 167.31899 
L 209.686542 167.072945 
L 214.250459 166.79128 
L 218.814377 166.469042 
L 223.378295 166.100648 
L 227.942212 165.679832 
L 232.50613 165.199577 
L 237.070047 164.652062 
L 241.633965 164.028609 
L 246.197883 163.319637 
L 250.7618 162.514633 
L 255.325718 161.602143 
L 259.889635 160.569787 
L 264.453553 159.404309 
L 269.01747 158.091675 
L 273.581388 156.617217 
L 278.145306 154.96584 
L 282.709223 153.12231 
L 287.273141 151.071607 
L 291.837058 148.799375 
L 296.400976 146.292445 
L 300.964894 143.539451 
L 305.528811 140.531503 
L 310.092729 137.262912 
L 314.656646 133.731932 
L 319.220564 129.94148 
L 323.784481 125.899771 
L 328.348399 121.620828 
L 332.912317 117.124798 
L 337.476234 112.437996 
L 342.040152 107.592665 
L 346.604069 102.626393 
L 351.167987 97.581187 
L 355.731905 92.502251 
L 360.295822 87.4365 
L 364.85974 82.430939 
L 369.423657 77.530971 
L 373.987575 72.778814 
L 378.551492 68.2121 
L 383.11541 63.862747 
L 387.679328 59.756219 
L 392.243245 55.911145 
L 396.807163 52.339325 
L 401.37108 49.046059 
L 405.934998 46.030761 
L 410.498916 43.28775 
L 415.062833 40.807163 
L 419.626751 38.575915 
L 424.190668 36.578591 
L 428.754586 34.798322 
L 433.318504 33.217501 
L 437.882421 31.818395 
L 442.446339 30.583631 
L 447.010256 29.496563 
L 451.574174 28.541514 
L 456.138091 27.703904 
L 460.702009 26.970366 
L 465.265927 26.328752 
L 469.829844 25.768097 
L 474.393762 25.278586 
L 478.957679 24.851534 
L 483.521597 24.479117 
L 488.085515 24.154526 
L 492.649432 23.871696 
L 497.21335 23.625383 
L 501.777267 23.410878 
L 506.341185 23.224126 
L 510.905102 23.06156 
L 515.46902 22.920082 
L 520.032938 22.796951 
L 524.596855 22.689802 
L 529.160773 22.59658 
L 533.72469 22.515475 
L 538.288608 22.444909 
" clip-path="url(#p0819c28779)" style="fill: none; stroke: #fba649; stroke-width: 2; stroke-linecap: square"/>
   </g>
   <g id="line2d_37">
    <path d="M 86.460767 156.323334 
L 91.024685 156.319074 
L 95.588602 156.314176 
L 100.15252 156.308545 
L 104.716437 156.302071 
L 109.280355 156.294627 
L 113.844273 156.286068 
L 118.40819 156.276229 
L 122.972108 156.264916 
L 127.536025 156.25191 
L 132.099943 156.236957 
L 136.66386 156.219766 
L 141.227778 156.200002 
L 145.791696 156.177277 
L 150.355613 156.151156 
L 154.919531 156.121126 
L 159.483448 156.086603 
L 164.047366 156.046917 
L 168.611284 156.001296 
L 173.175201 155.948856 
L 177.739119 155.888575 
L 182.303036 155.819285 
L 186.866954 155.739644 
L 191.430871 155.64811 
L 195.994789 155.542912 
L 200.558707 155.422016 
L 205.122624 155.283092 
L 209.686542 155.123464 
L 214.250459 154.940059 
L 218.814377 154.729361 
L 223.378295 154.487335 
L 227.942212 154.209359 
L 232.50613 153.890142 
L 237.070047 153.523619 
L 241.633965 153.102873 
L 246.197883 152.619986 
L 250.7618 152.065915 
L 255.325718 151.430351 
L 259.889635 150.701547 
L 264.453553 149.86615 
L 269.01747 148.908998 
L 273.581388 147.812936 
L 278.145306 146.558607 
L 282.709223 145.124284 
L 287.273141 143.485708 
L 291.837058 141.616046 
L 296.400976 139.485922 
L 300.964894 137.063755 
L 305.528811 134.316308 
L 310.092729 131.209817 
L 314.656646 127.711727 
L 319.220564 123.793316 
L 323.784481 119.433336 
L 328.348399 114.622675 
L 332.912317 109.369907 
L 337.476234 103.706879 
L 342.040152 97.693358 
L 346.604069 91.418861 
L 351.167987 85.000322 
L 355.731905 78.574319 
L 360.295822 72.284653 
L 364.85974 66.267458 
L 369.423657 60.637191 
L 373.987575 55.476876 
L 378.551492 50.834214 
L 383.11541 46.723561 
L 387.679328 43.131933 
L 392.243245 40.026834 
L 396.807163 37.364039 
L 401.37108 35.094044 
L 405.934998 33.166797 
L 410.498916 31.534791 
L 415.062833 30.154737 
L 419.626751 28.988316 
L 424.190668 28.002266 
L 428.754586 27.168113 
L 433.318504 26.461711 
L 437.882421 25.862707 
L 442.446339 25.354026 
L 447.010256 24.921362 
L 451.574174 24.552774 
L 456.138091 24.238259 
L 460.702009 23.969458 
L 465.265927 23.739374 
L 469.829844 23.542132 
L 474.393762 23.372811 
L 478.957679 23.227274 
L 483.521597 23.10202 
L 488.085515 22.994104 
L 492.649432 22.901028 
L 497.21335 22.820673 
L 501.777267 22.751255 
L 506.341185 22.691229 
L 510.905102 22.639293 
L 515.46902 22.594322 
L 520.032938 22.555366 
L 524.596855 22.521609 
L 529.160773 22.492333 
L 533.72469 22.466939 
L 538.288608 22.444909 
" clip-path="url(#p0819c28779)" style="fill: none; stroke: #45c4af; stroke-width: 2; stroke-linecap: square"/>
   </g>
   <g id="line2d_38">
    <defs>
     <path id="m289fddf7a9" d="M 0 2.5 
C 0.663008 2.5 1.29895 2.236584 1.767767 1.767767 
C 2.236584 1.29895 2.5 0.663008 2.5 0 
C 2.5 -0.663008 2.236584 -1.29895 1.767767 -1.767767 
C 1.29895 -2.236584 0.663008 -2.5 0 -2.5 
C -0.663008 -2.5 -1.29895 -2.236584 -1.767767 -1.767767 
C -2.236584 -1.29895 -2.5 -0.663008 -2.5 0 
C -2.5 0.663008 -2.236584 1.29895 -1.767767 1.767767 
C -1.29895 2.236584 -0.663008 2.5 0 2.5 
z
" style="stroke: #ff0000"/>
    </defs>
    <g clip-path="url(#p0819c28779)">
     <use xlink:href="#m289fddf7a9" x="255.250226" y="161.618176" style="fill: #ff0000; stroke: #ff0000"/>
     <use xlink:href="#m289fddf7a9" x="265.641388" y="149.629413" style="fill: #ff0000; stroke: #ff0000"/>
    </g>
   </g>
   <g id="line2d_39">
    <g clip-path="url(#p0819c28779)">
     <use xlink:href="#m289fddf7a9" x="352.865136" y="95.693997" style="fill: #ff0000; stroke: #ff0000"/>
     <use xlink:href="#m289fddf7a9" x="348.057619" y="89.384122" style="fill: #ff0000; stroke: #ff0000"/>
    </g>
   </g>
   <g id="line2d_40">
    <g clip-path="url(#p0819c28779)">
     <use xlink:href="#m289fddf7a9" x="445.80648" y="29.769818" style="fill: #ff0000; stroke: #ff0000"/>
     <use xlink:href="#m289fddf7a9" x="418.992777" y="29.13883" style="fill: #ff0000; stroke: #ff0000"/>
    </g>
   </g>
   <g id="line2d_41">
    <path d="M 338.895665 268.845625 
L 338.895665 15.12 
" clip-path="url(#p0819c28779)" style="fill: none; stroke-dasharray: 6,6; stroke-dashoffset: 2; stroke: #4d8b31; stroke-width: 2"/>
   </g>
   <g id="line2d_42">
    <path d="M 384.233576 268.845625 
L 384.233576 15.12 
" clip-path="url(#p0819c28779)" style="fill: none; stroke-dasharray: 6,6; stroke-dashoffset: 2; stroke: #4d8b31; stroke-width: 2"/>
   </g>
   <g id="line2d_43">
    <path d="M 462.983968 268.845625 
L 462.983968 15.12 
" clip-path="url(#p0819c28779)" style="fill: none; stroke-dasharray: 6,6; stroke-dashoffset: 2; stroke: #ec6c5f; stroke-width: 2"/>
   </g>
   <g id="line2d_44">
    <path d="M 522.917426 268.845625 
L 522.917426 15.12 
" clip-path="url(#p0819c28779)" style="fill: none; stroke-dasharray: 6,6; stroke-dashoffset: 2; stroke: #ec6c5f; stroke-width: 2"/>
   </g>
   <g id="patch_5">
    <path d="M 63.869375 268.845625 
L 63.869375 15.12 
" style="fill: none; stroke: #000000; stroke-width: 0.8; stroke-linejoin: miter; stroke-linecap: square"/>
   </g>
   <g id="patch_6">
    <path d="M 560.88 268.845625 
L 560.88 15.12 
" style="fill: none; stroke: #000000; stroke-width: 0.8; stroke-linejoin: miter; stroke-linecap: square"/>
   </g>
   <g id="patch_7">
    <path d="M 63.869375 268.845625 
L 560.88 268.845625 
" style="fill: none; stroke: #000000; stroke-width: 0.8; stroke-linejoin: miter; stroke-linecap: square"/>
   </g>
   <g id="patch_8">
    <path d="M 63.869375 15.12 
L 560.88 15.12 
" style="fill: none; stroke: #000000; stroke-width: 0.8; stroke-linejoin: miter; stroke-linecap: square"/>
   </g>
   <g id="legend_1">
    <g id="patch_9">
     <path d="M 73.669375 108.5175 
L 278.33625 108.5175 
Q 281.13625 108.5175 281.13625 105.7175 
L 281.13625 24.92 
Q 281.13625 22.12 278.33625 22.12 
L 73.669375 22.12 
Q 70.869375 22.12 70.869375 24.92 
L 70.869375 105.7175 
Q 70.869375 108.5175 73.669375 108.5175 
z
" style="fill: #ffffff; opacity: 0.8; stroke: #cccccc; stroke-linejoin: miter"/>
    </g>
    <g id="patch_10">
     <path d="M 76.469375 38.357813 
L 104.469375 38.357813 
L 104.469375 28.557813 
L 76.469375 28.557813 
z
" style="fill: #4d8b31; opacity: 0.3; stroke: #4d8b31; stroke-linejoin: miter"/>
    </g>
    <g id="text_12">
     <!-- Healthy -->
     <g transform="translate(115.669375 38.357813)scale(0.14 -0.14)">
      <defs>
       <path id="DejaVuSans-48" d="M 628 4666 
L 1259 4666 
L 1259 2753 
L 3553 2753 
L 3553 4666 
L 4184 4666 
L 4184 0 
L 3553 0 
L 3553 2222 
L 1259 2222 
L 1259 0 
L 628 0 
L 628 4666 
z
" transform="scale(0.015625)"/>
       <path id="DejaVuSans-68" d="M 3513 2113 
L 3513 0 
L 2938 0 
L 2938 2094 
Q 2938 2591 2744 2837 
Q 2550 3084 2163 3084 
Q 1697 3084 1428 2787 
Q 1159 2491 1159 1978 
L 1159 0 
L 581 0 
L 581 4863 
L 1159 4863 
L 1159 2956 
Q 1366 3272 1645 3428 
Q 1925 3584 2291 3584 
Q 2894 3584 3203 3211 
Q 3513 2838 3513 2113 
z
" transform="scale(0.015625)"/>
       <path id="DejaVuSans-79" d="M 2059 -325 
Q 1816 -950 1584 -1140 
Q 1353 -1331 966 -1331 
L 506 -1331 
L 506 -850 
L 844 -850 
Q 1081 -850 1212 -737 
Q 1344 -625 1503 -206 
L 1606 56 
L 191 3500 
L 800 3500 
L 1894 763 
L 2988 3500 
L 3597 3500 
L 2059 -325 
z
" transform="scale(0.015625)"/>
      </defs>
      <use xlink:href="#DejaVuSans-48"/>
      <use xlink:href="#DejaVuSans-65" x="75.195312"/>
      <use xlink:href="#DejaVuSans-61" x="136.71875"/>
      <use xlink:href="#DejaVuSans-6c" x="197.998047"/>
      <use xlink:href="#DejaVuSans-74" x="225.78125"/>
      <use xlink:href="#DejaVuSans-68" x="264.990234"/>
      <use xlink:href="#DejaVuSans-79" x="328.369141"/>
     </g>
    </g>
    <g id="patch_11">
     <path d="M 76.469375 58.907188 
L 104.469375 58.907188 
L 104.469375 49.107188 
L 76.469375 49.107188 
z
" style="fill: #ec6c5f; opacity: 0.3; stroke: #ec6c5f; stroke-linejoin: miter"/>
    </g>
    <g id="text_13">
     <!-- Cancer -->
     <g transform="translate(115.669375 58.907188)scale(0.14 -0.14)">
      <defs>
       <path id="DejaVuSans-43" d="M 4122 4306 
L 4122 3641 
Q 3803 3938 3442 4084 
Q 3081 4231 2675 4231 
Q 1875 4231 1450 3742 
Q 1025 3253 1025 2328 
Q 1025 1406 1450 917 
Q 1875 428 2675 428 
Q 3081 428 3442 575 
Q 3803 722 4122 1019 
L 4122 359 
Q 3791 134 3420 21 
Q 3050 -91 2638 -91 
Q 1578 -91 968 557 
Q 359 1206 359 2328 
Q 359 3453 968 4101 
Q 1578 4750 2638 4750 
Q 3056 4750 3426 4639 
Q 3797 4528 4122 4306 
z
" transform="scale(0.015625)"/>
      </defs>
      <use xlink:href="#DejaVuSans-43"/>
      <use xlink:href="#DejaVuSans-61" x="69.824219"/>
      <use xlink:href="#DejaVuSans-6e" x="131.103516"/>
      <use xlink:href="#DejaVuSans-63" x="194.482422"/>
      <use xlink:href="#DejaVuSans-65" x="249.462891"/>
      <use xlink:href="#DejaVuSans-72" x="310.986328"/>
     </g>
    </g>
    <g id="line2d_45">
     <path d="M 76.469375 74.556563 
L 90.469375 74.556563 
L 104.469375 74.556563 
" style="fill: none; stroke: #fba649; stroke-width: 2; stroke-linecap: square"/>
    </g>
    <g id="text_14">
     <!-- Without asRNA system -->
     <g transform="translate(115.669375 79.456563)scale(0.14 -0.14)">
      <defs>
       <path id="DejaVuSans-57" d="M 213 4666 
L 850 4666 
L 1831 722 
L 2809 4666 
L 3519 4666 
L 4500 722 
L 5478 4666 
L 6119 4666 
L 4947 0 
L 4153 0 
L 3169 4050 
L 2175 0 
L 1381 0 
L 213 4666 
z
" transform="scale(0.015625)"/>
       <path id="DejaVuSans-75" d="M 544 1381 
L 544 3500 
L 1119 3500 
L 1119 1403 
Q 1119 906 1312 657 
Q 1506 409 1894 409 
Q 2359 409 2629 706 
Q 2900 1003 2900 1516 
L 2900 3500 
L 3475 3500 
L 3475 0 
L 2900 0 
L 2900 538 
Q 2691 219 2414 64 
Q 2138 -91 1772 -91 
Q 1169 -91 856 284 
Q 544 659 544 1381 
z
M 1991 3584 
L 1991 3584 
z
" transform="scale(0.015625)"/>
       <path id="DejaVuSans-52" d="M 2841 2188 
Q 3044 2119 3236 1894 
Q 3428 1669 3622 1275 
L 4263 0 
L 3584 0 
L 2988 1197 
Q 2756 1666 2539 1819 
Q 2322 1972 1947 1972 
L 1259 1972 
L 1259 0 
L 628 0 
L 628 4666 
L 2053 4666 
Q 2853 4666 3247 4331 
Q 3641 3997 3641 3322 
Q 3641 2881 3436 2590 
Q 3231 2300 2841 2188 
z
M 1259 4147 
L 1259 2491 
L 2053 2491 
Q 2509 2491 2742 2702 
Q 2975 2913 2975 3322 
Q 2975 3731 2742 3939 
Q 2509 4147 2053 4147 
L 1259 4147 
z
" transform="scale(0.015625)"/>
       <path id="DejaVuSans-41" d="M 2188 4044 
L 1331 1722 
L 3047 1722 
L 2188 4044 
z
M 1831 4666 
L 2547 4666 
L 4325 0 
L 3669 0 
L 3244 1197 
L 1141 1197 
L 716 0 
L 50 0 
L 1831 4666 
z
" transform="scale(0.015625)"/>
      </defs>
      <use xlink:href="#DejaVuSans-57"/>
      <use xlink:href="#DejaVuSans-69" x="96.626953"/>
      <use xlink:href="#DejaVuSans-74" x="124.410156"/>
      <use xlink:href="#DejaVuSans-68" x="163.619141"/>
      <use xlink:href="#DejaVuSans-6f" x="226.998047"/>
      <use xlink:href="#DejaVuSans-75" x="288.179688"/>
      <use xlink:href="#DejaVuSans-74" x="351.558594"/>
      <use xlink:href="#DejaVuSans-20" x="390.767578"/>
      <use xlink:href="#DejaVuSans-61" x="422.554688"/>
      <use xlink:href="#DejaVuSans-73" x="483.833984"/>
      <use xlink:href="#DejaVuSans-52" x="535.933594"/>
      <use xlink:href="#DejaVuSans-4e" x="605.416016"/>
      <use xlink:href="#DejaVuSans-41" x="680.220703"/>
      <use xlink:href="#DejaVuSans-20" x="748.628906"/>
      <use xlink:href="#DejaVuSans-73" x="780.416016"/>
      <use xlink:href="#DejaVuSans-79" x="832.515625"/>
      <use xlink:href="#DejaVuSans-73" x="891.695312"/>
      <use xlink:href="#DejaVuSans-74" x="943.794922"/>
      <use xlink:href="#DejaVuSans-65" x="983.003906"/>
      <use xlink:href="#DejaVuSans-6d" x="1044.527344"/>
     </g>
    </g>
    <g id="line2d_46">
     <path d="M 76.469375 95.105938 
L 90.469375 95.105938 
L 104.469375 95.105938 
" style="fill: none; stroke: #45c4af; stroke-width: 2; stroke-linecap: square"/>
    </g>
    <g id="text_15">
     <!-- asRNA system -->
     <g transform="translate(115.669375 100.005938)scale(0.14 -0.14)">
      <use xlink:href="#DejaVuSans-61"/>
      <use xlink:href="#DejaVuSans-73" x="61.279297"/>
      <use xlink:href="#DejaVuSans-52" x="113.378906"/>
      <use xlink:href="#DejaVuSans-4e" x="182.861328"/>
      <use xlink:href="#DejaVuSans-41" x="257.666016"/>
      <use xlink:href="#DejaVuSans-20" x="326.074219"/>
      <use xlink:href="#DejaVuSans-73" x="357.861328"/>
      <use xlink:href="#DejaVuSans-79" x="409.960938"/>
      <use xlink:href="#DejaVuSans-73" x="469.140625"/>
      <use xlink:href="#DejaVuSans-74" x="521.240234"/>
      <use xlink:href="#DejaVuSans-65" x="560.449219"/>
      <use xlink:href="#DejaVuSans-6d" x="621.972656"/>
     </g>
    </g>
   </g>
  </g>
 </g>
 <defs>
  <clipPath id="p0819c28779">
   <rect x="63.869375" y="15.12" width="497.010625" height="253.725625"/>
  </clipPath>
 </defs>
</svg>
